<svg id="Layer_1" data-name="Layer 1" xmlns="http://www.w3.org/2000/svg" viewBox="0 0 128.59 14.67"><defs><style>.cls-1{fill:#ffb800;stroke:#ffb800;}.cls-1,.cls-2{stroke-linejoin:round;stroke-width:2px;}.cls-2{fill:#d1d1d1;stroke:#d1d1d1;}</style></defs><path class="cls-1" d="M326.58,31.27l-2,4.16-4.63.67,3.36,3.28-.81,4.56,4.12-2.2,4.11,2.2-.79-4.56,3.35-3.28-4.61-.67Z" transform="translate(-318.91 -30.27)"/><path class="cls-1" d="M354.89,31.27l-2,4.16-4.63.67,3.35,3.28-.8,4.56,4.11-2.2,4.12,2.2-.8-4.56,3.35-3.28-4.6-.67Z" transform="translate(-318.91 -30.27)"/><path class="cls-1" d="M383.21,31.27l-2,4.16-4.63.67,3.35,3.28-.8,4.56,4.12-2.2,4.11,2.2-.79-4.56,3.34-3.28-4.6-.67Z" transform="translate(-318.91 -30.27)"/><path class="cls-1" d="M411.52,31.27l-2,4.16-4.63.67,3.36,3.28-.8,4.56,4.11-2.2,4.12,2.2-.8-4.56,3.35-3.28-4.6-.67Z" transform="translate(-318.91 -30.27)"/><path class="cls-2" d="M439.83,31.27l-2,4.16-4.63.67,3.35,3.28-.8,4.56,4.11-2.2,4.12,2.2-.8-4.56,3.35-3.28-4.6-.67Z" transform="translate(-318.91 -30.27)"/></svg>