<svg width="20" height="20" viewBox="0 0 20 20" fill="none" xmlns="http://www.w3.org/2000/svg">
<path fill-rule="evenodd" clip-rule="evenodd" d="M13.636 7.27269C13.636 9.28097 12.0079 10.9091 9.99964 10.9091C7.99134 10.9091 6.36328 9.28097 6.36328 7.27269C6.36328 5.26438 7.99134 3.63633 9.99964 3.63633C12.0079 3.63633 13.636 5.26438 13.636 7.27269ZM11.8178 7.27269C11.8178 8.27688 11.0038 9.09088 9.99964 9.09088C8.99546 9.09088 8.18146 8.27688 8.18146 7.27269C8.18146 6.26854 8.99546 5.45451 9.99964 5.45451C11.0038 5.45451 11.8178 6.26854 11.8178 7.27269Z" fill="#8B8F8E"/>
<path fill-rule="evenodd" clip-rule="evenodd" d="M10 0C4.47715 0 0 4.47715 0 10C0 15.5228 4.47715 20 10 20C15.5228 20 20 15.5228 20 10C20 4.47715 15.5228 0 10 0ZM1.81818 10C1.81818 11.9002 2.46595 13.6491 3.55271 15.0379C5.04768 13.0808 7.4057 11.8182 10.0586 11.8182C12.6771 11.8182 15.0084 13.0483 16.5059 14.9621C17.5573 13.5857 18.1818 11.8658 18.1818 10C18.1818 5.48131 14.5187 1.81818 10 1.81818C5.48131 1.81818 1.81818 5.48131 1.81818 10ZM10 18.1818C8.04525 18.1818 6.25059 17.4963 4.84334 16.3525C5.99411 14.7102 7.90096 13.6364 10.0586 13.6364C12.1895 13.6364 14.0757 14.6837 15.2307 16.2917C13.8126 17.4719 11.9892 18.1818 10 18.1818Z" fill="#8B8F8E"/>
</svg>
