<svg width="9" height="8" viewBox="0 0 9 8" fill="none" xmlns="http://www.w3.org/2000/svg">
<path d="M0 3.87006C0 3.68021 0.141077 3.52331 0.324115 3.49848L0.375 3.49506L7.875 3.49506C8.08211 3.49506 8.25 3.66295 8.25 3.87006C8.25 4.0599 8.10892 4.2168 7.92589 4.24163L7.875 4.24506L0.375 4.24506C0.167893 4.24506 0 4.07716 0 3.87006Z" fill="#55B1F1"/>
<path d="M4.5855 1.12359C4.43874 0.977458 4.43823 0.740022 4.58436 0.59326C4.71721 0.459841 4.92551 0.447289 5.07255 0.5559L5.11469 0.592118L8.13969 3.60412C8.27351 3.73736 8.28568 3.94642 8.17621 4.09346L8.13971 4.13557L5.11471 7.14807C4.96796 7.29421 4.73053 7.29372 4.58438 7.14697C4.45153 7.01356 4.43986 6.80521 4.54909 6.65863L4.58548 6.61664L7.3435 3.8697L4.5855 1.12359Z" fill="#55B1F1"/>
</svg>
