<svg width="24" height="24" viewBox="0 0 24 24" fill="none" xmlns="http://www.w3.org/2000/svg">
<path d="M21 3H3C1.9 3 1 3.9 1 5V13H3V5H21V21C22.1 21 23 20.1 23 19V5C23 3.9 22.1 3 21 3Z" fill="#238265"/>
<path d="M9 14C11.2091 14 13 12.2091 13 10C13 7.79086 11.2091 6 9 6C6.79086 6 5 7.79086 5 10C5 12.2091 6.79086 14 9 14Z" fill="#238265"/>
<path d="M15.3901 16.56C13.7101 15.7 11.5301 15 9.00006 15C6.47007 15 4.29006 15.7 2.61006 16.56C2.12212 16.8113 1.71337 17.1929 1.42916 17.6625C1.14496 18.132 0.996435 18.6712 1.00006 19.22V22H17.0001V19.22C17.0001 18.1 16.3901 17.07 15.3901 16.56Z" fill="#238265"/>
</svg>
