<svg width="20" height="20" viewBox="0 0 20 20" fill="none" xmlns="http://www.w3.org/2000/svg">
<path d="M8.75 10.3688L7.57187 9.19062C7.32852 8.94727 6.93398 8.94727 6.69063 9.19062C6.44727 9.43398 6.44727 9.82852 6.69063 10.0719L8.75 12.1312L13.3094 7.57187C13.5527 7.32852 13.5527 6.93398 13.3094 6.69062C13.066 6.44727 12.6715 6.44727 12.4281 6.69063L8.75 10.3688Z" fill="#8B8F8E"/>
<path d="M8.75 10.3688L8.57322 10.5455L8.75 10.7223L8.92678 10.5455L8.75 10.3688ZM8.75 12.1312L8.57322 12.308L8.75 12.4848L8.92678 12.308L8.75 12.1312ZM6.69063 10.0719L6.51385 10.2487L6.69063 10.0719ZM8.92678 10.192L7.74865 9.01385L7.3951 9.3674L8.57322 10.5455L8.92678 10.192ZM6.51385 10.2487L8.57322 12.308L8.92678 11.9545L6.8674 9.8951L6.51385 10.2487ZM8.92678 12.308L13.4862 7.74865L13.1326 7.3951L8.57322 11.9545L8.92678 12.308ZM12.2513 6.51385L8.57322 10.192L8.92678 10.5455L12.6049 6.8674L12.2513 6.51385ZM13.4862 6.51385C13.1452 6.17287 12.5923 6.17287 12.2513 6.51385L12.6049 6.8674C12.7506 6.72168 12.9869 6.72168 13.1326 6.8674L13.4862 6.51385ZM13.4862 7.74865C13.8271 7.40767 13.8271 6.85483 13.4862 6.51385L13.1326 6.8674C13.2783 7.01312 13.2783 7.24938 13.1326 7.3951L13.4862 7.74865ZM6.51385 9.01385C6.17287 9.35483 6.17287 9.90767 6.51385 10.2487L6.8674 9.8951C6.72168 9.74938 6.72168 9.51312 6.8674 9.3674L6.51385 9.01385ZM7.74865 9.01385C7.40767 8.67287 6.85483 8.67287 6.51385 9.01385L6.8674 9.3674C7.01312 9.22168 7.24938 9.22168 7.3951 9.3674L7.74865 9.01385Z" fill="#8B8F8E"/>
<path d="M10 18.75L6.14013 16.6919C5.03967 16.1065 4.1194 15.2325 3.4781 14.1636C2.8368 13.0948 2.49867 11.8715 2.5 10.625V2.5C2.50035 2.16859 2.63216 1.85085 2.8665 1.6165C3.10085 1.38216 3.41859 1.25035 3.75 1.25H16.25C16.5814 1.25035 16.8992 1.38216 17.1335 1.6165C17.3678 1.85085 17.4997 2.16859 17.5 2.5V10.625C17.5013 11.8715 17.1632 13.0948 16.5219 14.1636C15.8806 15.2325 14.9603 16.1065 13.8599 16.6919L10 18.75ZM3.75 2.5V10.625C3.74892 11.6449 4.0256 12.6458 4.55034 13.5203C5.07509 14.3949 5.82808 15.11 6.7285 15.5889L10 17.3333L13.2715 15.5889C14.1719 15.11 14.9249 14.3949 15.4497 13.5203C15.9744 12.6458 16.2511 11.6449 16.25 10.625V2.5H3.75Z" fill="#8B8F8E" stroke="#8B8F8E" stroke-width="0.5"/>
</svg>
