<svg width="19" height="18" viewBox="0 0 19 18" fill="none" xmlns="http://www.w3.org/2000/svg">
<g clip-path="url(#clip0_758_63878)">
<path d="M4.48918 10.8776L3.86263 13.2166L1.57258 13.2651C0.888195 11.9957 0.5 10.5434 0.5 9.00001C0.5 7.50759 0.862953 6.10021 1.50631 4.86099H1.5068L3.54559 5.23477L4.4387 7.26132C4.25177 7.80628 4.14989 8.39128 4.14989 9.00001C4.14996 9.66066 4.26963 10.2937 4.48918 10.8776Z" fill="#FBBB00"/>
<path d="M18.3422 7.31866C18.4455 7.86309 18.4994 8.42535 18.4994 8.99998C18.4994 9.64432 18.4317 10.2728 18.3026 10.8791C17.8645 12.9422 16.7197 14.7437 15.1338 16.0185L15.1333 16.018L12.5654 15.887L12.2019 13.6182C13.2542 13.001 14.0766 12.0353 14.5098 10.8791H9.69727V7.31866H14.58H18.3422Z" fill="#518EF8"/>
<path d="M15.1336 16.018L15.1341 16.0185C13.5917 17.2582 11.6325 18 9.49968 18C6.07227 18 3.09239 16.0843 1.57227 13.2651L4.48886 10.8777C5.24891 12.9061 7.20567 14.3501 9.49968 14.3501C10.4857 14.3501 11.4095 14.0835 12.2021 13.6182L15.1336 16.018Z" fill="#28B446"/>
<path d="M15.2442 2.07197L12.3286 4.45894C11.5082 3.94615 10.5385 3.64992 9.49955 3.64992C7.15361 3.64992 5.16025 5.16013 4.43828 7.26131L1.50635 4.86098H1.50586C3.00373 1.97307 6.02119 0 9.49955 0C11.6833 0 13.6855 0.777867 15.2442 2.07197Z" fill="#F14336"/>
</g>
<defs>
<clipPath id="clip0_758_63878">
<rect width="18" height="18" fill="white" transform="translate(0.5)"/>
</clipPath>
</defs>
</svg>
