<svg width="188" height="188" viewBox="0 0 188 188" fill="none" xmlns="http://www.w3.org/2000/svg">
<circle cx="94" cy="94" r="94" fill="#CCE0FF" fill-opacity="0.61"/>
<path d="M152.514 141.969C145.14 136.133 132.525 121.653 149.136 98.918C169.677 70.8073 145.078 59.2742 121.496 60.4786C102.523 61.4462 81.1727 36.6104 59.8742 41.0491C31.6041 46.9426 49.9592 72.2926 30.7919 85.9537C14.4444 97.602 21.4616 133.095 42.7374 141.972H152.514V141.969Z" fill="#E8E8F9"/>
<path d="M155.717 128.308C156.779 127.6 157.445 126.399 157.555 125.09C157.802 122.137 157.792 115.279 152.403 115.09C149.131 114.974 146.939 121.024 148.823 124.951C150.437 128.328 153.381 129.86 155.717 128.308Z" fill="#E8E8F9"/>
<path d="M118.703 54.6324C118.703 54.6324 124.869 61.5712 131.091 56.9532C136.12 53.2182 130.041 48.0724 125.402 47.389C120.367 46.6447 114.639 49.6456 118.703 54.6324Z" fill="#E8E8F9"/>
<path d="M32.5183 77.736C32.5183 77.736 38.8598 71.379 34.4415 65.1878C30.8712 60.1808 26.1963 66.4159 25.6473 71.1117C25.0528 76.2068 27.9539 81.9311 32.5183 77.736Z" fill="#E8E8F9"/>
<path d="M93.7877 147.409C130.526 147.409 160.308 145.355 160.308 142.821C160.308 140.288 130.526 138.234 93.7877 138.234C57.0497 138.234 27.2676 140.288 27.2676 142.821C27.2676 145.355 57.0497 147.409 93.7877 147.409Z" fill="#E8E8F9"/>
<path d="M157.891 89.5941C154.815 94.7331 159.32 94.0328 157.084 97.8929C155.042 101.411 150.521 99.5372 152.29 106.523C152.678 108.053 151.857 109.45 150.492 110.39C148.243 111.94 145.654 111.618 143.796 110.197C143.645 110.082 143.498 109.961 143.36 109.832C141.892 108.482 141.014 106.388 141.383 104.02C141.681 102.098 142.504 100.078 144.475 98.8842C149.095 96.0796 144.856 89.7903 148.99 88.4844C153.975 86.9112 153.738 84.9084 156.766 81.4068C159.974 77.7023 162.063 82.6281 157.891 89.5941Z" fill="#0A9430"/>
<path d="M155.622 87.7267C155.536 87.8756 148.467 100.096 143.795 110.201C143.645 110.086 143.497 109.964 143.359 109.836C148.047 99.7234 155.074 87.5745 155.161 87.429C155.241 87.2937 155.407 87.2497 155.536 87.3343C155.66 87.4155 155.699 87.5914 155.622 87.7267Z" fill="#3700B3"/>
<path d="M161.897 103.35C156.498 108.702 162.323 109.362 158.36 113.408C154.745 117.096 149.692 113.222 149.76 122.522C149.776 124.556 148.33 126.017 146.341 126.724C143.069 127.888 139.942 126.609 138.064 124.207C137.91 124.014 137.766 123.811 137.631 123.602C136.215 121.423 135.763 118.517 136.943 115.692C137.901 113.401 139.541 111.168 142.358 110.35C148.965 108.431 145.604 99.1583 151.147 98.9417C157.831 98.6779 158.148 96.1033 162.987 92.7776C168.113 89.2524 169.213 96.0999 161.897 103.35Z" fill="#0A9430"/>
<path d="M159.637 100.254C159.486 100.41 146.958 113.219 138.06 124.207C137.906 124.014 137.762 123.811 137.627 123.602C146.548 112.606 158.999 99.8756 159.15 99.7199C159.288 99.5778 159.512 99.5812 159.647 99.7301C159.781 99.8789 159.778 100.112 159.637 100.254Z" fill="#542BDA"/>
<path d="M31.0639 41.4787C33.2524 47.1015 28.9299 45.5892 30.5 49.8012C31.9323 53.6411 36.6938 52.616 33.8099 59.1793C33.1787 60.6138 33.7555 62.1396 34.9474 63.3169C36.9084 65.2521 39.5135 65.4111 41.5738 64.3488C41.7405 64.2642 41.9039 64.1695 42.0641 64.068C43.7303 63.0057 44.9383 61.1043 44.9639 58.7023C44.9864 56.7536 44.5025 54.6155 42.7594 53.0795C38.6676 49.4731 43.8745 44.0532 40.0166 42.0132C35.364 39.5536 35.9279 37.6219 33.5152 33.623C30.9646 29.3839 28.0968 33.8564 31.0639 41.4787Z" fill="#0A9430"/>
<path d="M33.6042 40.0541C33.665 40.2131 38.6252 53.5427 41.5731 64.3486C41.7397 64.264 41.9032 64.1692 42.0634 64.0678C39.1026 53.2518 34.1713 40.0034 34.1104 39.8443C34.056 39.6955 33.8958 39.6244 33.758 39.682C33.617 39.7395 33.5465 39.9052 33.6042 40.0541Z" fill="#2B2F2C"/>
<path d="M24.8308 56.1684C29.4482 62.2783 23.594 62.0551 26.9681 66.6562C30.0442 70.8513 35.5715 67.7827 34.2449 76.9748C33.9533 78.9844 35.187 80.6489 37.0582 81.6503C40.1375 83.2945 43.4059 82.5029 45.5912 80.4121C45.7674 80.2429 45.9404 80.067 46.1006 79.8775C47.7957 77.9356 48.6384 75.1276 47.8533 72.1538C47.2157 69.7416 45.8924 67.2854 43.2168 66.0506C36.9365 63.1546 41.5186 54.4836 36.0649 53.4314C29.4834 52.1593 29.5219 49.5644 25.1833 45.5419C20.5852 41.2757 18.573 47.8864 24.8308 56.1684Z" fill="#19B845"/>
<path d="M27.4805 53.4449C27.6087 53.6208 38.2724 68.1921 45.5877 80.4121C45.7639 80.2429 45.937 80.067 46.0972 79.8775C38.7595 67.6474 28.163 53.1675 28.0316 52.9916C27.9131 52.8292 27.692 52.8021 27.5414 52.9273C27.3876 53.0525 27.362 53.2825 27.4805 53.4449Z" fill="#302E35"/>
<path d="M88.0777 58.2492C85.7995 56.6016 80.0992 60.6647 77.116 65.594L79.7627 57.7687C80.7208 56.8925 82.3966 55.661 85.0145 54.6833C89.0871 53.1575 93.1693 50.7724 90.8879 49.1214C88.7506 47.5753 83.595 51.0599 80.5029 55.5731L83.8994 45.5251C84.5306 45.0109 85.4919 44.3884 86.8665 43.8741C89.4331 42.9133 92.0061 41.4078 90.5674 40.3692C89.321 39.4659 86.4404 41.2826 84.4762 43.8166L85.5784 40.5586C86.0815 39.6113 86.7992 38.2615 87.9271 37.0266C90.5418 34.1712 92.5188 30.9572 90.5034 30.4904C88.4847 30.0235 85.1811 35.6226 84.662 40.6804L84.0949 42.3551C84.5338 38.6776 83.281 34.222 81.5347 34.063C79.798 33.9073 80.8874 36.7898 82.2973 39.2493C83.3707 41.1202 83.6687 42.6088 83.7456 43.3768L81.0701 51.2934C81.7526 45.4642 79.7659 38.4374 77.0039 38.187C74.2482 37.9367 75.9785 42.5175 78.2151 46.4183C79.9069 49.3684 80.3843 51.7129 80.5125 52.941L77.3051 62.4307C77.8754 56.6726 75.924 49.683 73.2004 49.6593C71.1016 49.6424 71.7457 52.7684 74.2514 57.1835C75.9529 60.1843 76.4976 62.8773 76.6738 64.2982L75.1614 68.7674C75.4146 68.9568 75.6773 69.055 75.9401 69.0617L76.5425 67.2822C77.3916 66.4161 79.1603 64.941 82.2012 63.8009C86.277 62.2886 90.3592 59.9001 88.0777 58.2492Z" fill="#0A9430"/>
<path d="M148.462 57.931V142.3C148.462 143.082 147.859 143.714 147.119 143.714H37.7808C37.4347 143.714 37.1239 143.579 36.8868 143.352C36.6144 143.092 36.4414 142.716 36.4414 142.297V57.931C36.4414 57.1495 37.0406 56.5135 37.7808 56.5135H147.119C147.561 56.5135 147.952 56.7402 148.199 57.0886C148.366 57.3254 148.462 57.6164 148.462 57.931Z" fill="#2E3062"/>
<path d="M148.46 57.9311V142.3C148.46 143.082 147.857 143.714 147.117 143.714H37.7788C37.4327 143.714 37.1219 143.579 36.8848 143.352L148.197 57.0853C148.364 57.3255 148.46 57.6164 148.46 57.9311Z" fill="#001030"/>
<path d="M145.275 61.4395V138.795C145.275 139.655 144.612 140.355 143.798 140.355H41.1022C40.2851 140.355 39.625 139.655 39.625 138.795V61.4395C39.625 60.5768 40.2851 59.8798 41.1022 59.8798H143.798C144.612 59.8798 145.275 60.5768 145.275 61.4395Z" fill="white"/>
<path d="M145.277 61.4392V66.8658H39.627V61.4392C39.627 60.5765 40.287 59.8796 41.1041 59.8796H143.8C144.614 59.8796 145.277 60.5765 145.277 61.4392Z" fill="#E8E8F9"/>
<path d="M57.5352 63.5536C57.5352 64.0645 57.9293 64.4806 58.4131 64.4806H135.424C135.908 64.4806 136.302 64.0645 136.302 63.5536C136.302 63.0428 135.908 62.6266 135.424 62.6266H58.4131C57.9261 62.6266 57.5352 63.0428 57.5352 63.5536Z" fill="white"/>
<path d="M45.5001 63.5537V64.2405C45.5001 64.4367 45.2982 64.5619 45.1348 64.4638L44.5708 64.1187L44.0069 63.7736C43.8467 63.6755 43.8467 63.4285 44.0069 63.3304L44.5708 62.9853L45.1348 62.6403C45.295 62.5421 45.5001 62.6639 45.5001 62.8635V63.5537Z" fill="#2E3062"/>
<path d="M48.4336 63.5537V64.2405C48.4336 64.4367 48.6355 64.5619 48.7989 64.4638L49.3628 64.1187L49.9268 63.7736C50.087 63.6755 50.087 63.4285 49.9268 63.3304L49.3628 62.9853L48.7989 62.6403C48.6387 62.5421 48.4336 62.6639 48.4336 62.8635V63.5537Z" fill="#2E3062"/>
<path d="M58.7451 82.4402C58.2784 82.4402 57.8584 82.3602 57.4851 82.2002C57.1117 82.0336 56.8184 81.8002 56.6051 81.5002C56.3917 81.2002 56.2851 80.8502 56.2851 80.4502H57.5051C57.5317 80.7502 57.6484 80.9969 57.8551 81.1902C58.0684 81.3836 58.3651 81.4802 58.7451 81.4802C59.1384 81.4802 59.4451 81.3869 59.6651 81.2002C59.8851 81.0069 59.9951 80.7602 59.9951 80.4602C59.9951 80.2269 59.9251 80.0369 59.7851 79.8902C59.6517 79.7436 59.4817 79.6302 59.2751 79.5502C59.0751 79.4702 58.7951 79.3836 58.4351 79.2902C57.9817 79.1702 57.6117 79.0502 57.3251 78.9302C57.0451 78.8036 56.8051 78.6102 56.6051 78.3502C56.4051 78.0902 56.3051 77.7436 56.3051 77.3102C56.3051 76.9102 56.4051 76.5602 56.6051 76.2602C56.8051 75.9602 57.0851 75.7302 57.4451 75.5702C57.8051 75.4102 58.2217 75.3302 58.6951 75.3302C59.3684 75.3302 59.9184 75.5002 60.3451 75.8402C60.7784 76.1736 61.0184 76.6336 61.0651 77.2202H59.8051C59.7851 76.9669 59.6651 76.7502 59.4451 76.5702C59.2251 76.3902 58.9351 76.3002 58.5751 76.3002C58.2484 76.3002 57.9817 76.3836 57.7751 76.5502C57.5684 76.7169 57.4651 76.9569 57.4651 77.2702C57.4651 77.4836 57.5284 77.6602 57.6551 77.8002C57.7884 77.9336 57.9551 78.0402 58.1551 78.1202C58.3551 78.2002 58.6284 78.2869 58.9751 78.3802C59.4351 78.5069 59.8084 78.6336 60.0951 78.7602C60.3884 78.8869 60.6351 79.0836 60.8351 79.3502C61.0417 79.6102 61.1451 79.9602 61.1451 80.4002C61.1451 80.7536 61.0484 81.0869 60.8551 81.4002C60.6684 81.7136 60.3917 81.9669 60.0251 82.1602C59.6651 82.3469 59.2384 82.4402 58.7451 82.4402ZM63.6302 76.3402V78.3802H66.0302V79.3102H63.6302V81.4402H66.3302V82.3702H62.4902V75.4102H66.3302V76.3402H63.6302ZM71.9244 80.9502H69.0144L68.5144 82.3702H67.3244L69.8144 75.4102H71.1344L73.6244 82.3702H72.4244L71.9244 80.9502ZM71.6044 80.0202L70.4744 76.7902L69.3344 80.0202H71.6044ZM60.0651 97.3702L58.4651 94.5902H57.5951V97.3702H56.4551V90.4202H58.8551C59.3884 90.4202 59.8384 90.5136 60.2051 90.7002C60.5784 90.8869 60.8551 91.1369 61.0351 91.4502C61.2217 91.7636 61.3151 92.1136 61.3151 92.5002C61.3151 92.9536 61.1817 93.3669 60.9151 93.7402C60.6551 94.1069 60.2517 94.3569 59.7051 94.4902L61.4251 97.3702H60.0651ZM57.5951 93.6802H58.8551C59.2817 93.6802 59.6017 93.5736 59.8151 93.3602C60.0351 93.1469 60.1451 92.8602 60.1451 92.5002C60.1451 92.1402 60.0384 91.8602 59.8251 91.6602C59.6117 91.4536 59.2884 91.3502 58.8551 91.3502H57.5951V93.6802ZM62.3934 93.8802C62.3934 93.2002 62.5501 92.5902 62.8634 92.0502C63.1834 91.5102 63.6134 91.0902 64.1534 90.7902C64.7001 90.4836 65.2968 90.3302 65.9434 90.3302C66.6834 90.3302 67.3401 90.5136 67.9134 90.8802C68.4934 91.2402 68.9134 91.7536 69.1734 92.4202H67.8034C67.6234 92.0536 67.3734 91.7802 67.0534 91.6002C66.7334 91.4202 66.3634 91.3302 65.9434 91.3302C65.4834 91.3302 65.0734 91.4336 64.7134 91.6402C64.3534 91.8469 64.0701 92.1436 63.8634 92.5302C63.6634 92.9169 63.5634 93.3669 63.5634 93.8802C63.5634 94.3936 63.6634 94.8436 63.8634 95.2302C64.0701 95.6169 64.3534 95.9169 64.7134 96.1302C65.0734 96.3369 65.4834 96.4402 65.9434 96.4402C66.3634 96.4402 66.7334 96.3502 67.0534 96.1702C67.3734 95.9902 67.6234 95.7169 67.8034 95.3502H69.1734C68.9134 96.0169 68.4934 96.5302 67.9134 96.8902C67.3401 97.2502 66.6834 97.4302 65.9434 97.4302C65.2901 97.4302 64.6934 97.2802 64.1534 96.9802C63.6134 96.6736 63.1834 96.2502 62.8634 95.7102C62.5501 95.1702 62.3934 94.5602 62.3934 93.8802ZM76.0578 90.4202V97.3702H74.9178V94.3302H71.6478V97.3702H70.5078V90.4202H71.6478V93.4002H74.9178V90.4202H76.0578Z" fill="#524E84"/>
<path d="M128.962 101.736C128.962 103.945 127.267 105.738 125.171 105.738H59.484C57.3916 105.738 55.6934 103.949 55.6934 101.736C55.6934 99.5268 57.3884 97.7338 59.484 97.7338H125.171C127.267 97.7338 128.962 99.5268 128.962 101.736Z" fill="#E8E8F9"/>
<path d="M125.176 97.7338H114.762V105.735H125.172C127.265 105.735 128.963 103.945 128.963 101.733C128.963 99.5268 127.268 97.7338 125.176 97.7338Z" fill="#FF725E"/>
<path d="M122.531 102.524C121.807 101.821 121.762 100.626 122.429 99.8618C123.095 99.0972 124.226 99.0498 124.95 99.7535C125.675 100.457 125.719 101.651 125.053 102.416C124.383 103.181 123.252 103.231 122.531 102.524ZM124.553 100.214C124.069 99.74 123.31 99.7738 122.864 100.285C122.416 100.796 122.448 101.597 122.932 102.068C123.416 102.541 124.175 102.507 124.62 101.997C125.066 101.486 125.037 100.684 124.553 100.214Z" fill="white"/>
<path d="M120.556 104.781C120.437 104.666 120.428 104.466 120.54 104.341L122.51 102.084C122.619 101.959 122.808 101.949 122.927 102.068C123.045 102.183 123.055 102.382 122.943 102.507L120.972 104.764C120.863 104.889 120.677 104.896 120.556 104.781Z" fill="white"/>
<path d="M55.7324 115.171C55.7324 115.854 56.2579 116.409 56.9052 116.409H127.652C128.299 116.409 128.824 115.854 128.824 115.171C128.824 114.487 128.299 113.932 127.652 113.932H56.9052C56.2579 113.936 55.7324 114.491 55.7324 115.171Z" fill="#E8E8F9"/>
<path d="M55.7324 121.247C55.7324 121.93 56.2579 122.485 56.9052 122.485H127.652C128.299 122.485 128.824 121.93 128.824 121.247C128.824 120.563 128.299 120.008 127.652 120.008H56.9052C56.2579 120.012 55.7324 120.563 55.7324 121.247Z" fill="#E8E8F9"/>
<path d="M55.7324 127.323C55.7324 128.006 56.2579 128.561 56.9052 128.561H127.652C128.299 128.561 128.824 128.006 128.824 127.323C128.824 126.639 128.299 126.085 127.652 126.085H56.9052C56.2579 126.085 55.7324 126.639 55.7324 127.323Z" fill="#E8E8F9"/>
<path d="M53.9953 113.763L54.3125 112.051L52.7937 111.737C52.7937 111.314 52.7232 110.894 52.5918 110.485L53.8415 109.599L52.9219 108.151L51.7235 109C51.3678 108.618 50.9481 108.323 50.4931 108.127L50.791 106.523L49.1697 106.188L48.8621 107.839C48.5288 107.86 48.1988 107.927 47.8752 108.042L47.0357 106.72L45.6643 107.691L46.4685 108.956C46.1064 109.331 45.8277 109.775 45.6418 110.255L44.3153 109.981L43.998 111.693L45.3727 111.977C45.3951 112.424 45.4912 112.87 45.6643 113.296L44.4659 114.146L45.3855 115.594L46.6383 114.707C46.9972 115.039 47.4074 115.286 47.8463 115.448L47.5451 117.062L49.1665 117.397L49.4901 115.648C49.8458 115.607 50.1983 115.509 50.5379 115.357L51.3422 116.622L52.7136 115.651L51.8741 114.332C52.0984 114.061 52.281 113.763 52.4252 113.445L53.9953 113.763ZM49.9259 113.08C49.2338 113.57 48.2917 113.378 47.8239 112.643C47.3593 111.913 47.5419 110.918 48.2373 110.424C48.9294 109.934 49.8714 110.126 50.3392 110.861C50.8039 111.591 50.618 112.586 49.9259 113.08Z" fill="#E8E8F9"/>
<path d="M138.904 76.9275L139.077 75.9937L138.247 75.8212C138.247 75.5911 138.209 75.3611 138.138 75.1378L138.821 74.654L138.318 73.8623L137.664 74.3258C137.469 74.1161 137.241 73.957 136.991 73.8488L137.155 72.9725L136.27 72.7899L136.104 73.6932C135.921 73.7033 135.742 73.7405 135.565 73.8048L135.107 73.0842L134.357 73.6153L134.796 74.3055C134.598 74.5119 134.447 74.7521 134.344 75.016L133.62 74.8671L133.447 75.8009L134.197 75.9565C134.21 76.2001 134.261 76.4437 134.357 76.6771L133.704 77.1406L134.207 77.9323L134.889 77.4485C135.085 77.6278 135.309 77.7631 135.549 77.8544L135.386 78.7374L136.27 78.9201L136.446 77.9661C136.642 77.9424 136.834 77.8917 137.02 77.8071L137.459 78.4972L138.209 77.9661L137.751 77.2455C137.872 77.0966 137.975 76.9342 138.052 76.7617L138.904 76.9275ZM136.68 76.5519C136.302 76.8192 135.786 76.7143 135.533 76.3151C135.28 75.9159 135.379 75.3712 135.758 75.1039C136.136 74.8367 136.652 74.9415 136.905 75.3408C137.161 75.74 137.058 76.2847 136.68 76.5519Z" fill="#E8E8F9"/>
<path d="M50.2146 86.5121L50.3877 85.5783L49.5578 85.4058C49.5578 85.1757 49.5193 84.9457 49.4488 84.7224L50.1313 84.2386L49.6283 83.4469L48.9746 83.9104C48.7791 83.7007 48.5516 83.5416 48.3017 83.4334L48.4651 82.5571L47.5808 82.3745L47.4141 83.2778C47.2315 83.2879 47.0521 83.3251 46.8758 83.3894L46.4176 82.6688L45.6678 83.1999L46.1068 83.8901C45.9081 84.0965 45.7575 84.3367 45.655 84.6006L44.9308 84.4517L44.7578 85.3855L45.5076 85.5411C45.5204 85.7847 45.5717 86.0283 45.6678 86.2617L45.0142 86.7252L45.5172 87.5169L46.1997 87.0331C46.3952 87.2124 46.6195 87.3477 46.8598 87.439L46.6964 88.322L47.5808 88.5047L47.757 87.5507C47.9524 87.527 48.1447 87.4763 48.3305 87.3917L48.7695 88.0818L49.5193 87.5507L49.0611 86.8301C49.1829 86.6812 49.2822 86.5188 49.3623 86.3463L50.2146 86.5121ZM47.9877 86.1365C47.6096 86.4038 47.0937 86.2989 46.8406 85.8997C46.5874 85.5005 46.6868 84.9558 47.0649 84.6885C47.443 84.4213 47.9589 84.5261 48.212 84.9254C48.4683 85.3246 48.369 85.8693 47.9877 86.1365Z" fill="#E8E8F9"/>
<path d="M54.8308 153.015C54.8308 154.28 47.5379 155.309 38.5404 155.309C29.5429 155.309 22.25 154.284 22.25 153.015C22.25 151.746 29.5429 150.721 38.5404 150.721C47.5379 150.721 54.8308 151.75 54.8308 153.015Z" fill="#E8E8F9"/>
<path d="M43.2088 96.6008C44.718 102.393 49.6846 104.01 49.6846 104.01C51.6552 103.57 52.9017 102.944 54.1417 102.224C53.7732 101.297 53.6162 100.353 53.4111 99.128C51.5815 99.666 50.0018 99.9535 50.0018 99.9535C46.1375 98.0623 43.7952 89.0124 43.7952 89.0124C41.5009 91.3129 43.2088 96.6008 43.2088 96.6008Z" fill="#542BDA"/>
<path d="M30.2123 143.146L28.5781 145.453C28.5781 145.453 28.8761 146.485 30.0873 147.28L32.0419 144.625L30.2123 143.146Z" fill="#FBA691"/>
<path d="M29.8122 146.567C29.8122 146.567 30.578 146.394 30.8376 146.672C31.1003 146.949 31.7572 150.748 32.3692 151.577C32.9844 152.409 32.366 152.849 31.9879 153.018C31.6098 153.187 26.1914 147.473 26.1914 147.473C26.1914 147.473 27.5308 145.521 28.178 145.139C28.8253 144.763 29.1265 146.164 29.8122 146.567Z" fill="#FF725E"/>
<path d="M29.9195 148.782C29.8843 148.769 29.8554 148.742 29.8426 148.701C29.8138 148.623 29.8458 148.536 29.9163 148.505C29.9387 148.495 30.4995 148.234 30.9481 148.322C31.5441 148.437 31.6914 148.979 31.6979 149.002C31.7203 149.084 31.6754 149.165 31.6017 149.188C31.528 149.212 31.4511 149.168 31.4319 149.087C31.4287 149.073 31.3198 148.701 30.8968 148.62C30.5315 148.549 30.0316 148.779 30.0252 148.782C29.9868 148.796 29.9515 148.796 29.9195 148.782Z" fill="white"/>
<path d="M29.8297 148.177C29.7944 148.163 29.7656 148.136 29.7528 148.096C29.7239 148.018 29.756 147.93 29.8264 147.9C29.8489 147.889 30.4096 147.629 30.8582 147.717C31.4542 147.832 31.6016 148.373 31.608 148.397C31.6304 148.478 31.5856 148.559 31.5119 148.583C31.4382 148.607 31.3613 148.563 31.3421 148.481C31.3389 148.468 31.2299 148.096 30.8069 148.015C30.4417 147.944 29.9418 148.174 29.9354 148.177C29.9001 148.191 29.8617 148.191 29.8297 148.177Z" fill="white"/>
<path d="M30.1695 149.422C30.1343 149.408 30.1054 149.381 30.0926 149.341C30.0638 149.263 30.0958 149.175 30.1663 149.145C30.1887 149.134 30.7495 148.874 31.1981 148.962C31.7941 149.077 31.9414 149.618 31.9479 149.642C31.9703 149.723 31.9254 149.804 31.8517 149.828C31.778 149.852 31.7011 149.808 31.6819 149.726C31.6787 149.713 31.5698 149.341 31.1468 149.26C30.7815 149.189 30.2816 149.419 30.2752 149.422C30.24 149.436 30.2015 149.436 30.1695 149.422Z" fill="white"/>
<path d="M40.2363 147.111L40.4831 149.98C40.4831 149.98 41.3578 150.535 42.7613 150.271L42.5306 146.915L40.2363 147.111Z" fill="#FBA691"/>
<path d="M42.2731 149.869C42.2731 149.869 42.7505 149.168 43.1382 149.192C43.5259 149.216 46.5476 151.679 47.5729 151.868C48.5983 152.061 48.4124 152.859 48.2298 153.269C48.0471 153.678 40.1038 153.445 40.1038 153.445C40.1038 153.445 39.8122 150.738 40.0622 149.967C40.3121 149.199 41.4752 150.065 42.2731 149.869Z" fill="#FF725E"/>
<path d="M44.2338 151.699C44.1985 151.712 44.1601 151.709 44.1248 151.689C44.0575 151.652 44.0287 151.56 44.0639 151.486C44.0768 151.462 44.3491 150.887 44.7465 150.65C45.2752 150.339 45.7141 150.654 45.7334 150.667C45.7974 150.714 45.8167 150.809 45.7718 150.877C45.7302 150.944 45.6436 150.961 45.5796 150.914C45.5667 150.904 45.2623 150.694 44.8842 150.914C44.5606 151.104 44.3139 151.621 44.3107 151.625C44.2947 151.662 44.2658 151.685 44.2338 151.699Z" fill="white"/>
<path d="M43.7982 151.289C43.763 151.303 43.7245 151.3 43.6893 151.279C43.622 151.242 43.5932 151.151 43.6284 151.076C43.6412 151.053 43.9136 150.477 44.3109 150.241C44.8396 149.929 45.2786 150.244 45.2978 150.258C45.3619 150.305 45.3811 150.396 45.3363 150.467C45.2946 150.535 45.2081 150.552 45.144 150.505C45.1312 150.494 44.8268 150.285 44.4487 150.505C44.1251 150.697 43.8783 151.212 43.8751 151.215C43.8591 151.256 43.8303 151.279 43.7982 151.289Z" fill="white"/>
<path d="M44.8139 152.02C44.7786 152.034 44.7402 152.03 44.7049 152.01C44.6376 151.973 44.6088 151.882 44.644 151.807C44.6568 151.783 44.9292 151.208 45.3265 150.971C45.8552 150.66 46.2942 150.975 46.3134 150.988C46.3775 151.036 46.3935 151.13 46.3519 151.198C46.3102 151.266 46.2237 151.283 46.1596 151.235C46.1468 151.229 45.8424 151.015 45.4643 151.235C45.1407 151.428 44.894 151.942 44.8908 151.946C44.8747 151.986 44.8491 152.01 44.8139 152.02Z" fill="white"/>
<path d="M38.7135 115.956L37.0633 130.382C37.0633 130.382 35.5829 132.503 34.1699 135.22C32.9843 137.5 29.8281 143.41 29.8281 143.41L31.7379 144.946L42.1965 133.501L44.981 115.814L38.7135 115.956Z" fill="#001030"/>
<path d="M32.2029 144.912C32.0298 145.369 31.7094 145.677 31.3345 145.937L29.1172 143.962C29.303 143.546 29.5562 143.187 29.8734 142.879L32.2029 144.912Z" fill="#2E3062"/>
<path d="M30.2637 116.555C30.2637 116.555 33.2084 124.201 37.0374 130.162C37.0374 130.162 37.6078 135.964 38.5883 139.053C39.0177 140.406 39.8444 146.814 39.8444 146.814L42.7474 146.675L41.9976 128.856L38.9247 115.949L30.2637 116.555Z" fill="#2E3062"/>
<path d="M43.0201 146.57C43.2027 147.105 43.1546 147.632 43.0201 148.16L39.6588 148.258C39.5146 147.747 39.473 147.23 39.521 146.705L43.0201 146.57Z" fill="#524E84"/>
<path d="M43.7872 89.0125C44.2261 89.5877 45.1041 95.4676 45.2419 101.432C45.2451 101.571 45.2483 101.706 45.2515 101.845C45.2643 102.477 45.2771 103.11 45.29 103.746C45.3028 104.372 45.3124 104.998 45.322 105.617C45.338 106.632 45.3508 107.63 45.3637 108.594C45.3637 108.702 45.3669 108.811 45.3669 108.922C45.3765 109.86 45.3861 110.759 45.3925 111.602C45.3925 111.714 45.3925 111.822 45.3957 111.93C45.4053 113.192 45.4117 114.308 45.4117 115.205C45.4117 115.33 45.4117 115.449 45.4117 115.567C45.4117 116.193 45.4117 116.69 45.4053 117.025C43.9986 117.424 42.592 117.715 41.1853 117.891C41.1469 117.895 41.1116 117.901 41.0732 117.905C41.0091 117.911 40.9482 117.922 40.8873 117.928C40.8713 117.928 40.8553 117.932 40.8393 117.932C40.5957 117.959 40.3522 117.986 40.1087 118.006C38.9007 118.111 37.6895 118.135 36.4815 118.074C36.3757 118.067 36.27 118.064 36.1643 118.057C36.0713 118.05 35.9752 118.047 35.8791 118.037C35.8374 118.033 35.7926 118.03 35.7509 118.026C35.6708 118.02 35.5907 118.013 35.5106 118.006C33.7354 117.854 31.9571 117.526 30.1819 117.018C30.1723 116.281 30.1627 114.775 30.1627 112.833C30.1627 112.728 30.1627 112.62 30.1627 112.509C30.1595 110.367 30.1691 107.742 30.1915 105.035C30.1948 104.822 30.1948 104.609 30.198 104.392C30.2012 104.145 30.2012 103.895 30.2044 103.645C30.2044 103.604 30.2044 103.56 30.2044 103.52C30.2044 103.462 30.2076 103.401 30.2076 103.344C30.2076 103.225 30.2108 103.107 30.2108 102.992C30.214 102.819 30.214 102.65 30.2172 102.481C30.2172 102.352 30.2204 102.22 30.2236 102.092C30.2268 101.835 30.23 101.578 30.2364 101.32C30.3229 95.948 30.4927 91.012 30.8196 89.7568C30.8516 89.6418 30.8805 89.5572 30.9125 89.5065C30.9478 89.449 30.9894 89.3948 31.0375 89.3373C31.0984 89.2629 31.1688 89.1885 31.249 89.1106C31.7937 88.5795 32.7389 87.9671 33.697 87.3818C33.8091 87.3142 33.9213 87.2465 34.0334 87.1789C34.0495 87.1687 36.6385 86.2485 36.6545 86.2383L39.3621 86.4379C39.3621 86.4379 43.1463 88.1634 43.7872 89.0125Z" fill="#6B5EFF"/>
<path d="M32.8776 96.7498C32.8776 96.6077 32.7077 96.5468 32.6244 96.6584C31.5382 98.1707 30.8813 99.8217 30.4936 101.124C30.3943 101.459 30.3078 101.784 30.2341 102.092C30.2341 102.22 30.2309 102.352 30.2277 102.481C30.2245 102.65 30.2213 102.823 30.2213 102.992C30.218 103.11 30.218 103.228 30.218 103.344C30.218 103.404 30.218 103.462 30.2148 103.519C30.2148 103.56 30.2148 103.604 30.2148 103.645C30.3174 102.992 30.4872 102.139 30.766 101.202C31.1473 99.9265 31.7881 98.3128 32.8519 96.8377C32.8648 96.814 32.8776 96.7836 32.8776 96.7498Z" fill="#542BDA"/>
<path d="M33.4359 112.339C36.3582 112.326 38.8543 110.922 40.4308 109.744C42.1386 108.472 43.1704 107.183 43.1832 107.173C43.2345 107.109 43.2249 107.018 43.1672 106.963C43.1063 106.909 43.0198 106.919 42.9685 106.98C42.9589 106.994 41.9432 108.256 40.2642 109.508C38.7197 110.658 36.2845 112.028 33.4359 112.042C33.359 112.042 33.2949 112.109 33.2949 112.19C33.2949 112.275 33.3558 112.339 33.4359 112.339Z" fill="#542BDA"/>
<path d="M36.4701 113.388C39.0047 113.388 41.5361 111.862 41.6514 111.791C41.7187 111.751 41.7411 111.659 41.7027 111.588C41.6642 111.517 41.5777 111.494 41.5104 111.534C41.4816 111.551 38.5048 113.348 35.8677 113.057C35.7908 113.046 35.7203 113.107 35.7139 113.189C35.7043 113.27 35.762 113.344 35.8389 113.351C36.0472 113.378 36.2587 113.388 36.4701 113.388Z" fill="#542BDA"/>
<path d="M35.7428 91.1336C38.1876 90.4197 40.2383 88.2342 40.3313 88.1361C40.3857 88.0786 40.3857 87.9838 40.3281 87.9263C40.2736 87.8688 40.1839 87.8688 40.1294 87.9297C40.1038 87.9568 37.691 90.5246 35.0763 90.9915C34.9994 91.005 34.9481 91.0828 34.9609 91.164C34.9738 91.2452 35.0475 91.2993 35.1244 91.2858C35.3326 91.2418 35.5409 91.1911 35.7428 91.1336Z" fill="#542BDA"/>
<path d="M33.7012 79.0894C33.7012 81.6978 35.2232 83.4977 37.6937 83.4977C40.1641 83.4977 41.888 81.5659 41.888 78.9575C41.888 76.3491 40.4237 74.3733 37.9532 74.3733C34.9893 74.3665 33.7012 76.4776 33.7012 79.0894Z" fill="#2E3062"/>
<path d="M33.7556 79.7797C33.7556 79.7797 32.8905 78.3994 33.3487 77.3371C33.8229 76.2376 33.5826 76.4778 33.698 75.6523C33.8165 74.8268 34.3869 74.4851 35.0694 74.3667C35.7519 74.2483 35.2841 73.4194 36.2293 73.1217C37.1746 72.824 37.934 73.866 38.5428 73.3991C39.1516 72.9322 40.6448 72.7022 41.0645 73.3991C41.4843 74.096 41.856 74.0927 42.3046 74.069C42.8429 74.0419 43.5638 74.9384 43.0768 75.7639C42.5897 76.5894 41.7695 76.2613 41.8816 76.8296C41.9938 77.398 42.6891 78.3994 41.7598 79.6715C41.4779 80.0605 33.7556 79.7797 33.7556 79.7797Z" fill="#2E3062"/>
<path d="M34.2541 80.2127C34.2541 80.2127 33.5684 79.2451 33.0557 80.0469C32.5462 80.8454 33.2672 83.2068 34.5168 82.6317L34.2541 80.2127Z" fill="#FB876B"/>
<path d="M34.2437 81.8975C34.1989 81.8975 34.154 81.8636 34.1412 81.8163C33.9489 81.0889 33.2312 80.7912 33.2248 80.7878C33.1703 80.7675 33.1415 80.6998 33.1639 80.6423C33.1831 80.5848 33.244 80.5543 33.2985 80.578C33.3305 80.5916 34.1188 80.913 34.3431 81.752C34.3591 81.8129 34.327 81.8738 34.2694 81.8907C34.263 81.8975 34.2533 81.8975 34.2437 81.8975Z" fill="#D45C48"/>
<path d="M33.5244 81.5322C33.5051 81.5322 33.4859 81.5254 33.4667 81.5153C33.4186 81.4814 33.4026 81.4138 33.4346 81.3596C33.441 81.3495 33.566 81.1465 33.832 81.0213C33.8864 80.9976 33.9473 81.0213 33.973 81.0788C33.9954 81.1363 33.973 81.2006 33.9185 81.2277C33.7134 81.3258 33.6141 81.4814 33.6141 81.4814C33.5949 81.5119 33.5596 81.5322 33.5244 81.5322Z" fill="#D45C48"/>
<path d="M41.3272 80.2127C41.3272 80.2127 42.0129 79.2451 42.5256 80.0469C43.0351 80.8454 42.3141 83.2068 41.0645 82.6317L41.3272 80.2127Z" fill="#FB876B"/>
<path d="M41.3378 81.8973C41.3827 81.8973 41.4275 81.8635 41.4404 81.8161C41.6326 81.0888 42.3504 80.791 42.3568 80.7877C42.4112 80.7674 42.4401 80.6997 42.4177 80.6422C42.3984 80.5847 42.3375 80.5542 42.2831 80.5779C42.251 80.5914 41.4628 80.9128 41.2385 81.7519C41.2225 81.8128 41.2545 81.8737 41.3122 81.8906C41.3186 81.8973 41.3282 81.8973 41.3378 81.8973Z" fill="#D45C48"/>
<path d="M42.0568 81.532C42.0761 81.532 42.0953 81.5253 42.1145 81.5151C42.1626 81.4813 42.1786 81.4136 42.1465 81.3595C42.1401 81.3494 42.0152 81.1464 41.7492 81.0212C41.6947 80.9975 41.6339 81.0212 41.6082 81.0787C41.5858 81.1362 41.6082 81.2005 41.6627 81.2276C41.8678 81.3257 41.9671 81.4813 41.9671 81.4813C41.9895 81.5117 42.0216 81.532 42.0568 81.532Z" fill="#D45C48"/>
<path d="M39.4854 84.6278V87.111C39.4854 87.111 39.1169 87.6896 38.3832 87.7809C37.3514 87.9095 36.2363 86.7592 36.2363 86.7592V84.7902L39.4854 84.6278Z" fill="#FBA691"/>
<path d="M39.4808 84.6278V85.6698C38.8784 86.3735 37.8114 86.5494 36.2285 86.3059V84.7936L39.4808 84.6278Z" fill="#FB876B"/>
<path d="M33.8932 80.1687C33.9028 80.3041 33.9124 80.4428 33.9252 80.5815C33.9573 80.9299 34.0021 81.2919 34.063 81.6472C34.0662 81.6607 34.0662 81.6709 34.0694 81.6844C34.3674 83.4166 35.0403 85.1183 36.4854 85.663C39.7633 86.8978 40.9329 83.9308 41.4007 82.202C41.452 82.0092 41.5 81.796 41.5417 81.5694C41.5417 81.5592 41.5449 81.5524 41.5481 81.5389C41.593 81.2818 41.6314 81.0111 41.6667 80.7303C41.6923 80.524 41.7115 80.3108 41.7308 80.0977C41.7788 79.5801 41.8109 79.0624 41.8301 78.6023C41.8781 77.5502 41.2822 76.5826 40.3497 76.2071C39.0071 75.6624 36.966 75.2293 35.0307 76.3864C34.3161 76.8126 33.8675 77.6043 33.8515 78.4704C33.8419 78.9474 33.8483 79.5361 33.8932 80.1687Z" fill="#FBA691"/>
<path d="M33.8926 80.1687C33.9022 80.304 33.9118 80.4427 33.9246 80.5815C33.9567 80.9299 34.0015 81.2919 34.0624 81.6471C34.0656 81.6607 34.0656 81.6708 34.0688 81.6844C34.3668 83.4165 35.0397 85.1183 36.4848 85.6629C39.7628 86.8978 40.9323 83.9308 41.4001 82.202C41.4514 82.0091 41.4995 81.796 41.5411 81.5693C41.5411 81.5592 41.5443 81.5524 41.5475 81.5389C41.5924 81.2818 41.6308 81.0111 41.6661 80.7303C41.6917 80.5239 41.7109 80.3108 41.7302 80.0977L41.2399 80.233C41.0989 81.0145 40.8907 82.158 40.6151 82.6892C40.1857 81.5829 37.7953 82.4963 37.7953 82.4963C37.7953 82.4963 35.6645 81.6979 34.9436 82.4929C34.6007 81.5727 34.2963 80.2364 34.2963 80.2364L33.8926 80.1687ZM37.7249 82.9023C39.4423 82.6519 39.8717 83.1188 39.9518 83.6534C39.4872 84.171 38.9649 84.4687 38.4875 84.5837C37.8979 84.7258 36.7027 84.7123 35.8311 83.9883C35.7414 83.5722 35.6421 82.3508 37.7249 82.9023Z" fill="#2E3062"/>
<path d="M36.6795 80.3481C36.6795 80.5985 36.5577 80.8015 36.4071 80.8015C36.2565 80.8015 36.1348 80.5985 36.1348 80.3481C36.1348 80.0978 36.2565 79.8948 36.4071 79.8948C36.5545 79.8948 36.6795 80.0978 36.6795 80.3481Z" fill="#2E3062"/>
<path d="M39.8475 80.3481C39.8475 80.5984 39.7257 80.8014 39.5751 80.8014C39.4245 80.8014 39.3027 80.5984 39.3027 80.3481C39.3027 80.0977 39.4245 79.8947 39.5751 79.8947C39.7257 79.8947 39.8475 80.0977 39.8475 80.3481Z" fill="#2E3062"/>
<path d="M40.3514 78.7918C40.3514 78.7918 39.4895 78.4332 38.8262 78.7343L38.8935 79.1233C38.8935 79.1233 39.8676 79.0354 40.3578 79.2451C40.3995 79.0997 40.4059 78.9474 40.3514 78.7918Z" fill="#2E3062"/>
<path d="M35.3288 78.7918C35.3288 78.7918 36.1907 78.4332 36.854 78.7343L36.7867 79.1233C36.7867 79.1233 35.8126 79.0354 35.3224 79.2451C35.2775 79.0997 35.2711 78.9474 35.3288 78.7918Z" fill="#2E3062"/>
<path d="M37.903 82.3171C37.7268 82.3408 37.5409 82.2901 37.5153 82.2833C37.4576 82.2664 37.4256 82.2055 37.4416 82.148C37.4576 82.0871 37.5153 82.0532 37.5698 82.0702C37.6691 82.0972 37.903 82.1344 37.996 82.0566C38.012 82.0431 38.0376 82.016 38.0344 81.9484C38.028 81.5559 37.7781 80.2737 37.7749 80.2602C37.762 80.1993 37.8005 80.1418 37.8582 80.1282C37.9158 80.1147 37.9703 80.1553 37.9831 80.2162C37.9927 80.2703 38.2395 81.5322 38.2459 81.945C38.2491 82.1006 38.1818 82.1886 38.1241 82.2359C38.06 82.2799 37.9831 82.307 37.903 82.3171Z" fill="#FB876B"/>
<path d="M36.457 82.9835C36.5435 83.4436 36.8287 84.286 37.7964 84.286C38.7641 84.286 39.0364 83.5147 39.1294 82.9835H36.457Z" fill="white"/>
<path d="M41.712 80.2296H41.2346C41.2859 79.7222 41.1128 79.1098 40.9686 78.7005C40.6418 77.7735 41.3371 77.3641 40.7732 76.9006C40.2092 76.4371 38.809 76.6333 37.8349 76.6029C36.8544 76.5691 35.2779 76.5826 34.8966 76.6773C34.5121 76.7687 34.7236 77.4419 34.8646 77.9629C35.0055 78.4839 34.3935 79.0591 34.291 79.597C34.2622 79.7526 34.2686 79.9827 34.291 80.2296H33.8905C33.8424 79.5733 33.836 78.9643 33.8456 78.4704C33.8616 77.6043 34.3102 76.8127 35.0248 76.3864C36.9601 75.2293 38.998 75.659 40.3438 76.2071C41.2762 76.586 41.8722 77.5536 41.8242 78.6023C41.8017 79.0997 41.7665 79.668 41.712 80.2296Z" fill="#2E3062"/>
<path d="M38.3145 80.5749C38.3145 79.8408 38.8784 79.2454 39.5737 79.2454C40.269 79.2454 40.833 79.8408 40.833 80.5749C40.833 81.3091 40.269 81.9045 39.5737 81.9045C38.8784 81.9011 38.3145 81.3057 38.3145 80.5749ZM38.5099 80.5749C38.5099 81.1941 38.9873 81.6982 39.5705 81.6982C40.1569 81.6982 40.6311 81.1941 40.6311 80.5749C40.6311 79.9558 40.1537 79.4517 39.5705 79.4517C38.9873 79.4517 38.5099 79.9558 38.5099 80.5749Z" fill="white"/>
<path d="M34.8711 80.5749C34.8711 79.8408 35.435 79.2454 36.1304 79.2454C36.8257 79.2454 37.3896 79.8408 37.3896 80.5749C37.3896 81.3091 36.8257 81.9045 36.1304 81.9045C35.4382 81.9011 34.8711 81.3057 34.8711 80.5749ZM35.0698 80.5749C35.0698 81.1941 35.5472 81.6982 36.1304 81.6982C36.7135 81.6982 37.1942 81.1941 37.1942 80.5749C37.1942 79.9558 36.7167 79.4517 36.1304 79.4517C35.544 79.4517 35.0698 79.9558 35.0698 80.5749Z" fill="white"/>
<path d="M40.6176 80.1453C40.6432 80.1453 40.6689 80.1351 40.6881 80.1148C40.6945 80.1081 41.2649 79.5228 42.0147 79.7089C42.0659 79.7224 42.1204 79.6886 42.1332 79.631C42.146 79.5769 42.114 79.5194 42.0595 79.5059C41.2008 79.2961 40.576 79.9389 40.5503 79.966C40.5119 80.0066 40.5119 80.0709 40.5503 80.1115C40.5663 80.1351 40.592 80.1453 40.6176 80.1453Z" fill="white"/>
<path d="M35.0642 80.1452C35.0963 80.1452 35.1283 80.1282 35.1475 80.0978C35.1764 80.0504 35.1635 79.9862 35.1187 79.9557C35.0802 79.9286 34.1894 79.3231 33.4332 79.455C33.3788 79.4651 33.3435 79.5193 33.3531 79.5734C33.3628 79.6309 33.4108 79.6681 33.4653 79.658C34.1478 79.5396 35.0033 80.1215 35.0129 80.1282C35.0258 80.1418 35.045 80.1452 35.0642 80.1452Z" fill="white"/>
<path d="M37.3223 80.2771C37.3255 80.2737 37.5562 79.9422 37.8638 79.9422C38.1682 79.9422 38.3765 80.2737 38.3797 80.2771L38.5431 80.1654C38.5335 80.1485 38.274 79.7358 37.8638 79.7358C37.4569 79.7358 37.1749 80.1418 37.1621 80.1587L37.3223 80.2771Z" fill="white"/>
<path d="M49.728 103.299L52.5317 105.57C52.8874 105.857 53.3936 105.786 53.666 105.411L59.11 97.9134L61.3626 94.8145L57.2772 91.5057L55.9442 93.3428L49.5806 102.102C49.3082 102.474 49.3723 103.012 49.728 103.299Z" fill="#FF725E"/>
<path d="M55.9414 93.3427C56.5086 94.7535 57.4859 96.5297 59.1072 97.9134L61.3598 94.8144L57.2744 91.5057L55.9414 93.3427Z" fill="#F88800"/>
<path d="M41.3823 117.671L41.549 117.806C42.2026 118.338 43.1415 118.206 43.6413 117.515L52.3985 105.461L49.864 103.408L41.1068 115.462C40.6037 116.152 40.7255 117.143 41.3823 117.671Z" fill="#2E3062"/>
<path d="M55.8122 72.8646C50.9129 79.5396 52.0632 89.141 58.3852 94.3172C64.7072 99.4901 73.8008 98.2721 78.7033 91.6005C83.6026 84.9256 82.4523 75.3208 76.1303 70.1479C69.8083 64.9717 60.7115 66.1896 55.8122 72.8646ZM57.5681 74.2991C61.7112 68.656 69.427 67.6241 74.7685 71.9985C80.1132 76.3729 81.0873 84.5196 76.9474 90.1593C72.8075 95.799 65.0885 96.8343 59.747 92.4599C54.4023 88.0888 53.4282 79.9422 57.5681 74.2991Z" fill="#2E3062"/>
<path opacity="0.4" d="M55.4155 78.8899C53.6692 85.7848 57.5623 92.8962 64.0958 94.7366C64.6565 94.8956 65.2173 95.0107 65.778 95.0817C67.2296 95.2678 68.6683 95.1764 70.0397 94.8381C71.4688 94.4829 72.8242 93.8638 74.0354 93.0112C75.9451 91.6749 77.5056 89.7769 78.47 87.4696C78.7232 86.864 78.9347 86.2314 79.1013 85.5717C80.8476 78.6768 76.9544 71.5654 70.421 69.7216C69.7962 69.5457 69.1713 69.4239 68.5465 69.3528C66.1689 69.0855 63.8331 69.5693 61.7855 70.6486C60.4814 71.3353 59.2958 72.2623 58.2929 73.3957C57.3316 74.4817 56.537 75.7504 55.9666 77.1747C55.7519 77.7261 55.5629 78.2979 55.4155 78.8899Z" fill="white"/>
<path opacity="0.4" d="M61.791 70.6519L74.0376 93.0111C75.9474 91.6748 77.5078 89.7768 78.4723 87.4695L68.552 69.3561C66.1744 69.0888 63.8353 69.5726 61.791 70.6519Z" fill="white"/>
<path opacity="0.4" d="M55.9688 77.1781L65.7737 95.0818C67.2253 95.2679 68.664 95.1765 70.0354 94.8382L58.295 73.4025C57.3338 74.4851 56.5391 75.7538 55.9688 77.1781Z" fill="white"/>
<path d="M43.7742 109.748H44.2677C44.7099 109.748 45.0431 109.474 45.2418 109.057C45.3283 108.875 45.4469 108.536 45.5302 108.421C45.7609 108.097 46.3889 107.552 46.626 107.535C46.8631 107.518 46.8183 107.982 46.6517 108.185C46.485 108.388 46.2223 108.645 46.0813 108.932C45.9403 109.22 47.2348 109.802 47.7603 109.937C48.2858 110.072 49.2086 109.775 49.2984 110.235C49.3881 110.695 48.696 110.763 48.696 110.763C48.696 110.763 48.8978 111.179 48.3243 111.52C48.3243 111.52 48.4268 111.926 48.0551 112.143C48.0551 112.143 48.0968 112.657 47.6674 112.792C47.2348 112.928 45.889 113.34 43.252 111.649L43.7742 109.748Z" fill="#FBA691"/>
<path d="M34.7177 97.9136C35.7142 101.892 36.6915 103.648 36.6915 103.648C36.6915 103.648 37.8098 105.451 40.1072 107.16C41.703 108.344 44.2696 109.748 44.2696 109.748C43.8274 110.357 43.5134 111.555 43.6864 111.917C38.3545 111.917 33.6891 106.581 33.6891 106.581C29.9594 99.727 29.7159 94.1414 29.7768 92.1081C29.7992 91.3909 29.9946 90.6906 30.3695 90.0918C30.5618 89.7839 30.8021 89.4963 31.0873 89.3576C31.0873 89.3576 32.6862 89.9869 33.2438 91.9694C33.7981 93.9486 34.7177 97.9136 34.7177 97.9136Z" fill="#542BDA"/>
<path d="M58.8697 98.5767C58.8697 98.5767 57.6842 98.1335 57.1394 98.3737C56.5947 98.6139 58.1039 99.4766 58.1039 99.4766C58.1039 99.4766 56.2711 98.4481 55.9571 98.8608C55.6399 99.277 57.3926 100.329 57.3926 100.329C57.3926 100.329 56.05 99.8318 55.7776 100.123C55.5053 100.414 56.7549 101.239 56.7549 101.239C56.7549 101.239 55.6527 100.958 55.4252 101.155C55.1945 101.351 56.1718 102.18 56.7902 102.4C57.4086 102.62 57.5079 101.699 57.5079 101.699C57.5079 101.699 58.0911 101.158 58.0142 100.782C58.0142 100.782 58.6198 100.353 58.6615 99.913C58.6615 99.9164 59.5138 99.1213 58.8697 98.5767Z" fill="#FBA691"/>
<path d="M89.7449 153.015C89.7449 154.28 83.0384 155.308 74.765 155.308C66.4916 155.308 59.7852 154.283 59.7852 153.015C59.7852 151.746 66.4916 150.721 74.765 150.721C83.0384 150.721 89.7449 151.749 89.7449 153.015Z" fill="#E8E8F9"/>
<path d="M63.5958 148.298C59.1515 148.298 55.5371 144.482 55.5371 139.79C55.5371 135.097 59.1515 131.281 63.5958 131.281C68.0401 131.281 71.6545 135.097 71.6545 139.79C71.6545 144.482 68.0401 148.298 63.5958 148.298ZM63.5958 134.671C60.9202 134.671 58.7446 136.968 58.7446 139.793C58.7446 142.618 60.9202 144.915 63.5958 144.915C66.2713 144.915 68.447 142.618 68.447 139.793C68.447 136.968 66.2713 134.671 63.5958 134.671Z" fill="#F88800"/>
<path d="M85.928 152.927V126.041C85.928 122.854 63.5977 122.854 63.5977 126.041V152.927C63.5977 154.99 85.928 154.99 85.928 152.927Z" fill="#FF725E"/>
<path d="M84.8049 125.706C84.8049 126.467 80.3094 127.083 74.7628 127.083C69.2163 127.083 64.7207 126.467 64.7207 125.706C64.7207 124.945 69.2163 124.329 74.7628 124.329C80.3094 124.325 84.8049 124.945 84.8049 125.706Z" fill="#2E3062"/>
<path d="M157.348 56.1313C158.306 56.1313 159.085 56.9534 159.085 57.965C159.085 58.9765 158.306 59.7986 157.348 59.7986C156.39 59.7986 155.611 58.9765 155.611 57.965C155.611 56.9534 156.39 56.1313 157.348 56.1313ZM157.348 59.2235C158.005 59.2235 158.54 58.6585 158.54 57.965C158.54 57.2714 158.005 56.7064 157.348 56.7064C156.691 56.7064 156.156 57.2714 156.156 57.965C156.156 58.6585 156.691 59.2235 157.348 59.2235Z" fill="#6B5EFF"/>
<path d="M151.1 49.6998C152.058 49.6998 152.837 50.5219 152.837 51.5334C152.837 52.545 152.058 53.3671 151.1 53.3671C150.142 53.3671 149.363 52.545 149.363 51.5334C149.363 50.5219 150.142 49.6998 151.1 49.6998ZM151.1 52.792C151.757 52.792 152.292 52.227 152.292 51.5334C152.292 50.8399 151.757 50.2749 151.1 50.2749C150.443 50.2749 149.908 50.8399 149.908 51.5334C149.908 52.227 150.443 52.792 151.1 52.792Z" fill="#FFAA01"/>
<path d="M148.948 43.7458C149.099 43.7458 149.221 43.8744 149.221 44.0334V45.3021C149.221 45.4611 149.099 45.5897 148.948 45.5897C148.798 45.5897 148.676 45.4611 148.676 45.3021V44.0334C148.676 43.8744 148.798 43.7458 148.948 43.7458Z" fill="#6B5EFF"/>
<path d="M148.948 41.5264C149.099 41.5264 149.221 41.655 149.221 41.814V43.0827C149.221 43.2417 149.099 43.3702 148.948 43.3702C148.798 43.3702 148.676 43.2417 148.676 43.0827V41.814C148.676 41.655 148.798 41.5264 148.948 41.5264Z" fill="#6B5EFF"/>
<path d="M147.265 43.2684H148.344C148.495 43.2684 148.617 43.3969 148.617 43.5559C148.617 43.715 148.495 43.8435 148.344 43.8435H147.265C147.114 43.8435 146.992 43.715 146.992 43.5559C146.992 43.3969 147.114 43.2684 147.265 43.2684Z" fill="#6B5EFF"/>
<path d="M149.558 43.2683H150.637C150.788 43.2683 150.91 43.3969 150.91 43.5559C150.91 43.7149 150.788 43.8434 150.637 43.8434H149.558C149.407 43.8434 149.285 43.7149 149.285 43.5559C149.285 43.3969 149.407 43.2683 149.558 43.2683Z" fill="#6B5EFF"/>
<path d="M158.532 50.8501C158.683 50.8501 158.804 50.9787 158.804 51.1377V52.4064C158.804 52.5654 158.683 52.6939 158.532 52.6939C158.382 52.6939 158.26 52.5654 158.26 52.4064V51.1377C158.26 50.9787 158.382 50.8501 158.532 50.8501Z" fill="#FFAA01"/>
<path d="M158.532 48.6307C158.683 48.6307 158.804 48.7592 158.804 48.9182V50.1869C158.804 50.3459 158.683 50.4745 158.532 50.4745C158.382 50.4745 158.26 50.3459 158.26 50.1869V48.9182C158.26 48.7592 158.382 48.6307 158.532 48.6307Z" fill="#FFAA01"/>
<path d="M156.85 50.3729H157.93C158.081 50.3729 158.203 50.5015 158.203 50.6605C158.203 50.8195 158.081 50.9481 157.93 50.9481H156.85C156.7 50.9481 156.578 50.8195 156.578 50.6605C156.578 50.5015 156.7 50.3729 156.85 50.3729Z" fill="#FFAA01"/>
<path d="M159.145 50.3732H160.225C160.376 50.3732 160.498 50.5018 160.498 50.6608C160.498 50.8198 160.376 50.9484 160.225 50.9484H159.145C158.995 50.9484 158.873 50.8198 158.873 50.6608C158.873 50.5018 158.998 50.3732 159.145 50.3732Z" fill="#FFAA01"/>
<path d="M55.9578 47.105C55.9578 48.1165 55.1791 48.9386 54.2211 48.9386C53.263 48.9386 52.4844 48.1165 52.4844 47.105C52.4844 46.0934 53.263 45.2713 54.2211 45.2713C55.1791 45.2713 55.9578 46.0934 55.9578 47.105ZM53.0323 47.105C53.0323 47.7985 53.5674 48.3635 54.2243 48.3635C54.8812 48.3635 55.4163 47.7985 55.4163 47.105C55.4163 46.4114 54.8812 45.8464 54.2243 45.8464C53.5642 45.8464 53.0323 46.4114 53.0323 47.105Z" fill="#6B5EFF"/>
<path d="M62.2898 41.0492C62.2898 42.0608 61.5112 42.8829 60.5531 42.8829C59.595 42.8829 58.8164 42.0608 58.8164 41.0492C58.8164 40.0376 59.595 39.2155 60.5531 39.2155C61.5112 39.2155 62.2898 40.0376 62.2898 41.0492ZM59.3611 41.0492C59.3611 41.7427 59.8962 42.3077 60.5531 42.3077C61.21 42.3077 61.7451 41.7427 61.7451 41.0492C61.7451 40.3556 61.21 39.7907 60.5531 39.7907C59.8962 39.7907 59.3611 40.3556 59.3611 41.0492Z" fill="#FFAA01"/>
<path d="M62.8459 49.6933C62.8459 49.8523 62.7242 49.9808 62.5736 49.9808H61.372C61.2214 49.9808 61.0996 49.8523 61.0996 49.6933C61.0996 49.5343 61.2214 49.4057 61.372 49.4057H62.5736C62.721 49.4057 62.8459 49.5343 62.8459 49.6933Z" fill="#6B5EFF"/>
<path d="M64.9416 49.6934C64.9416 49.8524 64.8199 49.981 64.6693 49.981H63.4677C63.3171 49.981 63.1953 49.8524 63.1953 49.6934C63.1953 49.5344 63.3171 49.4058 63.4677 49.4058H64.6693C64.8199 49.4058 64.9416 49.5344 64.9416 49.6934Z" fill="#6B5EFF"/>
<path d="M63.2928 47.9137V49.0539C63.2928 49.2129 63.171 49.3414 63.0204 49.3414C62.8698 49.3414 62.748 49.2129 62.748 49.0539V47.9137C62.748 47.7547 62.8698 47.6262 63.0204 47.6262C63.171 47.6262 63.2928 47.7547 63.2928 47.9137Z" fill="#6B5EFF"/>
<path d="M63.2928 50.336V51.4762C63.2928 51.6352 63.171 51.7637 63.0204 51.7637C62.8698 51.7637 62.748 51.6352 62.748 51.4762V50.336C62.748 50.177 62.8698 50.0485 63.0204 50.0485C63.171 50.0485 63.2928 50.177 63.2928 50.336Z" fill="#6B5EFF"/>
<path d="M50.1233 39.7906C50.1233 39.9496 50.0015 40.0781 49.8509 40.0781H48.6493C48.4987 40.0781 48.377 39.9496 48.377 39.7906C48.377 39.6316 48.4987 39.503 48.6493 39.503H49.8509C49.9983 39.503 50.1233 39.6316 50.1233 39.7906Z" fill="#FFAA01"/>
<path d="M52.2112 39.7906C52.2112 39.9496 52.0894 40.0781 51.9388 40.0781H50.7372C50.5866 40.0781 50.4648 39.9496 50.4648 39.7906C50.4648 39.6316 50.5866 39.503 50.7372 39.503H51.9388C52.0894 39.503 52.2112 39.6316 52.2112 39.7906Z" fill="#FFAA01"/>
<path d="M50.5662 38.0111V39.1513C50.5662 39.3103 50.4444 39.4388 50.2938 39.4388C50.1432 39.4388 50.0215 39.3103 50.0215 39.1513V38.0111C50.0215 37.8521 50.1432 37.7236 50.2938 37.7236C50.4444 37.7236 50.5662 37.8521 50.5662 38.0111Z" fill="#FFAA01"/>
<path d="M50.5662 40.4333V41.5734C50.5662 41.7325 50.4444 41.861 50.2938 41.861C50.1432 41.861 50.0215 41.7325 50.0215 41.5734V40.4333C50.0215 40.2743 50.1432 40.1458 50.2938 40.1458C50.4444 40.1458 50.5662 40.2743 50.5662 40.4333Z" fill="#FFAA01"/>
<path d="M27.2552 88.2171H23.785C22.6283 88.2171 21.6895 87.2259 21.6895 86.0045V82.3406C21.6895 81.1193 22.6283 80.128 23.785 80.128H27.2552C28.412 80.128 29.3508 81.1193 29.3508 82.3406V86.0045C29.3508 87.2259 28.412 88.2171 27.2552 88.2171Z" fill="#FF725E"/>
<path d="M25.0933 84.6039C24.4236 83.951 24.382 82.848 25.0004 82.141C25.6188 81.4339 26.6634 81.3899 27.3331 82.0429C28.0028 82.6958 28.0444 83.7987 27.426 84.5058C26.8076 85.2095 25.7598 85.2535 25.0933 84.6039ZM26.9614 82.4657C26.5128 82.0293 25.8111 82.0598 25.3977 82.5334C24.9844 83.007 25.0132 83.748 25.4618 84.1844C25.9104 84.6208 26.6121 84.5904 27.0255 84.1167C27.4388 83.6431 27.41 82.9022 26.9614 82.4657Z" fill="white"/>
<path d="M23.2712 86.6879C23.1623 86.5796 23.1526 86.397 23.2552 86.2819L25.0784 84.1979C25.1809 84.0829 25.354 84.0727 25.4629 84.181C25.5718 84.2893 25.5815 84.4719 25.4789 84.587L23.6557 86.671C23.5532 86.7894 23.3801 86.7962 23.2712 86.6879Z" fill="white"/>
<path d="M157.572 74.1976H154.101C152.945 74.1976 152.006 73.2063 152.006 71.985V68.321C152.006 67.0997 152.945 66.1085 154.101 66.1085H157.572C158.728 66.1085 159.667 67.0997 159.667 68.321V71.985C159.667 73.2063 158.728 74.1976 157.572 74.1976Z" fill="#FF725E"/>
<path d="M154.373 70.195V68.6456C154.373 68.4493 154.572 68.3242 154.735 68.4155L156.167 69.2072L157.542 69.965C157.718 70.0631 157.718 70.3304 157.542 70.4285L156.167 71.1863L154.735 71.978C154.572 72.0693 154.373 71.9441 154.373 71.7479V70.195Z" fill="white"/>
<path d="M133.302 53.0288H103.551C101.461 53.0288 99.7695 51.2425 99.7695 49.0367V48.4751C99.7695 46.2693 101.461 44.483 103.551 44.483H133.302C135.391 44.483 137.083 46.2693 137.083 48.4751V49.0367C137.083 51.2425 135.391 53.0288 133.302 53.0288Z" fill="#FF725E"/>
<path d="M133.087 46.2187C131.76 46.2187 130.684 47.3588 130.684 48.7561C130.684 50.1567 131.763 51.2934 133.087 51.2934C134.413 51.2934 135.49 50.1533 135.49 48.7561C135.493 47.3588 134.413 46.2187 133.087 46.2187ZM133.186 49.6966V48.8068H134.272C134.266 49.1214 134.221 49.4192 134.144 49.6966H133.186ZM133.865 50.7081C134.042 50.4713 134.183 50.2007 134.282 49.8996H135.016C134.705 50.4815 134.186 50.8908 133.577 51.0363C133.68 50.9382 133.776 50.8266 133.865 50.7081ZM134.077 49.8996C133.987 50.1499 133.865 50.3766 133.718 50.5762C133.487 50.8874 133.257 51.0465 133.183 51.0904V49.8996H134.077ZM133.186 47.5077V46.4251C133.215 46.4251 133.244 46.4284 133.273 46.4318C133.394 46.5401 133.769 46.9089 134.026 47.5077H133.186ZM134.237 47.5077C134.151 47.2878 134.042 47.078 133.913 46.8852C133.821 46.7431 133.718 46.6111 133.609 46.4893C134.163 46.6314 134.647 46.9968 134.955 47.5077H134.237ZM133.186 48.6004V47.7107H134.106C134.205 47.9982 134.263 48.2959 134.272 48.6004H133.186ZM134.465 48.6004C134.455 48.2993 134.401 47.9982 134.311 47.7107H135.067C135.198 47.9881 135.278 48.2892 135.298 48.6004H134.465ZM135.298 48.8068C135.291 49.1147 135.23 49.4158 135.112 49.6966H134.343C134.417 49.4192 134.458 49.1181 134.465 48.8068H135.298ZM131.853 49.6966H131.062C130.943 49.4158 130.882 49.1147 130.876 48.8068H131.731C131.741 49.1181 131.779 49.4158 131.853 49.6966ZM132.174 47.5077C132.247 47.3317 132.337 47.1626 132.443 47.0036C132.645 46.6957 132.846 46.5029 132.93 46.4284C132.949 46.4284 132.971 46.4251 132.991 46.4251V47.5077H132.174ZM132.991 47.7107V48.6004H131.927C131.94 48.2959 131.994 47.9982 132.093 47.7107H132.991ZM131.222 47.5077C131.536 46.9867 132.033 46.6179 132.597 46.4826C132.484 46.6044 132.382 46.7397 132.286 46.8852C132.158 47.0814 132.049 47.2911 131.962 47.5077H131.222ZM132.991 48.8068V49.6966H132.055C131.978 49.4225 131.933 49.1214 131.927 48.8068H132.991ZM130.882 48.6004C130.901 48.2892 130.978 47.9915 131.113 47.7107H131.892C131.799 47.9982 131.747 48.2993 131.738 48.6004H130.882ZM131.914 49.8996C132.013 50.2007 132.154 50.4713 132.331 50.7081C132.42 50.8299 132.523 50.9416 132.629 51.0397C132.013 50.901 131.472 50.4815 131.158 49.8962H131.914V49.8996ZM132.991 49.8996V51.0769C132.843 50.9788 132.388 50.6337 132.119 49.8996H132.991Z" fill="#F88800"/>
<path d="M127.007 46.3167C128.266 46.3167 129.295 47.3993 129.295 48.7323C129.295 50.0619 128.269 51.1479 127.007 51.1479H103.895C102.636 51.1479 101.607 50.0653 101.607 48.7323C101.607 47.4027 102.632 46.3167 103.895 46.3167H127.007ZM127.007 46.0698H103.895C102.504 46.0698 101.373 47.264 101.373 48.7323C101.373 50.2006 102.504 51.3949 103.895 51.3949H127.007C128.398 51.3949 129.529 50.2006 129.529 48.7323C129.529 47.264 128.398 46.0698 127.007 46.0698Z" fill="#F88800"/>
<path d="M136.062 156.767C145.059 156.767 152.352 155.74 152.352 154.473C152.352 153.206 145.059 152.179 136.062 152.179C127.065 152.179 119.771 153.206 119.771 154.473C119.771 155.74 127.065 156.767 136.062 156.767Z" fill="#E8E8F9"/>
<path d="M141.207 151.516H141.184C141.184 151.516 138.294 151.117 138.294 148.627V131.39H135.564V148.627C135.564 151.12 132.674 151.516 132.674 151.516H132.651C131.953 151.516 131.321 151.814 130.863 152.297C130.405 152.781 130.123 153.448 130.123 154.185H143.741C143.735 152.71 142.604 151.516 141.207 151.516Z" fill="#542BDA"/>
<path d="M150.02 131.386H123.832C124.265 128.862 126.347 127.029 128.779 127.039L136.928 127.062L145.076 127.039C147.502 127.032 149.588 128.862 150.02 131.386Z" fill="#6B5EFF"/>
<path d="M130.853 99.8215C130.853 99.8215 126.873 105.424 126.345 110.309C125.97 113.76 130.853 118.916 130.853 118.916L132.535 118.033L130.86 114.041C130.264 112.099 129.53 111.331 130.071 109.369L131.286 106.605L130.853 99.8215Z" fill="#542BDA"/>
<path d="M143.39 99.7366C143.39 99.7366 147.315 105.708 147.642 110.613C147.924 114.842 143.114 118.912 143.114 118.912L141.727 118.182L143.649 114.149C144.245 112.207 144.53 111.033 143.716 108.919L142.685 106.601L143.39 99.7366Z" fill="#542BDA"/>
<path d="M131.661 112.579L129.023 121.436C129.023 121.436 140.44 122.972 143.933 121.978L142.161 112.332L143.388 99.7369C141.68 98.9757 139.867 98.4919 138.018 98.3498C135.317 98.1434 133.612 98.6137 130.85 99.8215L131.661 112.579Z" fill="#6B5EFF"/>
<path d="M134.52 102.491C137.039 102.179 139.381 100.353 139.49 100.268C139.551 100.221 139.564 100.126 139.519 100.062C139.474 99.9973 139.384 99.9838 139.324 100.031C139.295 100.051 136.539 102.2 133.886 102.24C133.806 102.24 133.745 102.308 133.748 102.389C133.748 102.47 133.812 102.538 133.889 102.535C134.097 102.535 134.309 102.518 134.52 102.491Z" fill="#542BDA"/>
<path d="M136.547 149.943L136.752 151.898L138.723 151.946L138.889 150.325L136.547 149.943Z" fill="#FBA691"/>
<path d="M136.24 118.94C136.24 118.94 131.138 118.645 129.411 120.137C127.684 121.629 128.03 125.912 129.793 127.083C131.552 128.253 134.554 130.551 134.554 130.551L136.464 150.586L138.986 150.677C138.986 150.677 141.309 130.554 140.133 126.656C138.947 122.752 136.24 118.94 136.24 118.94Z" fill="#001030"/>
<path d="M139.215 149.679C139.352 150.146 139.285 150.599 139.151 151.052L136.248 150.985C136.145 150.538 136.129 150.092 136.19 149.642L139.215 149.679Z" fill="#2E3062"/>
<path d="M143.455 118.787H130.068L128.831 111.148C128.725 110.485 129.206 109.883 129.844 109.883H143.683C144.317 109.883 144.801 110.488 144.695 111.148L143.455 118.787Z" fill="#FF725E"/>
<path d="M142.311 120.448H131.23C130.589 120.448 130.07 119.9 130.07 119.224V118.787H143.47V119.224C143.47 119.9 142.951 120.448 142.311 120.448Z" fill="#F88800"/>
<path d="M137.955 114.65C137.955 115.326 137.436 115.878 136.792 115.878C136.151 115.878 135.629 115.33 135.629 114.65C135.629 113.973 136.148 113.421 136.792 113.421C137.436 113.421 137.955 113.973 137.955 114.65Z" fill="#FDCC50"/>
<path d="M128.178 144.445L127.742 146.38L129.508 146.749L130.229 145.02L128.178 144.445Z" fill="#FBA691"/>
<path d="M138.831 118.608C138.831 118.608 135.415 117.363 133.412 119.975C131.41 122.587 128.055 144.638 128.055 144.638L130.352 145.639L137.741 126.058C137.741 126.058 143.759 129.684 144.489 124.528C145.069 120.448 138.831 118.608 138.831 118.608Z" fill="#2E3062"/>
<path d="M130.872 144.628C130.863 145.132 130.661 145.555 130.389 145.951L127.562 144.895C127.598 144.421 127.72 143.978 127.918 143.559L130.872 144.628Z" fill="#524E84"/>
<path d="M129.091 146.062C129.091 146.062 128.021 145.487 127.704 145.423C127.39 145.358 124.785 147.307 124.044 147.29C122.705 147.256 122.279 149.33 123.038 149.611C125.24 150.426 129.309 150.325 129.309 150.325C129.309 150.325 130.213 147.744 130.229 146.874C130.248 146.001 129.671 146.451 129.091 146.062Z" fill="#FF725E"/>
<path d="M126.753 147.903C126.791 147.92 126.836 147.923 126.878 147.906C126.961 147.872 126.999 147.777 126.967 147.689C126.958 147.662 126.692 146.986 126.259 146.675C125.682 146.258 125.151 146.546 125.128 146.559C125.051 146.603 125.022 146.705 125.064 146.783C125.106 146.864 125.205 146.894 125.282 146.85C125.298 146.844 125.666 146.647 126.077 146.945C126.429 147.199 126.666 147.804 126.669 147.811C126.685 147.855 126.714 147.886 126.753 147.903Z" fill="white"/>
<path d="M127.288 147.514C127.326 147.53 127.371 147.534 127.413 147.517C127.496 147.483 127.535 147.388 127.502 147.3C127.493 147.273 127.227 146.597 126.794 146.285C126.218 145.869 125.686 146.157 125.663 146.17C125.586 146.214 125.558 146.316 125.599 146.394C125.641 146.475 125.74 146.505 125.817 146.461C125.833 146.455 126.202 146.258 126.612 146.556C126.967 146.813 127.201 147.415 127.204 147.422C127.221 147.463 127.253 147.497 127.288 147.514Z" fill="white"/>
<path d="M126.063 148.183C126.102 148.2 126.147 148.204 126.188 148.187C126.271 148.153 126.31 148.058 126.278 147.97C126.268 147.943 126.002 147.267 125.57 146.955C124.993 146.539 124.461 146.827 124.439 146.84C124.362 146.884 124.333 146.986 124.375 147.064C124.416 147.145 124.516 147.175 124.592 147.131C124.608 147.124 124.977 146.928 125.387 147.226C125.743 147.483 125.977 148.085 125.98 148.092C125.996 148.133 126.028 148.166 126.063 148.183Z" fill="white"/>
<path d="M137.51 151.817C137.51 151.817 138.605 151.465 138.913 151.458C139.221 151.452 141.358 153.742 142.056 153.854C143.319 154.057 143.396 156.08 142.636 156.212C140.441 156.594 136.635 155.785 136.635 155.785C136.635 155.785 136.193 153.204 136.311 152.382C136.43 151.56 136.901 152.081 137.51 151.817Z" fill="#FF725E"/>
<path d="M139.413 153.958C139.375 153.969 139.33 153.965 139.295 153.941C139.224 153.894 139.202 153.799 139.244 153.725C139.26 153.701 139.612 153.113 140.067 152.896C140.673 152.605 141.128 152.971 141.147 152.987C141.214 153.042 141.224 153.14 141.169 153.211C141.118 153.278 141.022 153.292 140.955 153.234C140.942 153.224 140.628 152.977 140.195 153.184C139.824 153.363 139.506 153.887 139.503 153.891C139.484 153.925 139.452 153.948 139.413 153.958Z" fill="white"/>
<path d="M138.974 153.498C138.935 153.508 138.891 153.505 138.855 153.481C138.785 153.434 138.762 153.339 138.804 153.265C138.82 153.241 139.173 152.652 139.628 152.436C140.236 152.145 140.688 152.51 140.707 152.527C140.775 152.581 140.784 152.679 140.73 152.751C140.679 152.818 140.582 152.832 140.515 152.774C140.502 152.764 140.188 152.517 139.756 152.723C139.381 152.903 139.067 153.427 139.064 153.431C139.044 153.464 139.009 153.488 138.974 153.498Z" fill="white"/>
<path d="M140.021 154.341C139.982 154.351 139.937 154.347 139.902 154.324C139.832 154.276 139.809 154.182 139.851 154.107C139.867 154.083 140.219 153.495 140.674 153.278C141.283 152.987 141.735 153.353 141.754 153.37C141.822 153.424 141.831 153.525 141.777 153.593C141.725 153.661 141.629 153.674 141.562 153.617C141.549 153.606 141.235 153.359 140.803 153.566C140.428 153.745 140.114 154.27 140.111 154.273C140.091 154.307 140.056 154.33 140.021 154.341Z" fill="white"/>
<path d="M133.025 92.7674C133.025 92.7674 131.388 89.8105 132.769 87.5303C134.15 85.2467 137.081 85.4632 137.844 85.6425C138.603 85.8218 142.977 87.987 140.334 93.2411L133.025 92.7674Z" fill="#2E3062"/>
<path d="M133.293 91.9317C133.293 91.9317 132.63 90.9979 132.136 91.7693C131.643 92.5407 132.342 94.8209 133.546 94.2627L133.293 91.9317Z" fill="#FB876B"/>
<path d="M133.287 93.559C133.242 93.559 133.201 93.5286 133.188 93.4812C133.002 92.7775 132.31 92.4933 132.304 92.49C132.252 92.4697 132.224 92.4054 132.246 92.3512C132.265 92.2971 132.326 92.2667 132.377 92.2903C132.409 92.3039 133.172 92.6151 133.387 93.4237C133.403 93.4812 133.371 93.5387 133.316 93.5557C133.307 93.559 133.297 93.559 133.287 93.559Z" fill="#D45C48"/>
<path d="M132.59 93.2072C132.571 93.2072 132.552 93.2004 132.536 93.1903C132.488 93.1564 132.475 93.0922 132.504 93.0414C132.51 93.0346 132.632 92.835 132.885 92.7166C132.936 92.6929 132.997 92.7166 133.019 92.7708C133.042 92.8249 133.019 92.8892 132.968 92.9128C132.769 93.0076 132.673 93.1564 132.673 93.1598C132.657 93.1869 132.625 93.2072 132.59 93.2072Z" fill="#D45C48"/>
<path d="M140.124 91.9318C140.124 91.9318 140.788 90.9981 141.281 91.7694C141.774 92.5408 141.076 94.821 139.871 94.2628L140.124 91.9318Z" fill="#FB876B"/>
<path d="M140.133 93.559C140.178 93.559 140.219 93.5285 140.232 93.4812C140.418 92.7775 141.11 92.4933 141.116 92.4899C141.168 92.4696 141.197 92.4053 141.174 92.3512C141.155 92.2971 141.094 92.2666 141.043 92.2903C141.011 92.3038 140.248 92.6151 140.033 93.4236C140.017 93.4812 140.049 93.5387 140.104 93.5556C140.114 93.559 140.123 93.559 140.133 93.559Z" fill="#D45C48"/>
<path d="M140.823 93.2071C140.842 93.2071 140.861 93.2003 140.877 93.1901C140.925 93.1563 140.938 93.092 140.909 93.0413C140.903 93.0345 140.781 92.8349 140.528 92.7165C140.477 92.6928 140.416 92.7165 140.393 92.7706C140.371 92.8248 140.393 92.889 140.445 92.9127C140.643 93.0075 140.74 93.1563 140.74 93.1597C140.756 93.1868 140.788 93.2071 140.823 93.2071Z" fill="#D45C48"/>
<path d="M138.343 96.1979V98.4646C138.343 98.4646 137.702 99.6183 136.837 99.6961C135.972 99.7773 135.203 98.7015 135.203 98.7015V96.3569L138.343 96.1979Z" fill="#FBA691"/>
<path d="M138.343 96.1979V97.2027C137.763 97.8827 136.732 98.0519 135.203 97.8151V96.3569L138.343 96.1979Z" fill="#FB876B"/>
<path d="M140.608 90.3755C140.57 91.2551 140.489 92.358 140.329 93.2376C140.291 93.4575 140.246 93.6639 140.195 93.85C139.743 95.5213 138.612 98.3834 135.449 97.1925C134.052 96.6648 133.405 95.0239 133.116 93.3527C132.921 92.2193 132.892 91.0724 132.905 90.2503C132.921 89.4147 133.354 88.6501 134.042 88.2373C135.911 87.1209 137.881 87.537 139.176 88.0614C140.076 88.4268 140.653 89.3605 140.608 90.3755Z" fill="#FBA691"/>
<path d="M135.859 87.1512C135.859 87.1512 140.035 94.222 140.608 91.6271C141.425 87.953 138.932 85.6795 135.859 87.1512Z" fill="#2E3062"/>
<path d="M135.687 87.1479C132.909 87.1682 131.528 90.5006 132.816 90.8964C134.607 91.4445 136.164 88.765 136.642 87.8381C136.321 87.6148 135.998 87.3915 135.687 87.1479Z" fill="#2E3062"/>
<path d="M139.044 88.2444C140.447 87.6348 141.115 85.9403 140.538 84.4596C139.961 82.9789 138.356 82.2728 136.953 82.8824C135.551 83.492 134.882 85.1865 135.459 86.6672C136.037 88.1479 137.642 88.854 139.044 88.2444Z" fill="#2E3062"/>
<path d="M133.391 90.5818C133.391 90.5818 133.605 91.4682 133.31 92.0636C133.016 92.6591 133.176 93.6808 133.31 94.8311C133.31 94.8311 132.843 94.1307 132.814 93.0109C132.785 91.8877 132.961 90.9573 132.814 90.5074L133.391 90.5818Z" fill="#2E3062"/>
<path d="M139.949 90.5818C139.949 90.5818 139.734 91.4682 140.029 92.0636C140.323 92.6591 140.163 93.6808 140.029 94.8311C140.029 94.8311 140.496 94.1307 140.525 93.0109C140.554 91.8877 140.378 90.9573 140.525 90.5074L139.949 90.5818Z" fill="#2E3062"/>
<path d="M135.32 92.2802C135.32 92.5238 135.202 92.7167 135.058 92.7167C134.913 92.7167 134.795 92.5204 134.795 92.2802C134.795 92.0366 134.913 91.8438 135.058 91.8438C135.202 91.8438 135.32 92.04 135.32 92.2802Z" fill="#2E3062"/>
<path d="M138.574 92.2802C138.574 92.5238 138.456 92.7166 138.312 92.7166C138.167 92.7166 138.049 92.5204 138.049 92.2802C138.049 92.0366 138.167 91.8438 138.312 91.8438C138.456 91.8437 138.574 92.04 138.574 92.2802Z" fill="#2E3062"/>
<path d="M134.532 90.7612C134.75 90.6969 135.192 90.5852 135.66 90.5818C135.781 90.5818 135.878 90.6969 135.855 90.8254V90.8288C135.839 90.9303 135.753 91.0014 135.653 90.998C135.336 90.9811 134.503 91.0284 134.109 91.1976C134.099 91.1265 134.141 91.0453 134.199 90.9743C134.285 90.8694 134.404 90.7984 134.532 90.7612Z" fill="#2E3062"/>
<path d="M138.791 90.768C138.574 90.7037 138.131 90.5921 137.664 90.5887C137.542 90.5887 137.446 90.7037 137.468 90.8323V90.8357C137.484 90.9372 137.571 91.0082 137.67 91.0048C137.987 90.9879 138.82 91.0353 139.214 91.2044C139.221 91.1334 139.182 91.0522 139.125 90.9845C139.041 90.8763 138.92 90.8086 138.791 90.768Z" fill="#2E3062"/>
<path d="M136.747 94.0632C136.67 94.0632 136.59 94.0497 136.526 94.0057C136.465 93.9685 136.391 93.8907 136.378 93.7418C136.34 93.346 136.436 92.1044 136.439 92.0536C136.442 91.9927 136.494 91.9488 136.548 91.9555C136.606 91.9589 136.647 92.013 136.641 92.0705C136.641 92.0841 136.542 93.3426 136.58 93.7181C136.586 93.7824 136.612 93.8061 136.631 93.8196C136.727 93.8805 136.949 93.8196 137.041 93.779C137.093 93.7554 137.154 93.7824 137.173 93.8366C137.195 93.8907 137.17 93.955 137.118 93.9753C137.09 93.9922 136.92 94.0632 136.747 94.0632Z" fill="#FB876B"/>
<path d="M135.451 94.7431C135.528 95.1525 135.784 95.9069 136.646 95.9069C137.512 95.9069 137.755 95.2167 137.838 94.7431H135.451Z" fill="#F6F6F6"/>
<path d="M136.636 96.536C136.386 96.536 136.168 96.3939 136.158 96.3872C136.11 96.3567 136.094 96.2891 136.126 96.2383C136.155 96.1876 136.219 96.1707 136.267 96.2045C136.27 96.2045 136.45 96.3195 136.639 96.3195C136.844 96.3195 137.03 96.2045 137.03 96.2045C137.078 96.174 137.142 96.191 137.171 96.2417C137.199 96.2925 137.183 96.3601 137.135 96.3906C137.123 96.3939 136.898 96.536 136.636 96.536Z" fill="#FB876B"/>
</svg>
