<svg width="188" height="188" viewBox="0 0 188 188" fill="none" xmlns="http://www.w3.org/2000/svg">
<circle cx="94" cy="94" r="94" fill="#D5FCFF" fill-opacity="0.67"/>
<g clip-path="url(#clip0_287_16275)">
<path d="M170.593 134.563H17.4082V134.639H170.593V134.563Z" fill="#EBEBEB"/>
<path d="M155.245 139.493H145.098V139.569H155.245V139.493Z" fill="#EBEBEB"/>
<path d="M118.885 140.326H116.223V140.402H118.885V140.326Z" fill="#EBEBEB"/>
<path d="M144.791 136.65H138.912V136.726H144.791V136.65Z" fill="#EBEBEB"/>
<path d="M46.7126 137.164H33.4805V137.24H46.7126V137.164Z" fill="#EBEBEB"/>
<path d="M51.3807 137.164H49.4414V137.24H51.3807V137.164Z" fill="#EBEBEB"/>
<path d="M86.3883 138.457H57.6875V138.533H86.3883V138.457Z" fill="#EBEBEB"/>
<path d="M90.0167 120.899H30.8596C30.3962 120.898 29.952 120.714 29.6246 120.386C29.2972 120.058 29.1133 119.613 29.1133 119.15V35.9918C29.1173 35.531 29.303 35.0905 29.63 34.7658C29.9569 34.4411 30.3988 34.2585 30.8596 34.2578H90.0167C90.4806 34.2578 90.9256 34.4421 91.2536 34.7701C91.5817 35.0982 91.766 35.5432 91.766 36.0071V119.15C91.766 119.614 91.5817 120.059 91.2536 120.387C90.9256 120.715 90.4806 120.899 90.0167 120.899ZM30.8596 34.319C30.4165 34.3198 29.9918 34.4964 29.6787 34.8101C29.3657 35.1237 29.1899 35.5487 29.1899 35.9918V119.15C29.1899 119.593 29.3657 120.018 29.6787 120.332C29.9918 120.645 30.4165 120.822 30.8596 120.823H90.0167C90.4601 120.822 90.8851 120.645 91.1986 120.332C91.5121 120.018 91.6886 119.593 91.6894 119.15V35.9918C91.6886 35.5484 91.5121 35.1234 91.1986 34.8099C90.8851 34.4963 90.4601 34.3198 90.0167 34.319H30.8596Z" fill="#EBEBEB"/>
<path d="M156.288 120.899H97.1283C96.6646 120.898 96.2201 120.714 95.8922 120.386C95.5643 120.058 95.3797 119.614 95.3789 119.15V35.9918C95.3837 35.5308 95.5701 35.0902 95.8976 34.7656C96.225 34.441 96.6672 34.2585 97.1283 34.2578H156.288C156.749 34.2593 157.19 34.4423 157.516 34.7669C157.842 35.0914 158.028 35.5316 158.032 35.9918V119.15C158.032 119.613 157.848 120.057 157.521 120.385C157.195 120.713 156.751 120.898 156.288 120.899ZM97.1283 34.319C96.6849 34.3198 96.2599 34.4963 95.9463 34.8099C95.6328 35.1234 95.4563 35.5484 95.4555 35.9918V119.15C95.4563 119.593 95.6328 120.018 95.9463 120.332C96.2599 120.645 96.6849 120.822 97.1283 120.823H156.288C156.732 120.822 157.157 120.645 157.47 120.332C157.784 120.018 157.96 119.593 157.961 119.15V35.9918C157.96 35.5484 157.784 35.1234 157.47 34.8099C157.157 34.4963 156.732 34.3198 156.288 34.319H97.1283Z" fill="#EBEBEB"/>
<path d="M67.8035 37.5512H45.9746V111.604H67.8035V37.5512Z" fill="#FAFAFA"/>
<path d="M64.5538 37.5513H63.2793L55.666 111.604H56.9405L64.5538 37.5513Z" fill="#F5F5F5"/>
<path d="M67.4158 37.8361H45.832V38.4887H67.4158V37.8361Z" fill="#E0E0E0"/>
<path d="M67.4158 110.954H45.832V112.351H67.4158V110.954Z" fill="#EBEBEB"/>
<path d="M67.0591 112.29H46.6641V112.351H67.0591V112.29Z" fill="#EBEBEB"/>
<path d="M46.6619 37.8362H67.0569V112.29H68.2794V36.9201H45.4395V112.29H46.6619V37.8362Z" fill="#EBEBEB"/>
<path d="M92.0945 37.5512H70.2656V111.604H92.0945V37.5512Z" fill="#FAFAFA"/>
<path d="M86.0397 37.5513H79.0821L71.4688 111.604H78.4264L86.0397 37.5513Z" fill="#F5F5F5"/>
<path d="M92.3215 37.8361H70.125V38.4887H92.3215V37.8361Z" fill="#E0E0E0"/>
<path d="M92.3215 110.954H70.125V112.352H92.3215V110.954Z" fill="#EBEBEB"/>
<path d="M91.3521 112.29H70.957V112.351H91.3521V112.29Z" fill="#EBEBEB"/>
<path d="M70.9548 37.8361H91.3499V112.29H92.5693V36.92H69.7324V112.29H70.9548V37.8361Z" fill="#EBEBEB"/>
<path d="M115.771 37.5513H94.5547V111.604H115.771V37.5513Z" fill="#FAFAFA"/>
<path d="M106.577 37.5512H105.303L97.6895 111.604H98.964L106.577 37.5512Z" fill="#F5F5F5"/>
<path d="M116.002 37.8361H94.418V38.4887H116.002V37.8361Z" fill="#E0E0E0"/>
<path d="M116.002 110.955H94.418V112.352H116.002V110.955Z" fill="#EBEBEB"/>
<path d="M115.643 112.29H95.248V112.351H115.643V112.29Z" fill="#EBEBEB"/>
<path d="M95.2478 37.8362H115.64V112.29H116.862V36.9201H94.0254V112.29H95.2478V37.8362Z" fill="#EBEBEB"/>
<path d="M140.677 37.5513H118.848V111.604H140.677V37.5513Z" fill="#FAFAFA"/>
<path d="M138.541 37.5513H131.583L123.967 111.604H130.928L138.541 37.5513Z" fill="#F5F5F5"/>
<path d="M140.291 37.8361H118.707V38.4887H140.291V37.8361Z" fill="#E0E0E0"/>
<path d="M140.291 110.954H118.707V112.351H140.291V110.954Z" fill="#EBEBEB"/>
<path d="M119.536 37.8362H139.931V112.29H141.153V36.9201H118.316V112.29H119.536V37.8362Z" fill="#EBEBEB"/>
<path d="M139.932 112.29H119.537V112.351H139.932V112.29Z" fill="#EBEBEB"/>
<path d="M62.5796 94.5698H53.1035V110.958H62.5796V94.5698Z" fill="#EBEBEB"/>
<path d="M60.7582 92.2781V96.3896H60.0138H55.6694H54.9219V92.2781H60.7582Z" fill="#EBEBEB"/>
<path d="M60.7594 96.3897H61.9727V95.1765H60.7594V96.3897Z" fill="#FAFAFA"/>
<path d="M58.4137 96.3897H59.627V95.1765H58.4137V96.3897Z" fill="#FAFAFA"/>
<path d="M56.0641 96.3897H57.2773V95.1765H56.0641V96.3897Z" fill="#FAFAFA"/>
<path d="M53.7126 96.3896H54.9258V95.1764H53.7126V96.3896Z" fill="#F0F0F0"/>
<path d="M60.7594 98.5925H61.9727V97.3792H60.7594V98.5925Z" fill="#F0F0F0"/>
<path d="M58.4137 98.5925H59.627V97.3792H58.4137V98.5925Z" fill="#F0F0F0"/>
<path d="M56.0641 98.5925H57.2773V97.3792H56.0641V98.5925Z" fill="#FAFAFA"/>
<path d="M53.7126 98.5925H54.9258V97.3792H53.7126V98.5925Z" fill="#FAFAFA"/>
<path d="M60.7594 100.798H61.9727V99.5852H60.7594V100.798Z" fill="#F0F0F0"/>
<path d="M58.4137 100.798H59.627V99.5852H58.4137V100.798Z" fill="#FAFAFA"/>
<path d="M56.0641 100.798H57.2773V99.5852H56.0641V100.798Z" fill="#FAFAFA"/>
<path d="M58.4137 94.4841H59.627V93.2708H58.4137V94.4841Z" fill="#FAFAFA"/>
<path d="M56.0641 94.4841H57.2773V93.2708H56.0641V94.4841Z" fill="#F0F0F0"/>
<path d="M53.7126 100.798H54.9258V99.5851H53.7126V100.798Z" fill="#F0F0F0"/>
<path d="M60.7594 103.004H61.9727V101.791H60.7594V103.004Z" fill="#FAFAFA"/>
<path d="M58.4137 103.004H59.627V101.791H58.4137V103.004Z" fill="#F0F0F0"/>
<path d="M56.0641 103.004H57.2773V101.791H56.0641V103.004Z" fill="#F0F0F0"/>
<path d="M53.7126 103.004H54.9258V101.791H53.7126V103.004Z" fill="#FAFAFA"/>
<path d="M60.7594 105.21H61.9727V103.997H60.7594V105.21Z" fill="#F0F0F0"/>
<path d="M58.4137 105.21H59.627V103.997H58.4137V105.21Z" fill="#FAFAFA"/>
<path d="M56.0641 105.21H57.2773V103.997H56.0641V105.21Z" fill="#FAFAFA"/>
<path d="M53.7126 105.21H54.9258V103.997H53.7126V105.21Z" fill="#F0F0F0"/>
<path d="M60.7594 107.413H61.9727V106.2H60.7594V107.413Z" fill="#F0F0F0"/>
<path d="M58.4137 107.413H59.627V106.2H58.4137V107.413Z" fill="#FAFAFA"/>
<path d="M56.0641 107.413H57.2773V106.2H56.0641V107.413Z" fill="#F0F0F0"/>
<path d="M53.7126 107.413H54.9258V106.2H53.7126V107.413Z" fill="#FAFAFA"/>
<path d="M60.7594 109.619H61.9727V108.405H60.7594V109.619Z" fill="#FAFAFA"/>
<path d="M58.4137 109.619H59.627V108.405H58.4137V109.619Z" fill="#FAFAFA"/>
<path d="M56.0641 109.619H57.2773V108.405H56.0641V109.619Z" fill="#F0F0F0"/>
<path d="M53.7126 109.619H54.9258V108.405H53.7126V109.619Z" fill="#F0F0F0"/>
<path d="M129.337 100.538H120.848V110.954H129.337V100.538Z" fill="#F0F0F0"/>
<path d="M121.586 101.696H123.559H124.104H124.647V102.781H124.104H123.559H121.586V101.696Z" fill="#E6E6E6"/>
<path d="M121.586 103.801H123.559H124.104H124.647V104.888H124.104H123.559H121.586V103.801Z" fill="#FAFAFA"/>
<path d="M121.586 105.906H123.559H124.104H124.647V106.993H124.104H123.559H121.586V105.906Z" fill="#E6E6E6"/>
<path d="M121.586 108.01H123.559H124.398H124.647V109.098H124.398H123.559H121.586V108.01Z" fill="#FAFAFA"/>
<path d="M125.535 101.696H127.511H128.054H128.596V102.781H128.054H127.511H125.535V101.696Z" fill="#FAFAFA"/>
<path d="M125.535 103.801H127.511H128.277H128.596V104.888H128.277H127.511H125.535V103.801Z" fill="#FAFAFA"/>
<path d="M125.535 105.906H127.511H128.054H128.596V106.993H128.054H127.511H125.535V105.906Z" fill="#E6E6E6"/>
<path d="M125.535 108.01H127.511H128.054H128.596V109.098H128.054H127.511H125.535V108.01Z" fill="#FAFAFA"/>
<path d="M88.4292 104.484H80.7148V110.958H88.4292V104.484Z" fill="#F0F0F0"/>
<path d="M86.949 106.279H87.9355V105.293H86.949V106.279Z" fill="#FAFAFA"/>
<path d="M85.0369 106.279H86.0234V105.293H85.0369V106.279Z" fill="#FAFAFA"/>
<path d="M83.1229 106.279H84.1094V105.293H83.1229V106.279Z" fill="#FAFAFA"/>
<path d="M81.2108 106.279H82.1973V105.293H81.2108V106.279Z" fill="#FAFAFA"/>
<path d="M86.949 108.072H87.9355V107.085H86.949V108.072Z" fill="#FAFAFA"/>
<path d="M85.0369 108.072H86.0234V107.085H85.0369V108.072Z" fill="#FAFAFA"/>
<path d="M83.1229 108.072H84.1094V107.085H83.1229V108.072Z" fill="#FAFAFA"/>
<path d="M81.2108 108.072H82.1973V107.085H81.2108V108.072Z" fill="#E6E6E6"/>
<path d="M86.949 109.867H87.9355V108.88H86.949V109.867Z" fill="#E6E6E6"/>
<path d="M85.0369 109.867H86.0234V108.88H85.0369V109.867Z" fill="#E6E6E6"/>
<path d="M83.1229 109.867H84.1094V108.88H83.1229V109.867Z" fill="#FAFAFA"/>
<path d="M81.2108 109.867H82.1973V108.88H81.2108V109.867Z" fill="#E6E6E6"/>
<path d="M79.6695 99.6984H71.9551V110.958H79.6695V99.6984Z" fill="#F0F0F0"/>
<path d="M79.1748 100.192H76.2734V102.974H79.1748V100.192Z" fill="#FAFAFA"/>
<path d="M75.3486 100.192H72.4473V102.974H75.3486V100.192Z" fill="#FAFAFA"/>
<path d="M79.1748 103.779H76.2734V106.561H79.1748V103.779Z" fill="#FAFAFA"/>
<path d="M75.3486 103.779H72.4473V106.561H75.3486V103.779Z" fill="#FAFAFA"/>
<path d="M79.1748 107.367H76.2734V110.149H79.1748V107.367Z" fill="#FAFAFA"/>
<path d="M75.3486 107.367H72.4473V110.149H75.3486V107.367Z" fill="#FAFAFA"/>
<path d="M93.9998 148.399C126.807 148.399 153.402 146.846 153.402 144.931C153.402 143.016 126.807 141.463 93.9998 141.463C61.1929 141.463 34.5977 143.016 34.5977 144.931C34.5977 146.846 61.1929 148.399 93.9998 148.399Z" fill="#F5F5F5"/>
<path d="M153.611 41.7975V109.273L145.492 117.391H98.4922V41.7975H153.611Z" fill="#407BFF"/>
<path opacity="0.8" d="M153.611 41.7975V109.273L145.492 117.391H98.4922V41.7975H153.611Z" fill="white"/>
<path opacity="0.2" d="M145.492 117.391V109.512H153.611L145.651 117.471" fill="black"/>
<path opacity="0.1" d="M119.35 48.3508H104.148C103.934 48.3508 103.729 48.2659 103.578 48.1148C103.427 47.9637 103.342 47.7588 103.342 47.5451C103.341 47.439 103.362 47.3339 103.402 47.2358C103.443 47.1377 103.502 47.0485 103.577 46.9733C103.652 46.8982 103.741 46.8386 103.839 46.7979C103.936 46.7572 104.041 46.7363 104.148 46.7363H119.35C119.564 46.7371 119.769 46.8226 119.92 46.9742C120.071 47.1258 120.155 47.3311 120.155 47.5451C120.155 47.7588 120.071 47.9637 119.919 48.1148C119.768 48.2659 119.563 48.3508 119.35 48.3508Z" fill="black"/>
<path opacity="0.1" d="M146.923 54.8887H110.275C110.168 54.8887 110.063 54.8678 109.965 54.8271C109.867 54.7864 109.779 54.7268 109.704 54.6517C109.629 54.5765 109.57 54.4873 109.529 54.3892C109.489 54.2911 109.468 54.186 109.469 54.0799C109.469 53.8662 109.554 53.6613 109.705 53.5102C109.856 53.3591 110.061 53.2742 110.275 53.2742H146.923C147.136 53.2742 147.341 53.3591 147.492 53.5102C147.643 53.6613 147.728 53.8662 147.728 54.0799C147.728 54.2939 147.643 54.4992 147.492 54.6508C147.341 54.8024 147.137 54.8879 146.923 54.8887Z" fill="black"/>
<path opacity="0.1" d="M146.923 58.0658H104.148C103.934 58.0658 103.729 57.9809 103.578 57.8298C103.427 57.6787 103.342 57.4737 103.342 57.2601C103.341 57.154 103.362 57.0489 103.402 56.9508C103.443 56.8526 103.502 56.7635 103.577 56.6883C103.652 56.6132 103.741 56.5535 103.839 56.5129C103.936 56.4722 104.041 56.4512 104.148 56.4512H146.923C147.137 56.452 147.342 56.5376 147.493 56.6892C147.644 56.8408 147.729 57.0461 147.729 57.2601C147.729 57.4737 147.644 57.6787 147.493 57.8298C147.342 57.9809 147.137 58.0658 146.923 58.0658Z" fill="black"/>
<path opacity="0.1" d="M146.923 61.6565H104.148C104.041 61.6565 103.936 61.6356 103.839 61.5949C103.741 61.5542 103.652 61.4946 103.577 61.4194C103.502 61.3443 103.443 61.2551 103.402 61.157C103.362 61.0589 103.341 60.9538 103.342 60.8477C103.342 60.634 103.427 60.429 103.578 60.2779C103.729 60.1268 103.934 60.0419 104.148 60.0419H146.923C147.137 60.0419 147.342 60.1268 147.493 60.2779C147.644 60.429 147.729 60.634 147.729 60.8477C147.729 61.0617 147.644 61.2669 147.493 61.4185C147.342 61.5701 147.137 61.6557 146.923 61.6565Z" fill="black"/>
<path opacity="0.1" d="M146.923 65.2441H104.148C103.934 65.2441 103.729 65.1592 103.578 65.0081C103.427 64.857 103.342 64.652 103.342 64.4383C103.342 64.2246 103.427 64.0197 103.578 63.8686C103.729 63.7175 103.934 63.6326 104.148 63.6326H146.923C147.137 63.6326 147.342 63.7175 147.493 63.8686C147.644 64.0197 147.729 64.2246 147.729 64.4383C147.729 64.652 147.644 64.857 147.493 65.0081C147.342 65.1592 147.137 65.2441 146.923 65.2441Z" fill="black"/>
<path opacity="0.1" d="M146.923 68.8347H104.148C103.934 68.8347 103.729 68.7498 103.578 68.5987C103.427 68.4476 103.342 68.2427 103.342 68.029C103.341 67.923 103.362 67.8181 103.402 67.7201C103.443 67.6222 103.502 67.5332 103.577 67.4583C103.652 67.3834 103.741 67.3241 103.839 67.2837C103.937 67.2434 104.042 67.2228 104.148 67.2232H146.923C147.137 67.2232 147.342 67.3081 147.493 67.4592C147.644 67.6103 147.729 67.8153 147.729 68.029C147.729 68.2427 147.644 68.4476 147.493 68.5987C147.342 68.7498 147.137 68.8347 146.923 68.8347Z" fill="black"/>
<path opacity="0.1" d="M146.923 72.4254H104.148C103.934 72.4254 103.729 72.3405 103.578 72.1894C103.427 72.0383 103.342 71.8333 103.342 71.6196C103.341 71.5135 103.362 71.4084 103.402 71.3103C103.443 71.2122 103.502 71.123 103.577 71.0479C103.652 70.9727 103.741 70.9131 103.839 70.8724C103.936 70.8317 104.041 70.8108 104.148 70.8108H146.923C147.137 70.8116 147.342 70.8972 147.493 71.0488C147.644 71.2004 147.729 71.4056 147.729 71.6196C147.729 71.8333 147.644 72.0383 147.493 72.1894C147.342 72.3405 147.137 72.4254 146.923 72.4254Z" fill="black"/>
<path opacity="0.1" d="M146.926 74.4015H104.148C103.703 74.4015 103.342 74.7622 103.342 75.2072V75.2103C103.342 75.6553 103.703 76.0161 104.148 76.0161H146.926C147.371 76.0161 147.732 75.6553 147.732 75.2103V75.2072C147.732 74.7622 147.371 74.4015 146.926 74.4015Z" fill="black"/>
<path opacity="0.1" d="M146.923 79.6006H104.148C103.934 79.6006 103.729 79.5157 103.578 79.3646C103.427 79.2135 103.342 79.0085 103.342 78.7948C103.342 78.5811 103.427 78.3762 103.578 78.2251C103.729 78.074 103.934 77.9891 104.148 77.9891H146.923C147.137 77.9891 147.342 78.074 147.493 78.2251C147.644 78.3762 147.729 78.5811 147.729 78.7948C147.729 79.0085 147.644 79.2135 147.493 79.3646C147.342 79.5157 147.137 79.6006 146.923 79.6006Z" fill="black"/>
<path opacity="0.1" d="M146.923 83.1943H104.148C103.934 83.1943 103.729 83.1094 103.578 82.9583C103.427 82.8072 103.342 82.6022 103.342 82.3885C103.341 82.2826 103.362 82.1776 103.402 82.0797C103.443 81.9818 103.502 81.8928 103.577 81.8179C103.652 81.743 103.741 81.6836 103.839 81.6433C103.937 81.6029 104.042 81.5824 104.148 81.5828H146.923C147.137 81.5828 147.342 81.6677 147.493 81.8188C147.644 81.9699 147.729 82.1748 147.729 82.3885C147.729 82.6022 147.644 82.8072 147.493 82.9583C147.342 83.1094 147.137 83.1943 146.923 83.1943Z" fill="black"/>
<path opacity="0.1" d="M146.923 86.785H104.148C103.934 86.785 103.729 86.7001 103.578 86.549C103.427 86.3979 103.342 86.1929 103.342 85.9792C103.341 85.8732 103.362 85.7681 103.402 85.6699C103.443 85.5718 103.502 85.4826 103.577 85.4075C103.652 85.3323 103.741 85.2727 103.839 85.232C103.936 85.1914 104.041 85.1704 104.148 85.1704H146.923C147.137 85.1712 147.342 85.2568 147.493 85.4084C147.644 85.56 147.729 85.7653 147.729 85.9792C147.729 86.1929 147.644 86.3979 147.493 86.549C147.342 86.7001 147.137 86.785 146.923 86.785Z" fill="black"/>
<path opacity="0.1" d="M146.923 90.3756H104.148C104.041 90.3756 103.936 90.3547 103.839 90.314C103.741 90.2733 103.652 90.2137 103.577 90.1385C103.502 90.0634 103.443 89.9742 103.402 89.8761C103.362 89.778 103.341 89.6729 103.342 89.5668C103.342 89.3531 103.427 89.1482 103.578 88.997C103.729 88.8459 103.934 88.761 104.148 88.761H146.923C147.137 88.761 147.342 88.8459 147.493 88.997C147.644 89.1482 147.729 89.3531 147.729 89.5668C147.729 89.7808 147.644 89.986 147.493 90.1376C147.342 90.2892 147.137 90.3748 146.923 90.3756Z" fill="black"/>
<path opacity="0.1" d="M122.413 93.9633H104.148C103.934 93.9633 103.729 93.8784 103.578 93.7273C103.427 93.5761 103.342 93.3712 103.342 93.1575C103.342 92.9438 103.427 92.7389 103.578 92.5877C103.729 92.4366 103.934 92.3517 104.148 92.3517H122.413C122.627 92.3517 122.832 92.4366 122.983 92.5877C123.134 92.7389 123.219 92.9438 123.219 93.1575C123.219 93.3712 123.134 93.5761 122.983 93.7273C122.832 93.8784 122.627 93.9633 122.413 93.9633Z" fill="black"/>
<path d="M143.632 58.3324L143.574 58.2834C143.409 58.1578 143.314 58.2007 143.237 57.9586C143.182 57.784 143.237 57.5879 143.173 57.4072C143.027 57.096 142.86 56.7951 142.673 56.5064L141.92 55.1492C141.751 54.8487 141.471 54.6271 141.14 54.5329C140.808 54.4387 140.453 54.4797 140.152 54.6468L133.213 58.5131C133.185 58.746 132.992 58.9053 132.952 59.1259C132.939 59.1911 132.942 59.2587 132.962 59.3221C132.983 59.3855 133.019 59.4425 133.069 59.4874C132.991 59.4859 132.915 59.459 132.854 59.4108C132.441 59.181 132.33 58.9972 131.904 59.2301C131.721 59.3281 131.54 59.4323 131.359 59.5364L129.521 60.5628L123.761 63.7705L117.021 67.5327L111.405 70.6607C110.639 71.0866 109.711 71.4604 109.028 72.0026C109.218 72.1007 109.251 72.2508 109.083 72.3979L108.777 72.6766C108.777 72.7532 108.887 72.7532 108.957 72.7226L109.337 72.5602C109.073 72.8954 108.755 73.1842 108.397 73.415C107.794 73.7647 107.147 74.0307 106.473 74.2054L106.797 73.798C106.822 73.7643 106.853 73.7214 106.831 73.6815C106.81 73.6417 106.77 73.6387 106.733 73.6356C106.571 73.6172 106.408 73.6356 106.289 73.5161C105.241 74.1288 104.144 74.7109 103.078 75.3053C102.778 75.4736 102.556 75.7541 102.462 76.0854C102.368 76.4167 102.408 76.7719 102.576 77.0731L109.573 89.6343C109.656 89.7833 109.767 89.9145 109.901 90.0204C110.034 90.1263 110.187 90.2049 110.351 90.2515C110.515 90.2982 110.687 90.3121 110.856 90.2924C111.025 90.2727 111.189 90.2198 111.338 90.1367L113.179 89.0981C113.179 88.8806 113.351 88.6385 113.222 88.4394C113.204 88.4152 113.192 88.3867 113.188 88.3567C113.188 88.3169 113.225 88.2862 113.259 88.2648C113.447 88.1449 113.664 88.0753 113.887 88.0626C113.963 88.0626 114.064 88.0963 114.052 88.1698C114.052 88.1024 114.447 87.9615 114.512 87.94C114.542 88.1055 114.429 88.2832 114.622 88.3169C114.815 88.3506 115.109 88.0105 115.235 87.9492L117.073 86.9229L122.894 83.6845L129.279 80.1276L133.522 77.7624C133.675 77.6736 133.856 77.5694 134.003 77.4959C134.056 77.2149 134.193 76.9565 134.395 76.7544C134.702 76.543 135.186 76.7759 135.44 76.4756C135.489 76.4174 135.52 76.347 135.562 76.2857C135.648 76.186 135.752 76.1039 135.869 76.0437C135.943 75.9855 136.032 75.9503 136.126 75.9426C136.218 75.9426 136.316 76.0192 136.304 76.1111C136.935 75.964 137.505 75.5382 138.062 75.2226C138.265 75.1092 140.039 74.2759 140.032 74.1442C140.008 73.7367 140.256 73.3874 140.244 72.9677C140.244 72.888 140.088 72.355 140.158 72.3151C138.565 73.2649 136.911 74.1288 135.287 75.0296C135.232 75.0633 135.023 75.1337 134.98 75.195C134.98 75.195 134.965 75.2226 134.959 75.2379L134.913 75.339V75.3635C134.847 75.572 134.769 75.7766 134.68 75.9763C134.68 76.0038 134.334 76.4328 134.306 76.3316C134.172 75.8384 134 75.7618 133.623 75.964L133.084 76.2704L131.371 77.2232L125.602 80.4401L118.804 84.2268L113.139 87.3824L110.765 88.7029C110.291 87.8451 109.814 86.9882 109.334 86.1324L108.415 84.4811C108.322 84.2522 108.185 84.0439 108.011 83.8684C107.879 83.7703 107.655 83.7948 107.539 83.706C107.254 83.4885 107.049 83.0932 106.779 82.839C106.595 82.6674 106.316 82.1527 106.393 81.8678C106.485 81.9045 106.577 81.9444 106.669 81.9719C106.621 81.7833 106.631 81.5845 106.699 81.4021C105.78 79.8549 104.935 78.2373 104.055 76.6564L103.997 76.5553L106.142 75.3605L107.707 74.4873C108.029 74.3489 108.337 74.1796 108.626 73.9818C108.826 73.8102 109.028 73.5958 109.239 73.4119C109.381 73.304 109.535 73.2135 109.699 73.1423L110.278 72.8605C110.308 72.8426 110.341 72.8321 110.376 72.8298C110.41 72.8336 110.444 72.8419 110.477 72.8543C110.783 72.9187 111.543 72.3519 111.819 72.1987L113.602 71.2061L118.982 68.2067L125.685 64.4751L132.395 60.7343L137.793 57.7288L140.55 56.197L140.679 56.1265L143.66 61.4788C143.844 61.8396 144.14 62.1317 144.502 62.3121C144.625 62.352 144.763 62.4378 144.747 62.5634C144.732 62.689 144.548 62.7931 144.591 62.9218C144.634 63.0505 144.87 63.0015 144.925 63.1179C144.98 63.2343 144.83 63.4243 144.849 63.5836C144.912 63.7743 145.006 63.9534 145.127 64.1136L145.994 65.673C146.478 66.537 146.959 67.404 147.447 68.2772L142.146 71.2306C142.173 71.2517 142.194 71.2777 142.211 71.3072L142.238 71.3776C142.344 71.4149 142.446 71.46 142.545 71.5124C142.587 71.5361 142.622 71.5708 142.646 71.613C142.669 71.6552 142.681 71.703 142.679 71.7514C142.679 71.7992 142.665 71.846 142.641 71.8869C142.616 71.9278 142.581 71.9614 142.539 71.9843L142.214 72.1681C142.202 72.2391 142.169 72.305 142.12 72.3569C142.07 72.4089 142.005 72.4445 141.935 72.4591C141.897 72.4623 141.859 72.4623 141.822 72.4591C141.789 72.4828 141.752 72.4991 141.713 72.507C141.674 72.515 141.634 72.5143 141.595 72.5051C141.526 72.4837 141.467 72.4365 141.432 72.3731C141.396 72.3098 141.387 72.2352 141.405 72.165C141.418 72.1335 141.434 72.1037 141.454 72.0762C141.431 72.0315 141.42 71.9814 141.423 71.9311C141.427 71.8809 141.444 71.8325 141.472 71.7912H141.374C141.319 71.7912 141.27 71.7606 141.218 71.7453C140.943 71.9155 140.728 72.1686 140.605 72.4683C140.592 72.4847 140.585 72.5055 140.587 72.5265C140.587 72.5694 140.654 72.5725 140.694 72.5909C140.786 72.6338 140.765 72.7686 140.719 72.8574C140.673 72.9463 140.618 73.0596 140.679 73.1393C140.702 73.1661 140.728 73.1907 140.755 73.2128C140.887 73.3629 140.685 73.798 141.007 73.6203C140.984 73.5257 140.998 73.426 141.047 73.3415C141.101 73.2562 141.185 73.194 141.282 73.1668C141.521 73.109 141.764 73.0742 142.009 73.0627L148.396 69.4904C148.697 69.3221 148.918 69.0416 149.013 68.7103C149.107 68.379 149.066 68.0238 148.899 67.7226L148.862 67.6583L145.976 62.4776L144.309 59.4813C144.147 59.1964 144.003 58.8992 143.825 58.6173C143.776 58.5127 143.711 58.4166 143.632 58.3324Z" fill="#0DA21C"/>
<path d="M114.117 75.2593C113.906 75.002 113.97 74.9958 113.93 74.7201C113.93 74.7201 113.93 74.7201 113.93 74.7017L113.906 74.6741L113.869 74.6312C113.725 74.6956 113.581 74.766 113.437 74.8457L110.615 76.4174L111.752 78.4547C111.593 78.1729 112.156 78.2556 112.178 78.2525C112.238 78.2349 112.299 78.2246 112.362 78.2219C112.423 78.2349 112.477 78.2712 112.512 78.323C112.63 78.529 112.665 78.7722 112.61 79.0031C112.576 79.3095 112.738 79.6159 112.564 79.9223C112.714 80.1674 114.071 82.6367 114.077 82.6336L116.899 81.062C117.061 80.97 117.447 80.8077 117.542 80.6453C117.637 80.4829 117.487 80.2286 117.656 80.152C117.719 80.1288 117.787 80.12 117.854 80.1263C117.922 80.1327 117.987 80.154 118.045 80.1888C118.582 79.6567 118.928 78.9612 119.027 78.2115C119.126 77.4617 118.974 76.7003 118.593 76.0467C117.8 74.622 115.998 73.7734 114.42 74.4352C114.31 74.4811 114.457 74.9744 114.194 75.0295C114.244 74.9307 114.316 74.8448 114.405 74.7783L114.117 75.2593ZM116.164 79.9069L114.849 80.6392C114.742 80.4462 114.638 80.2531 114.528 80.0663C114.665 80.2991 114.286 80.2256 114.206 80.1735C114.013 80.0448 113.961 79.6741 113.955 79.4658C113.95 79.1085 113.844 78.7599 113.648 78.4609C113.34 77.9033 113.034 77.3457 112.729 76.7881L114.044 76.0559C115.269 75.3696 116.494 75.6545 117.156 76.8432C117.818 78.032 117.398 79.2299 116.164 79.9069Z" fill="#0FA442"/>
<path d="M123.446 70.0418C123.513 70.1873 123.532 70.3503 123.501 70.5075C123.486 70.5933 123.348 70.8139 123.366 70.869C123.415 70.9916 123.464 71.1141 123.51 71.2367C123.519 71.2567 123.53 71.2753 123.544 71.2918C123.568 71.3077 123.595 71.3162 123.624 71.3163C124.111 71.3592 124.089 71.4082 124.12 71.8188C124.148 72.1711 124.451 72.3733 124.622 72.6797C124.853 73.0822 124.953 73.5462 124.909 74.0079C124.865 74.4697 124.679 74.9065 124.377 75.2583C124.075 75.6102 123.671 75.8599 123.221 75.9731C122.772 76.0862 122.298 76.0574 121.865 75.8904C121.854 75.9015 121.841 75.9118 121.828 75.9211C121.764 75.9535 121.69 75.9622 121.62 75.9456C121.461 75.9005 121.317 75.8132 121.203 75.6929C121.089 75.5727 121.01 75.4239 120.974 75.2624C120.969 75.2381 120.969 75.2131 120.974 75.1888C120.887 75.0816 120.81 74.9667 120.744 74.8457C120.586 74.5926 120.483 74.3096 120.44 74.0146C120.397 73.7197 120.415 73.419 120.494 73.1314C120.572 72.8438 120.709 72.5755 120.896 72.3433C121.083 72.1111 121.316 71.92 121.58 71.782C121.963 71.5635 122.403 71.4633 122.842 71.494L122.818 71.4572C122.554 71.108 123.504 70.9671 123.075 70.7312C122.895 70.6331 122.925 70.1889 122.879 70.0081C122.183 70.0238 121.502 70.2123 120.897 70.5565C118.936 71.6503 118.259 73.8163 119.289 75.6637C119.722 76.4585 120.438 77.0612 121.295 77.3518C121.497 77.4396 121.713 77.4894 121.933 77.4989C122.184 77.4774 122.061 77.4989 122.168 77.3487C122.276 77.1986 122.211 77.1343 122.374 76.975C122.536 76.8157 122.726 76.7207 122.76 76.4756C122.76 76.5859 122.882 76.6655 122.882 76.782C122.882 76.8157 122.882 76.8494 122.882 76.88C122.889 76.9201 122.907 76.9573 122.934 76.9872C123.039 77.1282 123.213 77.2936 123.216 77.456C123.664 77.3816 124.095 77.2237 124.485 76.9903C126.436 75.9027 127.129 73.7397 126.093 71.8862C125.557 70.9395 124.549 70.1031 123.446 70.0418Z" fill="#0FA442"/>
<path d="M129.711 65.7771L131.812 69.5485L126.622 67.4959L125.434 68.1607C126.236 69.6006 127.088 71.0252 127.842 72.4928C127.894 72.3334 128.016 72.3028 128.163 72.2814C128.439 72.2446 128.43 72.3825 128.58 72.6551C128.598 72.6888 128.62 72.7225 128.654 72.7287C128.687 72.7348 128.755 72.6796 128.81 72.6858C128.865 72.6919 128.886 72.7593 128.871 72.8114C128.852 72.8624 128.826 72.9108 128.794 72.9554C128.706 73.1239 128.853 73.2311 128.834 73.3843C128.834 73.464 128.568 73.7887 128.598 73.8439L128.905 74.3708L130.326 73.5804L129.946 72.9002H129.876C129.462 72.9554 129.646 72.4131 129.554 72.1894C129.405 71.8726 129.237 71.5656 129.049 71.2703L128.212 69.7967L132.431 71.4572C132.42 71.3361 132.435 71.2139 132.474 71.0988C132.508 71.0344 132.78 70.9149 132.78 70.8537C132.796 71.0513 132.888 71.2349 133.038 71.3653C133.2 71.5093 133.2 71.4879 133.169 71.7422L133.421 71.8432L134.603 71.1846L131.141 64.9744L129.711 65.7771Z" fill="#0FA442"/>
<path d="M136.852 68.4273L136.05 66.9904L138.936 65.3819L138.323 64.2637L135.44 65.8721L134.689 64.521L136.638 63.4365C136.72 63.3304 136.825 63.2436 136.944 63.1822C137.005 63.1511 137.075 63.1435 137.14 63.1608L137.965 62.7043C137.965 62.7043 137.379 61.6595 137.324 61.5493C137.042 61.6779 137.324 62.0333 137.039 62.2049C137.097 62.2662 137.183 62.4837 137.039 62.5113C136.957 62.5113 136.895 62.4071 136.813 62.4163C136.73 62.4255 136.727 62.4653 136.684 62.453C136.671 62.4494 136.659 62.4428 136.649 62.4337C136.639 62.4247 136.631 62.4135 136.626 62.401C136.586 62.3086 136.536 62.2212 136.476 62.1405C136.283 61.9537 134.521 63.1271 134.276 63.2649L132.637 64.184L136.096 70.3942L137.477 69.6252L137.505 69.5884C137.606 69.4597 137.704 69.328 137.811 69.2085C137.855 69.1671 137.911 69.1409 137.97 69.1337C138.03 69.1265 138.09 69.1388 138.142 69.1687C138.167 69.1816 138.189 69.1993 138.207 69.2208L140.906 67.7165L140.262 66.5615L136.852 68.4273Z" fill="#0FA442"/>
<path d="M140.539 134.505C140.539 134.505 138.523 130.112 140.824 125.777C143.125 121.442 143.796 120.421 142.328 119.536C140.861 118.651 140.184 123.001 140.184 123.001C140.184 123.001 138.958 120.005 139.966 116.874C140.974 113.742 141.63 108.632 140.236 108.084C138.842 107.535 139.969 114.453 138.759 116.812C138.142 115.156 137.743 113.427 137.573 111.668C137.408 109.15 137.668 105.13 136.565 104.098C135.462 103.065 134.761 103.792 135.842 109.337C136.492 112.658 136.852 116.03 136.918 119.413C136.918 119.413 134.525 112.122 132.935 111.91C131.345 111.699 131.333 114.055 132.708 116.105C134.084 118.154 136.719 121.818 137.151 123.718C137.151 123.718 134.528 118.234 132.166 119.913C129.804 121.592 134.222 124.91 136.189 126.108C138.155 127.305 139.525 134.808 139.525 134.808L140.539 134.505Z" fill="#FF725E"/>
<path opacity="0.2" d="M140.539 134.505C140.539 134.505 138.523 130.112 140.824 125.777C143.125 121.442 143.796 120.421 142.328 119.536C140.861 118.651 140.184 123.001 140.184 123.001C140.184 123.001 138.958 120.005 139.966 116.874C140.974 113.742 141.63 108.632 140.236 108.084C138.842 107.535 139.969 114.453 138.759 116.812C138.142 115.156 137.743 113.427 137.573 111.668C137.408 109.15 137.668 105.13 136.565 104.098C135.462 103.065 134.761 103.792 135.842 109.337C136.492 112.658 136.852 116.03 136.918 119.413C136.918 119.413 134.525 112.122 132.935 111.91C131.345 111.699 131.333 114.055 132.708 116.105C134.084 118.154 136.719 121.818 137.151 123.718C137.151 123.718 134.528 118.234 132.166 119.913C129.804 121.592 134.222 124.91 136.189 126.108C138.155 127.305 139.525 134.808 139.525 134.808L140.539 134.505Z" fill="#0A0909" fill-opacity="0.71"/>
<path d="M138.946 136.31C138.946 136.31 140.91 131.883 138.557 127.584C136.204 123.286 135.521 122.275 136.979 121.365C138.438 120.455 139.161 124.799 139.161 124.799C139.161 124.799 140.362 121.788 139.305 118.672C138.248 115.556 137.543 110.455 138.931 109.888C140.319 109.322 139.274 116.255 140.512 118.592C141.11 116.929 141.486 115.194 141.633 113.433C141.771 110.912 141.462 106.895 142.552 105.847C143.643 104.8 144.357 105.504 143.34 111.077C142.73 114.406 142.411 117.782 142.387 121.166C142.387 121.166 144.691 113.841 146.293 113.605C147.895 113.369 147.92 115.728 146.572 117.796C145.224 119.864 142.62 123.571 142.206 125.455C142.206 125.455 144.764 119.94 147.145 121.579C149.525 123.219 145.15 126.604 143.199 127.829C141.247 129.055 139.957 136.585 139.957 136.585L138.946 136.31Z" fill="#FF725E"/>
<path d="M147.996 133.154H131.789L133.1 144.753H146.685L147.996 133.154Z" fill="#263238"/>
<path d="M65.0885 60.2227H54.3931C53.9812 60.2227 53.5861 60.3863 53.2948 60.6776C53.0035 60.9689 52.8398 61.364 52.8398 61.776V72.1742C52.8398 72.5861 53.0035 72.9812 53.2948 73.2725C53.5861 73.5638 53.9812 73.7275 54.3931 73.7275H57.8153L55.5114 76.8586L59.4942 73.7275H65.0855C65.4974 73.7275 65.8925 73.5638 66.1838 73.2725C66.4751 72.9812 66.6388 72.5861 66.6388 72.1742V61.776C66.6388 61.3645 66.4755 60.9699 66.1849 60.6787C65.8943 60.3875 65.5 60.2235 65.0885 60.2227Z" fill="#00B881"/>
<path opacity="0.6" d="M65.0885 60.2227H54.3931C53.9812 60.2227 53.5861 60.3863 53.2948 60.6776C53.0035 60.9689 52.8398 61.364 52.8398 61.776V72.1742C52.8398 72.5861 53.0035 72.9812 53.2948 73.2725C53.5861 73.5638 53.9812 73.7275 54.3931 73.7275H57.8153L55.5114 76.8586L59.4942 73.7275H65.0855C65.4974 73.7275 65.8925 73.5638 66.1838 73.2725C66.4751 72.9812 66.6388 72.5861 66.6388 72.1742V61.776C66.6388 61.3645 66.4755 60.9699 66.1849 60.6787C65.8943 60.3875 65.5 60.2235 65.0885 60.2227Z" fill="white"/>
<path d="M59.7427 71.8311C62.4246 71.8311 64.5987 69.657 64.5987 66.9751C64.5987 64.2932 62.4246 62.1191 59.7427 62.1191C57.0608 62.1191 54.8867 64.2932 54.8867 66.9751C54.8867 69.657 57.0608 71.8311 59.7427 71.8311Z" fill="#00B881"/>
<path opacity="0.2" d="M63.7933 67.9283C64.3215 65.6904 62.9355 63.4479 60.6975 62.9197C58.4595 62.3915 56.217 63.7775 55.6888 66.0155C55.1606 68.2535 56.5467 70.496 58.7847 71.0242C61.0226 71.5524 63.2651 70.1663 63.7933 67.9283Z" fill="black"/>
<path d="M59.2233 68.9634C59.1669 68.9646 59.1108 68.9547 59.0582 68.9342C59.0056 68.9137 58.9576 68.883 58.9169 68.8439L57.1492 67.1129C57.0679 67.0341 57.0213 66.9262 57.0196 66.8131C57.0179 66.6999 57.0612 66.5906 57.14 66.5094C57.2188 66.4281 57.3267 66.3815 57.4399 66.3798C57.553 66.3781 57.6623 66.4214 57.7435 66.5002L59.1927 67.9187L61.6988 65.1215C61.7756 65.0441 61.8793 64.9991 61.9883 64.9958C62.0974 64.9925 62.2035 65.0312 62.2849 65.1039C62.3662 65.1766 62.4165 65.2778 62.4255 65.3865C62.4344 65.4953 62.4013 65.6033 62.333 65.6883L59.5297 68.8163C59.491 68.8596 59.4439 68.8944 59.3911 68.9187C59.3384 68.9429 59.2813 68.9561 59.2233 68.9573V68.9634Z" fill="white"/>
<path d="M45.8705 137.786L54.6971 136.916V126.962H58.1958V136.913L67.0591 137.786C67.4838 137.828 67.878 138.026 68.1646 138.342C68.4513 138.658 68.6098 139.069 68.6094 139.496V140.823H44.3203V139.496C44.3198 139.069 44.4784 138.658 44.765 138.342C45.0517 138.026 45.4458 137.828 45.8705 137.786Z" fill="#263238"/>
<path opacity="0.1" d="M45.8705 137.786L54.6971 136.916V126.962H58.1958V136.913L67.0591 137.786C67.4838 137.828 67.878 138.026 68.1646 138.342C68.4513 138.658 68.6098 139.069 68.6094 139.496V140.823H44.3203V139.496C44.3198 139.069 44.4784 138.658 44.765 138.342C45.0517 138.026 45.4458 137.828 45.8705 137.786Z" fill="white"/>
<path d="M67.6753 144.753C68.9393 144.753 69.9639 143.729 69.9639 142.465C69.9639 141.201 68.9393 140.176 67.6753 140.176C66.4114 140.176 65.3867 141.201 65.3867 142.465C65.3867 143.729 66.4114 144.753 67.6753 144.753Z" fill="#263238"/>
<path d="M45.2554 144.753C46.5193 144.753 47.544 143.729 47.544 142.465C47.544 141.201 46.5193 140.176 45.2554 140.176C43.9914 140.176 42.9668 141.201 42.9668 142.465C42.9668 143.729 43.9914 144.753 45.2554 144.753Z" fill="#263238"/>
<path d="M57.5316 129.628H55.3502C55.0146 129.628 54.6928 129.495 54.4555 129.257C54.2182 129.02 54.0849 128.698 54.0849 128.363V118.577H58.7969V128.363C58.7969 128.698 58.6636 129.02 58.4263 129.257C58.189 129.495 57.8671 129.628 57.5316 129.628Z" fill="#263238"/>
<path opacity="0.2" d="M57.5316 129.628H55.3502C55.0146 129.628 54.6928 129.495 54.4555 129.257C54.2182 129.02 54.0849 128.698 54.0849 128.363V118.577H58.7969V128.363C58.7969 128.698 58.6636 129.02 58.4263 129.257C58.189 129.495 57.8671 129.628 57.5316 129.628Z" fill="white"/>
<path d="M44.2284 99.3983C44.2284 99.3983 46.851 115.752 52.0286 118.58H46.7652C46.7652 118.58 41.5569 113.004 39.9883 99.3983H44.2284Z" fill="#263238"/>
<path opacity="0.1" d="M44.2284 99.3983C44.2284 99.3983 46.851 115.752 52.0286 118.58H46.7652C46.7652 118.58 41.5569 113.004 39.9883 99.3983H44.2284Z" fill="white"/>
<path d="M46.5143 116.267H67.0166C67.4228 116.267 67.8125 116.428 68.0998 116.716C68.387 117.003 68.5484 117.393 68.5484 117.799V119.849H44.9824V117.799C44.9824 117.393 45.1438 117.003 45.4311 116.716C45.7184 116.428 46.108 116.267 46.5143 116.267Z" fill="#FF725E"/>
<path d="M68.9023 118.056H44.6041C44.264 118.056 43.9883 118.332 43.9883 118.672V119.23C43.9883 119.57 44.264 119.845 44.6041 119.845H68.9023C69.2424 119.845 69.5181 119.57 69.5181 119.23V118.672C69.5181 118.332 69.2424 118.056 68.9023 118.056Z" fill="#263238"/>
<path opacity="0.6" d="M68.9023 118.056H44.6041C44.264 118.056 43.9883 118.332 43.9883 118.672V119.23C43.9883 119.57 44.264 119.845 44.6041 119.845H68.9023C69.2424 119.845 69.5181 119.57 69.5181 119.23V118.672C69.5181 118.332 69.2424 118.056 68.9023 118.056Z" fill="white"/>
<path d="M39.3668 102.725H47.7889C50.2582 102.725 51.8606 100.746 51.3704 98.3045L50.7147 95.0448C50.2245 92.5938 47.8257 90.6269 45.3594 90.6269H36.9373C34.4679 90.6269 32.8656 92.606 33.3558 95.0448L34.0114 98.3045C34.5016 100.74 36.8974 102.725 39.3668 102.725Z" fill="#FF725E"/>
<path d="M84.0568 130.118L82.1267 130.875L80.7388 128.258L79.4766 125.878L81.615 124.597L82.9079 127.517L84.0568 130.118Z" fill="#E4897B"/>
<path opacity="0.2" d="M82.9079 127.517L80.7388 128.258L79.4766 125.878L81.615 124.597L82.9079 127.517Z" fill="black"/>
<path d="M82.5063 126.089L79.8807 127.499C79.8807 127.499 69.9573 110.051 68.4316 110.198C66.9059 110.345 52.4299 119.567 48.0151 116.16C43.6003 112.753 47.8956 102.496 47.8956 102.496C47.8956 102.496 57.0285 99.8854 58.0058 101.883C58.2634 102.481 58.4824 103.095 58.6614 103.721C58.8545 104.349 59.0015 104.879 59.0015 104.879C59.2803 104.766 68.2999 101.068 72.3256 103.041C76.434 105.069 82.5063 126.089 82.5063 126.089Z" fill="#263238"/>
<path opacity="0.3" d="M82.5063 126.089L79.8807 127.499C79.8807 127.499 69.9573 110.051 68.4316 110.198C66.9059 110.345 52.4299 119.567 48.0151 116.16C43.6003 112.753 47.8956 102.496 47.8956 102.496C47.8956 102.496 57.0285 99.8854 58.0058 101.883C58.2634 102.481 58.4824 103.095 58.6614 103.721C58.8545 104.349 59.0015 104.879 59.0015 104.879C59.2803 104.766 68.2999 101.068 72.3256 103.041C76.434 105.069 82.5063 126.089 82.5063 126.089Z" fill="white"/>
<path d="M68.2421 140.317L66.1833 140.081L66.171 137.177L66.168 134.511L68.6588 134.395L68.4382 137.529L68.2421 140.317Z" fill="#E4897B"/>
<path opacity="0.2" d="M68.4312 137.593L66.1641 137.232V134.539L68.6549 134.407L68.4312 137.593Z" fill="black"/>
<path d="M78.5977 126.632L82.4395 124.708L82.8409 126.338L79.9304 127.839L78.5977 126.632Z" fill="#FF725E"/>
<path d="M54.834 116.187C54.834 116.187 55.4651 116.117 65.174 114.319C65.174 114.319 65.3946 126.733 65.8541 135.988L68.8443 136.083C68.8443 136.083 73.1335 115.556 72.628 112.444C72.1225 109.331 68.4338 108.923 68.4338 108.923C68.4338 108.923 62.0276 113.914 54.834 116.187Z" fill="#263238"/>
<path opacity="0.4" d="M54.834 116.187C54.834 116.187 55.4651 116.117 65.174 114.319C65.174 114.319 65.3946 126.733 65.8541 135.988L68.8443 136.083C68.8443 136.083 73.1335 115.556 72.628 112.444C72.1225 109.331 68.4338 108.923 68.4338 108.923C68.4338 108.923 62.0276 113.914 54.834 116.187Z" fill="white"/>
<path opacity="0.3" d="M54.834 116.187C54.834 116.187 55.4651 116.117 65.174 114.319C65.174 114.319 65.3946 126.733 65.8541 135.988L68.8443 136.083C68.8443 136.083 73.1335 115.556 72.628 112.444C72.1225 109.331 68.4338 108.923 68.4338 108.923C68.4338 108.923 62.0276 113.914 54.834 116.187Z" fill="black"/>
<path d="M65.3066 135.161L69.3844 135.066L68.8268 136.745L65.518 136.776L65.3066 135.161Z" fill="#FF725E"/>
<path opacity="0.3" d="M59.0137 104.885L53.7227 106.77C53.7227 106.77 56.5045 104.692 58.6736 103.727C58.8666 104.355 59.0137 104.885 59.0137 104.885Z" fill="black"/>
<path d="M47.2832 101.865L47.4793 103.332L57.3965 101.227L57.1667 99.4933L47.2832 101.865Z" fill="#263238"/>
<path opacity="0.2" d="M47.2832 101.865L47.4793 103.332L57.3965 101.227L57.1667 99.4933L47.2832 101.865Z" fill="black"/>
<path d="M50.5682 100.798L50.0742 100.89L50.5409 103.405L51.0349 103.314L50.5682 100.798Z" fill="#263238"/>
<path d="M54.8943 100.162L52.7305 100.649L53.1002 102.29L55.2641 101.803L54.8943 100.162Z" fill="white"/>
<path d="M56.2854 99.1371L55.793 99.2275L56.2534 101.735L56.7458 101.644L56.2854 99.1371Z" fill="#263238"/>
<path opacity="0.3" d="M50.5682 100.798L50.0742 100.89L50.5409 103.405L51.0349 103.314L50.5682 100.798Z" fill="white"/>
<path opacity="0.3" d="M56.2854 99.1371L55.793 99.2275L56.2534 101.735L56.7458 101.644L56.2854 99.1371Z" fill="white"/>
<path d="M87.8922 133.543C87.5702 133.444 87.2326 133.406 86.8965 133.43C86.8965 133.43 85.6496 132.909 84.1392 130.431L82.8524 130.599C82.6359 130.632 82.4346 130.73 82.2757 130.881C82.1168 131.031 82.008 131.227 81.964 131.442C81.9547 131.502 81.9547 131.564 81.964 131.625C82.0194 131.936 82.0951 132.243 82.1907 132.544C82.5206 133.54 82.9104 134.515 83.3579 135.464L83.5663 135.378L82.9015 133.522C82.6809 132.888 83.4499 133.424 83.8573 134.037C84.2648 134.649 84.8438 135.244 86.2194 134.723C87.8187 134.098 88.4529 133.767 87.8922 133.543Z" fill="#263238"/>
<path d="M83.8193 129.772C83.8193 129.772 85.8843 132.909 86.8984 133.43C86.8984 133.43 85.7617 134.349 84.2452 132.872C82.2875 130.976 81.9597 131.625 81.9597 131.625C81.9422 131.254 81.9597 130.882 82.0118 130.513C82.168 129.793 83.8193 129.772 83.8193 129.772Z" fill="#E4897B"/>
<path d="M71.3308 143.969C71.0373 143.8 70.7155 143.686 70.381 143.632C70.381 143.632 69.2934 142.832 68.4202 140.069L67.1304 139.928C66.9116 139.907 66.6917 139.955 66.5012 140.065C66.3107 140.175 66.1591 140.341 66.0673 140.541C66.0398 140.596 66.0212 140.655 66.0122 140.715C65.9907 141.029 65.9907 141.343 66.0122 141.656C66.0953 142.702 66.2426 143.741 66.4533 144.769L66.677 144.735L66.4779 142.768C66.4135 142.1 67.0355 142.805 67.2867 143.497C67.5379 144.19 67.9576 144.904 69.416 144.723C71.1194 144.493 71.8118 144.321 71.3308 143.969Z" fill="#263238"/>
<path d="M68.2674 139.343C68.2674 139.343 69.5297 142.881 70.3906 143.632C70.3906 143.632 69.0701 144.245 67.9396 142.462C66.4844 140.155 66.0156 140.709 66.0156 140.709C66.0841 140.345 66.1867 139.988 66.322 139.643C66.6467 138.969 68.2674 139.343 68.2674 139.343Z" fill="#E4897B"/>
<path d="M45.1234 76.8433L42.5315 77.3641C42.4302 77.4494 42.3106 77.5101 42.182 77.5415C42.0534 77.5728 41.9192 77.574 41.7901 77.5449C41.018 77.2385 39.9059 76.3408 39.765 76.013C39.5566 75.5504 39.765 74.1932 40.3103 73.9481C40.8556 73.703 42.7337 75.9701 42.7337 75.9701L45.5186 75.3421L45.1234 76.8433Z" fill="#E4897B"/>
<path d="M53.2974 85.4584C53.2974 85.4584 53.0615 77.0608 52.0903 76.7024C51.1191 76.3439 43.8183 77.3457 43.8183 77.3457L43.6406 75.4279C43.6406 75.4279 52.1363 74.1197 53.7815 74.8948C55.4267 75.6699 55.969 88.1851 55.6687 90.5963L53.2974 85.4584Z" fill="#407BFF"/>
<path opacity="0.6" d="M53.2974 85.4584C53.2974 85.4584 53.0615 77.0608 52.0903 76.7024C51.1191 76.3439 43.8183 77.3457 43.8183 77.3457L43.6406 75.4279C43.6406 75.4279 52.1363 74.1197 53.7815 74.8948C55.4267 75.6699 55.969 88.1851 55.6687 90.5963L53.2974 85.4584Z" fill="white"/>
<path d="M43.9441 77.5295L43.4355 75.4217L44.1647 75.1582L44.6273 77.5938L43.9441 77.5295Z" fill="#407BFF"/>
<path opacity="0.7" d="M43.9441 77.5295L43.4355 75.4217L44.1647 75.1582L44.6273 77.5938L43.9441 77.5295Z" fill="white"/>
<path d="M53.2545 84.4106C53.2545 84.4106 52.6019 86.9658 49.4586 87.7807C46.3152 88.5957 42.8379 86.4664 42.8379 86.4664L43.5303 92.5632L47.3783 102.168L57.2128 99.6036C57.2128 99.6036 56.6246 88.4302 53.2545 84.4106Z" fill="#407BFF"/>
<path opacity="0.7" d="M53.2545 84.4106C53.2545 84.4106 52.6019 86.9658 49.4586 87.7807C46.3152 88.5957 42.8379 86.4664 42.8379 86.4664L43.5303 92.5632L47.3783 102.168L57.2128 99.6036C57.2128 99.6036 56.6246 88.4302 53.2545 84.4106Z" fill="white"/>
<path opacity="0.6" d="M54.9637 94.5422L56.1149 94.179C56.2424 94.1388 56.3131 94.0029 56.2729 93.8754L55.5871 91.7016C55.5469 91.5741 55.4109 91.5034 55.2834 91.5436L54.1323 91.9068C54.0048 91.947 53.9341 92.083 53.9743 92.2104L54.6601 94.3842C54.7003 94.5117 54.8362 94.5824 54.9637 94.5422Z" fill="#407BFF"/>
<path opacity="0.2" d="M54.7301 93.8795L56.0391 93.4666L55.474 91.6755L54.1651 92.0885L54.7301 93.8795Z" fill="black"/>
<path d="M54.6857 91.028L54.3965 91.1193L54.7292 92.174L55.0185 92.0828L54.6857 91.028Z" fill="#263238"/>
<path d="M46.5703 74.8672C44.1469 74.8672 42.5477 77.4346 43.1144 81.5062C43.6812 85.5779 45.9514 86.7513 45.9514 86.7513L45.8074 85.7679C48.3277 86.3398 50.926 86.4848 53.4943 86.1968C53.4943 86.1968 52.3239 82.8757 52.7038 79.4842C52.7038 79.4842 53.4728 74.8611 46.5703 74.8672Z" fill="#263238"/>
<path opacity="0.2" d="M51.3835 86.9535L52.3731 90.63L50.6329 89.3034C50.6329 89.3034 52.3272 93.1759 52.7775 95.4308C52.7775 95.4308 51.3131 91.592 50.0508 89.4872L49.3125 91.595L46.3438 88.5711C46.3438 88.5711 48.9663 86.5614 51.3835 86.9535Z" fill="black"/>
<path d="M49.9363 88.1392L46.9155 88.2311C48.2543 86.5185 45.834 83.5344 45.834 83.5344L48.818 84.1809C49.5288 87.1343 50.7574 87.2231 50.7574 87.2231L49.9363 88.1392Z" fill="#E4897B"/>
<path opacity="0.2" d="M49.6514 86.3009C48.4987 86.2045 47.4266 85.6707 46.6551 84.8089C46.4167 84.3662 46.1421 83.944 45.834 83.5466L48.818 84.1961C48.9761 84.9394 49.2577 85.6509 49.6514 86.3009Z" fill="black"/>
<path d="M48.8147 76.1141C51.4158 76.3317 52.1389 77.7931 52.1052 80.4922C52.0653 83.8623 51.1217 86.1815 47.9293 85.195C43.5911 83.8561 44.4919 75.7526 48.8147 76.1141Z" fill="#E4897B"/>
<path d="M50.4355 80.2134C50.6116 80.6197 50.8358 81.0034 51.1034 81.3562C51.0177 81.4567 50.9062 81.5318 50.7809 81.5734C50.6556 81.6149 50.5213 81.6214 50.3926 81.5921L50.4355 80.2134Z" fill="#DE5753"/>
<path d="M48.6738 79.7783L49.2375 79.5945C49.2375 79.5945 48.9373 80.0418 48.6738 79.7783Z" fill="#263238"/>
<path d="M48.8706 79.714C48.7657 79.6625 48.6458 79.6509 48.533 79.6813C48.4203 79.7117 48.3225 79.7822 48.2578 79.8794C48.354 79.8356 48.4585 79.8129 48.5642 79.8129C48.6699 79.8129 48.7744 79.8356 48.8706 79.8794V79.714Z" fill="#263238"/>
<path d="M47.8233 78.4732C47.7943 78.4724 47.7668 78.4603 47.7467 78.4395C47.736 78.4294 47.7275 78.4173 47.7217 78.4039C47.7159 78.3904 47.7129 78.376 47.7129 78.3613C47.7129 78.3467 47.7159 78.3322 47.7217 78.3188C47.7275 78.3053 47.736 78.2932 47.7467 78.2832C47.9175 78.1338 48.1207 78.0261 48.3403 77.9687C48.5599 77.9112 48.7899 77.9056 49.012 77.9523C49.0408 77.9584 49.0661 77.9757 49.0822 78.0004C49.0982 78.0251 49.1039 78.0552 49.0978 78.0841C49.0917 78.1129 49.0744 78.1381 49.0497 78.1542C49.025 78.1703 48.9949 78.1759 48.966 78.1698C48.7807 78.132 48.5891 78.1363 48.4057 78.1824C48.2222 78.2286 48.0514 78.3154 47.906 78.4364C47.8957 78.4482 47.883 78.4576 47.8687 78.4639C47.8544 78.4703 47.8389 78.4734 47.8233 78.4732Z" fill="#263238"/>
<path d="M51.9041 78.5192C51.8798 78.5201 51.8559 78.5125 51.8367 78.4977C51.7141 78.3854 51.5679 78.3018 51.4089 78.253C51.2499 78.2042 51.0821 78.1916 50.9176 78.2159C50.9035 78.2197 50.8888 78.2207 50.8743 78.2189C50.8598 78.217 50.8459 78.2123 50.8332 78.2051C50.8206 78.1978 50.8094 78.1881 50.8005 78.1766C50.7916 78.165 50.785 78.1518 50.7812 78.1378C50.7774 78.1237 50.7764 78.109 50.7782 78.0945C50.7801 78.08 50.7848 78.0661 50.792 78.0534C50.7993 78.0408 50.809 78.0296 50.8205 78.0207C50.8321 78.0118 50.8453 78.0052 50.8593 78.0014C51.0579 77.9663 51.2619 77.977 51.4557 78.0328C51.6495 78.0885 51.828 78.1878 51.9776 78.3231C52.0003 78.3417 52.0149 78.3684 52.0183 78.3975C52.0217 78.4267 52.0137 78.456 51.996 78.4794C51.9849 78.4928 51.9708 78.5034 51.9548 78.5103C51.9388 78.5172 51.9214 78.5203 51.9041 78.5192Z" fill="#263238"/>
<path d="M45.5953 80.2625C45.5953 80.2625 46.9893 78.2282 46.9434 76.5615C46.9434 76.5615 52.2773 74.8826 52.0965 80.1399C52.0965 80.1399 52.985 75.5444 48.5212 75.0572C44.0573 74.5701 43.5396 81.1326 45.6872 83.2772C45.6872 83.2772 44.7405 81.537 45.5953 80.2625Z" fill="#263238"/>
<path d="M45.9853 80.8476C45.9853 80.5442 45.865 80.2533 45.6508 80.0385C45.4366 79.8237 45.1459 79.7026 44.8426 79.7018C44.0276 79.7232 43.5068 81.347 45.4798 81.9138C45.7617 81.9934 45.9486 81.7269 45.9853 80.8476Z" fill="#E4897B"/>
<path d="M50.4141 82.3579C50.2233 82.6142 50.0523 82.8846 49.9024 83.1667C49.8504 83.1483 49.7952 83.133 49.7431 83.1116C49.0232 82.8573 48.7719 82.4988 48.7137 82.1925C48.6863 82.0368 48.6979 81.8768 48.7474 81.7268C48.773 81.6405 48.8101 81.558 48.8577 81.4817C49.2321 81.8375 49.6796 82.1072 50.169 82.2721C50.316 82.3273 50.4141 82.3579 50.4141 82.3579Z" fill="#263238"/>
<path d="M50.1696 82.266L50.0134 82.5019C49.3332 82.2599 48.889 81.9995 48.748 81.7207C48.7736 81.6344 48.8107 81.5519 48.8583 81.4756C49.2327 81.8314 49.6802 82.1011 50.1696 82.266Z" fill="white"/>
<path d="M49.7442 83.1117C49.0243 82.8574 48.7731 82.4989 48.7148 82.1926C48.9872 82.2929 49.2394 82.4413 49.4593 82.6307C49.6019 82.7575 49.7015 82.9256 49.7442 83.1117Z" fill="#DE5753"/>
<path d="M48.7434 76.3073C48.7434 76.3073 47.3372 80.5015 44.6473 80.2135C41.9573 79.9255 46.5682 74.8581 46.5682 74.8581C46.5682 74.8581 51.1056 73.5622 53.0816 76.0836C55.0577 78.605 52.1043 80.1338 52.1043 80.1338C52.1043 80.1338 52.5455 76.8434 48.7434 76.3073Z" fill="#263238"/>
<path d="M46.5997 79.8763C46.5841 79.8756 46.5691 79.8707 46.5561 79.862C46.5432 79.8534 46.5328 79.8414 46.5262 79.8273C46.5192 79.8078 46.52 79.7863 46.5286 79.7674C46.5372 79.7486 46.5528 79.7338 46.5721 79.7262C48.7167 78.9082 48.6677 76.0314 48.6677 76.0007C48.6668 75.9907 48.6681 75.9806 48.6714 75.9711C48.6748 75.9617 48.6801 75.953 48.6871 75.9457C48.694 75.9385 48.7025 75.9328 48.7118 75.9291C48.7211 75.9254 48.7312 75.9237 48.7412 75.9242C48.7611 75.9248 48.7801 75.9325 48.7948 75.946C48.8094 75.9596 48.8187 75.9779 48.8209 75.9977C48.8209 76.0283 48.8699 79.0124 46.6273 79.8702L46.5997 79.8763Z" fill="#263238"/>
<path d="M51.3164 80.0326L51.8801 79.8518C51.8801 79.8518 51.5768 80.296 51.3164 80.0326Z" fill="#263238"/>
<path d="M51.5112 79.9683C51.4061 79.9164 51.2857 79.9049 51.1727 79.9359C51.0598 79.967 50.9622 80.0385 50.8984 80.1368C50.9932 80.0896 51.097 80.0635 51.2028 80.0604C51.3086 80.0572 51.4138 80.077 51.5112 80.1184V79.9683Z" fill="#263238"/>
<path d="M47.3422 86.9933L49.6185 88.1514L49.5818 90.4584L46.3281 88.562L47.3422 86.9933Z" fill="#407BFF"/>
<path d="M49.9648 86.5583L50.0996 87.9585L51.5855 89.5301L51.3833 86.9444L49.9648 86.5583Z" fill="#407BFF"/>
<path d="M39.4473 70.7159L38.4975 68.2649C38.5149 68.1339 38.5015 68.0006 38.4584 67.8757C38.4153 67.7507 38.3438 67.6375 38.2494 67.545C37.5876 67.0517 36.2212 66.6044 35.8781 66.6565C35.3787 66.73 34.3462 67.6338 34.4351 68.2251C34.5239 68.8164 37.4406 69.181 37.4406 69.181L38.4087 71.8678L39.4473 70.7159Z" fill="#E4897B"/>
<path d="M43.5365 92.5631C43.5365 92.5631 45.3748 91.1017 44.6425 87.8726L42.6664 78.9388L39.2719 69.7109L37.6113 70.5504C37.6113 70.5504 40.3993 79.5669 40.6566 80.1766C40.7884 80.4829 41.3123 85.1612 42.0261 88.2954C42.6818 91.1814 43.5365 92.5631 43.5365 92.5631Z" fill="#407BFF"/>
<path opacity="0.6" d="M43.5365 92.5631C43.5365 92.5631 45.3748 91.1017 44.6425 87.8726L42.6664 78.9388L39.2719 69.7109L37.6113 70.5504C37.6113 70.5504 40.3993 79.5669 40.6566 80.1766C40.7884 80.4829 41.3123 85.1612 42.0261 88.2954C42.6818 91.1814 43.5365 92.5631 43.5365 92.5631Z" fill="white"/>
<path d="M37.3203 70.287L39.2596 69.3158L39.6824 69.9622L37.4153 70.9671L37.3203 70.287Z" fill="#407BFF"/>
<path opacity="0.7" d="M37.3203 70.287L39.2596 69.3158L39.6824 69.9622L37.4153 70.9671L37.3203 70.287Z" fill="white"/>
<path opacity="0.6" d="M47.3422 86.9933L49.6185 88.1514L49.5818 90.4584L46.3281 88.562L47.3422 86.9933Z" fill="white"/>
<path opacity="0.6" d="M49.9648 86.5583L50.0996 87.9585L51.5855 89.5301L51.3833 86.9444L49.9648 86.5583Z" fill="white"/>
<path d="M114.609 82.1771H105.43V89.3094H114.609V82.1771Z" fill="white"/>
<path opacity="0.1" d="M114.607 82.1772H112.254V89.3095H114.607V82.1772Z" fill="black"/>
<path d="M104.902 95.6085H115.279V82.6643H111.937L104.902 86.0313V95.6085Z" fill="#FF725E"/>
<path opacity="0.2" d="M115.278 82.6643H111.936V95.6085H115.278V82.6643Z" fill="#FF2000"/>
<path opacity="0.7" d="M110.83 88.5834H105.971V90.9118H110.83V88.5834Z" fill="white"/>
<path opacity="0.7" d="M110.83 91.6899H105.971V92.0239H110.83V91.6899Z" fill="white"/>
<path opacity="0.7" d="M114.953 92.6673H112.254V94.6434H114.953V92.6673Z" fill="white"/>
<path d="M110.706 81.7881H101.527V89.3095H110.706V81.7881Z" fill="white"/>
<path opacity="0.1" d="M110.706 81.7881H108.354V89.3095H110.706V81.7881Z" fill="black"/>
<path d="M101 95.6085H111.377V82.6643H108.034L101 86.0313V95.6085Z" fill="#FF725E"/>
<path opacity="0.2" d="M111.378 82.6643H108.035V95.6085H111.378V82.6643Z" fill="#FF2000"/>
<path opacity="0.7" d="M106.929 88.5834H102.07V90.9118H106.929V88.5834Z" fill="white"/>
<path opacity="0.7" d="M106.929 91.6899H102.07V92.0239H106.929V91.6899Z" fill="white"/>
<path opacity="0.7" d="M111.053 92.6672H108.354V94.6433H111.053V92.6672Z" fill="white"/>
<path d="M94.5547 144.753H96.4327L99.8028 97.8021H97.312L94.5547 144.753Z" fill="#263238"/>
<path opacity="0.1" d="M94.5547 144.753H96.4327L99.6374 100.134L99.8028 97.8787H97.312L97.1803 100.134L94.5547 144.753Z" fill="white"/>
<path opacity="0.2" d="M97.1797 100.023H99.6368L99.8022 97.8787H97.3114L97.1797 100.023Z" fill="black"/>
<path d="M80.779 144.753H82.6571L82.9634 97.8021H80.4727L80.779 144.753Z" fill="#263238"/>
<path opacity="0.1" d="M80.4727 97.8787L80.5247 105.452L80.779 144.753H82.6571L82.9144 105.452L82.9634 97.8787H80.4727Z" fill="white"/>
<path opacity="0.2" d="M80.4727 97.8787L80.5247 105.538H82.9144L82.9634 97.8787H80.4727Z" fill="black"/>
<path d="M60.8555 144.753H62.7335L66.1036 97.8021H63.6128L60.8555 144.753Z" fill="#263238"/>
<path opacity="0.1" d="M60.8555 144.753H62.7335L65.9412 100.134L66.1036 97.8787H63.6128L63.4811 100.134L60.8555 144.753Z" fill="white"/>
<path opacity="0.2" d="M63.4785 100.023H65.9387L66.101 97.8787H63.6103L63.4785 100.023Z" fill="black"/>
<path d="M116.025 144.753H117.904L115.143 97.8021H112.652L116.025 144.753Z" fill="#263238"/>
<path opacity="0.1" d="M112.652 97.8787L112.821 100.134L116.025 144.753H117.9L115.278 100.134L115.143 97.8787H112.652Z" fill="white"/>
<path opacity="0.2" d="M115.143 97.8787H112.652L112.821 100.023H115.278L115.143 97.8787Z" fill="black"/>
<path d="M116.457 98.9785H62.3033C62.2164 98.9785 62.1304 98.9614 62.0501 98.9281C61.9698 98.8949 61.8969 98.8461 61.8354 98.7847C61.774 98.7232 61.7252 98.6503 61.692 98.57C61.6587 98.4897 61.6416 98.4037 61.6416 98.3168V96.6287H117.119V98.3168C117.119 98.4037 117.102 98.4897 117.069 98.57C117.036 98.6503 116.987 98.7232 116.925 98.7847C116.864 98.8461 116.791 98.8949 116.711 98.9281C116.63 98.9614 116.544 98.9785 116.457 98.9785Z" fill="#407BFF"/>
<path opacity="0.4" d="M116.457 98.9785H62.3033C62.2164 98.9785 62.1304 98.9614 62.0501 98.9281C61.9698 98.8949 61.8969 98.8461 61.8354 98.7847C61.774 98.7232 61.7252 98.6503 61.692 98.57C61.6587 98.4897 61.6416 98.4037 61.6416 98.3168V96.6287H117.119V98.3168C117.119 98.4037 117.102 98.4897 117.069 98.57C117.036 98.6503 116.987 98.7232 116.925 98.7847C116.864 98.8461 116.791 98.8949 116.711 98.9281C116.63 98.9614 116.544 98.9785 116.457 98.9785Z" fill="white"/>
<path opacity="0.2" d="M61.6416 97.8021H117.119V96.6256H61.6416V97.8021Z" fill="black"/>
<path d="M60.4773 96.932H118.28C118.367 96.9324 118.453 96.9155 118.534 96.8824C118.614 96.8493 118.688 96.8006 118.749 96.7391C118.811 96.6775 118.859 96.6044 118.892 96.5239C118.926 96.4435 118.942 96.3572 118.942 96.2702C118.942 96.0947 118.872 95.9264 118.748 95.8023C118.624 95.6782 118.456 95.6085 118.28 95.6085H60.4773C60.3015 95.6085 60.1329 95.6781 60.0083 95.8021C59.8837 95.9261 59.8133 96.0944 59.8125 96.2702C59.8125 96.3574 59.8297 96.4437 59.8632 96.5242C59.8966 96.6047 59.9456 96.6777 60.0074 96.7392C60.0692 96.8007 60.1425 96.8494 60.2231 96.8825C60.3038 96.9156 60.3902 96.9324 60.4773 96.932Z" fill="#407BFF"/>
<path opacity="0.4" d="M60.4773 96.932H118.28C118.367 96.9324 118.453 96.9155 118.534 96.8824C118.614 96.8493 118.688 96.8006 118.749 96.7391C118.811 96.6775 118.859 96.6044 118.892 96.5239C118.926 96.4435 118.942 96.3572 118.942 96.2702C118.942 96.0947 118.872 95.9264 118.748 95.8023C118.624 95.6782 118.456 95.6085 118.28 95.6085H60.4773C60.3015 95.6085 60.1329 95.6781 60.0083 95.8021C59.8837 95.9261 59.8133 96.0944 59.8125 96.2702C59.8125 96.3574 59.8297 96.4437 59.8632 96.5242C59.8966 96.6047 59.9456 96.6777 60.0074 96.7392C60.0692 96.8007 60.1425 96.8494 60.2231 96.8825C60.3038 96.9156 60.3902 96.9324 60.4773 96.932Z" fill="white"/>
<path d="M105.86 95.6023V94.5668H106.555L105.86 94.1624H106.381L105.685 93.7089H105.026V93.1881H105.792L105.026 92.8848V91.7543H105.792V91.016H106.555L105.792 90.7586V90.2316H106.338L105.89 89.7874L105.504 89.3983H93.6662V89.9283H92.885L93.7551 90.3205V90.7586H92.1589V91.5735H91.4512L92.1589 91.9289V92.8389H92.6613V93.2739H93.6662V94.5668H93.1025L93.5651 95.0294V95.6084L105.86 95.6023Z" fill="#407BFF"/>
<path opacity="0.7" d="M105.86 95.6023V94.5668H106.555L105.86 94.1624H106.381L105.685 93.7089H105.026V93.1881H105.792L105.026 92.8848V91.7543H105.792V91.016H106.555L105.792 90.7586V90.2316H106.338L105.89 89.7874L105.504 89.3983H93.6662V89.9283H92.885L93.7551 90.3205V90.7586H92.1589V91.5735H91.4512L92.1589 91.9289V92.8389H92.6613V93.2739H93.6662V94.5668H93.1025L93.5651 95.0294V95.6084L105.86 95.6023Z" fill="white"/>
<path opacity="0.1" d="M105.859 95.6023V94.5668H106.554L105.859 94.1624H106.38L105.684 93.7089H105.026V93.1881H105.792L105.026 92.8848V91.7543H105.792V91.016H106.554L105.792 90.7586V90.2316H106.337L105.89 89.7874L105.504 89.3983H99.2689V89.9283H98.4877L99.3547 90.3205V90.7586H97.7585V91.5735H97.0508L97.7585 91.9289V92.8389H98.2609V93.2739H99.2689V94.5668H98.7052L99.1647 95.0294V95.6084L105.859 95.6023Z" fill="black"/>
<path opacity="0.1" d="M93.7559 90.7586H99.3563L93.7559 90.5564V90.7586Z" fill="black"/>
<path opacity="0.1" d="M93.666 93.2739H99.2695L99.294 93.6661L93.666 93.2739Z" fill="black"/>
<path opacity="0.1" d="M92.6621 92.8389H98.2626L92.6621 93.0349V92.8389Z" fill="black"/>
<path opacity="0.1" d="M93.666 94.5667H99.2695L93.666 94.3615V94.5667Z" fill="black"/>
<path opacity="0.1" d="M93.5645 95.0294H99.1649V95.2439L93.5645 95.0294Z" fill="black"/>
<path opacity="0.1" d="M92.1582 91.5736H97.7586L92.1582 91.3959V91.5736Z" fill="black"/>
<path opacity="0.1" d="M93.666 89.9283H99.2695L93.666 89.7322V89.9283Z" fill="black"/>
<path opacity="0.1" d="M105.793 90.2317H100.109L105.793 90.4063V90.2317Z" fill="black"/>
<path opacity="0.1" d="M99.3574 90.7585H105.794L99.9579 90.9485L99.3574 90.7585Z" fill="black"/>
<path opacity="0.1" d="M97.7598 91.5736L105.793 91.7544V91.5736H97.7598Z" fill="black"/>
<path opacity="0.1" d="M97.7598 91.929H101.733L97.7598 92.122V91.929Z" fill="black"/>
<path opacity="0.1" d="M105.026 92.8848L99.2695 92.8389L105.026 92.7102V92.8848Z" fill="black"/>
<path opacity="0.1" d="M105.027 93.1881H99.166L105.027 93.3842V93.1881Z" fill="black"/>
<path opacity="0.1" d="M105.862 94.1624H99.3574V94.3615L105.862 94.1624Z" fill="black"/>
<path opacity="0.1" d="M105.86 94.5668H101.148L105.86 94.6985V94.5668Z" fill="black"/>
<path d="M90.7865 94.2665V95.25C90.7865 95.5012 90.4801 95.6054 90.2381 95.6054H70.5936C70.3424 95.6054 70.0391 95.5012 70.0391 95.25V94.2665H90.7865Z" fill="#263238"/>
<path opacity="0.4" d="M90.7865 94.2665V95.25C90.7865 95.5012 90.4801 95.6054 90.2381 95.6054H70.5936C70.3424 95.6054 70.0391 95.5012 70.0391 95.25V94.2665H90.7865Z" fill="white"/>
<path opacity="0.2" d="M90.7867 94.2665V95.25C90.7867 95.5012 90.4804 95.6054 90.2383 95.6054H77.2819C77.0307 95.6054 76.7305 95.5012 76.7305 95.25V94.2665H90.7867Z" fill="black"/>
<path d="M94.0737 84.0583L91.7331 94.6679C91.6928 94.8401 91.5962 94.9939 91.4585 95.1049C91.3209 95.2159 91.1501 95.2778 90.9733 95.2806H78.2007C78.1212 95.2789 78.0432 95.2588 77.9728 95.2218C77.9024 95.1849 77.8416 95.1322 77.795 95.0678C77.7484 95.0034 77.7173 94.929 77.7043 94.8506C77.6912 94.7722 77.6965 94.6918 77.7197 94.6158L80.0542 84.0889C80.1021 83.9282 80.2037 83.7889 80.342 83.6941C80.4803 83.5993 80.6469 83.5548 80.814 83.5681H93.5897C93.9328 83.5558 94.1473 83.7121 94.0737 84.0583Z" fill="#263238"/>
<path opacity="0.4" d="M94.0734 84.0582L91.7327 94.6678C91.6925 94.84 91.5958 94.9939 91.4582 95.1049C91.3205 95.2159 91.1497 95.2777 90.9729 95.2806H78.6323C78.5528 95.2788 78.4749 95.2587 78.4045 95.2218C78.3341 95.1849 78.2732 95.1321 78.2266 95.0677C78.18 95.0033 78.149 94.929 78.1359 94.8506C78.1228 94.7722 78.1281 94.6918 78.1513 94.6158L80.4889 84.0889C80.5363 83.9279 80.6378 83.7882 80.7762 83.6933C80.9146 83.5984 81.0815 83.5542 81.2487 83.568H93.5893C93.9325 83.5558 94.1469 83.712 94.0734 84.0582Z" fill="white"/>
<path opacity="0.2" d="M87.7758 89.4504C87.7758 90.3695 86.8015 91.0956 86.0877 91.0956C85.3739 91.0956 84.9511 90.3572 85.1686 89.4504C85.3861 88.5435 86.0877 87.8358 86.7801 87.8082C86.5779 88.7273 87.0129 89.4504 87.7237 89.4504H87.7758Z" fill="black"/>
</g>
<defs>
<clipPath id="clip0_287_16275">
<rect width="153.185" height="153.185" fill="white" transform="translate(17.4082 17.4074)"/>
</clipPath>
</defs>
</svg>
