<svg width="50" height="50" viewBox="0 0 50 50" fill="none" xmlns="http://www.w3.org/2000/svg">
<g filter="url(#filter0_b_287_14931)">
<rect width="50" height="50" fill="#9DF3F9"/>
<path d="M31.1311 12.625H26.165C25.7025 12.625 25.2573 12.7949 24.9163 13.1008L19.2333 18.1984C19.2275 18.2041 19.2217 18.2154 19.2159 18.2211C18.2563 19.1047 18.2736 20.515 19.0945 21.393C19.8288 22.1803 21.3723 22.3898 22.3378 21.5459C22.3436 21.5402 22.3552 21.5402 22.3609 21.5346L26.9802 17.3885C27.3559 17.0543 27.9456 17.077 28.2867 17.4451C28.6336 17.8133 28.6047 18.3854 28.2289 18.7252L26.72 20.0789L35.1375 26.7738C35.3052 26.9098 35.4555 27.057 35.5942 27.21V16.25L32.4377 13.1574C32.0966 12.8176 31.6225 12.625 31.1311 12.625V12.625ZM37.45 16.2613V28.9432C37.45 29.9457 38.2767 30.7557 39.3 30.7557H43V16.2613H37.45ZM40.225 28.9432C39.7163 28.9432 39.3 28.5354 39.3 28.0369C39.3 27.5385 39.7163 27.1307 40.225 27.1307C40.7338 27.1307 41.15 27.5385 41.15 28.0369C41.15 28.5354 40.7338 28.9432 40.225 28.9432ZM6 30.75H9.7C10.7233 30.75 11.55 29.94 11.55 28.9375V16.2613H6V30.75ZM8.775 27.1307C9.28375 27.1307 9.7 27.5385 9.7 28.0369C9.7 28.5354 9.28375 28.9432 8.775 28.9432C8.26625 28.9432 7.85 28.5354 7.85 28.0369C7.85 27.5328 8.26625 27.1307 8.775 27.1307ZM33.9755 28.1842L25.3441 21.3193L23.6097 22.877C21.8927 24.4119 19.2622 24.2646 17.7302 22.6277C16.175 20.9625 16.2964 18.3854 17.9845 16.8674L22.7136 12.625H17.8689C17.3775 12.625 16.9092 12.8176 16.5623 13.1574L13.4 16.25V28.9318H14.458L19.69 33.5707C21.2741 34.8338 23.6039 34.5959 24.8931 33.0439L24.9047 33.0326L25.9395 33.9105C26.8587 34.6469 28.2173 34.5053 28.9631 33.6047L30.7784 31.4184L31.0906 31.6676C31.8827 32.2963 33.0505 32.183 33.6922 31.4014L34.2414 30.7387C34.8889 29.957 34.7675 28.8186 33.9755 28.1842V28.1842Z" fill="#0096FF"/>
</g>
<defs>
<filter id="filter0_b_287_14931" x="-50" y="-50" width="150" height="150" filterUnits="userSpaceOnUse" color-interpolation-filters="sRGB">
<feFlood flood-opacity="0" result="BackgroundImageFix"/>
<feGaussianBlur in="BackgroundImage" stdDeviation="25"/>
<feComposite in2="SourceAlpha" operator="in" result="effect1_backgroundBlur_287_14931"/>
<feBlend mode="normal" in="SourceGraphic" in2="effect1_backgroundBlur_287_14931" result="shape"/>
</filter>
</defs>
</svg>
