<svg width="18" height="17" viewBox="0 0 18 17" fill="none" xmlns="http://www.w3.org/2000/svg">
<path fill-rule="evenodd" clip-rule="evenodd" d="M5.84293 0.714748C6.69602 0.675475 6.96802 0.666748 9.14111 0.666748C11.3142 0.666748 11.5862 0.676203 12.4386 0.714748C13.2909 0.753293 13.8727 0.889294 14.3818 1.08638C14.9149 1.28784 15.3986 1.60275 15.7986 2.01002C16.2058 2.40929 16.52 2.8922 16.7208 3.42602C16.9186 3.93511 17.0538 4.51693 17.0931 5.36784C17.1324 6.22238 17.1411 6.49438 17.1411 8.66675C17.1411 10.8398 17.1317 11.1118 17.0931 11.9649C17.0546 12.8158 16.9186 13.3977 16.7208 13.9067C16.52 14.4406 16.2053 14.9243 15.7986 15.3242C15.3986 15.7315 14.9149 16.0457 14.3818 16.2464C13.8727 16.4442 13.2909 16.5795 12.44 16.6187C11.5862 16.658 11.3142 16.6667 9.14111 16.6667C6.96802 16.6667 6.69602 16.6573 5.84293 16.6187C4.99202 16.5802 4.4102 16.4442 3.90111 16.2464C3.36724 16.0456 2.88353 15.7309 2.48366 15.3242C2.07666 14.9247 1.76171 14.4412 1.56075 13.9075C1.36366 13.3984 1.22839 12.8166 1.18911 11.9657C1.14984 11.1111 1.14111 10.8391 1.14111 8.66675C1.14111 6.49366 1.15057 6.22166 1.18911 5.36929C1.22766 4.51693 1.36366 3.93511 1.56075 3.42602C1.762 2.89226 2.0772 2.40879 2.48439 2.00929C2.88369 1.60239 3.36691 1.28743 3.90039 1.08638C4.40948 0.889294 4.9913 0.754021 5.8422 0.714748H5.84293ZM12.3738 2.15475C11.5302 2.1162 11.2771 2.1082 9.14111 2.1082C7.00511 2.1082 6.75202 2.1162 5.90839 2.15475C5.12802 2.19038 4.70475 2.32057 4.42257 2.43038C4.04948 2.57584 3.78257 2.7482 3.50257 3.0282C3.23715 3.28642 3.03288 3.60077 2.90475 3.9482C2.79493 4.23038 2.66475 4.65366 2.62911 5.43402C2.59057 6.27766 2.58257 6.53075 2.58257 8.66675C2.58257 10.8027 2.59057 11.0558 2.62911 11.8995C2.66475 12.6798 2.79493 13.1031 2.90475 13.3853C3.03275 13.7322 3.23711 14.0471 3.50257 14.3053C3.76075 14.5707 4.07566 14.7751 4.42257 14.9031C4.70475 15.0129 5.12802 15.1431 5.90839 15.1787C6.75202 15.2173 7.00439 15.2253 9.14111 15.2253C11.2778 15.2253 11.5302 15.2173 12.3738 15.1787C13.1542 15.1431 13.5775 15.0129 13.8597 14.9031C14.2328 14.7577 14.4997 14.5853 14.7797 14.3053C15.0451 14.0471 15.2495 13.7322 15.3775 13.3853C15.4873 13.1031 15.6175 12.6798 15.6531 11.8995C15.6917 11.0558 15.6997 10.8027 15.6997 8.66675C15.6997 6.53075 15.6917 6.27766 15.6531 5.43402C15.6175 4.65366 15.4873 4.23038 15.3775 3.9482C15.232 3.57511 15.0597 3.3082 14.7797 3.0282C14.5214 2.7628 14.2071 2.55854 13.8597 2.43038C13.5775 2.32057 13.1542 2.19038 12.3738 2.15475V2.15475ZM8.1193 11.1329C8.68996 11.3705 9.32539 11.4025 9.91706 11.2236C10.5087 11.0447 11.0199 10.666 11.3634 10.152C11.7068 9.63807 11.8612 9.02084 11.8001 8.40573C11.739 7.79063 11.4662 7.21582 11.0284 6.77948C10.7493 6.50055 10.4118 6.28698 10.0403 6.15413C9.66872 6.02128 9.27233 5.97246 8.87966 6.0112C8.48698 6.04993 8.10777 6.17524 7.76933 6.37812C7.4309 6.58099 7.14165 6.85638 6.92242 7.18446C6.70319 7.51254 6.55943 7.88514 6.50149 8.27545C6.44354 8.66575 6.47286 9.06405 6.58732 9.44167C6.70179 9.81929 6.89855 10.1668 7.16346 10.4593C7.42836 10.7517 7.7548 10.9818 8.1193 11.1329ZM6.23348 5.75911C6.61531 5.37728 7.06862 5.07439 7.56751 4.86774C8.06641 4.66109 8.60112 4.55473 9.14111 4.55473C9.68111 4.55473 10.2158 4.66109 10.7147 4.86774C11.2136 5.07439 11.6669 5.37728 12.0488 5.75911C12.4306 6.14095 12.7335 6.59425 12.9401 7.09315C13.1468 7.59204 13.2531 8.12675 13.2531 8.66675C13.2531 9.20675 13.1468 9.74146 12.9401 10.2403C12.7335 10.7392 12.4306 11.1925 12.0488 11.5744C11.2776 12.3455 10.2317 12.7788 9.14111 12.7788C8.05054 12.7788 7.00463 12.3455 6.23348 11.5744C5.46232 10.8032 5.02909 9.75732 5.02909 8.66675C5.02909 7.57617 5.46232 6.53026 6.23348 5.75911V5.75911ZM14.1651 5.16711C14.2597 5.07785 14.3355 4.97052 14.3879 4.85146C14.4403 4.7324 14.4682 4.60403 14.4701 4.47397C14.472 4.34391 14.4478 4.21478 14.3989 4.09425C14.35 3.97371 14.2774 3.86421 14.1854 3.77223C14.0935 3.68025 13.984 3.60766 13.8634 3.55876C13.7429 3.50986 13.6138 3.48564 13.4837 3.48754C13.3536 3.48943 13.2253 3.51741 13.1062 3.5698C12.9872 3.62219 12.8798 3.69794 12.7906 3.79257C12.617 3.97659 12.5219 4.22102 12.5256 4.47397C12.5293 4.72692 12.6314 4.96848 12.8103 5.14736C12.9892 5.32624 13.2308 5.42837 13.4837 5.43206C13.7367 5.43574 13.9811 5.3407 14.1651 5.16711V5.16711Z" fill="white"/>
</svg>
