<svg width="609" height="609" viewBox="0 0 609 609" fill="none" xmlns="http://www.w3.org/2000/svg">
<path d="M290.371 415.984H55.1872C53.3437 415.98 51.5766 415.247 50.273 413.943C48.9694 412.639 48.2356 410.872 48.2324 409.029V78.427C48.2516 76.5941 48.9925 74.8425 50.2943 73.5521C51.5962 72.2616 53.3542 71.5362 55.1872 71.5331H290.371C292.213 71.5364 293.979 72.2705 295.281 73.5745C296.582 74.8784 297.313 76.6455 297.313 78.4879V409.029C297.313 410.871 296.582 412.638 295.281 413.942C293.979 415.246 292.213 415.98 290.371 415.984ZM55.1872 71.7767C53.4244 71.78 51.7348 72.4816 50.4883 73.7281C49.2418 74.9746 48.5401 76.6642 48.5369 78.427V409.029C48.5401 410.792 49.2418 412.481 50.4883 413.728C51.7348 414.974 53.4244 415.676 55.1872 415.679H290.371C292.132 415.676 293.821 414.974 295.065 413.727C296.31 412.48 297.009 410.79 297.009 409.029V78.427C297.009 76.6654 296.31 74.9757 295.065 73.7289C293.821 72.482 292.132 71.78 290.371 71.7767H55.1872Z" fill="#E6E6E6"/>
<path d="M553.824 415.984H318.628C316.786 415.98 315.02 415.246 313.718 413.942C312.417 412.638 311.686 410.871 311.686 409.029V78.427C311.702 76.5952 312.44 74.8436 313.74 73.5529C315.04 72.2621 316.796 71.5363 318.628 71.5331H553.824C555.656 71.5363 557.413 72.2621 558.712 73.5529C560.012 74.8436 560.751 76.5952 560.767 78.427V409.029C560.767 410.871 560.035 412.638 558.734 413.942C557.432 415.246 555.666 415.98 553.824 415.984ZM318.628 71.7767C316.867 71.78 315.178 72.482 313.934 73.7289C312.689 74.9757 311.99 76.6654 311.99 78.427V409.029C311.99 410.79 312.689 412.48 313.934 413.727C315.178 414.974 316.867 415.676 318.628 415.679H553.824C555.588 415.676 557.279 414.975 558.527 413.728C559.776 412.482 560.48 410.793 560.486 409.029V78.427C560.48 76.6631 559.776 74.9735 558.527 73.7274C557.279 72.4812 555.588 71.78 553.824 71.7767H318.628Z" fill="#E6E6E6"/>
<path d="M115.709 477.712H65.5156V478.016H115.709V477.712Z" fill="#E0E0E0"/>
<path d="M218.022 475.276H167.682V475.58H218.022V475.276Z" fill="#E0E0E0"/>
<path d="M283.526 475.276H271.346V475.58H283.526V475.276Z" fill="#E0E0E0"/>
<path d="M161.788 485.677H105.455V485.982H161.788V485.677Z" fill="#E0E0E0"/>
<path d="M356.631 477.553H330.322V477.858H356.631V477.553Z" fill="#E0E0E0"/>
<path d="M401.489 477.553H367.471V477.858H401.489V477.553Z" fill="#E0E0E0"/>
<path d="M565.554 482.706H489.502V483.01H565.554V482.706Z" fill="#E0E0E0"/>
<path d="M609 465.763H0V466.068H609V465.763Z" fill="#E0E0E0"/>
<path d="M206.842 352.002H230.508V338.409C230.508 336.854 230.201 335.315 229.606 333.879C229.011 332.442 228.139 331.137 227.04 330.038C225.941 328.938 224.636 328.066 223.199 327.471C221.763 326.876 220.223 326.57 218.669 326.57C215.531 326.573 212.523 327.822 210.305 330.042C208.087 332.262 206.842 335.271 206.842 338.409V352.002Z" fill="#F0F0F0"/>
<path d="M218.814 349.03C224.33 349.03 228.801 344.558 228.801 339.042C228.801 333.526 224.33 329.055 218.814 329.055C213.298 329.055 208.826 333.526 208.826 339.042C208.826 344.558 213.298 349.03 218.814 349.03Z" fill="white"/>
<path d="M218.96 347.057C223.386 347.057 226.974 343.469 226.974 339.042C226.974 334.616 223.386 331.028 218.96 331.028C214.534 331.028 210.945 334.616 210.945 339.042C210.945 343.469 214.534 347.057 218.96 347.057Z" fill="#EBEBEB"/>
<path d="M218.022 339.213C218.007 339.334 218.019 339.457 218.055 339.574C218.092 339.691 218.153 339.798 218.234 339.89C218.315 339.981 218.414 340.054 218.526 340.104C218.637 340.154 218.758 340.18 218.88 340.18C219.003 340.18 219.123 340.154 219.235 340.104C219.346 340.054 219.446 339.981 219.527 339.89C219.608 339.798 219.669 339.691 219.706 339.574C219.742 339.457 219.754 339.334 219.739 339.213C219.754 339.092 219.742 338.969 219.706 338.852C219.669 338.735 219.608 338.628 219.527 338.536C219.446 338.445 219.346 338.372 219.235 338.322C219.123 338.272 219.003 338.246 218.88 338.246C218.758 338.246 218.637 338.272 218.526 338.322C218.414 338.372 218.315 338.445 218.234 338.536C218.153 338.628 218.092 338.735 218.055 338.852C218.019 338.969 218.007 339.092 218.022 339.213Z" fill="#FAFAFA"/>
<path d="M218.985 339.53L222.651 336.083L222.286 335.705L218.973 338.835L213.017 333.574L212.676 333.963L218.985 339.53Z" fill="#FAFAFA"/>
<path d="M120.253 249.318C131.15 238.421 131.15 220.753 120.253 209.856C109.355 198.958 91.6873 198.958 80.79 209.856C69.8926 220.753 69.8926 238.421 80.79 249.318C91.6873 260.216 109.355 260.216 120.253 249.318Z" fill="#F0F0F0"/>
<path d="M100.606 258.106C96.8094 258.185 93.0354 257.505 89.5052 256.106C85.9749 254.708 82.7592 252.618 80.0465 249.961C77.3339 247.304 75.1788 244.132 73.7076 240.632C72.2363 237.131 71.4785 233.372 71.4785 229.575C71.4785 225.777 72.2363 222.018 73.7076 218.518C75.1788 215.017 77.3339 211.845 80.0465 209.188C82.7592 206.531 85.9749 204.442 89.5052 203.043C93.0354 201.645 96.8094 200.965 100.606 201.043V202.261C93.4713 202.412 86.6798 205.352 81.6874 210.451C76.6949 215.55 73.899 222.402 73.899 229.538C73.899 236.674 76.6949 243.526 81.6874 248.625C86.6798 253.724 93.4713 256.665 100.606 256.815V258.106Z" fill="white"/>
<path d="M100.607 258.106V256.888C107.742 256.738 114.533 253.798 119.526 248.699C124.518 243.599 127.314 236.747 127.314 229.611C127.314 222.475 124.518 215.623 119.526 210.524C114.533 205.425 107.742 202.485 100.607 202.334V201.116C108.072 201.27 115.18 204.344 120.404 209.678C125.629 215.012 128.556 222.181 128.556 229.648C128.556 237.114 125.629 244.284 120.404 249.618C115.18 254.951 108.072 258.025 100.607 258.179V258.106Z" fill="white"/>
<path d="M115.187 229.581H113.969C113.969 220.336 109.279 207.961 100.303 202.2L100.985 201.141C110.29 207.145 115.187 219.995 115.187 229.581Z" fill="white"/>
<path d="M100.948 257.156L100.266 256.097C109.242 250.348 113.932 237.973 113.932 228.728H115.15C115.186 238.314 110.29 251.164 100.948 257.156Z" fill="white"/>
<path d="M87.2825 229.569H86.0645C86.0645 219.983 90.9364 207.133 100.303 201.141L100.985 202.2C91.9718 207.949 87.2825 220.324 87.2825 229.569Z" fill="white"/>
<path d="M100.266 257.156C90.9237 251.152 86.0273 238.314 86.0273 228.716H87.2453C87.2453 237.973 91.9346 250.336 100.911 256.097L100.266 257.156Z" fill="white"/>
<path d="M101.227 201.664H99.9727V257.473H101.227V201.664Z" fill="white"/>
<path d="M124.224 214.076H76.9902V215.33H124.224V214.076Z" fill="white"/>
<path d="M128.497 229.422H72.7129V230.677H128.497V229.422Z" fill="white"/>
<path d="M123.601 244.745H77.6094V245.999H123.601V244.745Z" fill="white"/>
<path d="M529.756 140.898V134.114H335.546V140.898H529.756Z" fill="#F5F5F5"/>
<path d="M387.322 140.898H354.826V156.123H371.062C371.065 154.274 371.802 152.502 373.111 151.196C374.419 149.89 376.192 149.156 378.041 149.156H387.322V140.898Z" fill="#E0E0E0"/>
<path d="M372.633 140.898H348.943V156.123H356.385C356.385 155.208 356.566 154.302 356.916 153.457C357.266 152.612 357.779 151.844 358.426 151.197C359.073 150.55 359.841 150.037 360.686 149.687C361.531 149.336 362.437 149.156 363.352 149.156H372.633V140.898Z" fill="#F5F5F5"/>
<path d="M478.004 140.898H510.5V156.123H494.252C494.252 155.207 494.071 154.3 493.721 153.454C493.37 152.608 492.855 151.84 492.207 151.193C491.559 150.545 490.789 150.033 489.943 149.683C489.096 149.334 488.189 149.155 487.273 149.156H478.004V140.898Z" fill="#EBEBEB"/>
<path d="M492.693 140.898H516.432V156.123H508.99C508.99 154.275 508.256 152.503 506.95 151.197C505.643 149.89 503.871 149.156 502.023 149.156H492.754L492.693 140.898Z" fill="#F5F5F5"/>
<path d="M457.334 120.74L468.065 102.251H466.42L454.959 120.74H457.334Z" fill="#E0E0E0"/>
<path d="M410.868 120.667L400.271 102.178H401.916L413.255 120.667H410.868Z" fill="#E0E0E0"/>
<path d="M411.295 120.667L411.843 121.91H413.426L412.927 120.667H411.295Z" fill="#E0E0E0"/>
<path d="M456.934 120.667L456.398 121.91H454.803L455.314 120.667H456.934Z" fill="#E0E0E0"/>
<path d="M415.13 129.157H408.541V133.261H415.13V129.157Z" fill="#E0E0E0"/>
<path d="M459.855 129.157H453.266V133.261H459.855V129.157Z" fill="#E0E0E0"/>
<path d="M462.157 130.972L447.833 132.531C438.749 133.505 429.586 133.505 420.501 132.531L406.178 130.972V122.092L417.773 120.582C428.632 119.169 439.629 119.169 450.489 120.582L462.12 122.092L462.157 130.972Z" fill="#EBEBEB"/>
<path d="M414.498 126.782C414.498 127.307 414.342 127.82 414.05 128.257C413.759 128.693 413.344 129.034 412.859 129.235C412.374 129.436 411.84 129.488 411.325 129.386C410.81 129.283 410.337 129.03 409.965 128.659C409.594 128.288 409.341 127.815 409.239 127.3C409.136 126.785 409.189 126.251 409.39 125.765C409.591 125.28 409.931 124.866 410.368 124.574C410.804 124.282 411.318 124.126 411.843 124.126C412.547 124.126 413.222 124.406 413.72 124.904C414.218 125.402 414.498 126.077 414.498 126.782Z" fill="white"/>
<path d="M411.841 128.389C412.716 128.389 413.425 127.68 413.425 126.806C413.425 125.931 412.716 125.223 411.841 125.223C410.967 125.223 410.258 125.931 410.258 126.806C410.258 127.68 410.967 128.389 411.841 128.389Z" fill="#E0E0E0"/>
<path d="M426.861 126.806C426.861 127.029 426.772 127.243 426.614 127.4C426.457 127.558 426.243 127.646 426.02 127.646C425.797 127.646 425.583 127.558 425.426 127.4C425.268 127.243 425.18 127.029 425.18 126.806C425.18 126.583 425.268 126.369 425.426 126.212C425.583 126.054 425.797 125.966 426.02 125.966C426.243 125.966 426.457 126.054 426.614 126.212C426.772 126.369 426.861 126.583 426.861 126.806Z" fill="white"/>
<path d="M429.857 126.806C429.857 126.972 429.807 127.135 429.715 127.273C429.623 127.411 429.491 127.519 429.338 127.582C429.184 127.646 429.015 127.663 428.852 127.63C428.689 127.598 428.539 127.518 428.422 127.4C428.304 127.283 428.224 127.133 428.192 126.97C428.159 126.807 428.176 126.638 428.24 126.484C428.303 126.331 428.411 126.2 428.549 126.107C428.687 126.015 428.85 125.966 429.016 125.966C429.239 125.966 429.453 126.054 429.61 126.212C429.768 126.369 429.857 126.583 429.857 126.806Z" fill="white"/>
<path d="M432.841 126.806C432.841 126.972 432.792 127.135 432.699 127.273C432.607 127.411 432.476 127.519 432.322 127.582C432.169 127.646 432 127.663 431.837 127.63C431.674 127.598 431.524 127.518 431.406 127.4C431.289 127.283 431.209 127.133 431.176 126.97C431.144 126.807 431.161 126.638 431.224 126.484C431.288 126.331 431.395 126.2 431.534 126.107C431.672 126.015 431.834 125.966 432.001 125.966C432.223 125.966 432.437 126.054 432.595 126.212C432.752 126.369 432.841 126.583 432.841 126.806Z" fill="white"/>
<path d="M435.837 126.806C435.837 126.972 435.788 127.135 435.695 127.273C435.603 127.411 435.472 127.519 435.318 127.582C435.165 127.646 434.996 127.663 434.833 127.63C434.67 127.598 434.52 127.518 434.402 127.4C434.285 127.283 434.205 127.133 434.172 126.97C434.14 126.807 434.157 126.638 434.22 126.484C434.284 126.331 434.392 126.2 434.53 126.107C434.668 126.015 434.83 125.966 434.997 125.966C435.22 125.966 435.433 126.054 435.591 126.212C435.749 126.369 435.837 126.583 435.837 126.806Z" fill="white"/>
<path d="M438.821 126.806C438.821 126.972 438.772 127.135 438.68 127.273C438.587 127.411 438.456 127.519 438.303 127.582C438.149 127.646 437.98 127.663 437.817 127.63C437.654 127.598 437.504 127.518 437.387 127.4C437.269 127.283 437.189 127.133 437.157 126.97C437.124 126.807 437.141 126.638 437.205 126.484C437.268 126.331 437.376 126.2 437.514 126.107C437.652 126.015 437.815 125.966 437.981 125.966C438.204 125.966 438.418 126.054 438.575 126.212C438.733 126.369 438.821 126.583 438.821 126.806Z" fill="white"/>
<path d="M441.818 126.806C441.818 126.972 441.768 127.135 441.676 127.273C441.584 127.411 441.452 127.519 441.299 127.582C441.145 127.646 440.976 127.663 440.813 127.63C440.65 127.598 440.5 127.518 440.383 127.4C440.265 127.283 440.185 127.133 440.153 126.97C440.12 126.807 440.137 126.638 440.201 126.484C440.264 126.331 440.372 126.2 440.51 126.107C440.648 126.015 440.811 125.966 440.977 125.966C441.2 125.966 441.414 126.054 441.571 126.212C441.729 126.369 441.818 126.583 441.818 126.806Z" fill="white"/>
<path d="M444.802 126.806C444.802 126.973 444.752 127.136 444.659 127.274C444.567 127.413 444.435 127.52 444.28 127.584C444.126 127.647 443.956 127.663 443.793 127.629C443.63 127.596 443.48 127.515 443.363 127.396C443.246 127.277 443.167 127.126 443.136 126.962C443.105 126.799 443.123 126.629 443.189 126.476C443.254 126.322 443.364 126.192 443.504 126.101C443.643 126.01 443.807 125.963 443.974 125.966C444.084 125.966 444.192 125.987 444.293 126.03C444.395 126.072 444.487 126.134 444.564 126.212C444.641 126.291 444.702 126.383 444.742 126.485C444.783 126.587 444.804 126.696 444.802 126.806Z" fill="white"/>
<path d="M162.555 160.484V167.792C167.156 168.156 171.525 169.963 175.039 172.956L180.24 167.755C175.327 163.417 169.098 160.856 162.555 160.484Z" fill="#F5F5F5"/>
<path d="M159.011 211.713C153.804 211.295 148.916 209.038 145.222 205.344C141.528 201.65 139.27 196.762 138.853 191.555H131.545C131.976 198.711 135.013 205.462 140.082 210.532C145.152 215.602 151.903 218.639 159.06 219.069L159.011 211.713Z" fill="#F0F0F0"/>
<path d="M138.853 187.998C139.28 182.793 141.543 177.908 145.237 174.216C148.932 170.524 153.817 168.265 159.023 167.84V160.532C151.882 160.973 145.147 164.008 140.087 169.066C135.027 174.124 131.989 180.857 131.545 187.998H138.853Z" fill="#E0E0E0"/>
<path d="M182.7 170.325L177.499 175.526C180.126 178.611 181.849 182.361 182.48 186.363C183.11 190.365 182.623 194.463 181.072 198.206C179.521 201.949 176.967 205.19 173.691 207.574C170.415 209.957 166.544 211.389 162.506 211.713V219.021C167.993 218.686 173.276 216.816 177.752 213.624C182.228 210.432 185.717 206.047 187.822 200.969C189.927 195.891 190.563 190.323 189.657 184.901C188.752 179.478 186.341 174.42 182.7 170.301V170.325Z" fill="#E0E0E0"/>
<path d="M90.7648 465.3L313.306 465.3C326.537 465.3 337.264 454.574 337.264 441.342V354.974C337.264 341.742 326.537 331.016 313.306 331.016H90.7648C77.5332 331.016 66.8068 341.742 66.8068 354.974V441.342C66.8068 454.574 77.5332 465.3 90.7648 465.3Z" fill="#E0E0E0"/>
<path d="M105.017 466.299L327.558 466.299C340.789 466.299 351.516 455.573 351.516 442.341V355.973C351.516 342.741 340.789 332.015 327.558 332.015H105.017C91.7851 332.015 81.0587 342.741 81.0587 355.973V442.341C81.0587 455.573 91.7851 466.299 105.017 466.299Z" fill="#F5F5F5"/>
<path d="M337.52 394.754L93.4567 394.754V361.393C93.4567 359.195 93.8895 357.019 94.7306 354.988C95.5716 352.958 96.8044 351.113 98.3584 349.559C99.9124 348.005 101.757 346.772 103.788 345.931C105.818 345.09 107.994 344.657 110.192 344.657H320.784C325.223 344.657 329.479 346.421 332.618 349.559C335.756 352.698 337.52 356.954 337.52 361.393V394.754Z" fill="#E0E0E0"/>
<path d="M320.784 451.647H110.18C105.741 451.647 101.485 449.883 98.3462 446.745C95.2077 443.606 93.4445 439.35 93.4445 434.911V401.55H337.52V434.911C337.52 439.35 335.756 443.606 332.618 446.745C329.479 449.883 325.223 451.647 320.784 451.647Z" fill="#E0E0E0"/>
<path d="M192.871 354.377H158.279V395.107H192.871V354.377Z" fill="#E6E6E6"/>
<path d="M201.726 354.377H192.871V395.107H201.726V354.377Z" fill="#F5F5F5"/>
<path d="M175.185 348.092H149.205V395.107H175.185V348.092Z" fill="#E6E6E6"/>
<path d="M182.699 348.092H175.184V395.107H182.699V348.092Z" fill="#F5F5F5"/>
<path d="M167.535 354.377H145.623V395.107H167.535V354.377Z" fill="#EBEBEB"/>
<path d="M172.541 354.377H167.535V395.107H172.541V354.377Z" fill="#F5F5F5"/>
<path d="M149.608 361.271H120.875V395.107H149.608V361.271Z" fill="#E6E6E6"/>
<path d="M156.964 361.271H149.607V395.107H156.964V361.271Z" fill="#F5F5F5"/>
<path d="M134.917 356.046H113.334V395.107H134.917V356.046Z" fill="#E6E6E6"/>
<path d="M141.154 356.046H134.918V395.107H141.154V356.046Z" fill="#F5F5F5"/>
<path d="M128.572 361.271H107.598V395.107H128.572V361.271Z" fill="#E6E6E6"/>
<path d="M132.726 361.271H128.572V395.107H132.726V361.271Z" fill="#F0F0F0"/>
<path d="M300.517 409.382H265.926V450.112H300.517V409.382Z" fill="#E6E6E6"/>
<path d="M309.372 409.382H300.518V450.112H309.372V409.382Z" fill="#F5F5F5"/>
<path d="M282.833 403.097H256.854V450.112H282.833V403.097Z" fill="#E6E6E6"/>
<path d="M290.347 403.097H282.832V450.112H290.347V403.097Z" fill="#F5F5F5"/>
<path d="M182.505 409.382H147.914V450.112H182.505V409.382Z" fill="#E6E6E6"/>
<path d="M191.361 409.382H182.506V450.112H191.361V409.382Z" fill="#F5F5F5"/>
<path d="M164.82 403.097H138.84V450.112H164.82V403.097Z" fill="#E6E6E6"/>
<path d="M172.335 403.097H164.82V450.112H172.335V403.097Z" fill="#F5F5F5"/>
<path d="M275.183 409.382H253.271V450.112H275.183V409.382Z" fill="#EBEBEB"/>
<path d="M280.19 409.382H275.184V450.112H280.19V409.382Z" fill="#F5F5F5"/>
<path d="M257.252 416.264H228.52V450.1H257.252V416.264Z" fill="#E6E6E6"/>
<path d="M264.611 416.264H257.254V450.1H264.611V416.264Z" fill="#F5F5F5"/>
<path d="M242.565 411.051H220.982V450.112H242.565V411.051Z" fill="#E6E6E6"/>
<path d="M248.789 411.051H242.553V450.112H248.789V411.051Z" fill="#F5F5F5"/>
<path d="M236.208 416.264H215.234V450.1H236.208V416.264Z" fill="#E6E6E6"/>
<path d="M240.372 416.264H236.219V450.1H240.372V416.264Z" fill="#F0F0F0"/>
<path d="M540.657 312.941H404.838C404.838 319.737 408.76 325.328 413.741 325.632C428.357 326.521 450.793 329.676 457.918 340.687C471.195 361.222 469.903 433.34 454.009 450.039C449.015 455.276 434.521 465.678 434.521 465.678H511.047C511.047 465.678 497.467 455.069 492.777 450.039C476.943 433.206 476.505 361.125 489.842 340.687C496.687 330.2 517.722 326.814 531.851 325.754C536.772 325.377 540.657 319.737 540.657 312.941Z" fill="#F5F5F5"/>
<path d="M421.672 326.302C435.46 327.813 451.988 331.527 457.92 340.687C459.904 343.995 461.413 347.567 462.402 351.296H485.215C486.238 347.565 487.776 343.994 489.782 340.687C495.726 331.576 512.401 327.825 525.933 326.302H421.672Z" fill="#E6E6E6"/>
<path d="M482.802 313.026L480.963 284.245H507.735L509.574 313.026H482.802Z" fill="#EBEBEB"/>
<path d="M482.804 313.026L480.965 284.245H479.516L481.367 313.026H482.804Z" fill="#E0E0E0"/>
<path d="M485.349 310.091L483.875 287.18H505.19L506.664 310.091H485.349Z" fill="#F0F0F0"/>
<path d="M486.982 308.203L485.752 289.056H503.559L504.789 308.203H486.982Z" fill="#FAFAFA"/>
<path d="M474.12 312.941H447.227L450.211 266.425H477.104L474.12 312.941Z" fill="#E6E6E6"/>
<path d="M474.119 312.941H475.398L478.382 266.425H477.103L474.119 312.941Z" fill="#E0E0E0"/>
<path d="M471.682 308.191H450.27L452.645 271.163H474.057L471.682 308.191Z" fill="#F0F0F0"/>
<path d="M470.111 305.146H452.23L454.216 274.221H472.096L470.111 305.146Z" fill="#FAFAFA"/>
<path d="M461.087 288.13C461.316 288.508 461.639 288.821 462.024 289.038C462.409 289.255 462.844 289.369 463.286 289.369C463.728 289.369 464.162 289.255 464.547 289.038C464.933 288.821 465.255 288.508 465.484 288.13C466.08 287.244 466.398 286.201 466.398 285.134C466.398 284.066 466.08 283.023 465.484 282.138C465.255 281.759 464.933 281.447 464.547 281.23C464.162 281.013 463.728 280.898 463.286 280.898C462.844 280.898 462.409 281.013 462.024 281.23C461.639 281.447 461.316 281.759 461.087 282.138C460.492 283.023 460.174 284.066 460.174 285.134C460.174 286.201 460.492 287.244 461.087 288.13Z" fill="#EBEBEB"/>
<path d="M462.401 293.331C462.233 293.054 461.996 292.824 461.713 292.665C461.431 292.506 461.112 292.423 460.787 292.423C460.463 292.423 460.144 292.506 459.861 292.665C459.579 292.824 459.342 293.054 459.173 293.331C457.736 295.292 458.759 298.629 460.793 298.629C462.84 298.629 463.838 295.292 462.401 293.331Z" fill="#F0F0F0"/>
<path d="M304.5 513.253C434.926 513.253 540.658 507.08 540.658 499.465C540.658 491.85 434.926 485.677 304.5 485.677C174.073 485.677 68.3418 491.85 68.3418 499.465C68.3418 507.08 174.073 513.253 304.5 513.253Z" fill="#F5F5F5"/>
<path d="M476.373 408.846C464.193 418.237 460.673 438.809 460.051 453.303C460.051 454.631 457.944 454.631 457.993 453.303C458.639 437.956 462.134 417.238 475.337 407.019C476.385 406.203 477.42 407.993 476.373 408.797V408.846Z" fill="#263238"/>
<path d="M448.091 398.286C451.197 397.933 453.816 401.112 455.168 403.438C462.171 415.557 459.468 433.888 458.14 446.86C458.006 448.163 455.935 448.175 456.069 446.86C457.36 434.205 459.723 417.713 453.999 405.679C453.012 403.621 450.917 400.028 448.091 400.357C446.776 400.503 446.788 398.444 448.091 398.286Z" fill="#263238"/>
<path d="M440.539 414.973C453.572 411.757 455.155 440.66 455.582 446.896C455.667 448.224 453.609 448.212 453.523 446.896C453 438.456 452.585 426.373 446.483 419.613C445.265 418.249 443.109 416.459 441.088 416.97C439.796 417.287 439.248 415.289 440.539 414.973Z" fill="#263238"/>
<path d="M479.175 429.004C468.396 421.014 464.888 441.988 464.291 448.041C464.157 449.345 462.099 449.357 462.233 448.041C462.903 441.184 463.95 428.748 471.867 425.874C473.265 425.418 474.752 425.302 476.203 425.537C477.654 425.773 479.028 426.351 480.211 427.226C481.27 428.005 480.211 429.796 479.175 429.004Z" fill="#263238"/>
<path d="M436.302 432.792C437.117 431.931 438.121 431.271 439.235 430.865C440.349 430.459 441.543 430.318 442.721 430.453C449.298 431.55 451.113 441.415 452.111 446.616C452.367 447.919 450.382 448.468 450.126 447.164C449.261 442.731 445.12 426.799 437.763 434.241C437.565 434.402 437.314 434.484 437.06 434.471C436.805 434.458 436.564 434.352 436.382 434.172C436.201 433.992 436.093 433.752 436.078 433.497C436.063 433.243 436.143 432.991 436.302 432.792Z" fill="#263238"/>
<path d="M475.119 500.379H443.95C441.146 498.011 438.893 495.061 437.346 491.733C435.8 488.405 434.999 484.78 434.998 481.11C434.998 472.267 439.967 445.788 439.967 445.788H479.102C479.102 445.788 484.071 472.304 484.071 481.11C484.07 484.78 483.269 488.405 481.723 491.733C480.177 495.061 477.923 498.011 475.119 500.379Z" fill="#263238"/>
<path d="M480.089 439.174C470.686 439.174 461.478 435.362 459.542 430.648C457.605 425.935 463.634 422.122 473.037 422.122C476.065 422.13 479.081 422.514 482.014 423.267C484.618 422.471 487.33 422.085 490.052 422.122C499.455 422.122 508.651 425.935 510.6 430.648C512.549 435.362 506.508 439.174 497.105 439.174H480.089Z" fill="#407BFF"/>
<path opacity="0.1" d="M480.089 439.174C470.686 439.174 461.478 435.362 459.542 430.648C457.605 425.935 463.634 422.122 473.037 422.122C476.065 422.13 479.081 422.514 482.014 423.267C484.618 422.471 487.33 422.085 490.052 422.122C499.455 422.122 508.651 425.935 510.6 430.648C512.549 435.362 506.508 439.174 497.105 439.174H480.089Z" fill="black"/>
<path d="M418.739 420.953C411.053 420.953 407.935 417.835 411.784 413.986C415.633 410.137 424.975 407.031 432.673 407.031C434.72 406.963 436.761 407.281 438.69 407.969C441.282 407.369 443.933 407.054 446.595 407.031C454.28 407.031 457.398 410.149 453.549 413.986C449.7 417.823 440.358 420.953 432.673 420.953H418.739Z" fill="#407BFF"/>
<path d="M489.468 413.986C479.785 413.986 468.031 410.064 463.183 405.229C458.336 400.393 462.27 396.471 471.953 396.471C475.3 396.517 478.632 396.926 481.892 397.689C484.318 396.812 486.888 396.399 489.468 396.471C499.139 396.471 510.904 400.393 515.74 405.229C520.575 410.064 516.653 413.986 506.982 413.986H489.468Z" fill="#407BFF"/>
<path opacity="0.2" d="M489.468 413.986C479.785 413.986 468.031 410.064 463.183 405.229C458.336 400.393 462.27 396.471 471.953 396.471C475.3 396.517 478.632 396.926 481.892 397.689C484.318 396.812 486.888 396.399 489.468 396.471C499.139 396.471 510.904 400.393 515.74 405.229C520.575 410.064 516.653 413.986 506.982 413.986H489.468Z" fill="white"/>
<path d="M435.679 402.683C430.807 402.683 427.726 400.722 428.737 398.298C429.748 395.874 434.474 393.926 439.309 393.926C440.708 393.901 442.101 394.098 443.438 394.51C444.95 394.121 446.505 393.925 448.066 393.926C452.938 393.926 456.008 395.887 455.009 398.298C454.01 400.71 449.272 402.683 444.437 402.683H435.679Z" fill="#407BFF"/>
<path opacity="0.3" d="M435.679 402.683C430.807 402.683 427.726 400.722 428.737 398.298C429.748 395.874 434.474 393.926 439.309 393.926C440.708 393.901 442.101 394.098 443.438 394.51C444.95 394.121 446.505 393.925 448.066 393.926C452.938 393.926 456.008 395.887 455.009 398.298C454.01 400.71 449.272 402.683 444.437 402.683H435.679Z" fill="white"/>
<path d="M430.101 437.713C425.229 437.713 420.527 435.752 419.529 433.34C418.53 430.928 421.636 428.955 426.471 428.955C428.033 428.958 429.588 429.159 431.1 429.552C432.436 429.136 433.829 428.934 435.229 428.955C440.101 428.955 444.802 430.916 445.801 433.34C446.8 435.764 443.694 437.713 438.858 437.713H430.101Z" fill="#407BFF"/>
<path opacity="0.2" d="M430.101 437.713C425.229 437.713 420.527 435.752 419.529 433.34C418.53 430.928 421.636 428.955 426.471 428.955C428.033 428.958 429.588 429.159 431.1 429.552C432.436 429.136 433.829 428.934 435.229 428.955C440.101 428.955 444.802 430.916 445.801 433.34C446.8 435.764 443.694 437.713 438.858 437.713H430.101Z" fill="black"/>
<path d="M439.078 450.66C439.602 447.688 439.967 445.788 439.967 445.788H479.102C479.102 445.788 479.467 447.725 479.991 450.66H439.078Z" fill="#407BFF"/>
<path d="M437.375 409.662C437.375 409.662 426.644 413.243 423.246 419.138C423.246 419.138 423.782 410.551 437.375 409.662Z" fill="#FAFAFA"/>
<path d="M442.428 395.619C440.699 396.615 439.174 397.929 437.934 399.492C438.232 398.483 438.814 397.581 439.611 396.894C440.408 396.208 441.386 395.765 442.428 395.619Z" fill="#FAFAFA"/>
<path d="M484.07 399.504C484.07 399.504 495.702 403.767 502.864 411.818C500.963 408.397 498.259 405.489 494.985 403.344C491.712 401.199 487.966 399.881 484.07 399.504Z" fill="#FAFAFA"/>
<path d="M484.07 425.399C488.907 427.413 493.114 430.69 496.25 434.887C496.25 434.887 494.094 426.824 484.07 425.399Z" fill="#E6E6E6"/>
<path d="M431.283 431.306C432.144 431.759 432.876 432.424 433.409 433.238C433.941 434.052 434.258 434.988 434.328 435.959C432.905 434.717 431.851 433.107 431.283 431.306Z" fill="#FAFAFA"/>
<path d="M130.997 269.178C131.396 268.4 132.032 267.769 132.815 267.379C133.597 266.989 134.484 266.859 135.346 267.01C136.209 267.225 136.984 267.703 137.564 268.377C138.144 269.051 138.501 269.888 138.586 270.774C139.184 270.338 139.9 270.095 140.639 270.075C141.379 270.056 142.106 270.261 142.727 270.664C143.346 271.111 143.829 271.721 144.122 272.426C144.414 273.132 144.505 273.905 144.383 274.659C144.726 274.409 145.118 274.234 145.533 274.144C145.948 274.054 146.377 274.051 146.792 274.136C147.208 274.22 147.602 274.391 147.949 274.636C148.295 274.881 148.586 275.196 148.805 275.56C149.205 276.344 149.289 277.253 149.037 278.097C148.785 278.941 148.218 279.655 147.453 280.091C147.991 280.16 148.484 280.427 148.838 280.838C149.191 281.25 149.379 281.779 149.365 282.321C149.352 282.863 149.137 283.382 148.764 283.775C148.39 284.169 147.884 284.41 147.343 284.452C147.888 284.493 148.402 284.722 148.797 285.099C149.193 285.477 149.445 285.98 149.511 286.522C149.571 287.072 149.443 287.627 149.146 288.094C148.849 288.561 148.402 288.913 147.879 289.092C148.138 289.24 148.36 289.445 148.53 289.691C148.699 289.937 148.81 290.218 148.856 290.513C148.902 290.807 148.88 291.109 148.793 291.394C148.706 291.68 148.556 291.942 148.354 292.162C148.125 292.343 147.855 292.465 147.567 292.518C147.28 292.571 146.984 292.553 146.706 292.465C146.427 292.378 146.174 292.223 145.969 292.015C145.763 291.807 145.612 291.552 145.528 291.273C145.486 291.353 145.425 291.423 145.351 291.476C145.277 291.529 145.192 291.564 145.102 291.578C145.012 291.592 144.92 291.585 144.833 291.557C144.747 291.53 144.668 291.482 144.602 291.419C144.544 291.345 144.503 291.26 144.48 291.168C144.458 291.077 144.455 290.982 144.472 290.89C144.49 290.798 144.526 290.71 144.58 290.633C144.634 290.556 144.704 290.492 144.785 290.444C144.652 290.591 144.48 290.699 144.29 290.757C144.1 290.814 143.897 290.819 143.705 290.77C143.512 290.721 143.336 290.621 143.196 290.48C143.056 290.339 142.957 290.162 142.909 289.969C143.275 291.918 140.948 293.769 139.255 292.832C139.343 293.047 139.384 293.279 139.376 293.512C139.368 293.745 139.311 293.973 139.209 294.182C139.106 294.391 138.961 294.577 138.782 294.726C138.604 294.875 138.395 294.985 138.171 295.048C137.261 295.217 136.321 295.034 135.541 294.537C134.76 294.048 133.875 293.752 132.958 293.672C132.163 293.766 131.387 293.979 130.656 294.305C129.426 294.677 128.117 294.701 126.875 294.374C125.632 294.047 124.504 293.383 123.616 292.454C123.286 292.838 122.864 293.132 122.389 293.308C121.913 293.484 121.401 293.536 120.9 293.459C120.4 293.383 119.927 293.18 119.526 292.869C119.125 292.559 118.81 292.152 118.61 291.687C118.527 292.164 118.293 292.601 117.942 292.935C117.591 293.268 117.142 293.48 116.662 293.538C116.174 293.546 115.697 293.393 115.305 293.102C114.913 292.811 114.628 292.4 114.494 291.93C114.494 292.357 114.493 292.783 114.433 293.221C112.691 293.635 110.961 291.37 111.704 289.653C111.062 289.624 110.45 289.37 109.976 288.936C109.502 288.502 109.195 287.915 109.11 287.277C109.042 286.633 109.197 285.986 109.55 285.442C109.902 284.899 110.431 284.494 111.047 284.293C109.991 283.955 109.069 283.293 108.411 282.4C107.754 281.508 107.394 280.431 107.383 279.323C107.372 278.214 107.711 277.13 108.351 276.226C108.991 275.321 109.9 274.64 110.949 274.281C111.349 274.123 111.784 274.07 112.21 274.127C112.637 274.185 113.041 274.351 113.385 274.61C113.546 274.753 113.675 274.928 113.763 275.125C113.852 275.321 113.897 275.534 113.897 275.749C113.897 275.964 113.852 276.177 113.763 276.373C113.675 276.57 113.546 276.745 113.385 276.888C113.098 275.878 113.144 274.803 113.517 273.822C113.89 272.841 114.57 272.007 115.456 271.443C116.352 270.963 117.389 270.815 118.384 271.027C119.378 271.239 120.266 271.796 120.888 272.601C120.593 272.154 120.436 271.631 120.436 271.096C120.436 270.561 120.593 270.038 120.888 269.592C121.186 269.172 121.61 268.858 122.098 268.694C122.586 268.53 123.113 268.524 123.604 268.679C123.724 268.006 124.092 267.403 124.636 266.99C125.18 266.577 125.86 266.384 126.54 266.45C127.215 266.598 127.813 266.988 128.222 267.547C128.63 268.105 128.82 268.794 128.756 269.483C128.822 269.231 128.957 269.004 129.146 268.826C129.335 268.649 129.57 268.528 129.825 268.478C130.079 268.429 130.343 268.452 130.585 268.546C130.827 268.639 131.037 268.799 131.192 269.007C131.96 268.8 130.997 269.178 130.997 269.178Z" fill="#407BFF"/>
<g opacity="0.4">
<path d="M130.512 282.223C130.776 282.026 131.077 281.884 131.397 281.806C131.717 281.729 132.05 281.717 132.375 281.772C132.694 281.826 132.991 281.969 133.233 282.184C133.474 282.4 133.65 282.679 133.739 282.99C133.805 283.314 133.748 283.65 133.579 283.934C133.41 284.218 133.142 284.428 132.826 284.525C132.046 284.72 131.267 284.074 130.475 284.184C130.196 284.247 129.924 284.332 129.659 284.44C129.072 284.494 128.48 284.42 127.925 284.222C127.37 284.024 126.864 283.708 126.443 283.295C126.101 283.063 125.8 282.774 125.554 282.442C125.432 282.266 125.359 282.06 125.342 281.846C125.325 281.632 125.364 281.418 125.457 281.224C125.643 281.002 125.888 280.837 126.164 280.747C126.439 280.656 126.734 280.644 127.016 280.712C128.175 280.851 129.271 281.311 130.183 282.04C130.183 281.857 130.183 281.675 130.085 281.492L130.512 282.223Z" fill="#FAFAFA"/>
<path d="M113.958 281.236C114.258 281.005 114.596 280.828 114.957 280.712C115.171 280.644 115.402 280.657 115.607 280.748C115.812 280.84 115.976 281.004 116.068 281.209C116.16 281.414 116.173 281.645 116.105 281.859C116.037 282.073 115.893 282.255 115.7 282.369C115.268 282.658 114.769 282.83 114.25 282.868C113.727 282.941 113.032 282.966 112.801 282.503C112.726 282.325 112.708 282.128 112.752 281.94C112.796 281.751 112.898 281.582 113.045 281.455C113.35 281.214 113.702 281.039 114.08 280.944L113.958 281.236Z" fill="#FAFAFA"/>
<path d="M140.072 272.637C140.598 272.862 141.063 273.208 141.432 273.645C141.8 274.083 142.06 274.602 142.191 275.158C142.264 275.499 142.191 275.926 141.96 276.108C141.729 276.2 141.472 276.2 141.241 276.108L138.208 275.39C138.703 275.543 139.166 275.786 139.572 276.108C139.774 276.274 139.928 276.489 140.02 276.733C140.112 276.976 140.138 277.24 140.096 277.497C139.996 277.785 139.806 278.034 139.554 278.205C139.301 278.376 139 278.461 138.695 278.447C138.084 278.397 137.503 278.163 137.027 277.777C136.744 277.616 136.502 277.394 136.319 277.126C136.135 276.858 136.015 276.551 135.967 276.23C135.967 275.572 136.783 275.012 137.282 275.39C136.127 275.075 135.029 274.578 134.03 273.916C133.653 273.692 133.329 273.389 133.08 273.027C132.96 272.849 132.889 272.643 132.874 272.429C132.859 272.215 132.901 272.001 132.995 271.809C134.03 269.921 135.334 272.686 135.967 272.929C137.197 273.392 138.561 271.992 140.072 272.637Z" fill="#FAFAFA"/>
<path d="M144.809 280.664C144.865 280.846 144.87 281.04 144.823 281.225C144.775 281.41 144.678 281.578 144.541 281.711C144.467 281.771 144.381 281.814 144.289 281.836C144.197 281.859 144.101 281.861 144.008 281.843C143.915 281.824 143.827 281.785 143.751 281.729C143.675 281.672 143.612 281.6 143.567 281.516C144.269 281.655 144.909 282.013 145.394 282.539C145.808 283.112 145.71 284.098 145.041 284.318C144.829 284.355 144.612 284.349 144.403 284.301C144.194 284.253 143.997 284.163 143.823 284.038C142.727 283.44 141.684 282.751 140.704 281.979C140.997 282.673 140.278 283.465 139.486 283.526C138.725 283.508 137.988 283.252 137.379 282.795C136.588 282.308 135.686 281.577 135.893 280.664C136.038 280.288 136.324 279.983 136.691 279.815C137.057 279.646 137.474 279.628 137.854 279.762C138.603 280.066 139.256 280.567 139.742 281.212C139.328 280.603 139.925 279.677 140.668 279.58C141.032 279.56 141.396 279.63 141.727 279.783C142.058 279.936 142.347 280.167 142.568 280.457C141.728 279.994 141.533 278.788 142.665 278.642C143.384 278.557 144.626 280.055 144.809 280.664Z" fill="#FAFAFA"/>
<path d="M121.692 277.96C121.853 277.895 122.025 277.866 122.198 277.873C122.371 277.881 122.54 277.925 122.694 278.003C122.849 278.081 122.985 278.191 123.093 278.325C123.202 278.46 123.281 278.616 123.324 278.783C123.368 278.951 123.375 279.125 123.346 279.296C123.317 279.466 123.252 279.629 123.155 279.772C123.058 279.915 122.932 280.036 122.785 280.127C122.638 280.218 122.473 280.276 122.301 280.298C122.802 280.347 123.265 280.587 123.592 280.968C123.778 281.174 123.875 281.446 123.86 281.723C123.808 281.925 123.69 282.103 123.524 282.229C123.358 282.355 123.155 282.422 122.947 282.418C122.52 282.407 122.103 282.294 121.729 282.089C122.158 282.08 122.581 282.194 122.947 282.418C123.03 282.476 123.1 282.55 123.154 282.636C123.208 282.722 123.243 282.817 123.259 282.917C123.275 283.017 123.271 283.12 123.246 283.218C123.222 283.316 123.178 283.409 123.117 283.489C122.978 283.589 122.815 283.651 122.644 283.67C122.474 283.69 122.301 283.665 122.143 283.599C121.405 283.39 120.728 283.006 120.17 282.479C119.969 282.722 119.712 282.913 119.422 283.036C119.131 283.159 118.816 283.21 118.501 283.185C118.347 283.162 118.2 283.107 118.068 283.025C117.936 282.943 117.822 282.835 117.733 282.707C117.644 282.58 117.582 282.435 117.551 282.283C117.519 282.13 117.52 281.973 117.551 281.821C117.637 281.615 117.778 281.437 117.959 281.306C118.139 281.175 118.352 281.096 118.574 281.078C119.022 281.055 119.47 281.126 119.89 281.285C119.413 281.009 119.044 280.58 118.842 280.067C118.684 279.555 119.025 278.849 119.561 278.922C120.097 278.995 120.462 279.775 120.937 280.067C121.51 279.58 120.413 278.435 121.692 277.96Z" fill="#FAFAFA"/>
<path d="M132.483 275.463C132.801 275.725 133.047 276.064 133.199 276.448C133.35 276.831 133.401 277.247 133.348 277.655C133.356 278.111 133.239 278.559 133.012 278.954C132.785 279.349 132.455 279.674 132.057 279.896C131.776 279.986 131.479 280.015 131.187 279.98C130.894 279.946 130.612 279.849 130.359 279.697C130.107 279.545 129.889 279.34 129.722 279.098C129.555 278.855 129.442 278.579 129.39 278.289C129.33 277.693 129.454 277.093 129.746 276.57C130.038 276.047 130.483 275.627 131.022 275.365C131.256 275.264 131.51 275.22 131.765 275.237C132.019 275.253 132.265 275.331 132.483 275.463Z" fill="#FAFAFA"/>
<path d="M124.835 274.488L124.555 274.732C124.732 274.511 124.973 274.351 125.244 274.273C125.516 274.195 125.805 274.204 126.072 274.297C126.338 274.391 126.569 274.565 126.733 274.796C126.896 275.026 126.984 275.302 126.984 275.585C126.984 275.867 126.896 276.143 126.733 276.374C126.569 276.604 126.338 276.778 126.072 276.872C125.805 276.965 125.516 276.974 125.244 276.896C124.973 276.818 124.732 276.658 124.555 276.437C124.156 276.639 123.701 276.704 123.261 276.622C122.821 276.541 122.42 276.318 122.119 275.987C121.982 275.819 121.881 275.625 121.823 275.416C121.765 275.208 121.751 274.99 121.782 274.775C121.813 274.561 121.888 274.356 122.003 274.172C122.117 273.988 122.269 273.831 122.448 273.709C122.635 273.601 122.848 273.544 123.064 273.546C123.281 273.547 123.493 273.606 123.679 273.716C123.865 273.826 124.018 273.984 124.123 274.174C124.228 274.363 124.28 274.577 124.275 274.793L124.604 274.428L124.835 274.488Z" fill="#FAFAFA"/>
<path d="M116.406 275.853C116.989 276.341 117.437 276.97 117.71 277.68C117.827 278.042 117.803 278.435 117.643 278.781C117.483 279.127 117.197 279.399 116.845 279.543C116.114 279.726 115.42 279.117 114.993 278.496C114.781 278.228 114.631 277.917 114.555 277.583C114.479 277.25 114.479 276.904 114.555 276.571C114.762 275.926 115.7 275.548 116.163 276.048L116.406 275.853Z" fill="#FAFAFA"/>
<path d="M128.562 271.419C128.639 271.271 128.746 271.14 128.876 271.035C129.006 270.93 129.156 270.853 129.317 270.808C129.479 270.764 129.647 270.753 129.813 270.776C129.978 270.799 130.137 270.857 130.279 270.944C130.555 271.141 130.757 271.423 130.854 271.747C130.951 272.072 130.938 272.419 130.815 272.735C130.677 273.042 130.46 273.308 130.187 273.505C129.913 273.701 129.592 273.822 129.256 273.855C128.428 273.953 127.441 273.283 127.636 272.467C127.44 272.689 127.191 272.86 126.913 272.964C126.635 273.068 126.335 273.102 126.041 273.063C125.456 272.972 124.896 272.76 124.396 272.442C123.702 272.04 122.959 271.419 123.032 270.627C123.076 270.305 123.23 270.009 123.467 269.787C123.705 269.565 124.011 269.432 124.336 269.409C124.657 269.398 124.977 269.45 125.278 269.563C125.579 269.676 125.855 269.847 126.09 270.067C126.445 270.423 126.819 270.761 127.21 271.078C127.405 271.236 127.64 271.339 127.888 271.375C128.137 271.412 128.391 271.38 128.623 271.285L128.562 271.419Z" fill="#FAFAFA"/>
</g>
<path d="M118.173 309.043H139.086L141.132 287.972H116.127L118.173 309.043Z" fill="#407BFF"/>
<path opacity="0.3" d="M118.173 309.043H139.086L141.132 287.972H116.127L118.173 309.043Z" fill="black"/>
<path d="M114.506 289.056H142.958L143.47 286.254H113.994L114.506 289.056Z" fill="#FAFAFA"/>
<path d="M150.191 322.258H159.351L159.619 497.724C159.619 498.607 159.269 499.454 158.646 500.079C158.022 500.705 157.177 501.058 156.294 501.061C155.418 501.061 154.578 500.716 153.955 500.1C153.333 499.484 152.978 498.648 152.968 497.772L150.191 322.258Z" fill="#263238"/>
<path opacity="0.2" d="M150.191 322.258H159.351L159.619 497.724C159.619 498.607 159.269 499.454 158.646 500.079C158.022 500.705 157.177 501.058 156.294 501.061C155.418 501.061 154.578 500.716 153.955 500.1C153.333 499.484 152.978 498.648 152.968 497.772L150.191 322.258Z" fill="white"/>
<path d="M100.096 322.258H109.267L109.523 497.724C109.525 498.161 109.44 498.595 109.273 499C109.107 499.405 108.862 499.773 108.553 500.083C108.245 500.393 107.877 500.639 107.473 500.807C107.069 500.974 106.636 501.061 106.198 501.061C105.322 501.061 104.482 500.716 103.859 500.1C103.237 499.484 102.882 498.648 102.873 497.772L100.096 322.258Z" fill="#263238"/>
<path opacity="0.2" d="M100.096 322.258H109.267L109.523 497.724C109.525 498.161 109.44 498.595 109.273 499C109.107 499.405 108.862 499.773 108.553 500.083C108.245 500.393 107.877 500.639 107.473 500.807C107.069 500.974 106.636 501.061 106.198 501.061C105.322 501.061 104.482 500.716 103.859 500.1C103.237 499.484 102.882 498.648 102.873 497.772L100.096 322.258Z" fill="white"/>
<path d="M368.068 322.258H377.24L377.496 497.724C377.497 498.161 377.412 498.595 377.246 499C377.08 499.405 376.835 499.773 376.526 500.083C376.217 500.393 375.85 500.639 375.446 500.807C375.042 500.974 374.608 501.061 374.171 501.061C373.295 501.061 372.455 500.716 371.832 500.1C371.21 499.484 370.855 498.648 370.845 497.772L368.068 322.258Z" fill="#263238"/>
<path opacity="0.2" d="M368.068 322.258H377.24L377.496 497.724C377.497 498.161 377.412 498.595 377.246 499C377.08 499.405 376.835 499.773 376.526 500.083C376.217 500.393 375.85 500.639 375.446 500.807C375.042 500.974 374.608 501.061 374.171 501.061C373.295 501.061 372.455 500.716 371.832 500.1C371.21 499.484 370.855 498.648 370.845 497.772L368.068 322.258Z" fill="white"/>
<path d="M317.984 322.258H327.144L327.412 497.724C327.412 498.607 327.062 499.454 326.439 500.079C325.815 500.705 324.97 501.058 324.087 501.061C323.21 501.061 322.368 500.716 321.744 500.101C321.119 499.485 320.762 498.649 320.749 497.772L317.984 322.258Z" fill="#263238"/>
<path opacity="0.2" d="M317.984 322.258H327.144L327.412 497.724C327.412 498.607 327.062 499.454 326.439 500.079C325.815 500.705 324.97 501.058 324.087 501.061C323.21 501.061 322.368 500.716 321.744 500.101C321.119 499.485 320.762 498.649 320.749 497.772L317.984 322.258Z" fill="white"/>
<path d="M100.461 355.144L376.375 353.074V322.258H100.4L100.461 355.144Z" fill="#407BFF"/>
<path opacity="0.3" d="M150.192 322.49L150.704 354.755L100.461 355.144L100.4 322.258L150.192 322.49Z" fill="black"/>
<path d="M387.117 314.865C387.117 310.712 385.57 307.35 383.67 307.338H96.2223C94.3223 307.338 92.7754 310.712 92.7754 314.865C92.7754 319.006 94.3223 322.368 96.2223 322.392H383.67C385.57 322.368 387.117 319.006 387.117 314.865Z" fill="#263238"/>
<path opacity="0.1" d="M387.117 314.865C387.117 310.712 385.57 307.35 383.67 307.338H96.2223C94.3223 307.338 92.7754 310.712 92.7754 314.865C92.7754 319.006 94.3223 322.368 96.2223 322.392H383.67C385.57 322.368 387.117 319.006 387.117 314.865Z" fill="white"/>
<path opacity="0.3" d="M166.976 314.865C166.976 310.712 165.429 307.35 163.517 307.338H96.2223C94.3223 307.338 92.7754 310.712 92.7754 314.865C92.7754 319.006 94.3223 322.368 96.2223 322.392H163.505C165.429 322.368 166.964 319.006 166.976 314.865Z" fill="black"/>
<path d="M281.454 165.124C280.572 165.124 279.726 164.774 279.102 164.15C278.479 163.527 278.128 162.681 278.128 161.799V153.602H276.484C275.35 153.602 274.263 153.152 273.461 152.35C272.659 151.548 272.209 150.461 272.209 149.327V110.509C272.215 109.382 272.667 108.302 273.465 107.506C274.264 106.71 275.344 106.261 276.472 106.258H337.055C338.186 106.258 339.27 106.707 340.07 107.507C340.869 108.306 341.318 109.391 341.318 110.521V149.327C341.318 150.461 340.868 151.548 340.066 152.35C339.264 153.152 338.177 153.602 337.043 153.602H297.458L283.451 164.43C282.88 164.875 282.178 165.119 281.454 165.124ZM276.484 107.476C275.68 107.479 274.909 107.8 274.339 108.367C273.769 108.935 273.446 109.705 273.439 110.509V149.327C273.442 150.137 273.765 150.912 274.338 151.485C274.911 152.058 275.687 152.381 276.496 152.384H279.322V161.799C279.322 162.358 279.544 162.894 279.939 163.289C280.334 163.684 280.87 163.906 281.429 163.906C281.868 163.895 282.293 163.751 282.647 163.492L297.007 152.384H337.007C337.816 152.381 338.592 152.058 339.165 151.485C339.737 150.912 340.061 150.137 340.064 149.327V110.521C340.064 109.714 339.743 108.939 339.172 108.368C338.601 107.797 337.826 107.476 337.019 107.476H276.484Z" fill="#407BFF"/>
<path d="M303.537 101.411H295.949V102.336H303.537V101.411Z" fill="#407BFF"/>
<path d="M268.057 112.348H267.119V107.769C267.122 106.078 267.796 104.458 268.993 103.264C270.189 102.069 271.811 101.398 273.501 101.398H290.419V102.312H273.501C272.058 102.312 270.673 102.886 269.652 103.907C268.631 104.928 268.057 106.312 268.057 107.756V112.348Z" fill="#407BFF"/>
<path d="M293.111 133.261C295.331 133.261 297.131 131.462 297.131 129.242C297.131 127.022 295.331 125.223 293.111 125.223C290.891 125.223 289.092 127.022 289.092 129.242C289.092 131.462 290.891 133.261 293.111 133.261Z" fill="#407BFF"/>
<path d="M310.686 129.242C310.689 130.04 310.454 130.821 310.013 131.485C309.571 132.15 308.942 132.668 308.206 132.975C307.469 133.282 306.658 133.364 305.876 133.21C305.093 133.056 304.373 132.673 303.808 132.109C303.243 131.546 302.858 130.828 302.701 130.045C302.545 129.263 302.624 128.452 302.929 127.714C303.234 126.977 303.75 126.346 304.414 125.903C305.077 125.459 305.857 125.223 306.655 125.223C307.722 125.223 308.745 125.646 309.501 126.399C310.257 127.153 310.683 128.175 310.686 129.242Z" fill="#407BFF"/>
<path d="M320.211 133.261C322.431 133.261 324.23 131.462 324.23 129.242C324.23 127.022 322.431 125.223 320.211 125.223C317.991 125.223 316.191 127.022 316.191 129.242C316.191 131.462 317.991 133.261 320.211 133.261Z" fill="#407BFF"/>
<path d="M172.956 227.12L177.828 226.889L184.612 301.881H179.485C176.915 301.638 176.318 298.763 175.599 293.355L170.849 240.981C169.655 228.57 171.738 227.12 172.956 227.12Z" fill="#407BFF"/>
<path opacity="0.3" d="M172.956 227.12L177.828 226.889L184.612 301.881H179.485C176.915 301.638 176.318 298.763 175.599 293.355L170.849 240.981C169.655 228.57 171.738 227.12 172.956 227.12Z" fill="black"/>
<path d="M180.617 301.881H282.247C282.527 301.862 282.799 301.784 283.047 301.651C283.294 301.519 283.511 301.336 283.682 301.114C283.854 300.892 283.976 300.636 284.042 300.363C284.107 300.09 284.114 299.806 284.061 299.531L277.704 229.24C277.684 228.639 277.443 228.067 277.027 227.633C276.611 227.199 276.05 226.934 275.45 226.889H173.82C173.54 226.908 173.268 226.987 173.02 227.119C172.773 227.251 172.556 227.434 172.385 227.656C172.213 227.879 172.091 228.135 172.025 228.407C171.96 228.68 171.953 228.964 172.005 229.24L178.363 299.531C178.383 300.131 178.624 300.704 179.04 301.138C179.456 301.572 180.017 301.837 180.617 301.881Z" fill="#407BFF"/>
<path d="M184.516 293.002H276.816L271.7 234.489H179.4L184.516 293.002Z" fill="#407BFF"/>
<path d="M185.781 297.582H276.741C277.34 297.592 277.934 297.475 278.484 297.238C279.034 297.001 279.527 296.65 279.93 296.207C280.334 295.764 280.638 295.241 280.823 294.672C281.008 294.102 281.07 293.5 281.004 292.905L275.913 234.757C275.782 233.494 275.194 232.321 274.258 231.462C273.322 230.603 272.104 230.115 270.834 230.092H179.874C179.277 230.084 178.685 230.202 178.137 230.439C177.589 230.676 177.097 231.027 176.694 231.467C176.292 231.908 175.987 232.429 175.8 232.996C175.613 233.563 175.549 234.163 175.611 234.757L180.702 292.905C180.83 294.171 181.417 295.346 182.353 296.208C183.289 297.069 184.509 297.558 185.781 297.582Z" fill="#263238"/>
<path d="M184.516 293.002H276.816L271.7 234.489H179.4L184.516 293.002Z" fill="#407BFF"/>
<path opacity="0.4" d="M184.516 293.002H276.816L271.7 234.489H179.4L184.516 293.002Z" fill="white"/>
<path opacity="0.1" d="M211.067 230.117L193.041 297.557H199.107L216.938 230.117H211.067Z" fill="white"/>
<path opacity="0.1" d="M220.435 230.117L202.408 297.557H214.43L232.261 230.117H220.435Z" fill="white"/>
<path d="M192.699 251.943C192.79 252.53 192.751 253.129 192.586 253.699C192.42 254.268 192.131 254.795 191.74 255.241C191.348 255.687 190.864 256.042 190.32 256.28C189.777 256.518 189.188 256.635 188.594 256.62C187.308 256.587 186.074 256.099 185.113 255.243C184.152 254.387 183.526 253.218 183.345 251.943C183.252 251.356 183.289 250.755 183.454 250.184C183.619 249.613 183.907 249.085 184.299 248.637C184.691 248.19 185.176 247.834 185.72 247.595C186.265 247.356 186.855 247.24 187.45 247.254C188.738 247.288 189.973 247.778 190.934 248.636C191.895 249.495 192.521 250.667 192.699 251.943Z" fill="#407BFF"/>
<path opacity="0.3" d="M192.699 251.943C192.79 252.53 192.751 253.129 192.586 253.699C192.42 254.268 192.131 254.795 191.74 255.241C191.348 255.687 190.864 256.042 190.32 256.28C189.777 256.518 189.188 256.635 188.594 256.62C187.308 256.587 186.074 256.099 185.113 255.243C184.152 254.387 183.526 253.218 183.345 251.943C183.252 251.356 183.289 250.755 183.454 250.184C183.619 249.613 183.907 249.085 184.299 248.637C184.691 248.19 185.176 247.834 185.72 247.595C186.265 247.356 186.855 247.24 187.45 247.254C188.738 247.288 189.973 247.778 190.934 248.636C191.895 249.495 192.521 250.667 192.699 251.943Z" fill="black"/>
<path d="M188.595 256.62C189.542 256.644 190.469 256.348 191.226 255.78L190.788 254.318C190.71 254.051 190.551 253.815 190.332 253.643C190.114 253.471 189.848 253.37 189.57 253.356H189.01L188.937 252.747C189.238 252.567 189.478 252.299 189.624 251.979C189.77 251.659 189.815 251.303 189.753 250.957C189.705 250.447 189.478 249.97 189.113 249.611C188.747 249.252 188.266 249.034 187.755 248.996C187.52 249.006 187.289 249.068 187.08 249.177C186.871 249.286 186.688 249.439 186.545 249.626C186.401 249.812 186.299 250.028 186.248 250.258C186.196 250.488 186.195 250.726 186.245 250.957C186.284 251.332 186.416 251.693 186.629 252.005C186.841 252.317 187.128 252.572 187.463 252.747L187.536 253.356H186.976C186.713 253.35 186.458 253.447 186.266 253.627C186.075 253.807 185.962 254.056 185.952 254.318L185.867 255.78C186.681 256.308 187.626 256.599 188.595 256.62Z" fill="white"/>
<path d="M196.1 251.054H214.491C215.344 251.054 215.173 249.739 214.333 249.739H195.868C195.028 249.739 195.186 251.054 196.039 251.054H196.1Z" fill="white"/>
<path d="M196.415 254.148H220.653C221.213 254.148 221.104 253.271 220.543 253.271H196.305C195.745 253.271 195.842 254.148 196.415 254.148Z" fill="white"/>
<path d="M225.207 253.709C225.229 253.838 225.222 253.97 225.186 254.096C225.151 254.222 225.087 254.338 225.001 254.436C224.914 254.534 224.807 254.612 224.687 254.663C224.567 254.714 224.437 254.738 224.306 254.732C224.025 254.722 223.755 254.614 223.544 254.428C223.334 254.241 223.194 253.987 223.149 253.709C223.127 253.58 223.135 253.447 223.17 253.321C223.206 253.195 223.269 253.078 223.355 252.979C223.441 252.88 223.548 252.801 223.669 252.749C223.789 252.696 223.919 252.67 224.05 252.674C224.333 252.685 224.604 252.794 224.815 252.983C225.026 253.172 225.165 253.429 225.207 253.709Z" fill="#263238"/>
<path opacity="0.5" d="M225.207 253.709C225.229 253.838 225.222 253.97 225.186 254.096C225.151 254.222 225.087 254.338 225.001 254.436C224.914 254.534 224.807 254.612 224.687 254.663C224.567 254.714 224.437 254.738 224.306 254.732C224.025 254.722 223.755 254.614 223.544 254.428C223.334 254.241 223.194 253.987 223.149 253.709C223.127 253.58 223.135 253.447 223.17 253.321C223.206 253.195 223.269 253.078 223.355 252.979C223.441 252.88 223.548 252.801 223.669 252.749C223.789 252.696 223.919 252.67 224.05 252.674C224.333 252.685 224.604 252.794 224.815 252.983C225.026 253.172 225.165 253.429 225.207 253.709Z" fill="white"/>
<path d="M179.4 234.489L179.851 239.727H272.151L271.7 234.489H179.4Z" fill="#407BFF"/>
<path d="M183.638 236.816C183.652 236.951 183.637 237.088 183.594 237.217C183.551 237.346 183.481 237.464 183.389 237.565C183.297 237.665 183.185 237.744 183.06 237.798C182.935 237.851 182.8 237.878 182.664 237.875C182.379 237.861 182.108 237.747 181.899 237.553C181.69 237.359 181.555 237.098 181.519 236.816C181.505 236.682 181.52 236.547 181.562 236.419C181.604 236.292 181.673 236.174 181.764 236.075C181.855 235.976 181.966 235.898 182.09 235.845C182.213 235.792 182.347 235.766 182.481 235.768C182.766 235.78 183.038 235.891 183.249 236.082C183.461 236.274 183.598 236.533 183.638 236.816Z" fill="white"/>
<path d="M186.415 236.816C186.431 236.95 186.417 237.087 186.376 237.216C186.334 237.345 186.266 237.464 186.175 237.564C186.083 237.665 185.972 237.744 185.847 237.798C185.723 237.852 185.588 237.878 185.453 237.875C185.168 237.861 184.897 237.747 184.688 237.553C184.479 237.359 184.344 237.098 184.308 236.816C184.294 236.682 184.309 236.547 184.351 236.419C184.393 236.292 184.462 236.174 184.553 236.075C184.644 235.976 184.755 235.898 184.879 235.845C185.002 235.792 185.136 235.766 185.27 235.768C185.553 235.783 185.822 235.895 186.031 236.086C186.24 236.277 186.376 236.535 186.415 236.816Z" fill="white"/>
<path d="M189.205 236.816C189.218 236.95 189.204 237.086 189.162 237.214C189.119 237.342 189.051 237.46 188.96 237.56C188.869 237.66 188.758 237.74 188.635 237.794C188.511 237.848 188.378 237.876 188.243 237.875C187.945 237.878 187.657 237.772 187.433 237.576C187.208 237.381 187.063 237.111 187.025 236.816C187.011 236.682 187.025 236.547 187.068 236.419C187.11 236.292 187.179 236.174 187.27 236.075C187.361 235.976 187.472 235.898 187.595 235.845C187.719 235.792 187.852 235.766 187.987 235.768C188.282 235.765 188.569 235.87 188.793 236.063C189.017 236.255 189.163 236.523 189.205 236.816Z" fill="white"/>
<path d="M283.294 302.088H179.691C178.473 302.088 177.486 303.075 177.486 304.293V305.608C177.486 306.826 178.473 307.813 179.691 307.813H283.294C284.512 307.813 285.499 306.826 285.499 305.608V304.293C285.499 303.075 284.512 302.088 283.294 302.088Z" fill="#407BFF"/>
<path opacity="0.3" d="M283.294 302.088H179.691C178.473 302.088 177.486 303.075 177.486 304.293V305.608C177.486 306.826 178.473 307.813 179.691 307.813H283.294C284.512 307.813 285.499 306.826 285.499 305.608V304.293C285.499 303.075 284.512 302.088 283.294 302.088Z" fill="black"/>
<path d="M218.594 302.064H325.717V303.367C325.717 304.537 325.252 305.658 324.425 306.485C323.599 307.312 322.477 307.776 321.308 307.776H223.015C221.846 307.776 220.724 307.312 219.897 306.485C219.07 305.658 218.606 304.537 218.606 303.367V302.064H218.594Z" fill="#407BFF"/>
<path opacity="0.4" d="M218.594 302.064H325.717V303.367C325.717 304.537 325.252 305.658 324.425 306.485C323.599 307.312 322.477 307.776 321.308 307.776H223.015C221.846 307.776 220.724 307.312 219.897 306.485C219.07 305.658 218.606 304.537 218.606 303.367V302.064H218.594Z" fill="white"/>
<path opacity="0.3" d="M266.863 302.247C266.866 303.005 267.169 303.731 267.705 304.267C268.241 304.803 268.967 305.106 269.726 305.109H282.831C283.59 305.109 284.318 304.807 284.855 304.271C285.392 303.734 285.694 303.006 285.694 302.247H266.863Z" fill="black"/>
<path d="M276.814 293.136H184.587L184.088 287.436H276.315L276.814 293.136Z" fill="#407BFF"/>
<path d="M264.451 290.651H200.384L200.348 290.14H264.414L264.451 290.651Z" fill="white"/>
<path d="M266.267 290.676C266.267 290.919 266.133 291.114 265.768 291.114C265.581 291.116 265.398 291.061 265.244 290.956L265.342 290.761C265.456 290.85 265.598 290.898 265.744 290.895C265.926 290.895 266.024 290.822 266.011 290.688C265.999 290.554 265.914 290.481 265.634 290.481H265.305V289.75H266.097V289.957H265.524V290.274H265.658C266.072 290.274 266.243 290.444 266.267 290.676Z" fill="white"/>
<path d="M266.352 290.213C266.35 290.193 266.353 290.172 266.36 290.153C266.366 290.134 266.377 290.116 266.39 290.102C266.404 290.087 266.421 290.075 266.439 290.067C266.458 290.059 266.478 290.054 266.498 290.055C266.52 290.053 266.542 290.056 266.563 290.063C266.583 290.07 266.602 290.081 266.618 290.096C266.634 290.111 266.647 290.129 266.656 290.149C266.664 290.169 266.669 290.191 266.669 290.213C266.672 290.232 266.672 290.252 266.667 290.272C266.661 290.291 266.652 290.309 266.639 290.324C266.626 290.339 266.61 290.351 266.592 290.359C266.574 290.367 266.555 290.372 266.535 290.371C266.512 290.373 266.49 290.37 266.469 290.363C266.447 290.356 266.427 290.345 266.411 290.33C266.394 290.315 266.38 290.297 266.37 290.277C266.36 290.257 266.354 290.235 266.352 290.213ZM266.425 290.944C266.421 290.923 266.422 290.902 266.428 290.882C266.434 290.862 266.444 290.843 266.458 290.828C266.473 290.812 266.49 290.8 266.51 290.793C266.529 290.786 266.55 290.783 266.571 290.785C266.615 290.785 266.656 290.801 266.688 290.831C266.719 290.86 266.739 290.901 266.742 290.944C266.744 290.964 266.741 290.984 266.734 291.003C266.728 291.022 266.717 291.04 266.704 291.055C266.69 291.07 266.673 291.082 266.655 291.09C266.636 291.098 266.616 291.102 266.596 291.102C266.574 291.104 266.552 291.101 266.531 291.094C266.511 291.086 266.492 291.075 266.476 291.06C266.46 291.045 266.447 291.027 266.438 291.007C266.43 290.987 266.425 290.966 266.425 290.944Z" fill="white"/>
<path d="M266.852 290.42C266.852 289.981 267.035 289.726 267.351 289.726C267.668 289.726 267.936 289.981 267.985 290.42C268.034 290.858 267.802 291.114 267.473 291.114C267.3 291.102 267.138 291.022 267.022 290.893C266.906 290.763 266.845 290.594 266.852 290.42ZM267.729 290.42C267.729 290.091 267.559 289.945 267.376 289.945C267.193 289.945 267.071 290.091 267.108 290.42C267.144 290.749 267.278 290.895 267.461 290.895C267.644 290.895 267.753 290.749 267.729 290.42Z" fill="white"/>
<path d="M268.143 290.42C268.143 289.981 268.325 289.726 268.654 289.726C268.828 289.738 268.989 289.818 269.105 289.947C269.221 290.077 269.282 290.246 269.275 290.42C269.275 290.858 269.093 291.114 268.776 291.114C268.459 291.114 268.191 290.858 268.143 290.42ZM269.02 290.42C269.02 290.091 268.849 289.945 268.666 289.945C268.484 289.945 268.374 290.091 268.398 290.42C268.423 290.749 268.569 290.895 268.752 290.895C268.934 290.895 269.044 290.749 269.02 290.42Z" fill="white"/>
<path d="M187.451 290.883V291.09H186.452V290.931L186.94 290.42C186.981 290.386 187.015 290.343 187.038 290.295C187.061 290.246 187.073 290.193 187.074 290.14C187.074 290.018 186.976 289.945 186.806 289.945C186.747 289.942 186.688 289.954 186.635 289.979C186.582 290.005 186.536 290.043 186.501 290.091L186.318 289.945C186.375 289.871 186.449 289.812 186.534 289.773C186.619 289.735 186.713 289.719 186.806 289.726C187.098 289.726 187.305 289.872 187.317 290.115C187.323 290.196 187.31 290.277 187.278 290.351C187.246 290.425 187.197 290.491 187.134 290.542L186.806 290.883H187.451Z" fill="white"/>
<path d="M187.573 290.213C187.569 290.193 187.57 290.173 187.575 290.154C187.58 290.135 187.589 290.117 187.602 290.102C187.615 290.087 187.631 290.075 187.649 290.066C187.667 290.058 187.687 290.054 187.707 290.055C187.729 290.053 187.751 290.056 187.773 290.063C187.794 290.07 187.814 290.081 187.831 290.096C187.848 290.11 187.862 290.128 187.872 290.148C187.882 290.169 187.888 290.19 187.889 290.213C187.891 290.233 187.888 290.253 187.882 290.273C187.875 290.292 187.865 290.309 187.851 290.324C187.837 290.339 187.821 290.351 187.802 290.359C187.783 290.367 187.763 290.371 187.743 290.371C187.721 290.373 187.699 290.37 187.679 290.363C187.658 290.356 187.639 290.344 187.623 290.329C187.607 290.314 187.594 290.296 187.586 290.276C187.577 290.256 187.572 290.235 187.573 290.213ZM187.633 290.944C187.63 290.923 187.63 290.902 187.636 290.882C187.642 290.862 187.652 290.843 187.667 290.828C187.681 290.812 187.698 290.8 187.718 290.793C187.738 290.786 187.759 290.783 187.78 290.785C187.823 290.785 187.864 290.801 187.896 290.831C187.928 290.86 187.947 290.901 187.95 290.944C187.952 290.964 187.949 290.984 187.943 291.003C187.936 291.022 187.926 291.04 187.912 291.055C187.898 291.07 187.881 291.082 187.863 291.09C187.844 291.098 187.824 291.102 187.804 291.102C187.778 291.112 187.75 291.115 187.723 291.112C187.696 291.109 187.67 291.099 187.647 291.083C187.624 291.068 187.605 291.047 187.592 291.023C187.58 290.998 187.573 290.971 187.573 290.944H187.633Z" fill="white"/>
<path d="M189.035 290.676C189.035 290.919 188.901 291.114 188.535 291.114C188.349 291.116 188.166 291.061 188.012 290.956L188.109 290.761C188.224 290.85 188.366 290.898 188.511 290.895C188.694 290.895 188.791 290.822 188.779 290.688C188.767 290.554 188.682 290.481 188.401 290.481H188.073V289.75H188.864V289.957H188.28V290.274H188.414C188.791 290.274 189.01 290.444 189.035 290.676Z" fill="white"/>
<path d="M189.154 290.42C189.154 289.981 189.325 289.726 189.654 289.726C189.827 289.738 189.989 289.818 190.105 289.947C190.221 290.077 190.282 290.246 190.275 290.42C190.275 290.858 190.092 291.114 189.775 291.114C189.459 291.114 189.191 290.858 189.154 290.42ZM190.019 290.42C190.019 290.091 189.849 289.945 189.666 289.945C189.483 289.945 189.374 290.091 189.398 290.42C189.422 290.749 189.568 290.895 189.751 290.895C189.934 290.895 190.007 290.749 190.007 290.42H190.019Z" fill="white"/>
<path d="M274.999 292.43H270.944L270.578 288.361H274.646L274.999 292.43ZM271.553 291.748H274.269L274.049 289.031H271.333L271.553 291.748Z" fill="white"/>
<path d="M228.194 289.689H191.568L191.69 291.09H228.315L228.194 289.689Z" fill="#263238"/>
<path d="M229.533 290.347C229.543 290.513 229.519 290.679 229.462 290.835C229.405 290.992 229.317 291.135 229.203 291.256C229.089 291.377 228.951 291.473 228.799 291.539C228.646 291.604 228.481 291.638 228.315 291.638C227.965 291.628 227.63 291.492 227.373 291.255C227.115 291.017 226.952 290.695 226.914 290.347C226.904 290.181 226.928 290.015 226.985 289.858C227.042 289.702 227.13 289.559 227.244 289.438C227.358 289.317 227.496 289.221 227.649 289.155C227.801 289.089 227.966 289.055 228.132 289.056C228.483 289.063 228.819 289.198 229.077 289.436C229.335 289.674 229.497 289.998 229.533 290.347Z" fill="#263238"/>
<path d="M229.533 290.347C229.543 290.513 229.519 290.679 229.462 290.835C229.405 290.992 229.317 291.135 229.203 291.256C229.089 291.377 228.951 291.473 228.799 291.539C228.646 291.604 228.481 291.638 228.315 291.638C227.965 291.628 227.63 291.492 227.373 291.255C227.115 291.017 226.952 290.695 226.914 290.347C226.904 290.181 226.928 290.015 226.985 289.858C227.042 289.702 227.13 289.559 227.244 289.438C227.358 289.317 227.496 289.221 227.649 289.155C227.801 289.089 227.966 289.055 228.132 289.056C228.483 289.063 228.819 289.198 229.077 289.436C229.335 289.674 229.497 289.998 229.533 290.347Z" fill="white"/>
<path d="M264.745 199.569C268.036 200.143 271.134 201.518 273.768 203.572C276.402 205.626 278.49 208.296 279.849 211.347C284.842 222.041 288.825 237.571 292.564 239.203C296.304 240.835 312.674 224.721 312.674 224.721C312.674 224.721 309.336 214.064 314.33 212.395C319.324 210.726 318.325 203.272 322.99 204.843C327.655 206.414 330.298 213.065 329.981 216.731C329.665 220.397 320.993 228.716 320.993 228.716C320.993 228.716 305.341 256.56 289.325 254.014C273.308 251.468 264.709 214.137 264.709 214.137C264.709 214.137 260.251 198.997 264.745 199.569Z" fill="#EEC8C0"/>
<path opacity="0.1" d="M269.178 227.851C272.686 237.303 275.572 244.136 282.235 250.202C275.024 238.618 275.804 217.876 275.804 217.876L269.178 227.851Z" fill="black"/>
<path d="M209.995 202.87C215.707 201.233 221.501 199.895 227.352 198.863L227.547 199.021L227.851 199.314L230.421 201.287L237.413 205.489L243.149 206.39L248.704 205.038L252.26 200.093L252.918 197.243V197.158C259.154 197.41 265.293 198.784 271.042 201.214C272.053 201.683 272.917 202.418 273.544 203.341C274.17 204.263 274.534 205.338 274.598 206.451C275.059 213.026 275.872 219.573 277.034 226.061C279.348 239.727 272.26 270.311 269.507 281.334C269.206 282.541 268.549 283.63 267.622 284.459C266.694 285.289 265.539 285.821 264.306 285.986C248.613 288.135 232.707 288.237 216.987 286.291C215.503 286.097 214.139 285.375 213.145 284.256C212.152 283.137 211.596 281.697 211.579 280.201C211.384 262.698 207.109 223.6 205.489 209.557C205.327 208.089 205.691 206.612 206.516 205.387C207.341 204.163 208.574 203.271 209.995 202.87Z" fill="#407BFF"/>
<path d="M209.995 202.87C215.707 201.233 221.501 199.895 227.352 198.863L227.547 199.021L227.851 199.314L230.421 201.287L237.413 205.489L243.149 206.39L248.704 205.038L252.26 200.093L252.918 197.243V197.158C259.154 197.41 265.293 198.784 271.042 201.214C272.053 201.683 272.917 202.418 273.544 203.341C274.17 204.263 274.534 205.338 274.598 206.451C275.059 213.026 275.872 219.573 277.034 226.061C279.348 239.727 272.26 270.311 269.507 281.334C269.206 282.541 268.549 283.63 267.622 284.459C266.694 285.289 265.539 285.821 264.306 285.986C248.613 288.135 232.707 288.237 216.987 286.291C215.503 286.097 214.139 285.375 213.145 284.256C212.152 283.137 211.596 281.697 211.579 280.201C211.384 262.698 207.109 223.6 205.489 209.557C205.327 208.089 205.691 206.612 206.516 205.387C207.341 204.163 208.574 203.271 209.995 202.87Z" fill="#263238"/>
<path d="M227.864 153.468C225.586 160.094 221.774 167.304 223.43 174.113C225.087 180.922 232.431 187.243 239.082 189.448C246.792 192.018 255.768 194.795 261.481 188.997C264.307 186.135 262.699 180.361 260.068 177.304C258.73 175.796 256.965 174.73 255.008 174.247C253.05 173.764 250.992 173.887 249.106 174.6C249.562 171.115 249.339 167.574 248.448 164.174C247.615 159.719 245.048 155.777 241.311 153.212C237.511 150.776 229.338 149.217 227.864 153.468Z" fill="#263238"/>
<path d="M230.301 198.363C234.819 193.613 233.005 172.298 233.005 172.298L246.232 181.275C246.232 181.275 247.012 194.466 250.166 197.011C250.909 197.608 252.005 197.097 252.882 197.158L252.079 200.519L249.643 204.685L246.257 207.121H241.251L236.732 205.842L231.604 202.188L227.414 198.814C228.388 198.68 229.643 199.046 230.301 198.363Z" fill="#EEC8C0"/>
<path opacity="0.1" d="M247.387 190.105C238.691 189.119 234.696 184.6 232.881 181.031L233.258 177.475L246.474 186.451L247.387 190.105Z" fill="black"/>
<path d="M227.828 163.784C230.617 174.746 231.567 179.46 238.254 184.089C248.326 191.068 261.201 185.221 261.749 173.65C262.236 163.212 257.583 146.952 245.915 144.674C243.336 144.143 240.664 144.279 238.152 145.071C235.641 145.863 233.374 147.284 231.567 149.199C229.759 151.114 228.471 153.459 227.825 156.012C227.179 158.565 227.197 161.24 227.876 163.784H227.828Z" fill="#EEC8C0"/>
<path d="M246.036 163.334C246.218 164.235 246.827 164.881 247.412 164.771C247.997 164.661 248.35 163.833 248.191 162.932C248.033 162.031 247.388 161.385 246.803 161.482C246.218 161.58 245.963 162.469 246.036 163.334Z" fill="#263238"/>
<path d="M256.305 161.409C256.475 162.335 257.096 162.956 257.681 162.859C258.266 162.761 258.619 161.909 258.448 161.007C258.278 160.106 257.657 159.461 257.072 159.582C256.487 159.704 256.134 160.508 256.305 161.409Z" fill="#263238"/>
<path d="M256.816 159.68L258.863 158.644C258.863 158.644 258.083 160.557 256.816 159.68Z" fill="#263238"/>
<path d="M253.453 163.65C254.66 165.559 256.119 167.296 257.789 168.815C257.387 169.229 256.901 169.553 256.363 169.763C255.825 169.973 255.248 170.065 254.671 170.033L253.453 163.65Z" fill="#ED893E"/>
<path d="M241.59 162.055C241.705 162.053 241.815 162.014 241.905 161.944C241.996 161.874 242.06 161.776 242.09 161.665C242.441 160.858 242.955 160.133 243.601 159.536C244.247 158.938 245.01 158.481 245.841 158.194C245.978 158.147 246.091 158.047 246.155 157.917C246.219 157.787 246.229 157.637 246.182 157.5C246.161 157.433 246.127 157.37 246.082 157.317C246.037 157.263 245.982 157.219 245.919 157.187C245.857 157.156 245.789 157.137 245.719 157.132C245.649 157.127 245.578 157.136 245.512 157.159C244.51 157.497 243.594 158.05 242.826 158.777C242.059 159.505 241.458 160.391 241.066 161.373C241.029 161.508 241.046 161.653 241.114 161.777C241.183 161.9 241.297 161.991 241.432 162.031C241.482 162.05 241.536 162.058 241.59 162.055Z" fill="#263238"/>
<path d="M258.472 156.123C258.569 156.117 258.663 156.087 258.746 156.036C258.829 155.985 258.898 155.915 258.947 155.831C259.013 155.704 259.027 155.558 258.986 155.421C258.945 155.285 258.853 155.17 258.728 155.1C257.978 154.655 257.13 154.403 256.259 154.365C255.388 154.326 254.521 154.504 253.734 154.881C253.614 154.941 253.522 155.047 253.478 155.174C253.435 155.302 253.444 155.442 253.503 155.563C253.534 155.626 253.577 155.683 253.631 155.729C253.684 155.775 253.747 155.809 253.814 155.83C253.882 155.85 253.953 155.857 254.023 155.849C254.093 155.84 254.161 155.818 254.222 155.782C254.844 155.512 255.521 155.393 256.198 155.433C256.875 155.473 257.533 155.672 258.119 156.014C258.225 156.081 258.347 156.119 258.472 156.123Z" fill="#263238"/>
<path d="M246.598 161.677L248.656 160.642C248.656 160.642 247.864 162.481 246.598 161.677Z" fill="#263238"/>
<path d="M262.797 142.238C264.221 143.244 265.315 144.65 265.94 146.279C266.564 147.907 266.691 149.685 266.304 151.385C265.89 152.896 265.001 154.321 264.928 155.892C264.884 156.735 265.169 157.562 265.724 158.198C266.278 158.835 267.059 159.231 267.9 159.302C265.41 159.729 262.862 159.692 260.385 159.193C257.949 158.547 255.671 156.757 255.586 154.491C255.637 153.675 255.731 152.862 255.866 152.055C255.92 151.632 255.861 151.203 255.697 150.809C255.532 150.416 255.267 150.073 254.928 149.814C253.576 148.925 251.786 149.887 250.154 150.094C247.17 150.496 244.222 147.731 244.587 145.113C244.953 142.494 252.127 134.248 262.797 142.238Z" fill="#263238"/>
<path d="M251.736 138.462C255.731 140.667 266.437 151.714 237.546 149.899C237.546 149.899 237.607 167.962 228.533 170.41L204.758 166.488C204.758 166.488 214.209 117.732 251.736 138.462Z" fill="#263238"/>
<path d="M207.901 155.526C205.623 162.14 201.811 169.363 203.468 176.172C205.124 182.98 212.469 189.289 219.119 191.506C226.829 194.076 235.805 196.853 241.518 191.055C244.331 188.181 242.736 182.42 240.105 179.35C238.765 177.844 237 176.781 235.043 176.3C233.085 175.819 231.028 175.944 229.143 176.659C229.6 173.173 229.376 169.633 228.485 166.233C228.08 164.014 227.24 161.898 226.016 160.004C224.791 158.111 223.205 156.477 221.348 155.198C217.511 152.822 209.375 151.276 207.901 155.526Z" fill="#263238"/>
<path d="M226.426 172.956C227.498 174.8 229.246 176.154 231.298 176.732C234.063 177.438 235.403 174.953 234.587 172.359C233.832 170.033 231.505 166.854 228.753 167.244C228.279 167.326 227.826 167.501 227.42 167.759C227.014 168.017 226.663 168.352 226.387 168.746C226.111 169.14 225.915 169.584 225.811 170.054C225.707 170.523 225.697 171.009 225.781 171.482C225.889 172.014 226.109 172.516 226.426 172.956Z" fill="#EEC8C0"/>
<path d="M255.622 173.175C254.204 173.803 252.671 174.127 251.121 174.127C249.571 174.127 248.038 173.803 246.621 173.175C246.621 173.175 246.255 178.717 252.833 178.266C253.527 178.266 255.622 177.901 255.622 177.901C255.298 176.342 255.298 174.734 255.622 173.175Z" fill="#263238"/>
<path d="M246.914 175.088C246.71 174.471 246.611 173.825 246.622 173.175C248.987 174.174 251.613 174.371 254.1 173.736V175.55C254.1 175.55 249.752 176.318 246.914 175.088Z" fill="white"/>
<path d="M247.535 176.306C248.016 176.252 248.5 176.223 248.985 176.22C251.08 176.164 253.137 176.792 254.843 178.011C254.173 178.108 253.248 178.23 252.833 178.266C249.898 178.461 248.351 177.475 247.535 176.306Z" fill="#C13B37"/>
<path d="M255.414 197.158C255.414 197.158 252.32 196.11 251.078 197.158C251.078 197.158 251.309 205.184 244.829 206.195C238.35 207.206 228.399 198.424 228.399 198.424C226.919 198.094 225.369 198.338 224.062 199.106L249.531 226.865C259.75 216.122 255.414 197.158 255.414 197.158Z" fill="#407BFF"/>
<path d="M208.777 229.398C206.341 226.073 201.31 212.249 206.791 204.746C212.272 197.243 245.317 242.382 245.317 242.382C250.895 239.617 276.802 230.933 276.802 230.933C276.802 230.933 277.667 221.883 281.479 219.678C285.291 217.474 287.045 211.676 290.285 215.111C293.525 218.546 297.325 228.071 292.331 231.676C289.115 233.974 285.777 236.096 282.332 238.034C282.332 238.034 262.393 252.126 247.911 256.998C233.429 261.87 219.008 243.21 208.777 229.398Z" fill="#EEC8C0"/>
<path opacity="0.1" d="M208.777 229.398C206.341 226.073 201.31 212.249 206.791 204.746C212.272 197.243 245.317 242.382 245.317 242.382C250.895 239.617 276.802 230.933 276.802 230.933C276.802 230.933 277.667 221.883 281.479 219.678C285.291 217.474 287.045 211.676 290.285 215.111C293.525 218.546 297.325 228.071 292.331 231.676C289.115 233.974 285.777 236.096 282.332 238.034C282.332 238.034 262.393 252.126 247.911 256.998C233.429 261.87 219.008 243.21 208.777 229.398Z" fill="white"/>
<path opacity="0.1" d="M208.777 229.398C206.341 226.073 201.31 212.249 206.791 204.746C212.272 197.243 245.317 242.382 245.317 242.382C250.895 239.617 276.802 230.933 276.802 230.933C276.802 230.933 277.667 221.883 281.479 219.678C285.291 217.474 287.045 211.676 290.285 215.111C293.525 218.546 297.325 228.071 292.331 231.676C289.115 233.974 285.777 236.096 282.332 238.034C282.332 238.034 262.393 252.126 247.911 256.998C233.429 261.87 219.008 243.21 208.777 229.398Z" fill="white"/>
<path d="M271.116 288.751L269.557 281.358C269.557 281.358 229.058 285.56 211.775 281.711L209.521 288.776L271.116 288.751Z" fill="#263238"/>
<path d="M231.213 178.741C231.227 179.179 231.111 179.612 230.879 179.983C230.647 180.354 230.309 180.648 229.909 180.827C229.509 181.006 229.065 181.061 228.633 180.987C228.202 180.912 227.802 180.71 227.486 180.408C227.169 180.105 226.95 179.715 226.856 179.287C226.762 178.859 226.798 178.413 226.958 178.005C227.119 177.598 227.398 177.248 227.758 176.999C228.119 176.751 228.546 176.615 228.984 176.61C229.561 176.6 230.119 176.818 230.536 177.218C230.954 177.617 231.197 178.164 231.213 178.741Z" fill="white"/>
<path d="M368.107 197.657C366.862 200.292 365.273 202.749 363.381 204.965C364.83 206.463 367.522 205.903 367.522 205.903L368.107 197.657Z" fill="#A02724"/>
<path d="M398.702 211.445L390.602 217.535L379.543 225.756C380.126 227.022 380.469 228.385 380.554 229.776C380.907 232.845 381.26 235.123 374.403 236.913C373.676 237.074 373.011 237.441 372.488 237.97C371.965 238.499 371.607 239.169 371.455 239.897C371.163 241.712 372.235 243.917 378.52 245.086C384.61 246.088 390.862 245.12 396.363 242.321C399.055 241.018 399.079 239.41 397.995 236.694C394.743 228.874 396.509 219.069 398.702 211.445Z" fill="#FF8B7B"/>
<path d="M365.961 196.804C365.718 197.754 365.961 198.631 366.424 198.753C366.887 198.875 367.508 198.205 367.752 197.255C367.995 196.305 367.752 195.428 367.289 195.294C366.826 195.16 366.193 195.842 365.961 196.804Z" fill="#263238"/>
<path d="M373.147 195.367C373.041 195.367 372.937 195.338 372.845 195.285C372.753 195.231 372.677 195.155 372.624 195.063C372.122 194.206 371.413 193.489 370.561 192.978C369.71 192.468 368.744 192.179 367.752 192.14C367.59 192.14 367.435 192.075 367.321 191.961C367.207 191.847 367.143 191.692 367.143 191.531C367.143 191.369 367.207 191.214 367.321 191.1C367.435 190.986 367.59 190.922 367.752 190.922C368.959 190.965 370.136 191.312 371.174 191.929C372.213 192.546 373.08 193.414 373.695 194.454C373.772 194.597 373.79 194.764 373.747 194.92C373.704 195.076 373.603 195.21 373.464 195.294C373.366 195.345 373.257 195.37 373.147 195.367Z" fill="#263238"/>
<path d="M365.902 210.276C366.166 212.998 367.055 215.622 368.497 217.946C369.94 220.269 371.898 222.229 374.221 223.674C375.79 224.659 377.516 225.372 379.324 225.781C381.523 226.275 383.804 226.272 386.002 225.772C388.2 225.273 390.258 224.29 392.028 222.894C399.08 217.559 399.896 210.336 402.344 198.205C402.941 195.377 402.815 192.444 401.978 189.678C401.142 186.911 399.621 184.4 397.557 182.377C395.494 180.353 392.953 178.882 390.171 178.1C387.389 177.318 384.454 177.249 381.638 177.901C369.056 180.922 364.806 198.863 365.902 210.276Z" fill="#FF8B7B"/>
<path opacity="0.2" d="M374.221 223.637C375.79 224.623 377.516 225.335 379.324 225.744H379.543L378.776 223.308C378.776 223.308 377.729 225.05 374.221 223.637Z" fill="black"/>
<path d="M405.876 206.938C403.83 211.116 401.296 215.306 397.435 217.9C396.01 218.875 385.194 218.156 385.194 218.156C385.304 214.502 380.651 201.835 378.41 197.584C377.704 199.326 378.703 201.713 377.813 203.321C376.595 203.089 354.927 195.294 364.476 179.716C371.224 168.754 389.323 167.755 396.839 178.595C398.45 178.179 400.145 178.21 401.74 178.687C403.335 179.164 404.769 180.067 405.888 181.299C408.077 183.831 409.363 187.019 409.542 190.361C410.09 196.098 408.385 201.774 405.876 206.938Z" fill="#263238"/>
<path d="M385.826 200.702C385.602 203.486 384.357 206.089 382.33 208.01C379.723 210.446 376.459 207.864 376.057 204.356C375.692 201.226 377.214 196.646 380.393 195.55C383.572 194.454 386.106 197.316 385.826 200.702Z" fill="#FF8B7B"/>
<path d="M281.067 474.448L269.85 468.942L278.144 441.61L291.81 449.235L281.067 474.448Z" fill="#FF8B7B"/>
<path opacity="0.2" d="M294.757 441.732L280.372 433.437L274.672 453.133L287.656 459.247L294.757 441.732Z" fill="black"/>
<path d="M269.179 466.762L282.029 472.694C282.264 472.812 282.445 473.014 282.538 473.26C282.63 473.506 282.627 473.778 282.529 474.021L278.327 486.506C278.234 486.804 278.083 487.08 277.882 487.319C277.68 487.557 277.433 487.753 277.155 487.894C276.876 488.035 276.572 488.118 276.261 488.139C275.95 488.16 275.637 488.118 275.343 488.016C270.909 485.86 268.875 484.569 263.236 481.926C259.752 480.33 251.823 476.542 246.878 474.752C241.933 472.962 243.979 467.152 246.245 467.383C256.439 468.467 262.432 468.224 266.865 466.677C267.619 466.404 268.448 466.435 269.179 466.762Z" fill="#263238"/>
<path d="M262.565 467.615C263.592 468.016 264.657 468.31 265.744 468.492C265.798 468.504 265.854 468.499 265.905 468.477C265.955 468.455 265.997 468.417 266.025 468.37C266.064 468.331 266.092 468.282 266.105 468.228C266.118 468.174 266.116 468.118 266.098 468.065C265.842 467.651 263.503 464.046 261.871 463.985C261.685 463.974 261.5 464.014 261.335 464.1C261.17 464.186 261.031 464.314 260.933 464.472C260.742 464.693 260.614 464.961 260.562 465.248C260.511 465.535 260.538 465.831 260.641 466.104C261.074 466.828 261.759 467.366 262.565 467.615ZM265.245 467.809C263.016 467.273 261.506 466.591 261.201 465.861C261.148 465.684 261.143 465.496 261.185 465.316C261.228 465.137 261.318 464.971 261.445 464.838C261.493 464.757 261.56 464.69 261.641 464.643C261.722 464.596 261.814 464.571 261.908 464.57C262.76 464.594 264.307 466.384 265.245 467.809Z" fill="#407BFF"/>
<path d="M265.757 468.492H265.891C265.942 468.483 265.99 468.463 266.032 468.433C266.074 468.404 266.109 468.365 266.135 468.321C266.135 468.175 267.876 464.971 267.182 463.364C267.098 463.152 266.965 462.963 266.793 462.812C266.622 462.662 266.417 462.554 266.196 462.499C265.963 462.408 265.707 462.398 265.468 462.471C265.229 462.544 265.022 462.696 264.88 462.901C264.076 464.046 264.783 467.188 265.635 468.358C265.643 468.388 265.659 468.416 265.68 468.44C265.701 468.463 265.728 468.481 265.757 468.492ZM266.171 463.145C266.28 463.189 266.378 463.255 266.459 463.339C266.541 463.422 266.605 463.522 266.646 463.632C266.811 465.011 266.53 466.407 265.842 467.615C265.138 466.278 264.964 464.725 265.355 463.266C265.355 463.108 265.611 462.974 266.025 463.096L266.171 463.145Z" fill="#407BFF"/>
<path d="M366.522 333.172C366.522 333.172 300.409 321.796 292.09 357.958C285.671 383.28 282.565 393.585 274.393 449.734L291.847 453.668C291.847 453.668 319.982 396.155 321.627 371.697C341.358 375.034 386.254 384.389 395.815 367.69C400.605 359.198 403.804 349.902 405.255 340.26L366.522 333.172Z" fill="#407BFF"/>
<g opacity="0.3">
<path d="M366.522 333.172C366.522 333.172 300.409 321.796 292.09 357.958C285.671 383.28 282.565 393.585 274.393 449.734L291.847 453.668C291.847 453.668 319.982 396.155 321.627 371.697C341.358 375.034 386.254 384.389 395.815 367.69C400.605 359.198 403.804 349.902 405.255 340.26L366.522 333.172Z" fill="black"/>
</g>
<path d="M294.075 457.554L271.725 449.734L273.82 439.613L296.742 448.93L294.075 457.554Z" fill="#407BFF"/>
<path d="M234.794 470.404L223.004 463.863L234.721 441.22L249.252 447.128L234.794 470.404Z" fill="#FF8B7B"/>
<path opacity="0.2" d="M253.31 440.161L240.362 429.759L231.727 448.358L243.614 456.385L253.31 440.161Z" fill="black"/>
<path d="M224.21 461.001L236.013 468.82C236.211 468.971 236.349 469.188 236.4 469.432C236.452 469.676 236.414 469.93 236.293 470.148L230.203 481.853C230.067 482.134 229.876 482.386 229.641 482.591C229.406 482.797 229.131 482.953 228.834 483.049C228.537 483.146 228.224 483.182 227.913 483.154C227.601 483.126 227.299 483.036 227.024 482.888C222.968 480.087 221.165 478.503 215.976 475.057C212.785 472.949 205.526 468.004 200.91 465.471C196.294 462.937 199.205 457.53 201.409 458.102C211.324 460.721 217.243 461.403 221.896 460.538C222.698 460.38 223.53 460.547 224.21 461.001Z" fill="#263238"/>
<path d="M217.549 460.83C218.503 461.38 219.511 461.829 220.558 462.17C220.607 462.192 220.663 462.197 220.716 462.184C220.769 462.171 220.816 462.14 220.85 462.097C220.895 462.067 220.931 462.025 220.952 461.975C220.974 461.925 220.981 461.87 220.972 461.817C220.789 461.354 219.023 457.444 217.415 457.14C217.233 457.101 217.043 457.11 216.865 457.168C216.688 457.226 216.529 457.33 216.404 457.469C216.188 457.662 216.024 457.909 215.93 458.184C215.837 458.459 215.815 458.754 215.868 459.04C216.194 459.82 216.791 460.456 217.549 460.83ZM220.168 461.427C218.049 460.55 216.66 459.698 216.514 458.894C216.488 458.708 216.511 458.519 216.582 458.346C216.652 458.173 216.768 458.021 216.916 457.907C216.975 457.838 217.051 457.785 217.136 457.753C217.221 457.721 217.313 457.711 217.403 457.724C218.207 457.871 219.413 459.868 220.168 461.427Z" fill="#407BFF"/>
<path d="M220.569 462.182H220.69C220.742 462.185 220.793 462.176 220.839 462.154C220.886 462.133 220.927 462.101 220.958 462.06C221.019 461.926 223.187 459.015 222.749 457.322C222.699 457.099 222.597 456.891 222.451 456.715C222.305 456.539 222.119 456.401 221.908 456.312C221.692 456.185 221.44 456.136 221.192 456.171C220.945 456.207 220.716 456.325 220.544 456.506C219.582 457.517 219.789 460.721 220.459 462.012C220.462 462.047 220.474 462.081 220.493 462.11C220.512 462.14 220.538 462.165 220.569 462.182ZM221.787 456.957C221.888 457.018 221.977 457.099 222.046 457.195C222.115 457.292 222.164 457.401 222.188 457.517C222.144 458.904 221.648 460.238 220.776 461.317C220.284 459.892 220.354 458.333 220.97 456.957C221.031 456.811 221.275 456.713 221.665 456.884L221.787 456.957Z" fill="#407BFF"/>
<path d="M345.681 329.652C345.218 329.566 273.198 310.091 261.261 350.894C244.892 400.551 232.748 442.706 232.748 442.706L246.877 452.95C246.877 452.95 282.917 403.085 288.289 368.908C310.798 366.374 364.584 386.094 374.146 369.407C381.977 355.766 382.355 335.864 382.355 335.864L345.681 329.652Z" fill="#407BFF"/>
<path opacity="0.3" d="M345.681 329.652C345.218 329.566 273.198 310.091 261.261 350.894C244.892 400.551 232.748 442.706 232.748 442.706L246.877 452.95C246.877 452.95 282.917 403.085 288.289 368.908C310.798 366.374 364.584 386.094 374.146 369.407C381.977 355.766 382.355 335.864 382.355 335.864L345.681 329.652Z" fill="black"/>
<path d="M248.974 455.581L229.863 442.792L232.957 434.607L253.492 445.812L248.974 455.581Z" fill="#407BFF"/>
<path d="M412.659 246.328C411.441 251.2 409.968 256.011 408.372 260.823C406.776 265.634 404.949 270.396 402.806 275.268C400.628 280.279 397.93 285.047 394.755 289.494C392.889 292.103 390.653 294.425 388.117 296.388C386.557 297.591 384.835 298.567 383.001 299.287C381.949 299.687 380.86 299.981 379.749 300.164L378.86 300.31C378.397 300.31 377.885 300.383 377.435 300.383C376.669 300.372 375.906 300.286 375.157 300.127C374.047 299.899 372.965 299.552 371.929 299.092C371.09 298.744 370.275 298.337 369.493 297.874C368.199 297.07 366.954 296.187 365.766 295.231C363.696 293.538 355.974 281.358 350.48 272.832L357.021 267.375C364.11 273.794 371.308 280.396 378.519 286.035C380.37 287.351 372.563 282.077 374.305 283.197C375.086 283.687 375.9 284.122 376.741 284.5C377.435 284.817 378.117 284.975 377.959 284.854C377.809 284.805 377.653 284.78 377.496 284.781C377.321 284.768 377.146 284.768 376.972 284.781C377.06 284.747 377.146 284.706 377.228 284.659C377.632 284.422 378.012 284.144 378.361 283.831C379.588 282.687 380.672 281.399 381.588 279.994C383.886 276.369 385.827 272.531 387.386 268.532C389.164 264.294 390.614 260.006 392.014 255.512C393.415 251.018 394.718 246.535 395.9 241.931C397.081 237.327 413.926 241.432 412.659 246.328Z" fill="#407BFF"/>
<path opacity="0.6" d="M412.659 246.328C411.441 251.2 409.968 256.011 408.372 260.823C406.776 265.634 404.949 270.396 402.806 275.268C400.628 280.279 397.93 285.047 394.755 289.494C392.889 292.103 390.653 294.425 388.117 296.388C386.557 297.591 384.835 298.567 383.001 299.287C381.949 299.687 380.86 299.981 379.749 300.164L378.86 300.31C378.397 300.31 377.885 300.383 377.435 300.383C376.669 300.372 375.906 300.286 375.157 300.127C374.047 299.899 372.965 299.552 371.929 299.092C371.09 298.744 370.275 298.337 369.493 297.874C368.199 297.07 366.954 296.187 365.766 295.231C363.696 293.538 355.974 281.358 350.48 272.832L357.021 267.375C364.11 273.794 371.308 280.396 378.519 286.035C380.37 287.351 372.563 282.077 374.305 283.197C375.086 283.687 375.9 284.122 376.741 284.5C377.435 284.817 378.117 284.975 377.959 284.854C377.809 284.805 377.653 284.78 377.496 284.781C377.321 284.768 377.146 284.768 376.972 284.781C377.06 284.747 377.146 284.706 377.228 284.659C377.632 284.422 378.012 284.144 378.361 283.831C379.588 282.687 380.672 281.399 381.588 279.994C383.886 276.369 385.827 272.531 387.386 268.532C389.164 264.294 390.614 260.006 392.014 255.512C393.415 251.018 394.718 246.535 395.9 241.931C397.081 237.327 413.926 241.432 412.659 246.328Z" fill="white"/>
<path d="M357.509 268.106L351.26 254.842L339.385 261.626C339.385 261.626 347.07 273.94 351.394 272.722L357.509 268.106Z" fill="#FF8B7B"/>
<path d="M341.563 251.7L336.167 253.953C335.85 254.082 335.568 254.287 335.348 254.55C335.128 254.813 334.976 255.126 334.905 255.461C334.834 255.797 334.846 256.144 334.941 256.474C335.036 256.804 335.21 257.105 335.449 257.351L339.48 261.566L351.356 254.781L343.159 251.688C342.646 251.484 342.073 251.488 341.563 251.7Z" fill="#FF8B7B"/>
<path d="M296.682 292.515L283.893 290.956L279.643 304.354C279.643 304.354 294.259 304.719 296.695 300.773L296.682 292.515Z" fill="#FF8B7B"/>
<path d="M274.354 295.523L271.918 300.627C271.762 300.982 271.692 301.369 271.715 301.756C271.738 302.143 271.854 302.519 272.052 302.852C272.249 303.186 272.524 303.467 272.852 303.673C273.181 303.88 273.554 304.004 273.94 304.037L279.604 304.39L283.855 290.992L275.584 294.354C275.047 294.584 274.611 294.999 274.354 295.523Z" fill="#FF8B7B"/>
<path d="M416.726 245.622C416.153 242.65 411.732 239.033 408.736 238.533L406.75 238.192C402.74 237.564 398.698 237.157 394.643 236.974C386.53 236.519 378.397 236.519 370.283 236.974C366.52 237.327 362.829 237.936 359.894 238.509H359.784C358.117 238.868 356.617 239.776 355.527 241.087C354.436 242.399 353.816 244.038 353.767 245.744C353.487 254.94 352.781 273.624 351.124 292.028C349.845 306.412 347.007 320.431 345.729 330.175L405.313 340.236C409.332 328.933 410.721 318.714 414.436 297.716C416.616 285.085 419.101 257.851 416.726 245.622Z" fill="#407BFF"/>
<path opacity="0.6" d="M416.726 245.622C416.153 242.65 411.732 239.033 408.736 238.533L406.75 238.192C402.74 237.564 398.698 237.157 394.643 236.974C386.53 236.519 378.397 236.519 370.283 236.974C366.52 237.327 362.829 237.936 359.894 238.509H359.784C358.117 238.868 356.617 239.776 355.527 241.087C354.436 242.399 353.816 244.038 353.767 245.744C353.487 254.94 352.781 273.624 351.124 292.028C349.845 306.412 347.007 320.431 345.729 330.175L405.313 340.236C409.332 328.933 410.721 318.714 414.436 297.716C416.616 285.085 419.101 257.851 416.726 245.622Z" fill="white"/>
<path d="M359.59 239.946C360.74 240.448 361.778 241.173 362.646 242.078C363.514 242.984 364.195 244.052 364.648 245.222C365.1 246.392 365.317 247.64 365.285 248.893C365.254 250.147 364.974 251.383 364.462 252.528C359.59 263.49 351.43 280.773 347.922 286.839C346.594 288.983 345.254 291.126 343.756 293.27C343.013 294.354 342.173 295.414 341.32 296.522C340.833 297.07 340.443 297.582 339.871 298.166L339.055 299.019L338.592 299.494C337.291 300.699 335.739 301.602 334.049 302.137C333.156 302.43 332.244 302.662 331.32 302.831C329.818 303.073 328.299 303.199 326.777 303.209C324.146 303.209 306.071 304.829 296.839 301.601L296.352 291.65C305.56 292.381 321.625 287.399 323.696 287.18C324.519 287.073 325.333 286.907 326.132 286.681C326.394 286.604 326.648 286.498 326.887 286.364C326.972 286.364 326.887 286.267 326.509 286.522C326.373 286.606 326.247 286.704 326.132 286.815L326.266 286.644L326.643 286.193C326.899 285.926 327.191 285.487 327.471 285.134C328.02 284.379 328.58 283.563 329.14 282.698C330.249 280.968 331.32 279.044 332.38 277.107C334.487 273.222 336.436 269.105 338.336 264.927C339.676 261.98 343.647 253.015 347.02 244.989C347.508 243.827 348.221 242.773 349.119 241.889C350.017 241.005 351.081 240.308 352.251 239.839C353.42 239.37 354.671 239.138 355.931 239.156C357.191 239.175 358.435 239.443 359.59 239.946Z" fill="#407BFF"/>
<path opacity="0.2" d="M351.516 278.666C351.686 284.111 351.613 282.32 351.808 288.057C367.715 266.048 363.623 250.762 363.623 250.762L351.516 278.666Z" fill="black"/>
<path opacity="0.6" d="M359.59 239.946C360.74 240.448 361.778 241.173 362.646 242.078C363.514 242.984 364.195 244.052 364.648 245.222C365.1 246.392 365.317 247.64 365.285 248.893C365.254 250.147 364.974 251.383 364.462 252.528C359.59 263.49 351.43 280.773 347.922 286.839C346.594 288.983 345.254 291.126 343.756 293.27C343.013 294.354 342.173 295.414 341.32 296.522C340.833 297.07 340.443 297.582 339.871 298.166L339.055 299.019L338.592 299.494C337.291 300.699 335.739 301.602 334.049 302.137C333.156 302.43 332.244 302.662 331.32 302.831C329.818 303.073 328.299 303.199 326.777 303.209C324.146 303.209 306.071 304.829 296.839 301.601L296.352 291.65C305.56 292.381 321.625 287.399 323.696 287.18C324.519 287.073 325.333 286.907 326.132 286.681C326.394 286.604 326.648 286.498 326.887 286.364C326.972 286.364 326.887 286.267 326.509 286.522C326.373 286.606 326.247 286.704 326.132 286.815L326.266 286.644L326.643 286.193C326.899 285.926 327.191 285.487 327.471 285.134C328.02 284.379 328.58 283.563 329.14 282.698C330.249 280.968 331.32 279.044 332.38 277.107C334.487 273.222 336.436 269.105 338.336 264.927C339.676 261.98 343.647 253.015 347.02 244.989C347.508 243.827 348.221 242.773 349.119 241.889C350.017 241.005 351.081 240.308 352.251 239.839C353.42 239.37 354.671 239.138 355.931 239.156C357.191 239.175 358.435 239.443 359.59 239.946Z" fill="white"/>
<path d="M377.483 197.316C376.531 198.155 375.756 199.175 375.202 200.317C374.648 201.459 374.326 202.699 374.256 203.966C374.097 207.34 377.374 208.254 380.212 206.67C382.794 205.233 385.948 201.798 384.755 198.68C383.561 195.562 379.871 195.197 377.483 197.316Z" fill="#FAB27B"/>
<path d="M388.323 202.578C388.079 208.107 384.742 212.456 379.212 212.212C373.683 211.969 370.686 207.34 370.979 201.81C371.271 196.281 374.572 191.932 380.101 192.176C385.631 192.42 388.542 197.048 388.323 202.578Z" fill="#407BFF"/>
<path opacity="0.7" d="M388.323 202.578C388.079 208.107 384.742 212.456 379.212 212.212C373.683 211.969 370.686 207.34 370.979 201.81C371.271 196.281 374.572 191.932 380.101 192.176C385.631 192.42 388.542 197.048 388.323 202.578Z" fill="white"/>
<path d="M385.777 202.468C385.595 206.378 383.244 209.435 379.334 209.265C375.424 209.094 373.354 205.83 373.537 201.957C373.719 198.083 376.058 194.99 379.968 195.16C383.877 195.331 385.948 198.534 385.777 202.468Z" fill="#407BFF"/>
<path opacity="0.3" d="M385.777 202.468C385.595 206.378 383.244 209.435 379.334 209.265C375.424 209.094 373.354 205.83 373.537 201.957C373.719 198.083 376.058 194.99 379.968 195.16C383.877 195.331 385.948 198.534 385.777 202.468Z" fill="white"/>
<path d="M379.371 191.226C380.504 186.573 384.986 174.174 394.279 172.444C394.727 172.368 395.186 172.409 395.613 172.563C396.039 172.716 396.419 172.978 396.715 173.321L397.824 174.539C398.083 174.84 398.273 175.195 398.378 175.578C398.483 175.961 398.501 176.363 398.431 176.754C398.361 177.145 398.205 177.515 397.973 177.838C397.742 178.161 397.441 178.428 397.093 178.62C391.271 181.673 386.671 186.629 384.06 192.663C383.877 193.094 383.544 193.444 383.124 193.65C382.704 193.856 382.223 193.903 381.77 193.784L380.735 193.504C380.26 193.369 379.855 193.059 379.601 192.635C379.348 192.212 379.265 191.708 379.371 191.226Z" fill="#407BFF"/>
<path opacity="0.2" d="M379.371 191.226C380.504 186.573 384.986 174.174 394.279 172.444C394.727 172.368 395.186 172.409 395.613 172.563C396.039 172.716 396.419 172.978 396.715 173.321L397.824 174.539C398.083 174.84 398.273 175.195 398.378 175.578C398.483 175.961 398.501 176.363 398.431 176.754C398.361 177.145 398.205 177.515 397.973 177.838C397.742 178.161 397.441 178.428 397.093 178.62C391.271 181.673 386.671 186.629 384.06 192.663C383.877 193.094 383.544 193.444 383.124 193.65C382.704 193.856 382.223 193.903 381.77 193.784L380.735 193.504C380.26 193.369 379.855 193.059 379.601 192.635C379.348 192.212 379.265 191.708 379.371 191.226Z" fill="white"/>
<path d="M313.952 327.337H306.035V361.125H313.952V327.337Z" fill="#263238"/>
<path d="M313.952 327.337H306.035V361.125H313.952V327.337Z" fill="#263238"/>
<path d="M336.888 337.654C319.463 331.567 300.49 331.567 283.065 337.654C281.312 338.312 279.378 338.304 277.631 337.63C275.884 336.957 274.446 335.665 273.589 334C271.969 330.59 274.137 326.168 278.534 324.634C298.884 317.521 321.045 317.521 341.395 324.634C345.78 326.156 347.948 330.59 346.34 334C345.477 335.654 344.042 336.937 342.303 337.609C340.563 338.282 338.639 338.297 336.888 337.654Z" fill="#263238"/>
<path opacity="0.4" d="M336.888 337.654C319.463 331.567 300.49 331.567 283.065 337.654C281.312 338.312 279.378 338.304 277.631 337.63C275.884 336.957 274.446 335.665 273.589 334C271.969 330.59 274.137 326.168 278.534 324.634C298.884 317.521 321.045 317.521 341.395 324.634C345.78 326.156 347.948 330.59 346.34 334C345.477 335.654 344.042 336.937 342.303 337.609C340.563 338.282 338.639 338.297 336.888 337.654Z" fill="#263238"/>
<path d="M328.631 496.871C328.631 498.09 328.269 499.281 327.592 500.295C326.915 501.309 325.952 502.098 324.826 502.565C323.7 503.031 322.461 503.153 321.265 502.916C320.07 502.678 318.972 502.091 318.11 501.229C317.248 500.367 316.661 499.269 316.423 498.073C316.185 496.878 316.307 495.639 316.774 494.512C317.24 493.386 318.03 492.424 319.044 491.747C320.057 491.069 321.249 490.708 322.468 490.708C324.102 490.708 325.67 491.357 326.826 492.513C327.982 493.669 328.631 495.236 328.631 496.871Z" fill="#263238"/>
<path d="M419.125 496.871C419.125 498.09 419.487 499.282 420.165 500.296C420.843 501.31 421.806 502.1 422.933 502.566C424.06 503.032 425.3 503.153 426.495 502.915C427.691 502.676 428.789 502.088 429.651 501.225C430.512 500.361 431.098 499.262 431.335 498.066C431.571 496.869 431.447 495.63 430.979 494.504C430.511 493.378 429.719 492.416 428.704 491.741C427.689 491.065 426.496 490.705 425.276 490.708C424.465 490.7 423.661 490.854 422.91 491.161C422.159 491.468 421.477 491.921 420.904 492.496C420.332 493.07 419.879 493.752 419.574 494.504C419.268 495.255 419.116 496.06 419.125 496.871Z" fill="#263238"/>
<path d="M365.754 494.898C365.754 496.12 366.117 497.314 366.798 498.329C367.478 499.344 368.445 500.134 369.576 500.598C370.706 501.063 371.949 501.18 373.146 500.937C374.344 500.693 375.442 500.098 376.301 499.229C377.16 498.36 377.741 497.255 377.97 496.055C378.2 494.854 378.067 493.613 377.59 492.488C377.112 491.363 376.311 490.406 375.288 489.738C374.265 489.069 373.066 488.72 371.844 488.735C370.222 488.754 368.673 489.412 367.533 490.565C366.393 491.719 365.754 493.276 365.754 494.898Z" fill="#263238"/>
<path d="M438.711 488.589C438.576 489.29 438.195 489.92 437.637 490.367C437.079 490.813 436.381 491.046 435.666 491.025L371.417 490.148L311.236 491.512C310.488 491.527 309.762 491.261 309.2 490.768C308.638 490.275 308.28 489.589 308.198 488.846C308.116 488.103 308.314 487.356 308.754 486.752C309.195 486.147 309.845 485.729 310.578 485.58L343.464 479.198C346.874 478.561 350.336 478.239 353.805 478.236H389.127C392.592 478.238 396.049 478.56 399.455 479.198L436.385 485.117C437.15 485.276 437.822 485.729 438.257 486.378C438.692 487.027 438.855 487.821 438.711 488.589Z" fill="#263238"/>
<path d="M382.329 424.595H360.479V487.504H382.329V424.595Z" fill="#263238"/>
<path d="M379.199 384.742H363.621V424.911H379.199V384.742Z" fill="#263238"/>
<path opacity="0.2" d="M363.621 392.184L379.199 396.106V384.742H363.621V392.184Z" fill="black"/>
<path d="M365.145 356.155V384.559H282.199C280.398 384.563 278.628 384.089 277.07 383.186C275.511 382.282 274.22 380.982 273.329 379.417C272.437 377.851 271.977 376.078 271.995 374.276C272.012 372.475 272.508 370.711 273.43 369.164C275.773 365.204 279.106 361.922 283.101 359.641C287.097 357.361 291.618 356.159 296.219 356.155H365.145Z" fill="#407BFF"/>
<path opacity="0.2" d="M365.145 356.155V384.559H282.199C280.398 384.563 278.628 384.089 277.07 383.186C275.511 382.282 274.22 380.982 273.329 379.417C272.437 377.851 271.977 376.078 271.995 374.276C272.012 372.475 272.508 370.711 273.43 369.164C275.773 365.204 279.106 361.922 283.101 359.641C287.097 357.361 291.618 356.159 296.219 356.155H365.145Z" fill="white"/>
<path d="M381.845 250.969C381.638 251.883 381.504 252.811 381.443 253.746L372.32 384.072H359.738L368.849 253.746C368.843 253.645 368.843 253.543 368.849 253.441L381.845 250.969Z" fill="#407BFF"/>
<path opacity="0.2" d="M381.845 250.969C381.638 251.883 381.504 252.811 381.443 253.746L372.32 384.072H359.738L368.849 253.746C368.843 253.645 368.843 253.543 368.849 253.441L381.845 250.969Z" fill="white"/>
<path d="M439.697 384.583V384.73H437.578C438.287 384.73 438.995 384.682 439.697 384.583Z" fill="#263238"/>
<path d="M467.713 250.141L467.859 234.648C467.938 230.359 466.409 226.196 463.571 222.979L454.424 212.663L451.148 186.853C450.919 184.925 449.983 183.149 448.52 181.871C447.057 180.593 445.173 179.903 443.231 179.935H420.503C418.671 179.957 416.886 180.518 415.37 181.546C413.854 182.575 412.674 184.027 411.977 185.721L400.516 213.479L381.563 224.672C379.171 226.076 377.092 227.955 375.456 230.195C373.819 232.435 372.66 234.987 372.051 237.693L368.592 253.527H368.86L381.819 251.091C381.612 252.004 381.478 252.933 381.417 253.868L372.295 384.194H443.633C444.346 384.194 445.058 384.146 445.764 384.048C449.345 383.499 452.636 381.757 455.103 379.104C457.571 376.451 459.07 373.043 459.357 369.432L467.518 252.638C467.573 251.802 467.573 250.964 467.518 250.128L467.713 250.141ZM408.092 240.287L385.912 242.382L384.95 242.479L388.019 232.394L403.256 225.33L408.335 222.967L409.139 225.33L409.273 225.732L410.016 227.912L408.092 240.287ZM451.672 240.555L448.955 239.849C448.955 238.996 448.858 238.119 448.809 237.254C448.529 232.382 448.298 227.876 448.298 227.876L448.627 226.28L449.309 222.931L459.15 232.407V242.492L451.672 240.555Z" fill="#407BFF"/>
</svg>
