<svg width="14" height="14" viewBox="0 0 14 14" fill="none" xmlns="http://www.w3.org/2000/svg">
<path d="M12.334 3.13517C12.7207 3.13517 13.034 3.26851 13.2807 3.52851C13.534 3.80184 13.6673 4.10184 13.6673 4.46851V11.8018C13.6673 12.1685 13.534 12.4685 13.2807 12.7418C13.034 13.0018 12.7207 13.1352 12.334 13.1352H1.66732C1.28065 13.1352 0.967318 13.0018 0.720651 12.7418C0.467318 12.4685 0.333984 12.1685 0.333984 11.8018V4.46851C0.333984 4.10184 0.467318 3.80184 0.720651 3.52851C0.967318 3.26851 1.28065 3.13517 1.66732 3.13517H4.33398V1.80184C4.33398 1.41517 4.46732 1.10184 4.72065 0.855172C4.96732 0.601839 5.28065 0.468506 5.66732 0.468506H8.33398C8.72065 0.468506 9.03398 0.601839 9.28065 0.855172C9.53398 1.10184 9.66732 1.41517 9.66732 1.80184V3.13517H12.334ZM1.66732 4.46851V11.8018H12.334V4.46851H1.66732ZM8.33398 3.13517V1.80184H5.66732V3.13517H8.33398Z" fill="#FF8020"/>
</svg>
