<svg width="11" height="10" viewBox="0 0 11 10" fill="none" xmlns="http://www.w3.org/2000/svg">
<path d="M4.52092 6.99968V6.52051H1.15611L1.1513 8.43718C1.1513 8.96905 1.57972 9.39551 2.11405 9.39551H8.8533C9.38762 9.39551 9.81605 8.96905 9.81605 8.43718V6.52051H6.44642V6.99968H4.52092ZM9.33467 2.68718H7.40436V1.72884L6.44161 0.770508H4.51611L3.55336 1.72884V2.68718H1.63267C1.10316 2.68718 0.669922 3.11843 0.669922 3.64551V5.08301C0.669922 5.61488 1.09835 6.04134 1.63267 6.04134H4.52092V5.08301H6.44642V6.04134H9.33467C9.86418 6.04134 10.2974 5.61009 10.2974 5.08301V3.64551C10.2974 3.11843 9.86418 2.68718 9.33467 2.68718ZM6.44642 2.68718H4.52092V1.72884H6.44642V2.68718Z" fill="#886ED0"/>
</svg>
