<svg width="15" height="16" viewBox="0 0 15 16" fill="none" xmlns="http://www.w3.org/2000/svg">
<g clip-path="url(#clip0_708_49062)">
<path d="M14.7789 15.9507V15.95H14.7825V10.082C14.7825 7.21133 14.2234 5 11.1874 5C9.72787 5 8.74843 5.88533 8.34857 6.72467H8.30635V5.268H5.42773V15.95H8.42516V10.6607C8.42516 9.268 8.66399 7.92133 10.2242 7.92133C11.7615 7.92133 11.7845 9.51067 11.7845 10.75V15.9507H14.7789Z" fill="white"/>
<path d="M0.23877 5.31836H3.23982V16.0004H0.23877V5.31836Z" fill="white"/>
<path d="M1.73815 0C0.778608 0 0 0.860667 0 1.92133C0 2.982 0.778608 3.86067 1.73815 3.86067C2.69769 3.86067 3.47629 2.982 3.47629 1.92133C3.47569 0.860667 2.69708 0 1.73815 0V0Z" fill="white"/>
</g>
<defs>
<clipPath id="clip0_708_49062">
<rect width="15" height="16" fill="white"/>
</clipPath>
</defs>
</svg>
