<svg width="10" height="15" viewBox="0 0 10 15" fill="none" xmlns="http://www.w3.org/2000/svg">
<path d="M5.00065 3.96851C5.44268 3.96851 5.8666 4.1441 6.17916 4.45666C6.49172 4.76922 6.66732 5.19314 6.66732 5.63517C6.66732 5.85404 6.62421 6.07077 6.54045 6.27298C6.45669 6.47519 6.33393 6.65892 6.17916 6.81368C6.0244 6.96845 5.84067 7.09121 5.63846 7.17497C5.43625 7.25873 5.21952 7.30184 5.00065 7.30184C4.55862 7.30184 4.1347 7.12624 3.82214 6.81368C3.50958 6.50112 3.33398 6.0772 3.33398 5.63517C3.33398 5.19314 3.50958 4.76922 3.82214 4.45666C4.1347 4.1441 4.55862 3.96851 5.00065 3.96851ZM5.00065 0.968506C6.23833 0.968506 7.42531 1.46017 8.30048 2.33534C9.17565 3.21051 9.66732 4.3975 9.66732 5.63517C9.66732 9.13517 5.00065 14.3018 5.00065 14.3018C5.00065 14.3018 0.333984 9.13517 0.333984 5.63517C0.333984 4.3975 0.82565 3.21051 1.70082 2.33534C2.57599 1.46017 3.76297 0.968506 5.00065 0.968506ZM5.00065 2.30184C4.1166 2.30184 3.26875 2.65303 2.64363 3.27815C2.01851 3.90327 1.66732 4.75112 1.66732 5.63517C1.66732 6.30184 1.66732 7.63517 5.00065 12.1085C8.33398 7.63517 8.33398 6.30184 8.33398 5.63517C8.33398 4.75112 7.98279 3.90327 7.35767 3.27815C6.73255 2.65303 5.88471 2.30184 5.00065 2.30184Z" fill="#FF8020"/>
</svg>
