<svg width="402" height="403" viewBox="0 0 402 403" fill="none" xmlns="http://www.w3.org/2000/svg">
<circle opacity="0.6" cx="202" cy="208" r="195" fill="#0096FF"/>
<g filter="url(#filter0_b_780_51288)">
<circle cx="201" cy="201" r="201" fill="white" fill-opacity="0.2"/>
</g>
<path d="M251.842 310.01H171.238C157.414 310.01 146.104 298.745 146.104 284.975V214.043C146.104 200.274 157.414 189.009 171.238 189.009H251.843C265.668 189.009 276.978 200.274 276.978 214.043V284.975C276.978 298.743 265.667 310.01 251.842 310.01Z" fill="white"/>
<path d="M251.835 189.008C265.659 189.008 276.969 200.273 276.969 214.042V284.974C276.969 298.744 265.659 310.009 251.835 310.009H171.231C157.406 310.009 146.096 298.744 146.096 284.974V214.042C146.096 200.273 157.406 189.008 171.231 189.008H251.835V189.008ZM251.835 185.051H171.231C167.316 185.051 163.51 185.822 159.918 187.341C156.456 188.806 153.345 190.899 150.67 193.564C147.996 196.227 145.894 199.327 144.423 202.775C142.897 206.352 142.123 210.143 142.123 214.042V284.974C142.123 288.874 142.897 292.664 144.423 296.242C145.894 299.69 147.995 302.789 150.67 305.452C153.345 308.116 156.457 310.21 159.918 311.675C163.51 313.195 167.316 313.966 171.231 313.966H251.836C255.751 313.966 259.557 313.195 263.148 311.675C266.61 310.21 269.722 308.117 272.396 305.452C275.07 302.789 277.173 299.689 278.644 296.242C280.169 292.664 280.943 288.874 280.943 284.974V214.042C280.943 210.143 280.169 206.352 278.644 202.775C277.173 199.326 275.071 196.227 272.396 193.564C269.722 190.9 266.609 188.806 263.148 187.341C259.557 185.822 255.75 185.051 251.835 185.051Z" fill="#00227B"/>
<path d="M275.177 266.149C262.627 267.614 250.118 267.975 250.118 267.975C250.118 267.975 243.748 236.337 241.982 211.527C240.681 193.145 241.905 178.517 250.118 183.288C253.897 185.483 258.249 189.618 262.787 194.863C279.808 214.54 299.364 249.875 300.436 257.207C301.129 261.923 288.135 264.627 275.177 266.149Z" fill="white"/>
<path d="M248.441 270.082L248.098 268.381C248.059 268.186 244.163 248.746 241.642 228.617C240.155 216.75 239.429 206.951 239.481 199.495C239.553 189.31 241.037 183.534 244.153 181.317C245.521 180.344 247.848 179.589 251.163 181.514C262.089 187.863 275.957 208.089 283.251 219.581C288.116 227.246 292.773 235.303 296.366 242.268C298.897 247.174 302.013 253.698 302.484 256.91C302.622 257.843 302.53 259.257 301.315 260.697C299.559 262.78 295.912 264.41 289.836 265.826C285.381 266.863 279.656 267.757 272.821 268.48C261.248 269.705 250.291 270.029 250.182 270.032L248.441 270.082ZM247.276 184.434C246.878 184.434 246.669 184.584 246.554 184.664C245.207 185.623 241.168 191.585 245.738 228.087C247.808 244.618 250.813 260.689 251.812 265.856C255.335 265.715 263.696 265.309 272.407 264.386C292.63 262.244 297.148 259.242 298.153 258.052C298.431 257.723 298.408 257.57 298.398 257.505C297.811 253.508 290.182 238.198 279.761 221.778C267.691 202.763 256.51 189.382 249.082 185.066C248.24 184.577 247.666 184.434 247.276 184.434Z" fill="#00227B"/>
<path d="M186.258 182.121L183.718 201.26L182.273 212.14L179.191 235.371C179.191 235.371 173.559 239.187 164.19 242.21C160.689 243.342 156.657 244.354 152.207 245.017C144.934 246.107 136.524 246.246 127.412 244.39C103.97 239.608 89.9014 222.265 83.8104 213.544C72.0381 196.714 70.2265 192.163 73.499 185.078C75.9974 179.648 80.2779 178.656 80.2779 178.656C80.2779 178.656 80.0668 174.317 83.5152 172.774C93.8504 168.151 107.164 180.497 107.164 180.497C107.164 180.497 107.66 167.22 114.794 170.285C119.709 172.398 120.824 186.853 120.824 186.853C120.824 186.853 127.421 195.296 137.902 196.416C143.379 197.002 150.958 195.419 158.485 193.121C158.572 193.095 158.661 193.07 158.748 193.038C162.759 191.805 166.745 190.374 170.394 188.96C172.031 188.328 173.6 187.695 175.071 187.089C181.648 184.373 186.258 182.121 186.258 182.121Z" fill="white"/>
<path opacity="0.35" d="M83.8086 213.544C89.9053 222.262 103.972 239.609 127.412 244.39C142.094 247.381 154.961 245.184 164.192 242.207C173.562 239.187 179.193 235.369 179.193 235.369L179.606 217.037C179.606 217.037 173.222 210.909 167.277 213.408C160.132 216.409 162.422 226.613 152.218 229.45C123.853 237.34 100.81 222.926 93.3958 216.598C83.1094 207.82 80.426 202.292 78.9787 200.01C75.9832 195.29 73.6698 191.581 72.3656 188.259C71.0364 193.878 73.8742 199.335 83.8086 213.544Z" fill="#00227B"/>
<path d="M141.559 247.871C136.665 247.871 131.79 247.381 127 246.403C116.463 244.254 106.632 239.415 97.7815 232.019C92.0855 227.259 86.8152 221.438 82.1181 214.72C76.3858 206.52 72.7421 200.888 71.0803 196.363C69.4878 192.027 69.6455 188.509 71.6229 184.217C73.5696 179.991 76.5129 178.048 78.2917 177.214C78.5822 175.041 79.714 172.223 82.672 170.9C91.0764 167.14 100.775 172.959 105.575 176.541C105.622 176.298 105.674 176.049 105.73 175.797C106.525 172.242 107.899 169.83 109.811 168.628C110.986 167.889 112.947 167.251 115.62 168.4C118.331 169.567 120.31 173.003 121.67 178.904C122.366 181.927 122.701 184.764 122.827 186.022C124.286 187.668 129.991 193.502 138.128 194.371C152.981 195.956 185.029 180.431 185.352 180.274C186.035 179.94 186.848 180.008 187.465 180.451C188.083 180.893 188.406 181.64 188.308 182.39L181.245 235.638C181.168 236.219 180.846 236.739 180.359 237.068C180.123 237.229 174.459 241.031 165.041 244.096C159.525 245.891 153.849 247.06 148.173 247.572C145.968 247.771 143.761 247.871 141.559 247.871ZM80.7594 180.654C80.4926 180.726 77.3404 181.667 75.3756 185.931C72.7296 191.675 73.38 195.022 85.5064 212.369C96.9074 228.676 111.541 239.051 127.828 242.373C142.667 245.399 155.556 242.853 163.756 240.185C170.708 237.923 175.501 235.224 177.274 234.147L183.717 185.577C180.352 187.108 174.846 189.513 168.668 191.819C154.915 196.952 144.49 199.186 137.687 198.46C126.465 197.263 119.49 188.49 119.199 188.117C118.95 187.798 118.8 187.413 118.77 187.011C118.767 186.977 118.487 183.467 117.633 179.779C116.195 173.562 114.474 172.387 113.982 172.175C112.749 171.645 112.217 171.979 112.016 172.104C110.28 173.192 109.34 177.712 109.227 180.573C109.195 181.376 108.696 182.088 107.95 182.395C107.203 182.701 106.347 182.547 105.756 181.999C105.633 181.886 93.3205 170.644 84.3634 174.651C82.2997 175.575 82.3372 178.361 82.3429 178.561C82.4042 179.576 81.7571 180.443 80.7594 180.654Z" fill="#00227B"/>
<path d="M108.866 180.494C108.914 181.072 108.827 181.598 108.712 182.053C108.654 182.288 108.582 182.492 108.51 182.701C108.436 182.897 108.355 183.096 108.276 183.273C107.95 184.004 107.598 184.608 107.263 185.195C106.927 185.779 106.604 186.334 106.303 186.89L106.083 187.308C106.013 187.448 105.94 187.587 105.873 187.729L105.677 188.154L105.491 188.584L105.322 189.02L105.166 189.463C105.112 189.611 105.072 189.763 105.025 189.913C104.975 190.063 104.937 190.217 104.897 190.37C104.74 190.985 104.605 191.618 104.526 192.27C104.441 192.922 104.387 193.59 104.371 194.269C104.354 194.611 104.361 194.952 104.357 195.3C104.352 195.474 104.366 195.646 104.368 195.821C104.371 195.997 104.377 196.172 104.376 196.349V196.362C104.376 196.499 104.264 196.609 104.126 196.609C104.029 196.609 103.946 196.555 103.906 196.475C103.574 195.835 103.274 195.17 103.043 194.476C102.799 193.784 102.624 193.063 102.496 192.325C102.244 190.848 102.249 189.286 102.526 187.759L102.641 187.19C102.685 187.002 102.734 186.815 102.781 186.626C102.831 186.44 102.886 186.257 102.938 186.07C102.993 185.886 103.058 185.706 103.118 185.524C103.366 184.801 103.674 184.113 103.991 183.469C104.306 182.825 104.642 182.218 104.915 181.692C105.202 181.158 105.364 180.725 105.46 180.491L105.659 180.001C106.007 179.152 106.979 178.744 107.832 179.09C108.435 179.337 108.815 179.892 108.866 180.494Z" fill="#00227B"/>
<path d="M125.143 245.802C124.622 245.802 124.119 245.515 123.872 245.019C123.522 244.32 123.808 243.472 124.51 243.124C130.234 240.287 134.146 231.435 135.819 217.523C137.116 206.742 136.577 196.715 136.571 196.615C136.528 195.836 137.126 195.169 137.909 195.125C138.687 195.081 139.36 195.678 139.405 196.457C139.41 196.559 139.963 206.799 138.641 217.821C137.859 224.344 136.582 229.878 134.845 234.27C132.597 239.955 129.545 243.785 125.774 245.654C125.571 245.755 125.355 245.802 125.143 245.802Z" fill="#00227B"/>
<g opacity="0.35">
<g opacity="0.35">
<g opacity="0.35">
<g opacity="0.35">
<path opacity="0.35" d="M308.262 336.768V336.48C305.993 336.577 308.262 336.768 308.262 336.768Z" fill="#00227B"/>
</g>
</g>
</g>
</g>
<path d="M279.62 302.049H143.305C143.305 302.049 144.136 278.618 152.199 245.016C155.431 231.54 159.83 216.427 165.803 200.534C167.237 196.718 168.766 192.857 170.387 188.959C174.92 178.084 180.206 166.947 186.371 155.809H236.555C241.651 165.018 246.147 174.222 250.112 183.287C252.677 189.149 255.021 194.949 257.158 200.646C266.487 225.481 271.965 248.403 275.17 266.148C279.124 288.038 279.62 302.049 279.62 302.049Z" fill="white"/>
<path d="M260.907 218.121C263.542 221.05 264.746 224.46 265.858 227.885C266.417 229.597 266.967 231.314 267.493 233.038C267.756 233.899 268.026 234.76 268.261 235.629C268.503 236.496 268.738 237.367 268.974 238.236L269.664 240.849C269.891 241.721 270.121 242.591 270.334 243.467L271.588 248.724C271.793 249.602 272.016 250.473 272.216 251.352L272.814 253.986L273.428 256.617C273.635 257.493 273.848 258.368 274.041 259.248L275.224 264.52C275.427 265.397 275.602 266.281 275.789 267.162L276.343 269.806L276.62 271.128L276.759 271.789L276.888 272.452L277.407 275.103C277.58 275.987 277.758 276.87 277.945 277.751C278.124 278.634 278.305 279.517 278.493 280.399C279.283 283.918 279.86 287.483 280.099 291.094C280.13 291.545 280.165 291.995 280.187 292.448L280.245 293.806C280.274 294.713 280.299 295.618 280.286 296.531C280.28 297.441 280.26 298.352 280.2 299.267C280.147 300.181 280.071 301.096 279.933 302.017C279.906 302.195 279.74 302.317 279.561 302.291C279.44 302.273 279.345 302.19 279.304 302.084L279.303 302.08C278.651 300.355 278.119 298.623 277.616 296.891C277.368 296.025 277.13 295.157 276.9 294.29L276.568 292.986C276.464 292.551 276.356 292.117 276.247 291.682C275.825 289.942 275.452 288.197 275.117 286.445C274.956 285.568 274.81 284.688 274.676 283.806C274.532 282.925 274.399 282.044 274.262 281.162C274.128 280.279 273.987 279.398 273.844 278.517C273.692 277.638 273.523 276.762 273.351 275.885L272.837 273.257L272.709 272.6L272.571 271.944L272.297 270.634L271.747 268.012C271.561 267.139 271.388 266.263 271.187 265.392L270.013 260.165C269.824 259.292 269.604 258.426 269.397 257.558L268.755 254.956L268.098 252.359C267.991 251.926 267.87 251.495 267.754 251.065L267.401 249.772L265.983 244.606C265.493 242.888 264.991 241.174 264.513 239.454C264.275 238.593 264.037 237.733 263.805 236.87L263.632 236.224L263.45 235.579L263.09 234.289C262.61 232.57 262.155 230.842 261.706 229.112L261.377 227.812C261.267 227.379 261.145 226.95 261.03 226.518C260.799 225.654 260.606 224.779 260.461 223.889C260.317 222.998 260.216 222.094 260.177 221.169C260.157 220.707 260.154 220.238 260.172 219.764C260.19 219.289 260.22 218.808 260.304 218.312L260.308 218.293C260.34 218.105 260.518 217.978 260.706 218.01C260.787 218.025 260.857 218.066 260.907 218.121Z" fill="#00227B"/>
<path d="M142.981 302.039C142.771 301.573 142.627 301.111 142.491 300.646C142.356 300.18 142.255 299.72 142.166 299.257C141.984 298.33 141.886 297.408 141.832 296.489C141.807 296.029 141.79 295.57 141.791 295.112C141.792 294.654 141.81 294.198 141.832 293.743L141.909 292.376C141.933 291.92 141.961 291.465 141.999 291.01C142.141 289.192 142.279 287.372 142.493 285.563C142.589 284.656 142.697 283.752 142.804 282.846C142.856 282.394 142.926 281.944 142.987 281.492L143.179 280.139L143.58 277.435C143.721 276.535 143.884 275.64 144.037 274.742C144.351 272.948 144.646 271.152 145.003 269.366C145.351 267.579 145.669 265.787 146.024 264.003C146.385 262.22 146.737 260.435 147.084 258.649C147.173 258.202 147.252 257.754 147.349 257.31L147.635 255.976L148.206 253.308L148.777 250.64C148.825 250.417 148.87 250.194 148.921 249.973L149.077 249.309L149.391 247.981L150.643 242.668C150.744 242.225 150.857 241.784 150.97 241.343C151.079 240.901 151.19 240.46 151.294 240.018C151.505 239.133 151.714 238.247 151.915 237.36C152.121 236.474 152.321 235.585 152.534 234.7C152.738 233.812 152.995 232.939 153.251 232.065C153.513 231.194 153.791 230.327 154.083 229.463C154.376 228.6 154.687 227.742 155.001 226.886L155.487 225.606C155.569 225.394 155.66 225.184 155.748 224.972C155.838 224.762 155.924 224.551 156.017 224.34C156.384 223.5 156.755 222.664 157.15 221.835C157.541 221.004 157.948 220.18 158.376 219.363C158.804 218.547 159.248 217.737 159.741 216.943C159.835 216.79 160.036 216.743 160.189 216.838C160.293 216.902 160.349 217.016 160.343 217.132V217.136C160.139 220.867 159.437 224.417 158.745 227.966C158.567 228.851 158.385 229.735 158.185 230.615C157.985 231.493 157.769 232.367 157.54 233.237C157.061 234.971 156.579 236.704 156.078 238.434C155.827 239.299 155.583 240.165 155.341 241.032C155.218 241.465 155.104 241.9 154.987 242.334C154.872 242.77 154.754 243.204 154.656 243.644L153.418 248.9L153.108 250.213L152.954 250.87C152.903 251.09 152.858 251.31 152.811 251.529L152.245 254.169L151.68 256.809L151.397 258.13C151.303 258.569 151.224 259.013 151.136 259.454C149.686 266.507 148.711 273.646 147.763 280.769L147.395 283.44C147.28 284.331 147.166 285.222 147.041 286.111L146.31 291.451C146.177 292.341 146.07 293.231 145.95 294.12C145.888 294.565 145.822 295.01 145.739 295.453C145.657 295.897 145.577 296.34 145.477 296.782C145.278 297.666 145.032 298.548 144.74 299.427C144.595 299.867 144.421 300.308 144.243 300.747C144.06 301.185 143.862 301.626 143.616 302.064L143.614 302.068C143.519 302.238 143.304 302.299 143.134 302.204C143.062 302.163 143.011 302.105 142.981 302.039Z" fill="#00227B"/>
<path d="M182.57 272.487C174.795 275.622 162.763 274.966 154.561 273.977C149.641 273.385 146.187 268.862 146.913 263.979C147.574 259.524 151.512 256.284 156.029 256.494C163.701 256.852 175.21 257.02 182.498 255.41" fill="white"/>
<g opacity="0.35">
<g opacity="0.35">
<g opacity="0.35">
<g opacity="0.35">
<path opacity="0.35" d="M182.571 272.486C174.794 275.625 162.762 274.963 154.56 273.98C149.64 273.387 146.187 268.862 146.913 263.983C147.057 262.987 147.371 262.052 147.817 261.198C149.113 263.662 151.566 265.477 154.56 265.839C162.747 266.828 174.759 267.484 182.537 264.365L182.571 272.486Z" fill="#00227B"/>
</g>
</g>
</g>
</g>
<path d="M167.121 276.851C162.623 276.851 158.151 276.481 154.321 276.02C151.388 275.666 148.785 274.183 146.991 271.842C145.194 269.497 144.444 266.599 144.878 263.68C145.273 261.019 146.637 258.612 148.719 256.902C150.803 255.189 153.436 254.315 156.134 254.442C167.436 254.968 176.643 254.6 182.058 253.404C183.146 253.164 185.847 253.155 187.442 258.262C189.062 263.45 188.883 272.166 183.353 274.395C178.794 276.232 172.937 276.851 167.121 276.851ZM155.618 258.541C152.288 258.541 149.457 260.957 148.964 264.28C148.695 266.091 149.161 267.891 150.275 269.346C151.386 270.797 152.999 271.716 154.818 271.935C166.547 273.348 176.132 272.868 181.804 270.581C183.488 269.901 183.972 267.182 184.103 266.045C184.557 262.065 183.341 258.388 182.579 257.499C175.187 259.046 164.049 258.928 155.942 258.549C155.833 258.543 155.725 258.541 155.618 258.541Z" fill="#00227B"/>
<path d="M242.039 272.487C249.813 275.622 261.846 274.966 270.048 273.977C274.967 273.385 278.421 268.862 277.696 263.979C277.034 259.524 273.097 256.284 268.58 256.494C260.908 256.852 249.399 257.02 242.111 255.41" fill="white"/>
<g opacity="0.35">
<g opacity="0.35">
<g opacity="0.35">
<g opacity="0.35">
<path opacity="0.35" d="M270.05 273.981C261.848 274.963 249.817 275.626 242.039 272.486L242.073 264.289C249.85 267.409 261.861 266.753 270.05 265.764C273.031 265.409 275.47 263.606 276.772 261.156C277.231 262.017 277.553 262.965 277.704 263.982C278.424 268.862 274.971 273.387 270.05 273.981Z" fill="#00227B"/>
</g>
</g>
</g>
</g>
<path d="M257.493 276.851C251.678 276.851 245.821 276.233 241.261 274.394C235.731 272.165 235.552 263.449 237.172 258.261C238.766 253.155 241.468 253.163 242.556 253.403C247.973 254.6 257.179 254.969 268.481 254.441C271.18 254.315 273.811 255.189 275.895 256.901C277.977 258.612 279.341 261.019 279.736 263.679C280.17 266.598 279.418 269.497 277.623 271.842C275.829 274.182 273.226 275.665 270.293 276.019C266.463 276.48 261.99 276.851 257.493 276.851ZM242.036 257.499C241.274 258.389 240.059 262.065 240.513 266.045C240.642 267.182 241.126 269.901 242.811 270.581C248.483 272.868 258.068 273.35 269.797 271.935C271.615 271.716 273.229 270.797 274.34 269.346C275.455 267.891 275.92 266.093 275.651 264.28C275.143 260.851 272.144 258.389 268.675 258.549C260.565 258.928 249.428 259.046 242.036 257.499Z" fill="#00227B"/>
<path d="M245.038 249.767V277.134C245.038 282.211 240.866 286.367 235.768 286.367H185.166C180.075 286.367 175.902 282.211 175.902 277.134V249.767C175.902 244.689 180.075 240.54 185.166 240.54H235.768C238.769 240.54 241.448 241.981 243.147 244.198C244.332 245.747 245.038 247.679 245.038 249.767Z" fill="white"/>
<g opacity="0.35">
<g opacity="0.35">
<g opacity="0.35">
<g opacity="0.35">
<path opacity="0.35" d="M245.034 249.767V277.134C245.034 282.211 240.863 286.365 235.766 286.365H185.165C180.067 286.365 175.896 282.211 175.896 277.134V266.897C183.496 274.615 198.442 279.459 212.15 279.531C216.554 279.555 220.107 276.085 220.421 271.709C220.425 271.665 220.428 271.621 220.431 271.578C220.768 267.738 223.943 264.629 227.803 264.352C232.198 264.037 235.909 267.27 236.343 271.473C242.978 263.314 241.035 249.135 243.145 244.198C244.331 245.749 245.034 247.677 245.034 249.767Z" fill="#00227B"/>
</g>
</g>
</g>
</g>
<path d="M235.779 288.422H185.176C178.929 288.422 173.846 283.36 173.846 277.137V249.767C173.846 243.544 178.929 238.482 185.176 238.482H235.779C242.027 238.482 247.11 243.544 247.11 249.767V277.137C247.11 283.36 242.027 288.422 235.779 288.422ZM185.176 242.595C181.206 242.595 177.975 245.812 177.975 249.767V277.137C177.975 281.092 181.206 284.309 185.176 284.309H235.779C239.75 284.309 242.981 281.092 242.981 277.137V249.767C242.981 245.812 239.75 242.595 235.779 242.595H185.176Z" fill="#00227B"/>
<path d="M228.403 271.411C232.817 271.411 236.395 267.847 236.395 263.451C236.395 259.055 232.817 255.492 228.403 255.492C223.99 255.492 220.412 259.055 220.412 263.451C220.412 267.847 223.99 271.411 228.403 271.411Z" fill="#22A7F0"/>
<g opacity="0.7">
<g opacity="0.7">
<g opacity="0.7">
<g opacity="0.7">
<path opacity="0.7" d="M236.396 263.451C236.396 263.996 236.343 264.526 236.24 265.042C235.502 261.403 232.274 258.665 228.407 258.665C224.534 258.665 221.305 261.403 220.568 265.042C220.464 264.526 220.412 263.998 220.412 263.451C220.412 259.054 223.991 255.494 228.407 255.494C232.815 255.494 236.396 259.054 236.396 263.451Z" fill="white"/>
</g>
</g>
</g>
</g>
<g opacity="0.35">
<g opacity="0.35">
<g opacity="0.35">
<g opacity="0.35">
<path opacity="0.35" d="M236.39 263.45C236.39 267.845 232.813 271.407 228.401 271.407C223.989 271.407 220.412 267.845 220.412 263.45C220.412 262.434 220.604 261.464 220.96 260.571C222.111 263.54 225.01 265.641 228.402 265.641C231.794 265.641 234.692 263.54 235.844 260.571C236.198 261.464 236.39 262.433 236.39 263.45Z" fill="#00227B"/>
</g>
</g>
</g>
</g>
<path d="M228.397 272.953C223.137 272.953 218.857 268.69 218.857 263.451C218.857 258.212 223.137 253.95 228.397 253.95C233.657 253.95 237.936 258.212 237.936 263.451C237.936 268.69 233.657 272.953 228.397 272.953ZM228.397 257.035C224.845 257.035 221.955 259.914 221.955 263.451C221.955 266.989 224.845 269.867 228.397 269.867C231.949 269.867 234.839 266.989 234.839 263.451C234.839 259.914 231.949 257.035 228.397 257.035Z" fill="#00227B"/>
<path d="M205.744 287.908C204.888 287.908 204.196 287.217 204.196 286.366V267.621L194.076 260.033V240.538C194.076 239.686 194.77 238.996 195.624 238.996C196.479 238.996 197.173 239.687 197.173 240.538V258.493L207.292 266.081V286.366C207.292 287.217 206.599 287.908 205.744 287.908Z" fill="#00227B"/>
<path d="M211.466 301.101C220.417 301.101 229.025 297.793 235.748 291.906C245.06 283.752 260.737 274.028 278.041 280.265C284.984 282.766 289.715 287.355 292.944 292.433C301.257 273.247 318.697 272.097 326.245 282.971C326.245 282.971 313.557 343.262 309.422 344.604C303.498 346.526 289.264 344.505 289.264 344.505C289.264 344.505 239.743 337.827 211.466 337.827C183.188 337.827 133.667 344.505 133.667 344.505C133.667 344.505 119.433 346.525 113.509 344.604C109.374 343.262 96.6855 282.971 96.6855 282.971C104.233 272.096 121.674 273.247 129.987 292.433C133.214 287.354 137.947 282.766 144.89 280.265C162.194 274.028 177.871 283.752 187.183 291.906C193.907 297.791 202.514 301.101 211.466 301.101Z" fill="white"/>
<g opacity="0.35">
<path d="M326.254 282.968C326.254 282.968 313.565 343.262 309.429 344.604C303.507 346.527 289.27 344.507 289.27 344.507C289.27 344.507 239.752 337.827 211.472 337.827C183.197 337.827 133.674 344.507 133.674 344.507C133.674 344.507 119.441 346.527 113.52 344.604C109.385 343.262 96.6953 282.968 96.6953 282.968C97.9394 281.179 99.4468 279.714 101.14 278.603C105.209 296.281 110.98 319.363 113.52 320.186C119.442 322.103 133.674 320.083 133.674 320.083C133.674 320.083 183.197 306.724 211.472 306.724C239.752 306.724 289.27 320.083 289.27 320.083C289.27 320.083 303.507 322.103 309.429 320.186C311.97 319.363 317.741 296.281 321.809 278.603C323.502 279.715 325.01 281.18 326.254 282.968Z" fill="#00227B"/>
</g>
<path d="M121.141 347.484C118.035 347.484 115.001 347.252 112.867 346.56C111.412 346.087 110.188 344.481 107.892 337.356C106.548 333.185 104.935 327.377 103.099 320.094C99.794 306.982 96.5726 292.275 95.341 286.561C94.6962 283.57 95.6804 280.476 97.9108 278.488C102.192 274.67 107.932 273.2 113.655 274.455C117.262 275.247 120.772 277.122 123.805 279.88C126.317 282.165 128.501 285.018 130.322 288.393C134.016 283.697 138.668 280.32 144.187 278.331C150.44 276.076 156.983 275.629 163.635 277C169.005 278.108 174.466 280.404 179.865 283.828C180.827 284.438 181.11 285.709 180.498 286.668C179.886 287.626 178.609 287.908 177.647 287.299C166.535 280.253 155.75 278.538 145.592 282.2C139.863 284.264 135.199 288.076 131.731 293.534C131.322 294.178 130.586 294.543 129.824 294.485C129.062 294.425 128.394 293.95 128.09 293.249C124.617 285.232 119.032 279.847 112.767 278.474C108.356 277.508 103.945 278.63 100.666 281.555C99.5375 282.56 99.0448 284.149 99.3797 285.701C100.542 291.094 103.589 305.009 106.762 317.722C108.507 324.71 110.053 330.396 111.358 334.619C113.186 340.533 114.141 342.267 114.48 342.751C119.145 344.053 129.638 343.002 133.375 342.472C133.38 342.471 133.384 342.471 133.389 342.47C133.885 342.403 183.372 335.773 211.464 335.773C239.556 335.773 289.043 342.403 289.539 342.47C289.543 342.471 289.549 342.471 289.553 342.472C293.291 343.002 303.783 344.053 308.448 342.751C308.782 342.276 309.711 340.592 311.477 334.92C312.752 330.829 314.26 325.316 315.963 318.535C318.998 306.444 321.907 293.287 323.372 286.522C323.852 284.305 323.018 282.032 321.247 280.732C317.868 278.251 313.679 277.51 309.455 278.647C303.403 280.277 298.212 285.462 294.839 293.25C294.535 293.95 293.868 294.426 293.104 294.486C292.34 294.546 291.607 294.179 291.197 293.535C287.729 288.079 283.066 284.265 277.337 282.201C267.09 278.507 256.213 280.282 245.006 287.476C244.047 288.091 242.77 287.816 242.151 286.861C241.534 285.907 241.81 284.634 242.769 284.018C248.2 280.531 253.697 278.184 259.104 277.041C265.822 275.621 272.429 276.056 278.743 278.332C284.262 280.321 288.913 283.699 292.609 288.395C296.488 281.214 301.998 276.393 308.378 274.676C313.764 273.225 319.348 274.226 323.699 277.421C326.775 279.68 328.231 283.591 327.41 287.388C325.86 294.556 322.786 308.443 319.624 320.909C317.831 327.979 316.256 333.611 314.942 337.649C312.702 344.537 311.499 346.096 310.06 346.562C303.781 348.6 289.698 346.647 288.98 346.545C288.204 346.441 239.197 339.887 211.465 339.887C183.728 339.887 134.726 346.441 133.949 346.545C133.473 346.61 127.174 347.484 121.141 347.484Z" fill="#00227B"/>
<path d="M305.747 344.604H309.425C313.743 344.604 317.658 342.082 319.416 338.154C324.921 325.875 334.959 298.894 325.557 282.429C325.283 281.949 324.99 281.486 324.681 281.043C324.681 281.043 315.654 272.866 309.169 284.434C303.112 295.241 290.398 341.449 305.747 344.604Z" fill="#AFAFB2"/>
<g opacity="0.7">
<g opacity="0.7">
<g opacity="0.7">
<g opacity="0.7">
<path opacity="0.7" d="M305.848 292.136C306.01 291.877 306.172 291.633 306.33 291.406C314.303 279.838 325.403 288.015 325.403 288.015C325.784 288.459 326.146 288.921 326.479 289.401C327.593 290.986 328.483 292.668 329.179 294.428C328.729 290.103 327.607 286.015 325.557 282.43C325.283 281.95 324.99 281.487 324.68 281.044C324.68 281.044 315.654 272.867 309.169 284.435C308.185 286.186 307.03 288.861 305.848 292.136Z" fill="white"/>
</g>
</g>
</g>
</g>
<path d="M329.121 295.662C329.027 295.662 328.933 295.654 328.838 295.638L306.276 291.887C305.349 291.733 304.723 290.859 304.877 289.934C305.031 289.01 305.91 288.386 306.836 288.54L329.397 292.291C330.325 292.445 330.951 293.319 330.797 294.244C330.659 295.075 329.938 295.662 329.121 295.662Z" fill="#00227B"/>
<path d="M328.979 307.803C328.903 307.803 328.827 307.798 328.749 307.787L302.357 304.253C301.425 304.128 300.771 303.275 300.896 302.346C301.021 301.418 301.878 300.767 302.811 300.891L329.204 304.426C330.135 304.55 330.789 305.403 330.664 306.332C330.55 307.184 329.819 307.803 328.979 307.803Z" fill="#00227B"/>
<path d="M326.659 319.694C326.59 319.694 326.521 319.69 326.45 319.682L299.658 316.415C298.725 316.301 298.061 315.456 298.175 314.526C298.289 313.597 299.137 312.934 300.072 313.049L326.864 316.315C327.797 316.429 328.461 317.275 328.347 318.204C328.242 319.064 327.507 319.694 326.659 319.694Z" fill="#00227B"/>
<path d="M322.414 332.663C322.363 332.663 322.311 332.661 322.258 332.656L298.305 330.504C297.369 330.42 296.679 329.595 296.763 328.662C296.847 327.729 297.675 327.041 298.612 327.125L322.565 329.278C323.501 329.362 324.193 330.187 324.108 331.12C324.028 332 323.285 332.663 322.414 332.663Z" fill="#00227B"/>
<g opacity="0.35">
<g opacity="0.35">
<g opacity="0.35">
<g opacity="0.35">
<path opacity="0.35" d="M305.747 344.604H309.425C313.743 344.604 317.658 342.082 319.416 338.154C320.839 334.971 322.571 330.809 324.189 326.092C321.981 329.741 317.495 332.056 312.57 332.056H308.186C301.948 330.979 299.6 324.886 299.507 316.898C297.398 330.38 297.977 343.006 305.747 344.604Z" fill="#00227B"/>
</g>
</g>
</g>
</g>
<path d="M309.418 346.3H305.74C305.624 346.3 305.51 346.289 305.396 346.265C302.423 345.653 300.177 343.734 298.718 340.558C295.28 333.071 296.951 320.028 298.959 310.404C301.413 298.644 305.202 288.021 307.677 283.607C309.951 279.549 312.817 277.212 316.193 276.663C321.372 275.822 325.641 279.627 325.82 279.788C325.914 279.873 325.998 279.969 326.071 280.072C326.41 280.556 326.734 281.068 327.032 281.591C331.33 289.117 332.241 299.41 329.743 312.185C327.711 322.57 323.848 332.415 320.965 338.845C318.937 343.374 314.405 346.3 309.418 346.3ZM305.925 342.908H309.418C313.062 342.908 316.374 340.771 317.854 337.465C320.664 331.196 324.428 321.608 326.399 311.538C328.738 299.582 327.954 290.071 324.071 283.268C323.86 282.897 323.634 282.536 323.399 282.19C322.761 281.671 319.863 279.493 316.722 280.014C314.432 280.395 312.388 282.16 310.651 285.261C308.36 289.347 304.653 299.79 302.294 311.095C299.603 323.996 299.432 333.959 301.816 339.148C302.783 341.254 304.128 342.487 305.925 342.908Z" fill="#00227B"/>
<path d="M117.192 344.604H113.515C109.197 344.604 105.282 342.082 103.523 338.154C98.0182 325.875 87.9804 298.894 97.3825 282.429C97.6561 281.949 97.949 281.486 98.2588 281.043C98.2588 281.043 107.285 272.866 113.77 284.434C119.827 295.241 132.54 341.449 117.192 344.604Z" fill="#AFAFB2"/>
<g opacity="0.7">
<g opacity="0.7">
<g opacity="0.7">
<g opacity="0.7">
<path opacity="0.7" d="M117.081 292.136C116.919 291.877 116.756 291.633 116.599 291.406C108.626 279.838 97.5254 288.015 97.5254 288.015C97.1451 288.459 96.783 288.921 96.4493 289.401C95.3357 290.986 94.4458 292.668 93.75 294.428C94.1995 290.104 95.3221 286.015 97.3721 282.43C97.6457 281.95 97.9385 281.487 98.2484 281.044C98.2484 281.044 107.275 272.867 113.76 284.435C114.743 286.186 115.898 288.861 117.081 292.136Z" fill="white"/>
</g>
</g>
</g>
</g>
<path d="M93.8183 295.661C93.001 295.661 92.2802 295.074 92.1406 294.245C91.9862 293.321 92.6117 292.447 93.5402 292.292L116.102 288.541C117.029 288.387 117.906 289.01 118.061 289.935C118.215 290.859 117.59 291.733 116.661 291.888L94.0998 295.639C94.0056 295.655 93.9114 295.661 93.8183 295.661Z" fill="#00227B"/>
<path d="M93.947 307.803C93.107 307.803 92.376 307.184 92.2614 306.333C92.1365 305.405 92.7903 304.551 93.7223 304.427L120.116 300.891C121.049 300.766 121.905 301.418 122.031 302.347C122.156 303.275 121.502 304.128 120.57 304.253L94.1763 307.788C94.0991 307.798 94.0231 307.803 93.947 307.803Z" fill="#00227B"/>
<path d="M96.2789 319.694C95.431 319.694 94.6966 319.064 94.591 318.204C94.4763 317.275 95.1404 316.429 96.0746 316.315L122.867 313.048C123.8 312.935 124.649 313.596 124.763 314.526C124.878 315.456 124.214 316.301 123.28 316.415L96.4878 319.682C96.4174 319.691 96.347 319.694 96.2789 319.694Z" fill="#00227B"/>
<path d="M100.531 332.663C99.6588 332.663 98.9165 332 98.837 331.12C98.753 330.187 99.4431 329.363 100.38 329.278L124.333 327.125C125.27 327.042 126.097 327.729 126.182 328.662C126.266 329.594 125.576 330.419 124.639 330.503L100.686 332.656C100.634 332.661 100.582 332.663 100.531 332.663Z" fill="#00227B"/>
<g opacity="0.35">
<g opacity="0.35">
<g opacity="0.35">
<g opacity="0.35">
<path opacity="0.35" d="M117.18 344.604H113.503C109.185 344.604 105.27 342.082 103.511 338.154C102.088 334.971 100.357 330.809 98.7383 326.092C100.946 329.741 105.432 332.056 110.357 332.056H114.741C120.98 330.979 123.327 324.886 123.42 316.898C125.529 330.38 124.949 343.006 117.18 344.604Z" fill="#00227B"/>
</g>
</g>
</g>
</g>
<path d="M117.19 346.3H113.513C108.526 346.3 103.994 343.374 101.966 338.845C99.0843 332.416 95.2204 322.571 93.1885 312.186C90.6902 299.412 91.6016 289.118 95.8992 281.591C96.1977 281.068 96.5212 280.557 96.8595 280.073C96.9321 279.969 97.0161 279.874 97.1103 279.789C97.2897 279.626 101.559 275.823 106.737 276.664C110.113 277.213 112.979 279.55 115.254 283.608C117.728 288.022 121.517 298.645 123.972 310.405C125.98 320.029 127.65 333.072 124.212 340.559C122.754 343.735 120.507 345.654 117.534 346.266C117.421 346.289 117.305 346.3 117.19 346.3ZM99.5304 282.191C99.2954 282.535 99.0707 282.897 98.8595 283.267C94.9752 290.071 94.1908 299.581 96.5303 311.538C98.5008 321.609 102.264 331.195 105.075 337.464C106.557 340.772 109.868 342.909 113.512 342.909H117.004C118.801 342.488 120.147 341.255 121.114 339.148C123.497 333.958 123.328 323.996 120.637 311.095C118.278 299.79 114.571 289.347 112.28 285.261C110.542 282.16 108.499 280.395 106.208 280.014C103.073 279.494 100.176 281.665 99.5304 282.191Z" fill="#00227B"/>
<path d="M158.71 343.056C158.469 343.056 158.223 343 157.994 342.88C157.236 342.485 156.943 341.553 157.34 340.797C163.807 328.491 163.902 314.651 157.624 299.663C152.888 288.358 146.107 280.623 146.039 280.546C145.474 279.907 145.535 278.932 146.177 278.368C146.818 277.805 147.796 277.865 148.362 278.504C148.651 278.831 155.506 286.636 160.446 298.387C163.361 305.321 164.986 312.183 165.279 318.782C165.647 327.079 163.899 334.967 160.084 342.228C159.807 342.756 159.268 343.056 158.71 343.056Z" fill="#00227B"/>
<path d="M264.867 343.056C264.308 343.056 263.77 342.755 263.493 342.229C259.678 334.968 257.93 327.08 258.298 318.783C258.591 312.184 260.216 305.322 263.131 298.388C268.071 286.637 274.926 278.83 275.216 278.505C275.782 277.866 276.76 277.805 277.402 278.369C278.043 278.932 278.104 279.907 277.538 280.546C277.47 280.622 270.689 288.358 265.953 299.662C259.675 314.652 259.77 328.491 266.237 340.797C266.633 341.553 266.34 342.484 265.583 342.88C265.354 343 265.109 343.056 264.867 343.056Z" fill="#00227B"/>
<g opacity="0.35">
<path d="M262.785 194.863C260.998 196.899 259.12 198.832 257.163 200.648C252.517 204.956 247.426 208.623 241.979 211.529C232.779 216.444 222.574 219.201 211.825 219.251C201.324 219.298 191.33 216.757 182.27 212.14C176.338 209.111 170.809 205.198 165.807 200.535C163.319 198.21 160.959 195.706 158.744 193.038C162.756 191.804 166.741 190.374 170.39 188.96C174.923 178.085 180.209 166.948 186.374 155.81H236.558C241.654 165.019 246.15 174.223 250.115 183.288C253.895 185.483 258.247 189.618 262.785 194.863Z" fill="#00227B"/>
</g>
<path d="M288.097 145.207C287.223 145.3 286.439 144.671 286.345 143.8L281.447 98.4031C281.353 97.5325 281.985 96.7513 282.859 96.6575C292.027 95.6761 300.258 102.283 301.243 111.415L302.915 126.896C303.9 136.027 297.266 144.225 288.097 145.207Z" fill="white"/>
<path d="M287.927 145.607C287.476 145.607 287.041 145.455 286.686 145.169C286.273 144.838 286.015 144.367 285.958 143.842L281.06 98.445C281.004 97.9204 281.156 97.4049 281.488 96.9945C281.821 96.5841 282.294 96.3263 282.821 96.2698C292.191 95.2669 300.631 102.042 301.638 111.374L303.308 126.855C303.796 131.375 302.487 135.814 299.622 139.354C296.758 142.894 292.681 145.111 288.142 145.597L288.1 145.208L288.142 145.597C288.071 145.604 287.998 145.607 287.927 145.607ZM284.659 96.9515C284.079 96.9515 283.494 96.982 282.905 97.0453C282.586 97.0793 282.3 97.2353 282.099 97.4829C281.898 97.7316 281.806 98.0425 281.84 98.3602L286.738 143.757C286.772 144.075 286.929 144.36 287.179 144.56C287.428 144.76 287.741 144.852 288.06 144.818C292.39 144.354 296.279 142.239 299.012 138.862C301.746 135.485 302.994 131.25 302.529 126.937L300.859 111.456C299.96 103.14 292.875 96.9515 284.659 96.9515Z" fill="#00227B"/>
<g opacity="0.35">
<g opacity="0.35">
<g opacity="0.35">
<g opacity="0.35">
<path opacity="0.35" d="M302.141 119.636L302.927 126.897C303.911 136.025 297.277 144.225 288.108 145.21C287.234 145.305 286.45 144.67 286.355 143.8L285.049 131.732C285.353 132.256 285.948 132.577 286.589 132.514L287.67 132.395C294.914 131.621 300.581 126.335 302.141 119.636Z" fill="#00227B"/>
</g>
</g>
</g>
</g>
<path d="M287.929 147.392C287.071 147.392 286.244 147.103 285.567 146.559C284.781 145.929 284.29 145.032 284.182 144.033L279.284 98.6361C279.176 97.6378 279.465 96.6565 280.098 95.8741C280.73 95.0917 281.631 94.6022 282.634 94.4948C292.983 93.3868 302.311 100.874 303.423 111.183L305.093 126.664C305.632 131.658 304.186 136.562 301.021 140.474C297.857 144.385 293.352 146.835 288.337 147.371C288.202 147.384 288.065 147.392 287.929 147.392ZM287.874 143.044H287.873C287.873 143.044 287.873 143.044 287.874 143.044ZM283.693 98.7695L288.461 142.97C292.079 142.437 295.314 140.596 297.623 137.744C300.055 134.738 301.167 130.968 300.752 127.129L299.082 111.648C298.248 103.919 291.41 98.254 283.693 98.7695Z" fill="#00227B"/>
<path d="M132.428 112.76C133.302 112.666 134.087 113.296 134.181 114.167L139.079 159.564C139.173 160.434 138.541 161.216 137.667 161.31C128.499 162.291 120.268 155.684 119.283 146.552L117.613 131.071C116.625 121.939 123.26 113.742 132.428 112.76Z" fill="white"/>
<path d="M135.864 161.797C127.253 161.798 119.826 155.311 118.886 146.594L117.216 131.113C116.209 121.781 123.012 113.374 132.381 112.371L132.423 112.76L132.381 112.371C133.467 112.255 134.448 113.042 134.565 114.125L139.463 159.522C139.58 160.605 138.79 161.581 137.702 161.697C137.086 161.764 136.471 161.797 135.864 161.797ZM132.593 113.141C132.55 113.141 132.508 113.144 132.464 113.148C123.525 114.105 117.034 122.126 117.996 131.029L119.666 146.51C120.626 155.413 128.678 161.878 137.618 160.922C138.276 160.852 138.754 160.261 138.683 159.607L133.785 114.21C133.719 113.597 133.197 113.141 132.593 113.141Z" fill="#00227B"/>
<g opacity="0.35">
<g opacity="0.35">
<g opacity="0.35">
<g opacity="0.35">
<path opacity="0.35" d="M137.708 146.969L139.066 159.564C139.161 160.435 138.523 161.216 137.65 161.31C132.837 161.823 128.279 160.248 124.894 157.311C121.837 154.658 119.737 150.889 119.268 146.554L118.564 140.031C121.785 145.476 128.013 148.842 134.735 148.124L136.398 147.945C137.004 147.879 137.484 147.489 137.708 146.969Z" fill="#00227B"/>
</g>
</g>
</g>
</g>
<path d="M135.861 163.581C126.346 163.582 118.142 156.415 117.103 146.784L115.433 131.303C114.321 120.993 121.838 111.704 132.189 110.596C134.257 110.375 136.123 111.872 136.346 113.933L141.244 159.331C141.466 161.393 139.963 163.249 137.893 163.471C137.21 163.546 136.532 163.581 135.861 163.581ZM132.066 114.998C124.415 116.128 118.942 123.111 119.775 130.839L121.445 146.32C122.279 154.049 129.117 159.713 136.835 159.199L132.066 114.998Z" fill="#00227B"/>
<path d="M210.27 206.789C253.414 206.789 288.389 171.954 288.389 128.983C288.389 86.0117 253.414 51.1767 210.27 51.1767C167.127 51.1767 132.152 86.0117 132.152 128.983C132.152 171.954 167.127 206.789 210.27 206.789Z" fill="white"/>
<path d="M210.194 207.181C200.616 207.181 191.259 205.471 182.339 202.085C172.853 198.485 164.259 193.151 156.793 186.234C149.327 179.316 143.368 171.162 139.079 161.999C134.638 152.511 132.193 142.352 131.81 131.802C131.428 121.253 133.132 110.944 136.874 101.163C140.488 91.7145 145.844 83.1549 152.788 75.7191C159.733 68.2833 167.922 62.3466 177.123 58.0742C186.649 53.6514 196.849 51.2161 207.44 50.8351C218.032 50.4541 228.382 52.1511 238.203 55.8786C247.689 59.4784 256.283 64.8124 263.749 71.7293C271.214 78.6473 277.174 86.801 281.463 95.9643C285.904 105.452 288.349 115.611 288.731 126.161C289.114 136.71 287.41 147.019 283.668 156.801C280.053 166.249 274.698 174.808 267.752 182.244C260.806 189.68 252.62 195.615 243.42 199.888C233.894 204.311 223.694 206.746 213.102 207.127C212.13 207.163 211.16 207.181 210.194 207.181ZM210.307 51.5655C209.362 51.5655 208.42 51.5824 207.468 51.6163C164.638 53.1562 131.05 89.1141 132.595 131.773C133.343 152.438 142.126 171.576 157.327 185.661C171.823 199.094 190.504 206.398 210.2 206.399C211.156 206.399 212.111 206.382 213.072 206.347C233.819 205.602 253.034 196.853 267.176 181.714C281.317 166.574 288.693 146.856 287.945 126.191C286.435 84.4799 251.88 51.5655 210.307 51.5655Z" fill="#00227B"/>
<g opacity="0.35">
<g opacity="0.35">
<g opacity="0.35">
<g opacity="0.35">
<path opacity="0.35" d="M287.204 115.441C287.829 118.939 288.211 122.523 288.344 126.178C289.893 169.121 256.205 205.188 213.09 206.741C169.975 208.284 133.763 174.729 132.204 131.788C132.159 130.553 132.143 129.316 132.158 128.097C138.791 165.758 172.455 193.729 211.904 192.312C253.779 190.805 286.757 156.742 287.204 115.441Z" fill="#00227B"/>
</g>
</g>
</g>
</g>
<path d="M210.19 208.965C200.393 208.965 190.823 207.215 181.698 203.752C171.996 200.07 163.205 194.615 155.57 187.54C147.935 180.465 141.84 172.124 137.452 162.752C132.91 153.047 130.409 142.655 130.018 131.866C129.628 121.077 131.37 110.532 135.199 100.526C138.896 90.8632 144.373 82.1069 151.477 74.5027C158.58 66.8984 166.952 60.8261 176.363 56.4576C186.106 51.933 196.54 49.4424 207.373 49.0534C218.206 48.6645 228.792 50.4 238.838 54.2134C248.54 57.8957 257.331 63.3507 264.966 70.4258C272.601 77.501 278.696 85.8412 283.083 95.2137C287.626 104.919 290.127 115.311 290.517 126.1C290.908 136.889 289.165 147.434 285.336 157.439C281.639 167.102 276.163 175.859 269.059 183.463C261.956 191.067 253.582 197.138 244.172 201.508C234.428 206.033 223.994 208.523 213.162 208.912C212.17 208.947 211.178 208.965 210.19 208.965ZM210.304 53.3508C209.381 53.3508 208.46 53.3677 207.531 53.4005C165.687 54.9042 132.873 90.0334 134.383 131.71C135.114 151.898 143.695 170.595 158.545 184.356C172.708 197.48 190.957 204.616 210.2 204.616C211.133 204.616 212.069 204.599 213.006 204.565C233.276 203.837 252.047 195.29 265.864 180.5C279.68 165.71 286.886 146.446 286.154 126.257C284.677 85.5054 250.918 53.3508 210.304 53.3508Z" fill="#00227B"/>
<path d="M288.173 128.184C288.955 143.389 284.725 157.759 276.85 169.871C270.947 178.952 245.614 195.61 213.375 197.543C183.482 199.336 155.455 184.842 148.651 176.41C139.575 165.162 133.894 151.298 133.112 136.093C131.042 95.8547 164.895 77.4026 207.717 75.2184C250.536 73.0341 286.104 87.9452 288.173 128.184Z" fill="#3949AB"/>
<path d="M208.184 199.193C193.32 199.193 180.392 195.503 171.811 192.206C160.945 188.032 151.393 182.199 147.478 177.347C137.869 165.439 132.382 151.2 131.609 136.169C131.096 126.195 132.747 117.145 136.515 109.269C140.062 101.857 145.503 95.4354 152.688 90.1805C165.814 80.5796 184.815 74.8894 207.635 73.7261C230.456 72.5627 249.941 76.2891 263.983 84.5038C271.669 89.0001 277.741 94.835 282.029 101.848C286.585 109.298 289.156 118.134 289.668 128.108C290.441 143.139 286.442 157.861 278.106 170.684C274.643 176.011 266.04 182.542 255.657 187.724C246.536 192.277 231.812 197.936 213.462 199.036C211.679 199.142 209.918 199.193 208.184 199.193ZM215.693 76.5061C213.109 76.5061 210.475 76.574 207.789 76.7108C185.556 77.8447 167.117 83.336 154.464 92.5897C140.338 102.922 133.657 117.534 134.607 136.016C135.347 150.415 140.607 164.06 149.817 175.474C152.557 178.871 160.244 184.56 172.892 189.418C182.196 192.992 196.755 197.044 213.282 196.052C231.125 194.981 245.444 189.479 254.314 185.052C266.2 179.118 273.203 172.728 275.589 169.06C283.581 156.768 287.414 142.659 286.674 128.26C285.724 109.778 277.578 95.9226 262.465 87.0815C250.564 80.1195 234.508 76.5061 215.693 76.5061Z" fill="#00227B"/>
<g opacity="0.5">
<g opacity="0.5">
<g opacity="0.5">
<g opacity="0.5">
<path d="M272.61 125.275C273.585 117.733 269.928 111.048 264.441 110.345C258.953 109.641 253.715 115.185 252.74 122.727C251.765 130.269 255.423 136.954 260.91 137.658C266.397 138.361 271.635 132.817 272.61 125.275Z" fill="white"/>
</g>
</g>
</g>
</g>
<g opacity="0.5">
<g opacity="0.5">
<g opacity="0.5">
<g opacity="0.5">
<path d="M257.078 153.309C258.002 149.943 256.399 146.573 253.498 145.784C250.597 144.994 247.497 147.083 246.573 150.45C245.649 153.817 247.252 157.186 250.153 157.976C253.054 158.766 256.154 156.676 257.078 153.309Z" fill="white"/>
</g>
</g>
</g>
</g>
<g opacity="0.35">
<path d="M271.154 91.414C281.095 99.9385 287.329 112.021 288.163 128.181C288.945 143.39 284.712 157.76 276.843 169.871C270.937 178.952 245.603 195.609 213.363 197.547C201.981 198.233 190.871 196.553 181.096 193.741C220.674 190.519 251.525 170.086 258.846 158.823C268.842 143.451 274.21 125.21 273.214 105.916C272.953 100.758 272.246 95.9295 271.154 91.414Z" fill="#00227B"/>
</g>
<path d="M137.166 103.576C136.726 103.576 136.283 103.439 135.904 103.155C135.012 102.486 134.806 101.245 135.414 100.331C138.655 95.0261 142.795 90.1782 147.717 85.9227C152.509 81.7803 158.083 78.1636 164.282 75.1732C170.351 72.2461 177.06 69.9013 184.22 68.2032C191.315 66.5209 198.89 65.465 206.736 65.0647C214.452 64.6713 222.013 64.937 229.209 65.8527C236.47 66.7776 243.374 68.3683 249.727 70.5785C256.228 72.8408 262.176 75.7622 267.406 79.2614C272.783 82.8588 277.434 87.0895 281.232 91.8367C281.895 92.5682 281.963 93.6886 281.342 94.5026C280.641 95.4229 279.323 95.6016 278.399 94.9029L278.178 94.7401L278.013 94.5298C263.95 76.8747 238.048 67.6583 206.95 69.2445C175.68 70.8397 150.903 82.9821 138.971 102.558L138.917 102.647L138.845 102.741C138.434 103.287 137.804 103.576 137.166 103.576Z" fill="#00227B"/>
<g opacity="0.5">
<g opacity="0.5">
<g opacity="0.5">
<g opacity="0.5">
<path d="M151.745 159.142C151.745 159.142 137.191 120.085 157.857 103.171C178.523 86.2563 209.428 84.7448 208.808 86.7549C208.808 86.7549 175.021 96.7492 163.02 124.369C153.765 145.668 151.745 159.142 151.745 159.142Z" fill="white"/>
</g>
</g>
</g>
</g>
<path d="M281.05 349.081H142.504C138.018 349.081 134.381 345.459 134.381 340.991C134.381 338.416 136.476 336.329 139.061 336.329H284.493C287.078 336.329 289.173 338.416 289.173 340.991C289.173 345.46 285.536 349.081 281.05 349.081Z" fill="#E6E9FA"/>
<g opacity="0.3">
<g opacity="0.3">
<g opacity="0.3">
<g opacity="0.3">
<path opacity="0.3" d="M289.171 340.992C289.171 341.876 289.027 342.725 288.764 343.522C288.036 341.892 286.399 340.761 284.495 340.761H139.062C137.771 340.761 136.6 341.28 135.753 342.129C135.35 342.53 135.02 342.999 134.788 343.523C134.525 342.726 134.381 341.878 134.381 340.993C134.381 339.707 134.902 338.541 135.754 337.697C136.601 336.849 137.773 336.329 139.063 336.329H284.495C287.08 336.328 289.171 338.415 289.171 340.992Z" fill="white"/>
</g>
</g>
</g>
</g>
<g opacity="0.35">
<g opacity="0.35">
<g opacity="0.35">
<g opacity="0.35">
<path opacity="0.35" d="M289.172 340.992C289.172 343.224 288.264 345.25 286.792 346.709C285.325 348.174 283.291 349.08 281.052 349.08H142.507C138.021 349.08 134.381 345.46 134.381 340.992C134.381 340.133 134.614 339.325 135.026 338.631C136.254 341.527 139.145 343.563 142.506 343.563H281.05C283.291 343.563 285.325 342.658 286.791 341.192C287.524 340.462 288.118 339.593 288.525 338.631C288.941 339.325 289.172 340.133 289.172 340.992Z" fill="#00227B"/>
</g>
</g>
</g>
</g>
<path d="M281.057 351.139H142.51C136.892 351.139 132.322 346.587 132.322 340.992C132.322 337.288 135.348 334.274 139.067 334.274H284.499C288.218 334.274 291.244 337.288 291.244 340.992C291.244 346.586 286.674 351.139 281.057 351.139ZM139.066 338.387C137.624 338.387 136.451 339.555 136.451 340.992C136.451 344.319 139.168 347.026 142.509 347.026H281.057C284.397 347.026 287.115 344.319 287.115 340.992C287.115 339.556 285.942 338.387 284.499 338.387H139.066Z" fill="#00227B"/>
<path d="M297.272 245.245L283.721 336.327H139.858L139.368 333.031L126.3 245.245C125.873 242.36 128.118 239.774 131.04 239.774H292.531C295.46 239.774 297.699 242.36 297.272 245.245Z" fill="#FF66AC"/>
<path d="M297.272 245.245L283.721 336.327H139.858L139.368 333.031L126.3 245.245C125.873 242.36 128.118 239.774 131.04 239.774H292.531C295.46 239.774 297.699 242.36 297.272 245.245Z" fill="#E6E9FA"/>
<g opacity="0.5">
<g opacity="0.5">
<g opacity="0.5">
<g opacity="0.5">
<path opacity="0.5" d="M131.415 250.899C130.987 248.015 133.232 245.428 136.154 245.428H297.251L297.278 245.246C297.706 242.362 295.467 239.775 292.539 239.775H131.047C128.126 239.775 125.88 242.362 126.308 245.246L139.375 333.033L139.865 336.328H144.132L131.415 250.899Z" fill="white"/>
</g>
</g>
</g>
</g>
<g opacity="0.35">
<g opacity="0.35">
<g opacity="0.35">
<g opacity="0.35">
<path opacity="0.35" d="M287.998 239.774H276.658C280.958 255.464 278.586 290.894 250.846 309.41C216.023 332.655 153.265 332.507 139.941 333.031L140.432 336.327H279.186L292.737 245.245C293.165 242.36 290.926 239.774 287.998 239.774Z" fill="#00227B"/>
</g>
</g>
</g>
</g>
<path d="M285.495 338.387H138.071L124.256 245.545C123.963 243.579 124.543 241.589 125.846 240.085C127.149 238.58 129.042 237.717 131.036 237.717H292.53C294.526 237.717 296.417 238.58 297.72 240.085C299.023 241.589 299.603 243.579 299.31 245.545L285.495 338.387ZM141.635 334.273H281.932L295.225 244.942C295.343 244.149 295.118 243.378 294.593 242.771C294.067 242.164 293.335 241.83 292.53 241.83H131.036C130.231 241.83 129.499 242.165 128.974 242.771C128.448 243.378 128.223 244.149 128.341 244.942L141.635 334.273Z" fill="#00227B"/>
<g opacity="0.3">
<g opacity="0.3">
<g opacity="0.3">
<g opacity="0.3">
<path opacity="0.3" d="M151.297 315.048C145.839 303.066 141.865 282.613 142.761 270.575C143.657 258.538 150.666 262.222 152.839 277.64C158.62 318.676 153.733 320.397 151.297 315.048Z" fill="white"/>
</g>
</g>
</g>
</g>
<path d="M230.574 277.717C230.749 276.179 230.954 274.625 230.651 273.061C230.516 272.892 230.392 272.718 230.257 272.548C229.81 272.387 229.375 272.178 228.909 272.062C225.636 271.219 222.317 270.886 218.945 271.175C214.549 271.553 210.514 272.904 207.044 275.688C205.787 276.691 204.642 277.825 203.469 278.926C203.155 279.224 202.913 279.348 202.472 279.147C201.433 278.677 200.314 278.466 199.178 278.41C196.13 278.272 193.41 279.253 190.873 280.84C188.124 282.565 185.908 284.87 183.844 287.338C182.966 288.384 183.308 289.55 184.615 289.989C185.44 290.257 186.266 290.521 187.091 290.79C189.068 291.427 191.041 292.059 193.013 292.696C193.008 292.757 193.014 292.789 193.005 292.819C192.989 292.858 192.972 292.902 192.945 292.939C192.122 293.993 192.321 294.967 193.189 295.883C193.282 295.985 193.362 296.106 193.444 296.215C193.898 296.81 194.362 297.412 194.844 298.031C194.186 298.537 193.541 298.966 192.97 299.485C192.681 299.746 192.427 300.126 192.318 300.503C192.133 301.11 192.449 301.73 192.991 302.049C193.567 302.394 194.159 302.379 194.695 301.995C195.375 301.513 196.024 300.991 196.715 300.465C197.368 301.322 197.987 302.133 198.608 302.933C199.319 303.846 199.81 304.002 200.913 303.698C201.114 303.635 201.313 303.592 201.55 303.535C201.566 303.77 201.584 303.959 201.594 304.135C201.735 306.975 201.864 309.82 202.021 312.652C202.092 313.995 203.157 314.629 204.375 314.054C205.475 313.537 206.574 312.99 207.652 312.408C210.137 311.061 212.398 309.413 214.202 307.22C216.46 304.462 217.709 301.381 217.125 297.741C217.1 297.597 217.22 297.352 217.345 297.278C218.453 296.567 219.59 295.901 220.699 295.184C223.206 293.557 225.22 291.443 226.796 288.918C228.937 285.484 230.118 281.717 230.574 277.717ZM194.644 290.006C192.361 289.266 189.994 288.497 187.563 287.709C190.075 285.05 192.733 282.728 196.314 281.747C197.861 281.323 199.649 281.36 200.704 281.787C198.7 284.512 196.69 287.236 194.644 290.006ZM213.844 301.693C213.264 303.537 212.156 305.038 210.792 306.377C209.096 308.022 207.122 309.25 204.988 310.369C204.86 307.758 204.728 305.202 204.599 302.7C207.826 301.45 210.982 300.23 214.153 299.002C214.276 299.873 214.126 300.795 213.844 301.693ZM225.761 284.208C224.722 286.648 223.36 288.871 221.417 290.712C219.917 292.124 218.217 293.257 216.426 294.264C211.57 296.994 206.365 298.877 201.044 300.469C200.784 300.543 200.625 300.53 200.453 300.292C200.082 299.767 199.666 299.26 199.273 298.741C199.247 298.712 199.238 298.663 199.2 298.57C199.336 298.462 199.482 298.354 199.628 298.243C202.665 295.92 205.716 293.606 208.753 291.279C209.631 290.616 209.669 289.475 208.857 288.817C208.289 288.355 207.541 288.361 206.886 288.852C205.059 290.24 203.236 291.629 201.413 293.023C200.053 294.058 198.704 295.089 197.292 296.168C196.807 295.537 196.34 294.962 195.917 294.356C195.846 294.247 195.919 293.974 196.016 293.839C197.635 291.433 199.24 289.015 200.924 286.651C202.591 284.304 204.485 282.135 206.569 280.145C208.523 278.265 210.641 276.606 213.201 275.616C214.842 274.98 216.536 274.547 218.285 274.36C218.444 274.338 218.674 274.496 218.787 274.642C220.565 276.932 222.322 279.226 224.085 281.525C224.614 282.209 225.136 282.906 225.681 283.582C225.845 283.786 225.865 283.96 225.761 284.208ZM226.815 281.004C225.058 278.711 223.342 276.48 221.623 274.239C221.625 274.188 221.64 274.128 221.648 274.073C223.649 274.312 225.655 274.556 227.681 274.798C227.644 276.972 227.321 278.963 226.815 281.004Z" fill="#00227B"/>
<path d="M225.701 283.581C225.155 282.905 224.634 282.208 224.105 281.524C222.343 279.225 220.585 276.931 218.806 274.641C218.694 274.495 218.463 274.337 218.304 274.359C216.555 274.546 214.862 274.979 213.22 275.615C210.659 276.604 208.542 278.264 206.589 280.144C204.505 282.134 202.61 284.303 200.944 286.65C199.259 289.015 197.654 291.433 196.036 293.838C195.938 293.972 195.865 294.246 195.937 294.354C196.358 294.96 196.826 295.536 197.312 296.167C198.724 295.088 200.072 294.056 201.432 293.022C203.255 291.628 205.078 290.238 206.906 288.851C207.561 288.36 208.307 288.355 208.876 288.816C209.689 289.475 209.651 290.616 208.773 291.278C205.735 293.605 202.684 295.919 199.648 298.241C199.501 298.353 199.355 298.461 199.22 298.569C199.257 298.663 199.266 298.711 199.292 298.74C199.685 299.259 200.102 299.765 200.473 300.291C200.644 300.529 200.803 300.542 201.063 300.467C206.385 298.876 211.589 296.993 216.445 294.263C218.235 293.257 219.937 292.123 221.436 290.711C223.378 288.87 224.742 286.647 225.78 284.206C225.882 283.96 225.862 283.786 225.701 283.581ZM220.371 287.082C218.05 288.824 214.765 288.397 213.022 286.117C211.267 283.84 211.709 280.571 214.009 278.805C216.267 277.073 219.553 277.52 221.314 279.798C223.054 282.063 222.629 285.381 220.371 287.082Z" fill="white"/>
<path d="M226.813 281.002C225.055 278.713 223.339 276.48 221.621 274.239C221.627 274.186 221.638 274.131 221.646 274.073C223.647 274.314 225.654 274.557 227.683 274.799C227.644 276.97 227.318 278.963 226.813 281.002Z" fill="#DB2C2C"/>
<path d="M200.72 281.788C198.713 284.509 196.704 287.236 194.659 290.008C192.373 289.263 190.006 288.497 187.576 287.71C190.09 285.048 192.748 282.725 196.328 281.747C197.875 281.322 199.661 281.36 200.72 281.788Z" fill="#DB2C2C"/>
<path d="M210.794 306.377C209.1 308.023 207.128 309.252 204.992 310.369C204.862 307.76 204.732 305.205 204.604 302.7C207.831 301.451 210.985 300.232 214.161 299.001C214.283 299.874 214.129 300.794 213.851 301.695C213.271 303.539 212.163 305.04 210.794 306.377Z" fill="#DB2C2C"/>
<path d="M221.303 279.798C219.544 277.52 216.257 277.074 213.999 278.805C211.699 280.572 211.256 283.84 213.011 286.117C214.755 288.397 218.04 288.824 220.361 287.082C222.62 285.381 223.044 282.063 221.303 279.798ZM218.797 285.158C217.621 286.046 215.893 285.812 214.977 284.642C214.029 283.435 214.288 281.663 215.543 280.736C216.717 279.858 218.478 280.113 219.362 281.288C220.286 282.512 220.032 284.229 218.797 285.158Z" fill="#00227B"/>
<path d="M218.804 285.158C217.628 286.046 215.9 285.812 214.982 284.639C214.038 283.435 214.294 281.663 215.548 280.736C216.725 279.86 218.483 280.111 219.368 281.286C220.292 282.511 220.041 284.23 218.804 285.158Z" fill="#22A7F0"/>
<path d="M296.555 250.051C296.555 250.051 285.406 244.781 274.935 249.508C264.909 254.035 257.816 286.263 270.806 294.427C278.823 299.466 284.281 295.015 288.817 296.322C295.544 298.26 309.347 265.076 296.555 250.051Z" fill="white"/>
<g opacity="0.35">
<path d="M301.593 271.024C300.272 284.532 293.112 297.556 288.827 296.322C284.289 295.016 278.832 299.468 270.815 294.429C264.609 290.526 262.988 281.138 264.082 271.892C264.82 277.286 266.911 281.908 270.815 284.361C278.832 289.395 284.17 287.056 288.827 286.254C294.583 285.261 299.275 278.999 301.593 271.024Z" fill="#00227B"/>
</g>
<path d="M279.038 298.948C276.333 298.948 273.203 298.359 269.714 296.167C266.592 294.204 264.336 291.028 263.012 286.728C261.899 283.119 261.484 278.721 261.808 274.01C262.193 268.43 263.571 262.706 265.686 257.892C267.302 254.215 270.073 249.449 274.093 247.635C285.306 242.572 296.959 247.96 297.45 248.192L297.852 248.382L298.139 248.72C303.994 255.596 304.332 265.096 303.584 271.854C302.742 279.468 300.043 287.545 296.542 292.933C293.034 298.329 290.098 298.829 288.252 298.298C287.054 297.953 285.541 298.194 283.789 298.473C282.404 298.695 280.812 298.948 279.038 298.948ZM284.49 249.59C281.352 249.59 278.442 250.189 275.8 251.382C273.626 252.364 271.318 255.338 269.472 259.543C267.569 263.871 266.278 269.247 265.93 274.293C265.315 283.205 267.498 289.91 271.919 292.689C276.376 295.491 279.815 294.942 283.138 294.412C285.287 294.069 287.317 293.746 289.402 294.346C289.641 294.388 291.36 293.728 293.783 289.546C299.435 279.795 303.02 261.379 295.287 251.739C294.411 251.376 292.156 250.522 289.204 250.011C287.582 249.731 286.009 249.59 284.49 249.59Z" fill="#00227B"/>
<defs>
<filter id="filter0_b_780_51288" x="-24" y="-24" width="450" height="450" filterUnits="userSpaceOnUse" color-interpolation-filters="sRGB">
<feFlood flood-opacity="0" result="BackgroundImageFix"/>
<feGaussianBlur in="BackgroundImage" stdDeviation="12"/>
<feComposite in2="SourceAlpha" operator="in" result="effect1_backgroundBlur_780_51288"/>
<feBlend mode="normal" in="SourceGraphic" in2="effect1_backgroundBlur_780_51288" result="shape"/>
</filter>
</defs>
</svg>
