<svg width="469" height="471" viewBox="0 0 469 471" fill="none" xmlns="http://www.w3.org/2000/svg">
<g clip-path="url(#clip0_436_4159)">
<path d="M430.311 303.797H235.232C233.555 303.794 231.948 303.113 230.762 301.902C229.576 300.692 228.909 299.051 228.906 297.34V7.23199C228.912 5.52226 229.581 3.88438 230.766 2.67645C231.951 1.46851 233.557 0.788791 235.232 0.785889H430.311C431.986 0.788791 433.592 1.46851 434.777 2.67645C435.963 3.88438 436.631 5.52226 436.637 7.23199V297.34C436.634 299.051 435.967 300.692 434.781 301.902C433.595 303.113 431.988 303.794 430.311 303.797ZM235.232 1.06136C234.434 1.05555 233.643 1.21079 232.904 1.51816C232.165 1.82552 231.493 2.27895 230.926 2.85239C230.359 3.42582 229.909 4.10793 229.601 4.85954C229.293 5.61114 229.134 6.41741 229.133 7.23199V297.34C229.133 298.979 229.771 300.552 230.907 301.711C232.042 302.87 233.583 303.521 235.189 303.521H430.311C431.917 303.521 433.458 302.87 434.594 301.711C435.729 300.552 436.367 298.979 436.367 297.34V7.23199C436.367 5.59252 435.729 4.02019 434.594 2.86091C433.458 1.70163 431.917 1.05034 430.311 1.05034L235.232 1.06136Z" fill="#E0E0E0"/>
<path d="M205.31 303.797H10.1873C8.51041 303.795 6.90304 303.113 5.71731 301.903C4.53158 300.693 3.86418 299.052 3.86133 297.34V7.23252C3.86418 5.52087 4.53158 3.88017 5.71731 2.66986C6.90304 1.45954 8.51041 0.778304 10.1873 0.775391H205.31C206.986 0.778304 208.594 1.45954 209.779 2.66986C210.965 3.88017 211.633 5.52087 211.635 7.23252V297.34C211.633 299.052 210.965 300.693 209.779 301.903C208.594 303.113 206.986 303.795 205.31 303.797ZM10.1873 1.06189C8.58298 1.06188 7.04423 1.71165 5.9088 2.86855C4.77338 4.02546 4.13407 5.59495 4.13121 7.23252V297.34C4.13121 298.98 4.76926 300.552 5.90499 301.711C7.04072 302.871 8.58111 303.522 10.1873 303.522H205.31C206.916 303.522 208.456 302.871 209.592 301.711C210.728 300.552 211.366 298.98 211.366 297.34V7.23252C211.366 5.59304 210.728 4.02072 209.592 2.86143C208.456 1.70215 206.916 1.05087 205.31 1.05087L10.1873 1.06189Z" fill="#E0E0E0"/>
<path d="M490.851 371.09H-48.9062V371.366H490.851V371.09Z" fill="#E0E0E0"/>
<path d="M190.4 217.982V30.3284L115.331 30.3284L115.331 217.982H190.4Z" fill="#E0E0E0"/>
<path d="M186.276 34.5266H119.443V213.761H186.276V34.5266Z" fill="#F0F0F0"/>
<path d="M186.276 34.5266V43.6393L119.443 111.847V93.5994L177.327 34.5266H186.276Z" fill="#FAFAFA"/>
<path d="M186.276 90.7563V117.466L119.443 185.674V158.975L186.276 90.7563Z" fill="#FAFAFA"/>
<path d="M156.494 30.3174H151.518V217.971H156.494V30.3174Z" fill="#E0E0E0"/>
<path d="M320.709 217.971V30.3174L245.64 30.3174V217.971H320.709Z" fill="#E0E0E0"/>
<path d="M316.596 34.5266H249.764V213.761H316.596V34.5266Z" fill="#F0F0F0"/>
<path d="M316.596 34.5266V43.6393L249.764 111.847V93.5994L307.647 34.5266H316.596Z" fill="#FAFAFA"/>
<path d="M316.596 90.7563V117.466L249.764 185.674V158.975L316.596 90.7563Z" fill="#FAFAFA"/>
<path d="M286.799 30.3174H281.822V217.971H286.799V30.3174Z" fill="#E0E0E0"/>
<path d="M60.3066 73.4569C72.5108 73.4569 82.4043 63.3583 82.4043 50.9011C82.4043 38.4438 72.5108 28.3452 60.3066 28.3452C48.1024 28.3452 38.209 38.4438 38.209 50.9011C38.209 63.3583 48.1024 73.4569 60.3066 73.4569Z" fill="#E0E0E0"/>
<path d="M80.1476 55.5971C82.6885 44.4165 75.8687 33.2504 64.9153 30.6568C53.9618 28.0632 43.0224 35.0244 40.4816 46.205C37.9407 57.3856 44.7604 68.5517 55.7139 71.1453C66.6673 73.7389 77.6067 66.7777 80.1476 55.5971Z" fill="#FAFAFA"/>
<path d="M60.3719 32.0034H59.6055V36.3339H60.3719V32.0034Z" fill="#E0E0E0"/>
<path d="M60.3719 65.3467H59.6055V69.6771H60.3719V65.3467Z" fill="#E0E0E0"/>
<path d="M45.7659 50.4487H41.5234V51.2311H45.7659V50.4487Z" fill="#E0E0E0"/>
<path d="M78.4319 50.4487H74.1895V51.2311H78.4319V50.4487Z" fill="#E0E0E0"/>
<path d="M72.7636 37.2546L69.7637 40.3167L70.3056 40.8699L73.3055 37.8078L72.7636 37.2546Z" fill="#E0E0E0"/>
<path d="M49.6707 60.8079L46.6719 63.8711L47.214 64.4241L50.2129 61.3609L49.6707 60.8079Z" fill="#E0E0E0"/>
<path d="M47.204 37.2475L46.6621 37.8008L49.6625 40.8623L50.2044 40.309L47.204 37.2475Z" fill="#E0E0E0"/>
<path d="M70.2979 60.8404L69.7559 61.3936L72.7552 64.4562L73.2973 63.9031L70.2979 60.8404Z" fill="#E0E0E0"/>
<path d="M59.8349 50.3262L59.5977 50.9414L66.7997 53.8357L67.037 53.2205L59.8349 50.3262Z" fill="#E0E0E0"/>
<path d="M60.3083 51.1763H48.4336V50.5042H59.6605V41.105H60.3083V51.1763Z" fill="#E0E0E0"/>
<path d="M337.796 55.7489L337.148 54.7021L374.921 30.4053L411.775 55.2421L411.106 56.2778L374.91 31.8818L337.796 55.7489Z" fill="#E6E6E6"/>
<path d="M412.584 54.7573H336.5V103.329H412.584V54.7573Z" fill="#E0E0E0"/>
<path d="M410.469 101.191V56.917L338.605 56.917V101.191H410.469Z" fill="white"/>
<path d="M348.818 70.79H344.23V75.4731H348.818V70.79Z" fill="#F5F5F5"/>
<path d="M355.9 70.79H351.312V75.4731H355.9V70.79Z" fill="#F5F5F5"/>
<path d="M362.971 70.79H358.383V75.4731H362.971V70.79Z" fill="#F5F5F5"/>
<path d="M370.053 70.79H365.465V75.4731H370.053V70.79Z" fill="#F5F5F5"/>
<path d="M377.135 70.79H372.547V75.4731H377.135V70.79Z" fill="#F5F5F5"/>
<path d="M384.219 70.79H379.631V75.4731H384.219V70.79Z" fill="#F5F5F5"/>
<path d="M391.287 70.79H386.699V75.4731H391.287V70.79Z" fill="#F5F5F5"/>
<path d="M398.369 70.79H393.781V75.4731H398.369V70.79Z" fill="#F5F5F5"/>
<path d="M405.451 70.79H400.863V75.4731H405.451V70.79Z" fill="#F5F5F5"/>
<path d="M348.818 77.2473H344.23V81.9304H348.818V77.2473Z" fill="#F5F5F5"/>
<path d="M355.9 77.2473H351.312V81.9304H355.9V77.2473Z" fill="#F5F5F5"/>
<path d="M362.971 77.2473H358.383V81.9304H362.971V77.2473Z" fill="#F5F5F5"/>
<path d="M370.053 77.2473H365.465V81.9304H370.053V77.2473Z" fill="#F5F5F5"/>
<path d="M377.135 77.2471H372.547V81.9301H377.135V77.2471Z" fill="#F5F5F5"/>
<path d="M384.219 77.2473H379.631V81.9304H384.219V77.2473Z" fill="#F5F5F5"/>
<path d="M391.287 77.2473H386.699V81.9304H391.287V77.2473Z" fill="#F5F5F5"/>
<path d="M398.369 77.2471H393.781V81.9301H398.369V77.2471Z" fill="#F5F5F5"/>
<path d="M405.451 77.2473H400.863V81.9304H405.451V77.2473Z" fill="#F5F5F5"/>
<path d="M348.818 83.6934H344.23V88.3764H348.818V83.6934Z" fill="#F5F5F5"/>
<path d="M355.9 83.6934H351.312V88.3764H355.9V83.6934Z" fill="#F5F5F5"/>
<path d="M362.971 83.6934H358.383V88.3764H362.971V83.6934Z" fill="#F5F5F5"/>
<path d="M370.053 83.6934H365.465V88.3764H370.053V83.6934Z" fill="#F5F5F5"/>
<path d="M377.135 83.6934H372.547V88.3764H377.135V83.6934Z" fill="#F5F5F5"/>
<path d="M384.219 83.6934H379.631V88.3764H384.219V83.6934Z" fill="#F5F5F5"/>
<path d="M391.287 83.6934H386.699V88.3764H391.287V83.6934Z" fill="#F5F5F5"/>
<path d="M398.369 83.6934H393.781V88.3764H398.369V83.6934Z" fill="#F5F5F5"/>
<path d="M405.451 83.6934H400.863V88.3764H405.451V83.6934Z" fill="#F5F5F5"/>
<path d="M348.818 90.6353H344.23V95.3183H348.818V90.6353Z" fill="#F5F5F5"/>
<path d="M355.9 90.635H351.312V95.3181H355.9V90.635Z" fill="#F5F5F5"/>
<path d="M362.971 90.635H358.383V95.3181H362.971V90.635Z" fill="#F5F5F5"/>
<path d="M370.053 90.6353H365.465V95.3183H370.053V90.6353Z" fill="#F5F5F5"/>
<path d="M395.269 61.2476H354.42V65.3025H395.269V61.2476Z" fill="#E0E0E0"/>
<path d="M377.351 30.8461C377.351 31.3125 377.215 31.7684 376.961 32.1562C376.708 32.5439 376.347 32.8462 375.925 33.0247C375.503 33.2031 375.038 33.2498 374.59 33.1588C374.142 33.0679 373.73 32.8433 373.407 32.5135C373.084 32.1837 372.864 31.7636 372.775 31.3061C372.686 30.8487 372.731 30.3746 372.906 29.9437C373.081 29.5128 373.377 29.1446 373.757 28.8854C374.137 28.6263 374.584 28.488 375.041 28.488C375.653 28.488 376.241 28.7365 376.674 29.1787C377.107 29.6209 377.351 30.2207 377.351 30.8461Z" fill="#E0E0E0"/>
<path d="M451.407 419.827C451.407 423.552 350.45 426.582 225.928 426.582C101.406 426.582 0.439453 423.552 0.439453 419.827C0.439453 416.103 101.374 413.062 225.928 413.062C350.483 413.062 451.407 416.092 451.407 419.827Z" fill="#F5F5F5"/>
<path d="M29.8787 179.129L33.0201 178.203L31.023 171.085L27.3851 172.187C26.3491 170.983 25.0462 170.05 23.5852 169.465V165.719H16.3308V169.465C15.192 169.914 14.145 170.575 13.2434 171.415L10.0049 169.829L6.82031 176.44L10.0049 178.027C10.0049 178.302 10.0049 178.567 10.0049 178.842C10.0067 180.571 10.4415 182.27 11.2679 183.779L8.89298 186.842L14.5604 191.47L16.8814 188.495C17.8754 188.823 18.9134 188.99 19.958 188.991C20.7212 188.993 21.482 188.904 22.225 188.726L24.3192 191.734L30.235 187.448L28.1947 184.506C29.2545 182.918 29.8396 181.05 29.8787 179.129ZM13.4269 178.864C13.4269 177.557 13.8068 176.278 14.5185 175.191C15.2302 174.104 16.2418 173.256 17.4254 172.756C18.6089 172.256 19.9112 172.125 21.1676 172.38C22.4241 172.635 23.5782 173.265 24.484 174.189C25.3899 175.114 26.0067 176.292 26.2567 177.574C26.5066 178.857 26.3783 180.186 25.8881 181.394C25.3978 182.602 24.5676 183.635 23.5025 184.361C22.4373 185.088 21.1851 185.476 19.904 185.476C18.197 185.458 16.5641 184.761 15.3539 183.532C14.1437 182.303 13.4522 180.64 13.4269 178.897V178.864Z" fill="#407BFF"/>
<path opacity="0.6" d="M29.8787 179.129L33.0201 178.203L31.023 171.085L27.3851 172.187C26.3491 170.983 25.0462 170.05 23.5852 169.465V165.719H16.3308V169.465C15.192 169.914 14.145 170.575 13.2434 171.415L10.0049 169.829L6.82031 176.44L10.0049 178.027C10.0049 178.302 10.0049 178.567 10.0049 178.842C10.0067 180.571 10.4415 182.27 11.2679 183.779L8.89298 186.842L14.5604 191.47L16.8814 188.495C17.8754 188.823 18.9134 188.99 19.958 188.991C20.7212 188.993 21.482 188.904 22.225 188.726L24.3192 191.734L30.235 187.448L28.1947 184.506C29.2545 182.918 29.8396 181.05 29.8787 179.129ZM13.4269 178.864C13.4269 177.557 13.8068 176.278 14.5185 175.191C15.2302 174.104 16.2418 173.256 17.4254 172.756C18.6089 172.256 19.9112 172.125 21.1676 172.38C22.4241 172.635 23.5782 173.265 24.484 174.189C25.3899 175.114 26.0067 176.292 26.2567 177.574C26.5066 178.857 26.3783 180.186 25.8881 181.394C25.3978 182.602 24.5676 183.635 23.5025 184.361C22.4373 185.088 21.1851 185.476 19.904 185.476C18.197 185.458 16.5641 184.761 15.3539 183.532C14.1437 182.303 13.4522 180.64 13.4269 178.897V178.864Z" fill="white"/>
<path d="M446.301 62.8232L449.442 61.8976L447.445 54.7793L443.818 55.8812C442.774 54.6841 441.469 53.7554 440.007 53.1705V49.4241H432.785V53.1705C431.645 53.6227 430.598 54.2879 429.698 55.1319L426.481 53.5121L423.242 60.1235L426.481 61.7102C426.481 61.9857 426.481 62.2502 426.481 62.5256C426.483 64.2541 426.917 65.9535 427.744 67.4622L425.358 70.5144L431.025 75.1424L433.346 72.1672C434.34 72.4951 435.378 72.6624 436.423 72.6631C437.19 72.6654 437.954 72.5766 438.701 72.3987L440.784 75.4068L446.7 71.1094L444.66 68.2004C445.704 66.6075 446.274 64.7398 446.301 62.8232ZM429.86 62.5587C429.86 61.2511 430.239 59.9728 430.951 58.8856C431.663 57.7984 432.674 56.951 433.858 56.4506C435.042 55.9502 436.344 55.8192 437.6 56.0743C438.857 56.3294 440.011 56.9591 440.917 57.8837C441.823 58.8084 442.439 59.9864 442.689 61.2689C442.939 62.5514 442.811 63.8807 442.321 65.0888C441.831 66.2968 441 67.3294 439.935 68.0559C438.87 68.7823 437.618 69.1701 436.337 69.1701C434.619 69.1701 432.971 68.4735 431.757 67.2337C430.542 65.9938 429.86 64.3122 429.86 62.5587Z" fill="#407BFF"/>
<path opacity="0.6" d="M446.301 62.8232L449.442 61.8976L447.445 54.7793L443.818 55.8812C442.774 54.6841 441.469 53.7554 440.007 53.1705V49.4241H432.785V53.1705C431.645 53.6227 430.598 54.2879 429.698 55.1319L426.481 53.5121L423.242 60.1235L426.481 61.7102C426.481 61.9857 426.481 62.2502 426.481 62.5256C426.483 64.2541 426.917 65.9535 427.744 67.4622L425.358 70.5144L431.025 75.1424L433.346 72.1672C434.34 72.4951 435.378 72.6624 436.423 72.6631C437.19 72.6654 437.954 72.5766 438.701 72.3987L440.784 75.4068L446.7 71.1094L444.66 68.2004C445.704 66.6075 446.274 64.7398 446.301 62.8232ZM429.86 62.5587C429.86 61.2511 430.239 59.9728 430.951 58.8856C431.663 57.7984 432.674 56.951 433.858 56.4506C435.042 55.9502 436.344 55.8192 437.6 56.0743C438.857 56.3294 440.011 56.9591 440.917 57.8837C441.823 58.8084 442.439 59.9864 442.689 61.2689C442.939 62.5514 442.811 63.8807 442.321 65.0888C441.831 66.2968 441 67.3294 439.935 68.0559C438.87 68.7823 437.618 69.1701 436.337 69.1701C434.619 69.1701 432.971 68.4735 431.757 67.2337C430.542 65.9938 429.86 64.3122 429.86 62.5587Z" fill="white"/>
<path d="M55.6781 140.628C53.7927 140.629 51.9169 140.355 50.1078 139.813C50.0566 139.799 50.0088 139.775 49.9672 139.741C49.9256 139.708 49.8911 139.666 49.8658 139.619C49.8405 139.571 49.825 139.519 49.8202 139.465C49.8154 139.411 49.8214 139.357 49.8379 139.306C49.8516 139.254 49.8754 139.204 49.9079 139.162C49.9405 139.119 49.981 139.083 50.0273 139.056C50.0735 139.03 50.1245 139.013 50.1772 139.006C50.23 139 50.2834 139.004 50.3345 139.019C52.0664 139.539 53.8622 139.802 55.6673 139.802C55.7793 139.801 55.8872 139.845 55.9693 139.922C56.0515 140 56.1017 140.107 56.1099 140.221C56.1143 140.271 56.1085 140.323 56.0927 140.371C56.0769 140.42 56.0516 140.465 56.0182 140.503C55.9848 140.541 55.9441 140.572 55.8986 140.594C55.8531 140.615 55.8038 140.627 55.7536 140.628V140.221L55.6781 140.628ZM61.1944 139.813C61.107 139.812 61.0222 139.783 60.9523 139.729C60.8824 139.676 60.8311 139.601 60.8058 139.515C60.7893 139.464 60.7833 139.41 60.7881 139.356C60.7929 139.302 60.8084 139.25 60.8337 139.202C60.8589 139.155 60.8934 139.113 60.935 139.08C60.9766 139.047 61.0245 139.022 61.0757 139.008C62.8051 138.478 64.4517 137.699 65.9659 136.694C66.0564 136.636 66.1658 136.616 66.2707 136.638C66.3757 136.661 66.4677 136.725 66.5272 136.816C66.5847 136.908 66.6045 137.02 66.5823 137.127C66.5601 137.234 66.4977 137.328 66.4085 137.389C64.8313 138.434 63.1154 139.243 61.3131 139.791L61.1944 139.813ZM45.2392 137.499C45.1624 137.499 45.0873 137.476 45.0233 137.433C43.4397 136.39 42.0079 135.125 40.77 133.675C40.6955 133.597 40.6538 133.492 40.6538 133.383C40.6538 133.274 40.6955 133.169 40.77 133.091C40.8072 133.052 40.8517 133.021 40.9008 133C40.9499 132.979 41.0027 132.968 41.0561 132.968C41.1094 132.968 41.1622 132.979 41.2113 133C41.2604 133.021 41.3049 133.052 41.3421 133.091C42.5292 134.478 43.8988 135.691 45.4119 136.694C45.4577 136.722 45.4977 136.758 45.5292 136.801C45.5608 136.845 45.5834 136.894 45.5955 136.947C45.6076 137 45.6091 137.054 45.5998 137.107C45.5905 137.161 45.5706 137.211 45.5414 137.256C45.5143 137.319 45.4725 137.374 45.4198 137.416C45.3672 137.458 45.3051 137.487 45.2392 137.499ZM70.3595 133.752C70.2608 133.754 70.1649 133.718 70.0896 133.653C70.0151 133.575 69.9734 133.47 69.9734 133.361C69.9734 133.252 70.0151 133.147 70.0896 133.069C71.2707 131.677 72.2488 130.118 72.9935 128.441C73.0441 128.351 73.1258 128.283 73.2227 128.251C73.3196 128.219 73.4248 128.224 73.5178 128.267C73.6108 128.31 73.6849 128.386 73.7256 128.481C73.7664 128.577 73.7709 128.684 73.7384 128.783C72.9567 130.53 71.9353 132.155 70.7049 133.609C70.6625 133.665 70.6058 133.708 70.5411 133.733C70.4764 133.759 70.4061 133.765 70.3379 133.752H70.3595ZM38.0928 129.091C38.0151 129.092 37.9391 129.069 37.8739 129.026C37.8087 128.983 37.7572 128.921 37.7258 128.849C36.9378 127.101 36.4032 125.245 36.1389 123.339C36.1313 123.286 36.1342 123.231 36.1476 123.179C36.1609 123.126 36.1843 123.077 36.2165 123.034C36.2486 122.991 36.2889 122.955 36.3349 122.928C36.3809 122.901 36.4317 122.883 36.4843 122.877C36.5362 122.867 36.5894 122.869 36.6408 122.881C36.6921 122.893 36.7404 122.916 36.7829 122.948C36.8253 122.98 36.8609 123.02 36.8875 123.067C36.9141 123.113 36.9312 123.165 36.9377 123.218C37.1934 125.043 37.7061 126.821 38.4598 128.496C38.4834 128.545 38.497 128.599 38.5 128.653C38.5029 128.708 38.4951 128.762 38.4769 128.814C38.4588 128.865 38.4308 128.912 38.3944 128.952C38.3581 128.993 38.3143 129.025 38.2655 129.047C38.2044 129.075 38.1383 129.09 38.0712 129.091H38.0928ZM74.8611 123.582C74.7538 123.565 74.6573 123.506 74.5925 123.418C74.5278 123.329 74.5002 123.218 74.5156 123.108C74.7756 121.281 74.7756 119.425 74.5156 117.599C74.508 117.545 74.511 117.49 74.5243 117.438C74.5376 117.385 74.5611 117.336 74.5932 117.293C74.6254 117.25 74.6656 117.214 74.7116 117.187C74.7576 117.16 74.8084 117.142 74.8611 117.136C74.9655 117.12 75.0719 117.147 75.1568 117.211C75.2418 117.275 75.2985 117.371 75.3144 117.477C75.5872 119.381 75.5872 121.315 75.3144 123.218C75.3136 123.278 75.3002 123.338 75.2749 123.392C75.2497 123.446 75.2133 123.494 75.1683 123.533C75.1232 123.572 75.0705 123.6 75.0138 123.616C74.9571 123.632 74.8976 123.635 74.8395 123.626L74.8611 123.582ZM36.5275 118.072C36.4224 118.056 36.3276 117.999 36.2632 117.912C36.1987 117.826 36.1696 117.717 36.182 117.61C36.4493 115.705 36.9838 113.849 37.7689 112.1C37.79 112.051 37.8205 112.006 37.8585 111.969C37.8966 111.932 37.9415 111.902 37.9907 111.883C38.0399 111.863 38.0923 111.854 38.1451 111.855C38.1978 111.857 38.2497 111.869 38.2979 111.891C38.3944 111.939 38.4694 112.022 38.5076 112.125C38.5457 112.227 38.5441 112.34 38.503 112.442C37.7476 114.116 37.2384 115.894 36.9917 117.72C36.9853 117.777 36.9673 117.833 36.9389 117.882C36.9105 117.932 36.8723 117.976 36.8267 118.01C36.7811 118.044 36.729 118.068 36.6738 118.081C36.6186 118.094 36.5614 118.094 36.5059 118.083L36.5275 118.072ZM73.231 112.618C73.1539 112.616 73.079 112.592 73.0142 112.549C72.9495 112.506 72.8975 112.446 72.8639 112.376C72.1101 110.699 71.121 109.144 69.9277 107.759C69.8532 107.68 69.8115 107.576 69.8115 107.467C69.8115 107.357 69.8532 107.253 69.9277 107.175C69.9649 107.136 70.0094 107.105 70.0585 107.083C70.1076 107.062 70.1604 107.051 70.2137 107.051C70.2671 107.051 70.3199 107.062 70.369 107.083C70.4181 107.105 70.4626 107.136 70.4998 107.175C71.7389 108.618 72.7679 110.236 73.5548 111.979C73.5994 112.078 73.604 112.192 73.5677 112.295C73.5314 112.398 73.457 112.482 73.3605 112.53C73.3461 112.565 73.328 112.598 73.3066 112.629L73.231 112.618ZM41.0291 107.968C40.9341 107.967 40.8425 107.931 40.77 107.869C40.7318 107.831 40.7014 107.785 40.6807 107.735C40.66 107.685 40.6493 107.631 40.6493 107.577C40.6493 107.522 40.66 107.468 40.6807 107.418C40.7014 107.368 40.7318 107.323 40.77 107.285C42.0013 105.829 43.4298 104.56 45.0125 103.516C45.103 103.458 45.2124 103.437 45.3174 103.46C45.4223 103.483 45.5143 103.546 45.5738 103.637C45.6032 103.683 45.6233 103.735 45.6327 103.789C45.6421 103.843 45.6407 103.899 45.6286 103.952C45.6165 104.006 45.594 104.056 45.5623 104.101C45.5306 104.145 45.4905 104.182 45.4443 104.21C43.9297 105.212 42.5629 106.429 41.3853 107.825C41.3424 107.877 41.2873 107.918 41.2251 107.943C41.1629 107.968 41.0954 107.976 41.0291 107.968ZM66.0954 104.199C66.0164 104.202 65.9381 104.183 65.8687 104.144C64.3532 103.143 62.7019 102.375 60.9677 101.863C60.8652 101.83 60.7795 101.758 60.7291 101.661C60.6786 101.564 60.6674 101.451 60.6978 101.346C60.7114 101.293 60.7352 101.244 60.7679 101.202C60.8006 101.16 60.8414 101.124 60.8879 101.099C60.9344 101.073 60.9856 101.057 61.0383 101.052C61.091 101.047 61.1441 101.053 61.1944 101.07C63.0029 101.604 64.7264 102.402 66.3113 103.439C66.4005 103.5 66.4629 103.594 66.4851 103.701C66.5073 103.808 66.4876 103.92 66.43 104.012C66.394 104.069 66.3445 104.117 66.2861 104.149C66.2276 104.182 66.1621 104.199 66.0954 104.199ZM50.1834 101.896C50.0839 101.901 49.9865 101.867 49.9101 101.802C49.8337 101.737 49.7838 101.645 49.7703 101.544C49.7568 101.444 49.7806 101.342 49.837 101.258C49.8935 101.174 49.9785 101.115 50.0754 101.092C51.879 100.541 53.7521 100.262 55.6349 100.266C55.7309 100.282 55.8182 100.332 55.8812 100.408C55.9442 100.483 55.9788 100.58 55.9788 100.679C55.9788 100.778 55.9442 100.874 55.8812 100.95C55.8182 101.026 55.7309 101.076 55.6349 101.092C53.8289 101.09 52.0323 101.357 50.3021 101.885L50.1834 101.896Z" fill="#407BFF"/>
<path d="M55.6679 136.915C64.5692 136.915 71.7851 129.549 71.7851 120.464C71.7851 111.378 64.5692 104.012 55.6679 104.012C46.7667 104.012 39.5508 111.378 39.5508 120.464C39.5508 129.549 46.7667 136.915 55.6679 136.915Z" fill="#407BFF"/>
<path d="M52.8718 127.604C52.7267 127.599 52.584 127.564 52.4523 127.502C52.3206 127.439 52.2026 127.35 52.1054 127.24L47.2476 121.731C47.0752 121.512 46.9914 121.234 47.0132 120.954C47.0349 120.673 47.1607 120.412 47.3647 120.224C47.5688 120.035 47.8357 119.933 48.1109 119.939C48.3861 119.945 48.6488 120.057 48.8453 120.254L52.9582 124.904L63.3539 114.678C63.4543 114.575 63.5737 114.493 63.7052 114.437C63.8368 114.381 63.9779 114.353 64.1204 114.353C64.2629 114.353 64.404 114.381 64.5355 114.437C64.6671 114.493 64.7865 114.575 64.8868 114.678C65.0879 114.885 65.2008 115.164 65.2008 115.455C65.2008 115.746 65.0879 116.026 64.8868 116.232L53.6167 127.339C53.41 127.52 53.1439 127.615 52.8718 127.604Z" fill="white"/>
<path d="M169.706 152.011C169.706 152.011 136.889 168.903 127.012 211.205C119.811 242.058 121.992 300.282 134.968 304.954C147.943 309.626 149.39 273.572 149.498 260.757C149.606 247.942 161.373 232.295 171.855 231.358C171.855 231.358 173.906 163.702 169.706 152.011Z" fill="#407BFF"/>
<path opacity="0.2" d="M174.618 160.396C166.857 163.415 160.477 169.211 155.306 175.69C149.8 182.821 145.272 190.684 141.844 199.062C138.043 208.012 135.272 217.382 133.586 226.984C132.01 237.1 131.241 247.33 131.287 257.572C131.114 270.101 130.812 283.148 135.605 294.96C135.788 295.434 136.555 295.224 136.36 294.75C132.215 284.459 131.967 273.219 132.042 262.256C132.129 251.909 132.28 241.518 133.715 231.259C136.285 213.034 142.794 194.599 153.384 179.591C158.879 171.812 165.928 164.638 174.845 161.167C175.32 160.98 175.115 160.209 174.64 160.396H174.618Z" fill="black"/>
<path d="M282.139 152.01C282.139 152.01 314.957 168.903 324.834 211.204C332.034 242.058 329.854 300.282 316.878 304.954C303.902 309.626 302.456 273.572 302.348 260.757C302.24 247.942 290.473 232.295 279.991 231.358C279.991 231.358 277.94 163.702 282.139 152.01Z" fill="#407BFF"/>
<path opacity="0.2" d="M277.02 161.156C284.825 164.198 291.205 170.104 296.343 176.704C301.715 183.782 306.13 191.565 309.47 199.844C313.213 208.75 315.933 218.068 317.577 227.612C319.294 237.661 319.639 247.876 319.736 258.057C319.898 270.365 320.157 283.137 315.483 294.74C315.299 295.213 316.055 295.423 316.239 294.949C320.438 284.525 320.654 273.109 320.557 262.002C320.47 251.523 320.287 241 318.797 230.609C317.358 220.716 314.763 211.035 311.068 201.772C307.856 193.404 303.608 185.491 298.427 178.225C292.953 170.655 285.969 163.801 277.225 160.396C276.75 160.209 276.545 160.98 277.02 161.167V161.156Z" fill="black"/>
<path d="M270.858 280.569H180.179C180.179 280.569 163.576 215.447 170.085 142.424C171.841 123.074 176.653 104.141 184.335 86.3595C184.443 86.084 184.562 85.8086 184.68 85.5441C186.58 81.1365 188.577 76.9823 190.628 73.0265C198.683 57.4627 208.728 43.0599 220.499 30.1957C221.172 29.4114 222.002 28.783 222.933 28.3525C223.864 27.9219 224.874 27.6992 225.896 27.6992C226.918 27.6992 227.928 27.9219 228.859 28.3525C229.79 28.783 230.62 29.4114 231.294 30.1957C243.44 43.4719 253.748 58.3832 261.93 74.5141C263.981 78.5581 265.979 82.8224 267.868 87.2961L268.202 88.0895C275.447 105.374 280.007 123.706 281.718 142.424C288.216 215.491 270.858 280.569 270.858 280.569Z" fill="#407BFF"/>
<g opacity="0.5">
<path d="M270.858 280.569H180.179C180.179 280.569 163.576 215.447 170.085 142.424C171.841 123.074 176.653 104.141 184.335 86.3595C184.443 86.084 184.562 85.8086 184.68 85.5441C186.58 81.1365 188.577 76.9823 190.628 73.0265C198.683 57.4627 208.728 43.0599 220.499 30.1957C221.172 29.4114 222.002 28.783 222.933 28.3525C223.864 27.9219 224.874 27.6992 225.896 27.6992C226.918 27.6992 227.928 27.9219 228.859 28.3525C229.79 28.783 230.62 29.4114 231.294 30.1957C243.44 43.4719 253.748 58.3832 261.93 74.5141C263.981 78.5581 265.979 82.8224 267.868 87.2961L268.202 88.0895C275.447 105.374 280.007 123.706 281.718 142.424C288.216 215.491 270.858 280.569 270.858 280.569Z" fill="white"/>
</g>
<path d="M260.829 271.291H192.83V272.349H260.829V271.291Z" fill="#407BFF"/>
<path d="M272.919 305.362H181.257C174.726 295.764 181.635 280.569 181.635 280.569H271.062C271.062 280.569 277.938 292.965 272.919 305.362Z" fill="#263238"/>
<path d="M249.762 314.067H203.926C200.687 309.263 204.12 301.671 204.12 301.671H248.834C248.834 301.671 252.266 307.863 249.762 314.067Z" fill="#263238"/>
<path d="M249.785 314.067H204.078C194.827 319.081 171.812 331.047 175.028 351.322H280.011C283.228 331.047 259.036 319.07 249.785 314.067Z" fill="#407BFF"/>
<path d="M283.174 347.036H171.088V355.862H283.174V347.036Z" fill="#263238"/>
<path d="M261.93 74.5142C253.661 80.5526 241.009 87.3182 225.896 87.3182C212.79 87.2418 200.193 82.1271 190.617 72.9936C191.481 71.326 192.352 69.7026 193.23 68.1232L193.651 67.3849C201.136 53.9466 210.143 41.4534 220.487 30.1628C221.161 29.3785 221.991 28.75 222.922 28.3195C223.853 27.889 224.863 27.6663 225.885 27.6663C226.907 27.6663 227.917 27.889 228.848 28.3195C229.779 28.75 230.609 29.3785 231.282 30.1628C241.658 41.4785 250.688 54.0057 258.184 67.4841L258.605 68.2444C259.735 70.2792 260.843 72.3692 261.93 74.5142Z" fill="#407BFF"/>
<path opacity="0.2" d="M258.615 68.2774C255.961 70.2218 253.147 71.9287 250.205 73.3792C239.838 78.4912 228.174 80.2003 216.816 78.2717C208.302 76.7738 200.235 73.3144 193.229 68.1562L193.65 67.418C196.496 69.5258 199.532 71.3522 202.717 72.8724C213.069 77.8526 224.69 79.3941 235.945 77.28C243.97 75.7277 251.565 72.399 258.194 67.5282L258.615 68.2774Z" fill="black"/>
<path d="M269.356 154.082C265.2 111.24 261.951 94.0949 261.573 92.2107C263.138 91.3402 264.606 90.4586 265.891 89.5992C266.679 89.1033 267.435 88.5964 268.158 88.0896L267.823 87.2962C267.057 87.8251 266.269 88.3981 265.448 88.8829C256.812 94.4475 242.94 101.092 226.23 101.092C213.059 101.1 200.205 96.976 189.407 89.2796C187.626 88.0235 186.039 86.7563 184.625 85.5442C184.506 85.8086 184.388 86.0841 184.28 86.3596C185.651 87.5276 187.194 88.7397 188.9 89.9628C189.979 90.7341 191.199 91.5385 192.484 92.3319C192.02 94.712 188.814 112.001 184.733 154.038C181.494 186.875 184.452 219.546 187.453 241.176C189.235 254.451 191.693 267.622 194.816 280.635C194.837 280.721 194.886 280.796 194.955 280.85C195.023 280.904 195.107 280.933 195.193 280.933H195.291C195.39 280.904 195.474 280.838 195.526 280.748C195.578 280.657 195.595 280.55 195.571 280.448C192.455 267.46 190.005 254.315 188.231 241.066C185.23 219.491 182.326 186.897 185.51 154.137C189.461 113.433 192.592 95.9681 193.196 92.7396C203.207 98.8025 214.633 102 226.273 101.996C238.364 101.84 250.23 98.6376 260.817 92.6735C261.357 95.4723 264.52 112.838 268.536 154.214C271.72 186.974 268.816 219.568 265.815 241.143C264.041 254.392 261.591 267.537 258.475 280.525C258.451 280.627 258.467 280.735 258.52 280.825C258.572 280.915 258.656 280.981 258.755 281.01H258.852C258.939 281.01 259.023 280.981 259.091 280.927C259.16 280.873 259.209 280.798 259.23 280.712C262.353 267.699 264.811 254.528 266.593 241.253C269.637 219.59 272.551 186.919 269.356 154.082Z" fill="#407BFF"/>
<path d="M226.272 199.557C220.33 199.56 214.52 197.763 209.577 194.394C204.635 191.025 200.783 186.236 198.508 180.632C196.232 175.028 195.637 168.861 196.796 162.912C197.954 156.962 200.816 151.497 205.018 147.208C209.22 142.918 214.574 139.997 220.403 138.815C226.232 137.632 232.273 138.24 237.764 140.562C243.254 142.885 247.946 146.817 251.246 151.862C254.546 156.906 256.307 162.837 256.305 168.903C256.296 177.03 253.129 184.822 247.499 190.569C241.869 196.316 234.235 199.549 226.272 199.557ZM226.272 139.041C220.486 139.041 214.83 140.793 210.019 144.074C205.208 147.355 201.459 152.019 199.244 157.475C197.03 162.932 196.451 168.936 197.58 174.728C198.709 180.521 201.495 185.842 205.586 190.018C209.678 194.194 214.89 197.038 220.565 198.19C226.24 199.343 232.122 198.751 237.468 196.491C242.813 194.231 247.382 190.404 250.597 185.493C253.812 180.582 255.527 174.809 255.527 168.903C255.519 160.986 252.434 153.395 246.949 147.797C241.465 142.199 234.029 139.05 226.272 139.041Z" fill="#407BFF"/>
<path d="M249.02 168.892C249.02 175.049 246.624 180.955 242.358 185.309C238.093 189.663 232.307 192.109 226.275 192.109H225.746C221.897 192.03 218.131 190.945 214.81 188.957C212.242 187.424 209.991 185.396 208.182 182.985C205.152 178.943 203.516 173.992 203.529 168.903C203.531 168.001 203.581 167.099 203.681 166.203C204.283 161.018 206.577 156.191 210.194 152.499C213.811 148.807 218.54 146.466 223.619 145.851C224.501 145.75 225.387 145.698 226.275 145.697C232.211 145.704 237.91 148.077 242.157 152.311C246.404 156.545 248.863 162.305 249.009 168.363C249.02 168.539 249.02 168.715 249.02 168.892Z" fill="#407BFF"/>
<path opacity="0.1" d="M240.06 150.479L208.182 183.018C205.152 178.976 203.516 174.025 203.529 168.936C203.531 168.034 203.581 167.132 203.681 166.236L223.619 145.884C224.501 145.783 225.387 145.731 226.275 145.73C231.256 145.724 236.101 147.393 240.06 150.479Z" fill="white"/>
<path opacity="0.1" d="M249.01 168.352L225.746 192.098C221.897 192.019 218.132 190.934 214.811 188.946L245.911 157.211C247.864 160.592 248.93 164.428 249.01 168.352Z" fill="white"/>
<path d="M220.834 372.446L216.851 378.715L206.854 394.461L202.601 401.15L191.234 419.045H186.797L198.348 394.461L202.601 385.404L205.278 379.696L208.689 372.446H220.834Z" fill="#407BFF"/>
<path opacity="0.2" d="M220.834 372.446L216.851 378.715L206.854 394.461L202.601 401.15L191.234 419.045H186.797L198.348 394.461L202.601 385.404L205.278 379.696L208.689 372.446H220.834Z" fill="black"/>
<path d="M268.364 372.446L267.08 374.473L254.384 394.461L250.131 401.15L238.764 419.045H234.338L245.878 394.461L250.131 385.404L254.784 375.509L256.22 372.446H268.364Z" fill="#407BFF"/>
<path opacity="0.2" d="M268.364 372.446L267.08 374.473L254.384 394.461L250.131 401.15L238.764 419.045H234.338L245.878 394.461L250.131 385.404L254.784 375.509L256.22 372.446H268.364Z" fill="black"/>
<path d="M272.94 355.862H178.807V372.446H272.94V355.862Z" fill="#407BFF"/>
<path opacity="0.2" d="M272.94 355.862H178.807V372.446H272.94V355.862Z" fill="white"/>
<path d="M218.404 419.045H213.967L202.6 401.15L198.347 394.461L189.808 381.007L184.367 372.446H196.512L200.128 380.126L202.6 385.404L206.853 394.461L218.404 419.045Z" fill="#407BFF"/>
<path d="M265.934 419.045H261.497L250.129 401.15L245.876 394.461L234.908 377.184L231.896 372.446H244.041L245.833 376.258L250.129 385.404L254.383 394.461L265.934 419.045Z" fill="#407BFF"/>
<path d="M375.128 149.223C371.56 156.651 367.495 163.819 362.962 170.677C362.12 171.9 361.278 173.09 360.415 174.214C356.01 179.999 351.39 184.23 347.73 183.228C327.36 177.652 314.492 160.088 314.492 160.088L318.314 155.68C318.314 155.68 342.883 165.454 344.805 165.267C346.726 165.079 358.839 134.138 358.839 134.138L375.128 149.223Z" fill="#407BFF"/>
<path opacity="0.2" d="M364.842 163.096L362.964 170.677C362.122 171.9 361.28 173.09 360.416 174.214C360.317 171.991 359.906 169.795 359.196 167.691C357.674 163.382 352.126 157.95 354.522 152.264C356.334 147.717 357.779 143.025 358.84 138.237L364.842 163.096Z" fill="black"/>
<path opacity="0.2" d="M354.597 180.153C352.82 178.738 350.58 178.072 348.337 178.291C346.094 178.511 344.019 179.599 342.538 181.332C342.193 181.718 341.642 181.145 341.977 180.759C343.581 178.899 345.816 177.728 348.232 177.483C350.647 177.237 353.064 177.936 354.996 179.437C355.395 179.746 354.996 180.44 354.597 180.131V180.153Z" fill="black"/>
<path d="M348.031 168.77L321.702 168.219C320.868 168.184 320.066 167.883 319.408 167.359C318.75 166.836 318.269 166.116 318.031 165.299L309.816 130.039C309.719 129.689 309.708 129.32 309.785 128.965C309.861 128.61 310.023 128.279 310.255 128.003C310.487 127.727 310.782 127.514 311.114 127.383C311.446 127.251 311.805 127.206 312.159 127.251L338.488 127.813C339.321 127.846 340.122 128.145 340.78 128.666C341.438 129.188 341.92 129.907 342.158 130.722L350.373 165.983C350.471 166.332 350.481 166.701 350.405 167.057C350.328 167.412 350.167 167.742 349.935 168.018C349.703 168.294 349.408 168.507 349.076 168.638C348.743 168.77 348.384 168.815 348.031 168.77Z" fill="#263238"/>
<path opacity="0.2" d="M348.031 168.77L321.702 168.219C320.868 168.184 320.066 167.883 319.408 167.359C318.75 166.836 318.269 166.116 318.031 165.299L309.816 130.039C309.719 129.689 309.708 129.32 309.785 128.965C309.861 128.61 310.023 128.279 310.255 128.003C310.487 127.727 310.782 127.514 311.114 127.383C311.446 127.251 311.805 127.206 312.159 127.251L338.488 127.813C339.321 127.846 340.122 128.145 340.78 128.666C341.438 129.188 341.92 129.907 342.158 130.722L350.373 165.983C350.471 166.332 350.481 166.701 350.405 167.057C350.328 167.412 350.167 167.742 349.935 168.018C349.703 168.294 349.408 168.507 349.076 168.638C348.743 168.77 348.384 168.815 348.031 168.77Z" fill="white"/>
<path d="M345.344 168.715L319.004 168.164C318.173 168.125 317.375 167.822 316.719 167.299C316.063 166.776 315.583 166.058 315.345 165.244L307.119 129.984C307.022 129.634 307.011 129.265 307.087 128.91C307.164 128.555 307.325 128.224 307.557 127.948C307.789 127.672 308.084 127.459 308.417 127.328C308.749 127.197 309.108 127.151 309.461 127.196L335.802 127.747C336.633 127.787 337.431 128.089 338.087 128.612C338.742 129.135 339.223 129.853 339.461 130.667L347.676 165.928C347.773 166.277 347.784 166.644 347.708 166.998C347.632 167.353 347.471 167.682 347.241 167.958C347.01 168.234 346.716 168.447 346.385 168.579C346.055 168.711 345.697 168.758 345.344 168.715Z" fill="#263238"/>
<path opacity="0.2" d="M322.512 148.914C322.794 149.943 323.386 150.856 324.203 151.524C325.02 152.192 326.022 152.582 327.067 152.639C327.514 152.685 327.964 152.618 328.38 152.444C328.795 152.271 329.162 151.995 329.448 151.642C329.734 151.289 329.93 150.87 330.019 150.421C330.109 149.972 330.089 149.508 329.96 149.069C329.681 148.039 329.093 147.124 328.277 146.454C327.462 145.783 326.461 145.392 325.416 145.333C324.968 145.29 324.518 145.359 324.103 145.534C323.688 145.709 323.321 145.986 323.035 146.339C322.748 146.692 322.551 147.111 322.46 147.56C322.368 148.009 322.386 148.474 322.512 148.914Z" fill="white"/>
<path d="M313.585 151.173C313.585 151.173 319.35 150.843 320.268 152.055C321.185 153.267 315.399 154.435 315.399 154.435C315.399 154.435 318.81 154.336 319.717 155.162C320.624 155.989 316.349 157.311 316.349 157.311C316.349 157.311 318.627 157.311 318.713 158.611C318.799 159.911 317.936 160.352 316.673 160.661C316.15 160.791 315.604 160.795 315.08 160.672C314.555 160.55 314.066 160.305 313.65 159.955C313.154 159.449 313.575 158.137 313.575 158.137C313.575 158.137 311.416 157.035 311.329 156.198C311.313 155.939 311.351 155.679 311.44 155.436C311.53 155.193 311.668 154.972 311.847 154.788C311.537 154.726 311.247 154.585 311.004 154.379C310.76 154.173 310.572 153.908 310.455 153.609C310.34 153.349 310.289 153.064 310.308 152.779C310.327 152.495 310.414 152.219 310.563 151.978C310.118 151.009 309.735 150.011 309.418 148.992C309.138 147.89 311.048 147.019 312.204 146.325C313.359 145.631 315.442 148.055 317.342 148.529C317.342 148.529 318.314 149.135 317.277 149.873C316.241 150.611 314.039 149.498 313.521 149.543C313.002 149.587 313.585 151.173 313.585 151.173Z" fill="#B55B52"/>
<path d="M362.615 82.525C362.615 82.525 355.458 85.423 357.218 91.252C358.978 97.0811 354.336 96.5411 353.785 102.194C353.234 107.847 362.637 109.588 360.079 114.645C357.52 119.703 353.602 121.169 356.171 126.094C358.74 131.02 362.173 136.661 362.173 140.309C362.173 148.947 378.366 127.659 390.834 131.163C403.302 134.667 406.573 122.182 401.478 119.295C396.383 116.408 389.776 112.166 391.708 104.618C393.641 97.0701 395.033 93.5991 389.366 89.6763C383.698 85.7536 386.807 85.1034 383.536 81.5002C380.589 78.2606 376.293 81.5994 371.662 80.2C367.031 78.8006 362.615 82.525 362.615 82.525Z" fill="#263238"/>
<path d="M364.862 110.172C364.923 110.704 365.137 111.206 365.478 111.614C365.818 112.022 366.27 112.318 366.775 112.464C367.28 112.61 367.816 112.6 368.316 112.436C368.816 112.271 369.256 111.958 369.582 111.538C369.908 111.118 370.104 110.608 370.146 110.074C370.189 109.54 370.075 109.005 369.819 108.537C369.563 108.068 369.178 107.688 368.71 107.444C368.243 107.199 367.715 107.102 367.194 107.164C366.847 107.205 366.511 107.315 366.207 107.488C365.902 107.662 365.633 107.895 365.417 108.174C365.2 108.454 365.04 108.774 364.945 109.117C364.849 109.459 364.821 109.818 364.862 110.172Z" fill="white"/>
<path d="M359.615 397.018L356.732 409.15H350.471L350.18 397.018H359.615Z" fill="#B55B52"/>
<path d="M332.281 417.733C332.627 413.778 334.322 412.599 336.427 412.466C338.532 412.334 346.412 409.657 346.412 409.657C346.412 409.657 348.042 407.144 349.489 406.637C350.935 406.13 352.306 407.618 352.306 407.618L356.246 407.133C356.246 407.133 357.423 405.326 358.233 406.902C359.485 409.359 359.312 416.147 359.215 417.733H332.281Z" fill="#407BFF"/>
<path d="M332.802 416.698H337.682L359.045 416.587C359.315 416.587 359.261 416.158 358.991 416.169H357.545C357.545 416.169 357.545 416.169 357.545 416.114C357.248 415.645 357.05 415.119 356.963 414.569C356.875 414.018 356.9 413.455 357.036 412.915C357.172 412.375 357.415 411.869 357.752 411.43C358.088 410.99 358.51 410.627 358.991 410.362C359.218 410.241 358.991 409.866 358.743 409.998C358.23 410.285 357.779 410.675 357.418 411.145C357.057 411.615 356.793 412.154 356.643 412.731C356.492 413.309 356.458 413.911 356.543 414.502C356.627 415.092 356.829 415.66 357.134 416.169H354.123L332.759 416.279C332.467 416.279 332.521 416.709 332.802 416.698Z" fill="black"/>
<path d="M347.601 411.364C346.522 410.031 344.87 409.657 343.683 410.659C343.488 410.825 343.24 410.461 343.424 410.296C344.784 409.194 346.662 409.646 347.925 411.155C348.109 411.376 347.785 411.585 347.601 411.364Z" fill="white"/>
<path d="M345.345 412.081C344.266 410.747 342.614 410.362 341.427 411.375C341.243 411.53 340.984 411.166 341.178 411.012C342.528 409.855 344.417 410.351 345.68 411.86C345.863 412.081 345.529 412.29 345.345 412.081Z" fill="white"/>
<path d="M343.111 412.786C342.032 411.452 340.38 411.078 339.192 412.081C338.998 412.246 338.75 411.871 338.933 411.717C340.294 410.56 342.172 411.067 343.435 412.565C343.619 412.797 343.295 413.006 343.111 412.786Z" fill="white"/>
<path d="M385.523 238.014C383.674 254.304 380.899 270.47 377.21 286.431C375.893 292.352 374.396 298.662 372.72 305.362C377.329 344.215 359.291 400.346 359.291 400.346L349.629 400.125C349.629 400.125 348.42 337.394 349.553 304.557C351.41 250.752 357.833 199.503 357.833 199.503L384.152 199.392C384.152 199.392 388.696 207.48 385.523 238.014Z" fill="#263238"/>
<path opacity="0.2" d="M385.522 238.014C383.674 254.304 380.898 270.47 377.21 286.431C371.672 264.911 381.69 218.984 381.69 218.984L385.522 238.014Z" fill="black"/>
<path d="M348.519 402.45L348.217 398.219H361.106L360.372 402.45H348.519Z" fill="#263238"/>
<path d="M399.677 397.018L396.784 409.15H390.523L390.242 397.018H399.677Z" fill="#B55B52"/>
<path d="M388.341 402.45L388.039 398.219H400.928L400.194 402.45H388.341Z" fill="#263238"/>
<path d="M372.332 417.733C372.667 413.778 374.372 412.599 376.477 412.466C378.582 412.334 386.463 409.657 386.463 409.657C386.463 409.657 388.093 407.144 389.529 406.637C390.964 406.13 392.357 407.618 392.357 407.618L396.286 407.133C396.286 407.133 397.463 405.326 398.284 406.902C399.536 409.359 399.363 416.147 399.266 417.733H372.332Z" fill="#407BFF"/>
<path d="M372.851 416.698H377.741L399.105 416.587C399.375 416.587 399.321 416.158 399.04 416.169H397.605V416.114C397.31 415.644 397.114 415.117 397.028 414.567C396.942 414.016 396.968 413.453 397.105 412.913C397.242 412.374 397.486 411.868 397.823 411.429C398.16 410.99 398.581 410.627 399.062 410.362C399.289 410.241 399.062 409.866 398.814 409.998C398.299 410.284 397.848 410.673 397.486 411.143C397.123 411.612 396.859 412.152 396.707 412.729C396.556 413.306 396.521 413.909 396.605 414.5C396.688 415.091 396.889 415.659 397.194 416.169H394.182L372.83 416.279C372.527 416.279 372.581 416.709 372.851 416.698Z" fill="black"/>
<path d="M387.663 411.364C386.583 410.031 384.921 409.657 383.744 410.659C383.55 410.825 383.291 410.461 383.485 410.296C384.845 409.194 386.723 409.646 387.986 411.155C388.17 411.376 387.835 411.585 387.663 411.364Z" fill="white"/>
<path d="M385.45 412.081C384.37 410.747 382.718 410.362 381.531 411.375C381.347 411.53 381.088 411.166 381.272 411.012C382.632 409.855 384.51 410.351 385.773 411.86C385.968 412.081 385.633 412.29 385.45 412.081Z" fill="white"/>
<path d="M383.129 412.786C382.05 411.452 380.387 411.078 379.211 412.081C379.016 412.246 378.757 411.871 378.952 411.717C380.312 410.56 382.19 411.067 383.453 412.565C383.637 412.797 383.302 413.006 383.129 412.786Z" fill="white"/>
<path d="M376.467 201.563C376.467 201.563 381.379 275.842 382.944 305.362C384.79 339.091 388.924 396.577 389.475 400.335H399.46C398.316 401.437 412.285 349.879 406.65 307.863C411.929 267.688 418.352 238.267 410.072 200.428L376.467 201.563Z" fill="#263238"/>
<path d="M413.116 203.37C392.131 210.444 356.863 208.119 356.863 203.216C356.863 189.398 361.656 173.861 360.371 164.859C350.451 157.773 358.212 151.371 357.338 140.87C357.047 137.001 358.184 133.161 360.525 130.103C362.866 127.045 366.241 124.99 369.99 124.342C371.782 124.033 373.638 123.725 375.463 123.482L376.542 123.339C381.412 122.773 386.313 122.538 391.213 122.634C393.005 122.634 394.862 122.634 396.805 122.689C398.748 122.744 400.626 122.81 402.418 122.942C403.996 123.055 405.533 123.505 406.93 124.264C408.326 125.022 409.551 126.072 410.524 127.345C411.498 128.618 412.198 130.085 412.579 131.652C412.96 133.219 413.015 134.851 412.738 136.441C411.13 145.66 410.11 154.976 409.683 164.33C409.597 166.258 409.532 168.12 409.511 169.949C409.386 176.353 409.671 182.757 410.364 189.122C410.364 189.244 410.364 189.365 410.364 189.475C410.666 192.009 411.026 194.345 411.443 196.483C411.573 197.155 411.713 197.794 411.864 198.422C412.274 199.712 412.771 202.037 413.116 203.37Z" fill="#407BFF"/>
<path opacity="0.2" d="M374.999 141.025C374.999 141.162 374.959 141.297 374.884 141.411C374.81 141.525 374.703 141.614 374.579 141.666C374.455 141.719 374.318 141.733 374.186 141.706C374.054 141.679 373.933 141.613 373.838 141.516C373.743 141.419 373.678 141.295 373.652 141.16C373.625 141.026 373.639 140.886 373.69 140.759C373.742 140.633 373.829 140.524 373.941 140.448C374.053 140.372 374.184 140.331 374.319 140.331C374.499 140.331 374.672 140.404 374.8 140.534C374.927 140.664 374.999 140.841 374.999 141.025Z" fill="black"/>
<path opacity="0.2" d="M373.908 147.879C374.277 147.879 374.577 147.573 374.577 147.195C374.577 146.818 374.277 146.512 373.908 146.512C373.538 146.512 373.238 146.818 373.238 147.195C373.238 147.573 373.538 147.879 373.908 147.879Z" fill="black"/>
<path opacity="0.2" d="M373.908 154.159C374.277 154.159 374.577 153.853 374.577 153.476C374.577 153.099 374.277 152.793 373.908 152.793C373.538 152.793 373.238 153.099 373.238 153.476C373.238 153.853 373.538 154.159 373.908 154.159Z" fill="black"/>
<path d="M391.246 122.59C386.28 131.504 374.589 136.837 374.589 136.837C373.002 132.848 373.509 126.446 375.463 123.438L376.543 123.295C381.423 122.728 386.335 122.492 391.246 122.59Z" fill="#B55B52"/>
<path opacity="0.2" d="M411.54 196.439C390.867 194.114 370.939 174.214 370.939 174.214L409.737 187.437C409.908 188.134 410.143 188.812 410.439 189.464C410.741 191.976 411.108 194.301 411.54 196.439Z" fill="black"/>
<path opacity="0.2" d="M408.906 168.715C408.286 172.493 408.073 176.328 408.269 180.153C405.402 181.408 402.183 181.545 399.223 180.539C395.17 178.948 391.767 175.999 389.572 172.175C389.572 172.175 401.35 174.544 404.264 173.443C406.877 172.451 400.626 151.801 400.421 151.217L409.057 163.239C409.036 165.112 408.928 166.93 408.906 168.715Z" fill="black"/>
<path d="M375.333 126.094C375.288 126.237 375.226 126.374 375.149 126.502C373.454 129.223 375.29 131.703 378.204 131.493C378.484 131.47 378.761 131.429 379.036 131.372C380.083 131.16 381.039 130.616 381.767 129.818C384.002 127.369 386.421 125.099 389 123.031C384.681 120.64 383.041 112.144 382.63 106.833L375.84 115.648L374.577 117.576C375.199 118.647 375.692 119.79 376.045 120.981C376.345 121.828 376.437 122.737 376.312 123.628C376.188 124.519 375.852 125.366 375.333 126.094Z" fill="#B55B52"/>
<path d="M388.343 122.59C390.729 121.987 393.222 121.987 395.608 122.59L389.012 134.149C385.547 131.571 381.564 134.92 374.59 136.838C380.367 133.465 385.124 128.536 388.343 122.59Z" fill="#407BFF"/>
<path opacity="0.2" d="M388.343 122.59C390.729 121.987 393.222 121.987 395.608 122.59L389.012 134.149C385.547 131.571 381.564 134.92 374.59 136.838C380.367 133.465 385.124 128.536 388.343 122.59Z" fill="white"/>
<path d="M376.349 123.119C376.349 123.119 372.322 122.358 369.991 124.298C369.145 127.281 368.514 130.323 368.102 133.399C368.102 133.399 371.977 131.427 374.579 136.837C374.589 136.837 373.272 128.21 376.349 123.119Z" fill="#407BFF"/>
<path opacity="0.2" d="M376.349 123.119C376.349 123.119 372.322 122.358 369.991 124.298C369.145 127.281 368.514 130.323 368.102 133.399C368.102 133.399 371.977 131.427 374.579 136.837C374.589 136.837 373.272 128.21 376.349 123.119Z" fill="white"/>
<g opacity="0.2">
<path d="M376.058 120.981C375.705 119.79 375.212 118.647 374.59 117.577L375.853 115.648L380.171 115.747C379.406 117.909 377.959 119.75 376.058 120.981Z" fill="black"/>
</g>
<path d="M383.882 97.3675C384.562 106.095 385.027 109.764 381.443 114.799C376.045 122.381 365.617 121.29 362.443 112.948C359.593 105.433 358.956 92.431 366.61 87.825C374.264 83.2191 383.202 88.6515 383.882 97.3675Z" fill="#B55B52"/>
<path d="M367.464 86.1832C367.464 86.1832 365.672 93.621 369.969 95.4832C374.265 97.3454 380.127 94.789 380.127 100.453C380.127 103.648 385.039 102.657 384.737 99.7145C384.434 96.7724 386.475 91.1527 380.419 88.1005C376.358 86.2479 371.873 85.584 367.464 86.1832Z" fill="#263238"/>
<path d="M379.887 104.431C379.423 104.416 378.968 104.292 378.559 104.067C375.666 102.601 375.267 95.1196 375.256 94.8H375.806C375.806 94.8772 376.195 102.271 378.807 103.615C379.061 103.778 379.35 103.876 379.649 103.901C379.947 103.926 380.248 103.877 380.524 103.758C381.485 103.252 381.744 101.654 381.744 101.643L382.284 101.731C382.216 102.234 382.048 102.717 381.789 103.151C381.531 103.585 381.189 103.961 380.783 104.254C380.502 104.384 380.195 104.444 379.887 104.431Z" fill="#263238"/>
<path d="M367.887 88.6184C367.887 88.6184 363.148 96.3317 359.866 94.5136C356.584 92.6954 364.4 84.0345 367.422 86.1832C370.445 88.3319 367.887 88.6184 367.887 88.6184Z" fill="#263238"/>
<path d="M366.006 110.811C366.006 110.811 370.162 108.893 371.08 107.042C371.08 107.042 371.695 110.348 369.514 111.571C368.943 111.917 368.265 112.032 367.615 111.891C366.964 111.75 366.39 111.364 366.006 110.811Z" fill="white"/>
<path d="M369.319 101.235C369.416 101.94 369.125 102.557 368.671 102.623C368.218 102.69 367.786 102.172 367.689 101.522C367.592 100.871 367.873 100.199 368.326 100.133C368.779 100.067 369.222 100.585 369.319 101.29" fill="#263238"/>
<path d="M362.39 102.425C362.487 103.13 362.195 103.747 361.753 103.814C361.31 103.88 360.857 103.362 360.759 102.657C360.662 101.951 360.943 101.334 361.396 101.268C361.85 101.202 362.292 101.72 362.39 102.37" fill="#263238"/>
<path d="M361.601 101.279L359.885 101.026C359.885 101.026 360.91 102.227 361.601 101.279Z" fill="#263238"/>
<path d="M365.391 102.282C365.391 102.282 364.463 104.309 363.394 106.117C363.317 106.255 363.27 106.408 363.256 106.566C363.242 106.725 363.262 106.884 363.315 107.034C363.367 107.183 363.45 107.32 363.559 107.433C363.668 107.547 363.8 107.635 363.945 107.692C364.675 107.921 365.428 108.065 366.19 108.122L365.391 102.282Z" fill="#A02724"/>
<path d="M387.715 102.932C387.502 103.697 387.132 104.408 386.63 105.016C386.127 105.624 385.503 106.115 384.8 106.458C382.997 107.262 381.766 105.29 382.004 103.075C382.22 101.081 383.407 98.2599 385.35 98.4032C387.294 98.5464 388.33 100.916 387.715 102.932Z" fill="#B55B52"/>
<path d="M384.468 104.849H384.111V108.904H384.468V104.849Z" fill="white"/>
<path d="M384.347 111.086C385.146 111.086 385.793 110.425 385.793 109.61C385.793 108.794 385.146 108.133 384.347 108.133C383.548 108.133 382.9 108.794 382.9 109.61C382.9 110.425 383.548 111.086 384.347 111.086Z" fill="white"/>
<path d="M371.316 99.395C371.259 99.3877 371.205 99.3682 371.157 99.3378C371.108 99.3074 371.067 99.2668 371.035 99.2187C370.762 98.7747 370.39 98.4033 369.949 98.1351C369.508 97.8668 369.011 97.7095 368.498 97.6761C368.391 97.6761 368.289 97.6335 368.212 97.5573C368.135 97.4812 368.091 97.3775 368.088 97.2684C368.087 97.2134 368.096 97.1586 368.115 97.1073C368.134 97.0559 368.163 97.0089 368.201 96.969C368.238 96.9291 368.282 96.897 368.331 96.8747C368.38 96.8523 368.434 96.8401 368.487 96.8386C369.138 96.8694 369.773 97.0597 370.336 97.3934C370.9 97.7271 371.377 98.1944 371.726 98.7559C371.756 98.8006 371.778 98.851 371.789 98.9041C371.8 98.9573 371.8 99.0122 371.79 99.0656C371.78 99.119 371.76 99.1698 371.73 99.215C371.701 99.2602 371.662 99.299 371.618 99.3289C371.577 99.3608 371.53 99.3832 371.479 99.3946C371.429 99.406 371.377 99.4062 371.327 99.395" fill="#263238"/>
<path d="M359.606 99.7035C359.554 99.7103 359.501 99.7059 359.451 99.6907C359.401 99.6755 359.354 99.6499 359.314 99.6154C359.231 99.5462 359.177 99.4462 359.165 99.3369C359.153 99.2277 359.183 99.1179 359.25 99.0314C359.645 98.5058 360.159 98.0845 360.746 97.8027C361.334 97.5209 361.98 97.3868 362.628 97.4116C362.687 97.4092 362.745 97.4196 362.799 97.442C362.853 97.4645 362.902 97.4985 362.943 97.5418C362.983 97.5851 363.014 97.6367 363.033 97.6931C363.052 97.7495 363.059 97.8095 363.053 97.8689C363.048 97.9283 363.03 97.9859 363.001 98.0377C362.972 98.0895 362.933 98.1344 362.885 98.1694C362.838 98.2043 362.784 98.2285 362.726 98.2404C362.669 98.2522 362.61 98.2514 362.553 98.238C362.039 98.2299 361.531 98.3441 361.068 98.5718C360.605 98.7994 360.2 99.1341 359.886 99.5493C359.856 99.5968 359.814 99.6358 359.765 99.6627C359.716 99.6897 359.661 99.7037 359.606 99.7035Z" fill="#263238"/>
<path d="M368.532 100.089L366.805 99.8359C366.805 99.8359 367.884 101.037 368.532 100.089Z" fill="#263238"/>
<path d="M412.198 130.325C412.198 130.325 427.041 171.492 424.666 184.968C420.758 207.15 371.845 177.431 370.906 173.222L375.278 166.82C375.278 166.82 406.93 178.577 408.668 177.454C410.406 176.33 398.682 144.716 398.682 144.716C398.682 144.716 400.399 125.609 412.198 130.325Z" fill="#407BFF"/>
<path opacity="0.2" d="M424.515 181.586C422.317 182.29 420.42 183.738 419.139 185.692C417.857 187.645 417.267 189.987 417.466 192.329C417.466 192.847 416.721 192.957 416.678 192.439C416.458 189.918 417.087 187.396 418.461 185.288C419.834 183.181 421.871 181.614 424.234 180.847C424.709 180.682 425.022 181.431 424.537 181.586H424.515Z" fill="black"/>
<path d="M376.553 168.109C376.553 168.109 371.987 155.823 370.918 154.787C369.849 153.752 357.888 153.796 356.658 153.476C355.427 153.157 356.107 155.426 358.288 155.735C360.468 156.043 364.441 157.09 364.441 157.09C364.441 157.09 360.749 156.826 360.047 157.685C359.346 158.545 356.258 164.715 357.111 167.602C357.964 170.489 361.429 170.666 362.509 170.908C363.588 171.15 362.509 168.12 362.509 168.12C363.426 168.52 364.398 168.772 365.391 168.87C367.097 169.068 369.32 172.407 371.004 173.167C374.2 174.721 378.021 168.969 376.553 168.109Z" fill="#B55B52"/>
<path d="M367.42 157.531C366.479 157.339 365.518 157.272 364.56 157.333C364.203 157.333 364.139 156.793 364.495 156.771C365.507 156.699 366.523 156.766 367.517 156.969C367.585 156.988 367.643 157.032 367.681 157.092C367.718 157.153 367.733 157.225 367.72 157.296C367.708 157.366 367.671 157.429 367.615 157.473C367.56 157.517 367.49 157.537 367.42 157.531Z" fill="#994731"/>
<path d="M364.506 160.077C362.865 159.515 361.051 158.975 359.41 159.823C359.097 159.988 358.773 159.526 359.086 159.36C360.932 158.358 362.876 158.92 364.743 159.559C365.078 159.669 364.84 160.187 364.506 160.077Z" fill="#994731"/>
<path d="M362.962 162.6C362.227 162.234 361.415 162.059 360.598 162.09C359.78 162.12 358.983 162.356 358.277 162.776C357.974 162.964 357.651 162.501 357.964 162.313C358.747 161.836 359.635 161.564 360.547 161.524C361.46 161.484 362.367 161.675 363.189 162.082C363.246 162.119 363.288 162.175 363.308 162.241C363.327 162.307 363.323 162.378 363.295 162.441C363.268 162.504 363.219 162.555 363.158 162.584C363.096 162.613 363.027 162.619 362.962 162.6Z" fill="#994731"/>
<path d="M362.42 168.517C361.885 168.209 361.416 167.792 361.045 167.291C360.674 166.791 360.407 166.218 360.261 165.608C360.186 165.255 360.704 165.057 360.79 165.41C360.904 165.946 361.125 166.452 361.439 166.898C361.753 167.343 362.153 167.718 362.615 167.999C362.928 168.175 362.69 168.693 362.388 168.517H362.42Z" fill="#994731"/>
<path d="M360.858 167.162C360.574 167.06 360.267 167.048 359.976 167.126C359.686 167.205 359.425 167.371 359.228 167.603C358.99 167.878 358.569 167.514 358.807 167.239C359.083 166.914 359.451 166.683 359.86 166.576C360.269 166.47 360.7 166.494 361.095 166.644C361.43 166.776 361.192 167.294 360.858 167.162Z" fill="#994731"/>
<path d="M361.537 108.078C361.17 108.045 360.814 107.93 360.497 107.739C360.179 107.548 359.908 107.288 359.701 106.976C359.027 106.1 358.588 105.059 358.428 103.957C358.028 101.478 358.892 99.2518 360.349 99.0093C361.807 98.7669 363.339 100.574 363.739 103.053C363.945 104.157 363.863 105.298 363.501 106.359C363.39 106.765 363.176 107.134 362.88 107.428C362.584 107.722 362.218 107.931 361.817 108.034L361.537 108.078ZM360.63 99.2628H360.403C359.086 99.4832 358.32 101.555 358.698 103.88C358.845 104.937 359.262 105.936 359.907 106.778C360.112 107.084 360.393 107.33 360.72 107.49C361.048 107.651 361.412 107.72 361.774 107.692C362.127 107.6 362.448 107.414 362.707 107.153C362.965 106.891 363.15 106.564 363.242 106.205C363.584 105.2 363.662 104.121 363.469 103.075C363.091 100.96 361.85 99.3179 360.608 99.3179L360.63 99.2628Z" fill="white"/>
<path d="M368.964 106.8C367.582 106.8 366.222 105.059 365.844 102.734C365.466 100.409 366.308 98.0289 367.766 97.7864C369.223 97.544 370.756 99.3512 371.155 101.83C371.362 102.935 371.28 104.075 370.918 105.136C370.805 105.541 370.59 105.909 370.294 106.202C369.999 106.496 369.633 106.706 369.234 106.811L368.964 106.8ZM368.046 97.9848H367.82C366.503 98.2052 365.736 100.277 366.114 102.602C366.492 104.927 367.895 106.635 369.191 106.414C369.543 106.322 369.865 106.136 370.123 105.875C370.381 105.613 370.566 105.286 370.659 104.927C371.006 103.923 371.084 102.843 370.885 101.797C370.529 99.6817 369.288 98.0399 368.014 98.0399L368.046 97.9848Z" fill="white"/>
<path d="M358.633 104.089L358.449 103.88C359.021 103.41 359.724 103.136 360.457 103.097V103.384C359.793 103.427 359.158 103.672 358.633 104.089Z" fill="white"/>
<path d="M363.513 102.624L363.297 102.458C363.601 102.048 364.044 101.768 364.539 101.675C365.035 101.581 365.546 101.68 365.974 101.951L365.834 102.194C365.465 101.954 365.021 101.866 364.591 101.945C364.161 102.025 363.776 102.267 363.513 102.624Z" fill="white"/>
<path d="M370.993 101.478L370.863 101.224C370.917 101.224 376.79 98.0176 382.921 99.0975V99.384C376.844 98.3151 371.047 101.445 370.993 101.478Z" fill="white"/>
<path d="M160.747 397.943L147.653 398.946L123.234 341.934L111.316 311.621L141.996 297.307L145.71 318.574L145.818 318.926L160.747 397.943Z" fill="#263238"/>
<path d="M148.689 396.169L153.396 408.797H159.906L158.491 396.169H148.689Z" fill="#B55B52"/>
<path d="M162.776 402.153L162.225 395.707H144.791L146.421 402.153H162.776Z" fill="#263238"/>
<path d="M179.995 417.734C179.088 413.623 177.145 412.389 174.954 412.224C172.762 412.059 164.159 409.304 164.159 409.304C164.159 409.304 162.108 406.693 160.542 406.164C160.029 406.052 159.495 406.088 159.001 406.269C158.507 406.45 158.073 406.769 157.746 407.188L153.601 406.67C153.601 406.67 152.133 404.808 151.442 406.439C150.719 408.323 150.956 416.433 150.999 417.711L179.995 417.734Z" fill="#407BFF"/>
<path d="M179.317 416.665H174.243L152.048 416.554C151.991 416.554 151.936 416.531 151.895 416.49C151.855 416.449 151.832 416.392 151.832 416.334C151.832 416.276 151.855 416.22 151.895 416.178C151.936 416.137 151.991 416.114 152.048 416.114H153.559C153.553 416.096 153.553 416.076 153.559 416.059C154.639 413.678 153.376 411.276 151.238 410.075C150.99 409.943 151.238 409.557 151.454 409.701C152.596 410.241 153.493 411.204 153.964 412.395C154.436 413.586 154.445 414.916 153.991 416.114H157.122L179.317 416.235C179.364 416.246 179.407 416.273 179.437 416.312C179.468 416.351 179.485 416.4 179.485 416.45C179.485 416.5 179.468 416.548 179.437 416.587C179.407 416.626 179.364 416.654 179.317 416.665Z" fill="black"/>
<path d="M163.199 411.111C163.395 410.778 163.659 410.492 163.973 410.272C164.286 410.051 164.642 409.901 165.017 409.831C165.391 409.761 165.776 409.773 166.146 409.867C166.515 409.96 166.861 410.133 167.16 410.373C167.387 410.538 167.603 410.163 167.376 409.998C167.028 409.728 166.627 409.537 166.201 409.435C165.775 409.333 165.333 409.324 164.904 409.409C164.474 409.493 164.067 409.668 163.708 409.924C163.349 410.179 163.047 410.508 162.821 410.891C162.659 411.111 163.037 411.331 163.199 411.111Z" fill="white"/>
<path d="M165.582 411.849C165.78 411.516 166.045 411.23 166.36 411.009C166.674 410.789 167.031 410.638 167.406 410.569C167.781 410.499 168.167 410.511 168.538 410.605C168.908 410.698 169.255 410.871 169.555 411.111C169.771 411.276 169.987 410.902 169.771 410.736C169.423 410.466 169.023 410.274 168.598 410.171C168.172 410.069 167.73 410.059 167.301 410.142C166.871 410.225 166.464 410.4 166.104 410.654C165.745 410.908 165.442 411.237 165.215 411.618C165.053 411.849 165.431 412.07 165.582 411.849Z" fill="white"/>
<path d="M168.056 412.577C168.256 412.246 168.522 411.962 168.837 411.743C169.152 411.524 169.508 411.376 169.883 411.307C170.258 411.239 170.643 411.252 171.012 411.345C171.382 411.438 171.728 411.61 172.028 411.849C172.244 412.015 172.46 411.64 172.244 411.464C171.895 411.196 171.495 411.005 171.069 410.905C170.643 410.804 170.202 410.795 169.773 410.88C169.344 410.964 168.937 411.138 168.578 411.393C168.219 411.647 167.916 411.975 167.689 412.356C167.527 412.588 167.894 412.808 168.056 412.577Z" fill="white"/>
<path d="M119.639 350.353L121.852 365.515L122.63 370.98L129.215 416.819H125.264L115.796 370.98L114.674 365.515L111.543 350.353H119.639Z" fill="#407BFF"/>
<path d="M104.191 350.353L106.393 365.515L107.181 370.98L113.766 416.819H109.805L100.337 370.98L99.2146 365.515L96.084 350.353H104.191Z" fill="#407BFF"/>
<g opacity="0.2">
<path d="M104.191 350.353L106.393 365.515L107.181 370.98L113.766 416.819H109.805L100.337 370.98L99.2146 365.515L96.084 350.353H104.191Z" fill="black"/>
</g>
<path d="M30.655 338.838L25.1495 365.515L24.0268 370.98L14.5595 416.819H10.5977L17.1935 370.98L17.9707 365.515L21.857 338.838H30.655Z" fill="#407BFF"/>
<path d="M46.1121 338.838L40.6065 365.515L39.4731 370.98L30.0165 416.819H26.0547L32.6397 370.98L33.4278 365.515L37.314 338.838H46.1121Z" fill="#407BFF"/>
<g opacity="0.2">
<path d="M46.1121 338.838L40.6065 365.515L39.4731 370.98L30.0165 416.819H26.0547L32.6397 370.98L33.4278 365.515L37.314 338.838H46.1121Z" fill="black"/>
</g>
<path d="M21.7934 350.562H119.867L117.913 342.705C114.675 329.538 105.413 320.667 95.0277 320.667H14.334L21.7934 350.562Z" fill="#407BFF"/>
<path d="M8.9349 299.919L18.2295 335.179L111.726 335.29L105.962 313.395C102.119 298.784 89.4235 288.051 74.6557 287.787H74.5694C73.4899 283.566 62.9106 243.711 39.1937 244.438C14.149 245.198 19.5789 287.787 19.5789 287.787H15.3472C10.6945 287.82 7.3804 294.012 8.9349 299.919Z" fill="#407BFF"/>
<g opacity="0.2">
<path d="M8.9349 299.919L18.2295 335.179L111.726 335.29L105.962 313.395C102.119 298.784 89.4235 288.051 74.6557 287.787H74.5694C73.4899 283.566 62.9106 243.711 39.1937 244.438C14.149 245.198 19.5789 287.787 19.5789 287.787H15.3472C10.6945 287.82 7.3804 294.012 8.9349 299.919Z" fill="black"/>
</g>
<path d="M54.6621 241.54C54.6621 241.54 57.3177 275.578 61.5494 286.465C71.265 311.445 88.2026 280.801 88.2026 280.801L76.9865 264.394L73.7479 239.16L54.6621 241.54Z" fill="#FF8B7B"/>
<path d="M76.3625 264.195L72.3683 265.055C72.2609 265.08 72.1676 265.147 72.1089 265.242C72.0502 265.337 72.0309 265.452 72.0552 265.562C72.0795 265.671 72.1455 265.766 72.2386 265.826C72.3318 265.886 72.4444 265.906 72.5518 265.881L76.546 265.077C76.6533 265.053 76.7472 264.987 76.8069 264.893C76.8666 264.799 76.8873 264.685 76.8644 264.575C76.8415 264.466 76.7769 264.37 76.6848 264.309C76.5927 264.248 76.4806 264.227 76.3732 264.25L76.3625 264.195Z" fill="#742823"/>
<path d="M101.579 234.378C101.579 234.378 112.526 266.994 116.412 275.148C120.298 283.302 104.872 288.14 95.4909 285.473C86.11 282.806 87.5889 242.499 87.5889 242.499L101.579 234.378Z" fill="#FF8B7B"/>
<path d="M80.1846 199.271C80.1846 199.271 67.6947 229.871 74.3013 249.363L105.607 240.636C105.607 240.636 105.758 226.312 101.904 214.907C95.8808 197.001 80.1846 199.271 80.1846 199.271Z" fill="#407BFF"/>
<path d="M31.4101 306.034C24.933 301.627 24.7711 282.597 26.0125 265.264C26.0773 260.856 26.2608 255.843 26.6278 250.488C26.9949 245.132 27.567 239.469 28.409 233.651C29.5917 225.065 31.4473 216.59 33.9577 208.307C35.631 202.908 44.3211 197.288 52.2015 194.566C57.6897 192.883 63.4549 192.351 69.1499 193.002C73.3593 194.07 77.5104 195.365 81.5859 196.88C91.8953 200.616 98.4263 205.773 97.7786 208.682C97.4116 210.268 97.7786 218.808 95.8463 229.199C94.8207 234.808 94.1622 240.868 93.2447 246.961C93.2447 246.961 93.2447 247.017 93.2447 247.072C93.2447 247.127 93.2447 247.557 93.1907 248.008C92.9208 253.022 92.3055 274.608 100.24 289.484C112.169 311.797 40.6723 312.458 31.4101 306.034Z" fill="#407BFF"/>
<g opacity="0.2">
<path d="M31.4101 306.034C24.933 301.627 24.7711 282.597 26.0125 265.264C26.0773 260.856 26.2608 255.843 26.6278 250.488C26.9949 245.132 27.567 239.469 28.409 233.651C29.5917 225.065 31.4473 216.59 33.9577 208.307C35.631 202.908 44.3211 197.288 52.2015 194.566C57.6897 192.883 63.4549 192.351 69.1499 193.002C73.3593 194.07 77.5104 195.365 81.5859 196.88C91.8953 200.616 98.4263 205.773 97.7786 208.682C97.4116 210.268 97.7786 218.808 95.8463 229.199C94.8207 234.808 94.1622 240.868 93.2447 246.961C93.2447 246.961 93.2447 247.017 93.2447 247.072C93.2447 247.127 93.2447 247.557 93.1907 248.008C92.9208 253.022 92.3055 274.608 100.24 289.484C112.169 311.797 40.6723 312.458 31.4101 306.034Z" fill="white"/>
</g>
<path d="M80.1609 212.847C79.8322 212.841 79.5041 212.815 79.1785 212.769C69.5277 211.392 61.4313 192.935 61.3557 192.759C61.3485 192.743 61.3445 192.726 61.3438 192.708C61.3432 192.691 61.346 192.673 61.352 192.657C61.358 192.641 61.3672 192.626 61.3789 192.613C61.3907 192.6 61.4048 192.59 61.4205 192.583C61.4535 192.567 61.4911 192.566 61.5253 192.578C61.5595 192.59 61.5877 192.616 61.604 192.649C61.6796 192.836 69.7112 211.15 79.2217 212.483C80.8626 212.714 81.996 212.373 82.5898 211.469C85.0079 207.734 78.0126 195.712 77.9371 195.591C77.915 195.565 77.9029 195.532 77.9029 195.497C77.9029 195.463 77.915 195.43 77.9371 195.404C77.9491 195.391 77.9634 195.381 77.9792 195.375C77.9949 195.368 78.0118 195.365 78.0288 195.365C78.0459 195.365 78.0628 195.368 78.0785 195.375C78.0943 195.381 78.1086 195.391 78.1206 195.404C78.4121 195.91 85.2778 207.701 82.7625 211.579C82.47 211.999 82.0777 212.335 81.6225 212.557C81.1673 212.779 80.6643 212.878 80.1609 212.847Z" fill="white"/>
<path d="M98.6758 399.123L85.9808 398.406L104.764 329.505C104.764 329.505 102.227 330.012 98.1577 330.684C84.3831 332.888 53.0016 336.953 42.4763 328.976C27.3631 317.472 28.4426 302.167 28.4426 302.167C28.4426 302.167 148.409 266.344 151.507 300.866C152.9 316.359 98.6758 399.123 98.6758 399.123Z" fill="#263238"/>
<path d="M87.5571 396.61L86.2617 408.797H92.7604L97.3483 396.61H87.5571Z" fill="#B55B52"/>
<path d="M83.7988 402.153L84.3602 395.707H101.784L100.153 402.153H83.7988Z" fill="#263238"/>
<path d="M114.133 417.734C113.226 413.623 111.294 412.389 109.092 412.224C106.889 412.059 98.2965 409.304 98.2965 409.304C98.2965 409.304 96.2562 406.693 94.6909 406.164C94.1777 406.052 93.6439 406.088 93.1499 406.269C92.6559 406.45 92.2213 406.769 91.895 407.188L87.7389 406.67C87.7389 406.67 86.2815 404.808 85.6446 406.439C84.9106 408.323 85.1588 416.433 85.202 417.711L114.133 417.734Z" fill="#407BFF"/>
<path d="M113.462 416.665H108.389L86.1829 416.554C86.1257 416.554 86.0708 416.531 86.0303 416.49C85.9898 416.449 85.967 416.392 85.967 416.334C85.967 416.276 85.9898 416.22 86.0303 416.178C86.0708 416.137 86.1257 416.114 86.1829 416.114H87.6835C87.6777 416.096 87.6777 416.076 87.6835 416.059C88.763 413.678 87.4892 411.276 85.3517 410.075C85.1034 409.943 85.3517 409.557 85.5676 409.701C86.7094 410.241 87.6075 411.204 88.0805 412.394C88.5534 413.585 88.5658 414.914 88.1153 416.114H91.2459L113.441 416.235C113.489 416.243 113.533 416.268 113.566 416.306C113.599 416.343 113.618 416.391 113.62 416.441C113.623 416.491 113.609 416.54 113.58 416.581C113.551 416.622 113.51 416.651 113.462 416.665Z" fill="black"/>
<path d="M97.3351 411.111C97.5331 410.778 97.798 410.492 98.1124 410.271C98.4267 410.05 98.7834 409.9 99.1588 409.83C99.5342 409.76 99.9199 409.773 100.29 409.866C100.661 409.96 101.007 410.132 101.308 410.373C101.524 410.538 101.74 410.163 101.524 409.998C101.176 409.727 100.775 409.534 100.349 409.431C99.9229 409.328 99.4802 409.319 99.0501 409.403C98.62 409.488 98.2122 409.664 97.8534 409.92C97.4946 410.176 97.1929 410.507 96.9681 410.891C96.8062 411.111 97.1732 411.332 97.3351 411.111Z" fill="white"/>
<path d="M99.7318 411.849C99.9287 411.517 100.193 411.231 100.506 411.01C100.819 410.789 101.175 410.639 101.55 410.569C101.924 410.499 102.309 410.512 102.679 410.605C103.048 410.698 103.394 410.871 103.694 411.111C103.92 411.276 104.136 410.902 103.91 410.736C103.562 410.466 103.162 410.274 102.736 410.171C102.311 410.069 101.869 410.059 101.439 410.142C101.01 410.225 100.602 410.4 100.243 410.654C99.8838 410.908 99.5809 411.237 99.354 411.618C99.192 411.849 99.5698 412.07 99.7318 411.849Z" fill="white"/>
<path d="M102.204 412.577C102.402 412.245 102.667 411.96 102.981 411.74C103.294 411.52 103.65 411.371 104.025 411.303C104.399 411.234 104.784 411.247 105.153 411.341C105.522 411.436 105.868 411.609 106.166 411.849C106.393 412.015 106.598 411.64 106.382 411.464C106.033 411.196 105.633 411.005 105.207 410.905C104.781 410.804 104.34 410.795 103.911 410.88C103.482 410.964 103.074 411.138 102.716 411.393C102.357 411.647 102.054 411.975 101.827 412.356C101.665 412.588 102.043 412.808 102.204 412.577Z" fill="white"/>
<path opacity="0.2" d="M113.366 308.712L104.73 329.527C104.73 329.527 102.193 330.034 98.123 330.706C103.218 323.114 112.945 309.274 113.366 308.712Z" fill="black"/>
<path d="M52.6651 231.16C52.6651 231.16 48.6062 266.421 50.8623 271.291C53.1185 276.162 98.1343 279.214 98.1343 279.214L100.293 281.781C100.293 281.781 53.1941 295.269 36.3753 281.869C26.4545 273.98 28.5056 227.314 28.5056 227.314L52.6651 231.16Z" fill="#FF8B7B"/>
<path d="M34.5084 207.084C28.8409 215.469 26.4768 229.816 25.4297 243.226L56.0339 241.496C56.0339 241.496 59.402 227.612 58.1929 215.59C57.4589 207.998 53.7777 204.406 49.6432 202.819C43.0797 200.263 38.535 201.166 34.5084 207.084Z" fill="#407BFF"/>
<path d="M70.7695 289.406H147.728L149.92 281.88H72.9609L70.7695 289.406Z" fill="#407BFF"/>
<g opacity="0.5">
<path d="M70.7695 289.406H147.728L149.92 281.88H72.9609L70.7695 289.406Z" fill="white"/>
</g>
<path d="M99.8414 285.517H142.86C143.598 285.523 144.316 285.278 144.902 284.821C145.489 284.364 145.909 283.721 146.099 282.994L154.735 249.815C154.866 249.31 154.881 248.781 154.779 248.269C154.678 247.757 154.462 247.276 154.149 246.862C153.836 246.449 153.433 246.115 152.974 245.885C152.514 245.656 152.008 245.538 151.496 245.54H107.851C106.891 245.536 105.957 245.859 105.196 246.457C104.435 247.056 103.892 247.897 103.652 248.846L95.5989 279.952C95.4228 280.612 95.3998 281.305 95.5314 281.976C95.6631 282.647 95.946 283.277 96.3576 283.817C96.7692 284.357 97.2983 284.792 97.9029 285.087C98.5076 285.382 99.1713 285.529 99.8414 285.517Z" fill="#407BFF"/>
<g opacity="0.5">
<path d="M99.8414 285.517H142.86C143.598 285.523 144.316 285.278 144.902 284.821C145.489 284.364 145.909 283.721 146.099 282.994L154.735 249.815C154.866 249.31 154.881 248.781 154.779 248.269C154.678 247.757 154.462 247.276 154.149 246.862C153.836 246.449 153.433 246.115 152.974 245.885C152.514 245.656 152.008 245.538 151.496 245.54H107.851C106.891 245.536 105.957 245.859 105.196 246.457C104.435 247.056 103.892 247.897 103.652 248.846L95.5989 279.952C95.4228 280.612 95.3998 281.305 95.5314 281.976C95.6631 282.647 95.946 283.277 96.3576 283.817C96.7692 284.357 97.2983 284.792 97.9029 285.087C98.5076 285.382 99.1713 285.529 99.8414 285.517Z" fill="white"/>
</g>
<path d="M103.381 285.517H146.4C147.137 285.523 147.855 285.278 148.442 284.821C149.028 284.364 149.449 283.721 149.638 282.994L158.274 249.815C158.405 249.31 158.42 248.781 158.319 248.269C158.217 247.757 158.001 247.276 157.688 246.862C157.375 246.449 156.973 246.115 156.513 245.885C156.053 245.656 155.548 245.538 155.036 245.54H111.434C110.474 245.536 109.539 245.859 108.779 246.457C108.018 247.056 107.475 247.897 107.235 248.846L99.2139 279.952C99.0397 280.606 99.0155 281.292 99.1431 281.957C99.2707 282.622 99.5468 283.248 99.9499 283.786C100.353 284.324 100.872 284.76 101.467 285.061C102.062 285.361 102.717 285.517 103.381 285.517Z" fill="#407BFF"/>
<g opacity="0.8">
<path d="M103.381 285.517H146.4C147.137 285.523 147.855 285.278 148.442 284.821C149.028 284.364 149.449 283.721 149.638 282.994L158.274 249.815C158.405 249.31 158.42 248.781 158.319 248.269C158.217 247.757 158.001 247.276 157.688 246.862C157.375 246.449 156.973 246.115 156.513 245.885C156.053 245.656 155.548 245.538 155.036 245.54H111.434C110.474 245.536 109.539 245.859 108.779 246.457C108.018 247.056 107.475 247.897 107.235 248.846L99.2139 279.952C99.0397 280.606 99.0155 281.292 99.1431 281.957C99.2707 282.622 99.5468 283.248 99.9499 283.786C100.353 284.324 100.872 284.76 101.467 285.061C102.062 285.361 102.717 285.517 103.381 285.517Z" fill="white"/>
</g>
<path d="M125.016 265.892C124.874 266.475 124.865 267.083 124.989 267.67C125.113 268.257 125.368 268.807 125.732 269.279C126.097 269.75 126.563 270.129 127.093 270.389C127.624 270.648 128.206 270.779 128.794 270.773C130.1 270.696 131.342 270.172 132.321 269.287C133.3 268.402 133.959 267.206 134.192 265.892C134.333 265.309 134.342 264.7 134.218 264.112C134.094 263.525 133.84 262.974 133.475 262.502C133.111 262.03 132.645 261.649 132.115 261.389C131.584 261.129 131.002 260.995 130.413 261C129.107 261.08 127.864 261.606 126.885 262.493C125.907 263.38 125.248 264.577 125.016 265.892Z" fill="#407BFF"/>
<g opacity="0.5">
<path d="M125.016 265.892C124.874 266.475 124.865 267.083 124.989 267.67C125.113 268.257 125.368 268.807 125.732 269.279C126.097 269.75 126.563 270.129 127.093 270.389C127.624 270.648 128.206 270.779 128.794 270.773C130.1 270.696 131.342 270.172 132.321 269.287C133.3 268.402 133.959 267.206 134.192 265.892C134.333 265.309 134.342 264.7 134.218 264.112C134.094 263.525 133.84 262.974 133.475 262.502C133.111 262.03 132.645 261.649 132.115 261.389C131.584 261.129 131.002 260.995 130.413 261C129.107 261.08 127.864 261.606 126.885 262.493C125.907 263.38 125.248 264.577 125.016 265.892Z" fill="white"/>
</g>
<path d="M98.8479 164.374C98.4268 165.586 96.6888 165.862 96.6888 165.862C96.6888 165.862 98.3297 167.966 97.5093 168.672C96.6888 169.377 94.9076 168.672 94.9076 168.672C95.1078 168.996 95.2391 169.36 95.293 169.74C95.347 170.119 95.3223 170.506 95.2207 170.875C94.8429 172.098 94.3571 171.636 94.3571 171.636L68.0601 167.327C68.5251 165.238 68.5251 163.069 68.0601 160.98C67.2289 158.082 66.0954 154.115 67.4664 153.41C68.8373 152.705 69.4959 153.41 69.4959 153.41C69.4959 153.41 69.3879 150.435 70.8021 150.193C71.1738 150.115 71.5572 150.116 71.9286 150.196C72.2999 150.275 72.6514 150.432 72.9611 150.655C72.9611 150.655 73.1338 148.562 74.4184 148.375C74.7884 148.339 75.159 148.436 75.4663 148.649C75.7737 148.862 75.9987 149.178 76.1025 149.543C76.1025 149.543 77.5814 147.482 79.0388 147.449C80.4961 147.416 80.6904 149.113 80.6904 149.113C80.6904 149.113 83.0222 147.173 84.1017 147.934C84.7818 148.502 85.3031 149.243 85.613 150.082C85.613 150.082 87.88 147.702 88.8515 148.981C89.4626 149.849 89.8014 150.887 89.8231 151.956C89.8231 151.956 92.7486 149.752 93.5258 151.129C93.9857 152.081 94.1333 153.159 93.9469 154.204C93.9469 154.204 96.4513 152.804 97.1854 154.578C97.3823 155.13 97.4361 155.724 97.3416 156.304C97.247 156.883 97.0072 157.427 96.6456 157.884C96.6456 157.884 98.9774 158.17 98.891 159.57C98.8047 160.969 96.732 162.203 96.732 162.203C96.732 162.203 99.2149 163.151 98.8479 164.374Z" fill="#263238"/>
<path d="M79.3198 190.919V191.007L77.4846 195.062C77.2408 195.899 77.0781 196.759 76.9988 197.629C76.9273 198.332 76.9093 199.039 76.9449 199.745C77.6466 201.2 77.571 204.153 74.3109 203.613C70.1979 202.896 63.71 195.393 63.764 193.486C66.6571 188.098 69.4207 181.674 70.0576 176.142L73.8575 182.17L79.3198 190.919Z" fill="#FF8B7B"/>
<g opacity="0.2">
<path d="M79.2642 191.018L77.429 195.073C75.0541 193.409 72.8195 190.335 72.6791 187.426C72.6036 185.332 73.8234 183.613 74.6331 183.646L79.2642 191.018Z" fill="black"/>
</g>
<path d="M70.92 165.774C71.4013 163.742 72.3808 161.868 73.7665 160.329C75.1522 158.789 76.8986 157.635 78.8415 156.974C80.7844 156.313 82.8601 156.167 84.8735 156.55C86.8868 156.932 88.7718 157.831 90.3512 159.162C97.5624 165.223 94.8096 177.388 89.8979 186.632C85.5798 194.776 74.396 192.836 70.024 184.131C67.1201 178.357 68.7502 174.611 70.866 165.829" fill="#FF8B7B"/>
<path d="M86.2617 183.767C86.2617 183.767 82.2783 182.666 80.4323 179.944C80.4323 179.944 80.2596 183.161 82.0408 184.969C83.822 186.776 86.2617 183.767 86.2617 183.767Z" fill="white"/>
<path d="M70.6816 166.589C70.6816 166.589 73.2833 167.184 73.0026 169.498C72.7219 171.812 72.4305 172.076 72.4305 172.076L75.4207 173.299C75.4207 173.299 76.0576 164.385 78.303 164.892C80.5484 165.399 78.7672 161.035 80.2246 160.705C83.6574 159.933 92.4123 161.41 94.8628 167.382C94.8628 167.382 94.8628 161.873 91.2248 158.336C87.5868 154.798 79.3501 152.65 75.2372 156.231C71.1242 159.812 70.6816 166.589 70.6816 166.589Z" fill="#263238"/>
<path d="M65.5341 170.368C65.5011 172.642 66.351 174.837 67.8983 176.473C69.9601 178.677 72.4646 177.101 73.1231 174.269C73.7061 171.779 73.3498 167.658 70.6834 166.556C68.017 165.454 65.6097 167.548 65.5341 170.335" fill="#FF8B7B"/>
<path d="M82.3095 174.104C82.0936 174.809 82.3095 175.492 82.7305 175.636C83.1515 175.779 83.7129 175.327 83.9288 174.633C84.1447 173.939 83.9288 173.244 83.5078 173.101C83.0868 172.958 82.5146 173.41 82.3095 174.104Z" fill="#263238"/>
<path d="M89.8662 176.418C89.6503 177.123 89.8662 177.806 90.2872 177.95C90.7082 178.093 91.2803 177.641 91.4962 176.936C91.7121 176.231 91.4962 175.547 91.0644 175.404C90.6326 175.261 90.0821 175.713 89.8662 176.418Z" fill="black"/>
<path d="M93.4501 174.137C93.3922 174.113 93.3405 174.076 93.2993 174.028C93.2581 173.98 93.2284 173.923 93.2126 173.861C93.1759 173.611 93.09 173.371 92.9601 173.155C92.8303 172.939 92.6592 172.752 92.457 172.605C92.0207 172.367 91.5177 172.29 91.032 172.385C90.9406 172.405 90.8449 172.389 90.7647 172.34C90.6844 172.291 90.6256 172.212 90.6002 172.12C90.589 172.075 90.5869 172.027 90.5939 171.981C90.6009 171.934 90.6169 171.89 90.6411 171.85C90.6652 171.81 90.697 171.775 90.7344 171.748C90.7719 171.72 90.8144 171.701 90.8593 171.691C91.5327 171.547 92.2344 171.656 92.8348 171.999C93.1212 172.194 93.365 172.448 93.5508 172.743C93.7366 173.039 93.8604 173.371 93.9143 173.718C93.9254 173.764 93.927 173.811 93.9192 173.858C93.9114 173.904 93.8943 173.948 93.869 173.988C93.8436 174.027 93.8106 174.061 93.772 174.086C93.7333 174.112 93.6899 174.129 93.6444 174.137C93.5809 174.155 93.5137 174.155 93.4501 174.137Z" fill="#263238"/>
<path d="M81.6744 170.633C81.6173 170.616 81.5654 170.584 81.5238 170.541C81.4823 170.497 81.4524 170.443 81.4372 170.385C81.422 170.326 81.422 170.264 81.437 170.205C81.4521 170.147 81.4818 170.093 81.5233 170.049C82.0079 169.554 82.6527 169.256 83.3369 169.212C83.6793 169.217 84.0171 169.294 84.3291 169.438C84.6411 169.582 84.9207 169.79 85.1505 170.049C85.1928 170.08 85.2281 170.119 85.2538 170.165C85.2796 170.211 85.2952 170.262 85.2996 170.315C85.304 170.368 85.2971 170.421 85.2793 170.471C85.2615 170.52 85.2332 170.566 85.1966 170.603C85.1599 170.64 85.1156 170.669 85.0669 170.687C85.0182 170.706 84.9662 170.713 84.9145 170.708C84.8628 170.704 84.8127 170.688 84.7677 170.662C84.7227 170.635 84.6838 170.599 84.6539 170.556C84.4899 170.368 84.2908 170.216 84.0684 170.108C83.8459 170 83.6045 169.939 83.3585 169.928C82.8577 169.964 82.3865 170.183 82.0307 170.545C81.9854 170.592 81.9279 170.626 81.8649 170.641C81.8019 170.657 81.7359 170.654 81.6744 170.633Z" fill="#263238"/>
<path d="M87.471 174.468C87.3997 176.013 87.7751 177.546 88.5505 178.875C89.8136 180.914 86.0137 181.134 86.0137 181.134L87.471 174.468Z" fill="#BA4D3C"/>
</g>
<defs>
<clipPath id="clip0_436_4159">
<rect width="469" height="470" fill="white" transform="translate(0 0.5)"/>
</clipPath>
</defs>
</svg>
