<svg width="19" height="21" viewBox="0 0 19 21" fill="none" xmlns="http://www.w3.org/2000/svg">
<path d="M9.29688 10.5C11.9202 10.5 14.0469 8.37335 14.0469 5.75C14.0469 3.12665 11.9202 1 9.29688 1C6.67352 1 4.54688 3.12665 4.54688 5.75C4.54688 8.37335 6.67352 10.5 9.29688 10.5Z" stroke="#3A3A3A" stroke-width="1.5"/>
<path d="M14.048 12.4004H14.3821C15.8194 12.4004 17.0318 13.4707 17.2101 14.8969L17.581 17.8647C17.7228 18.9987 16.8385 20.0004 15.6957 20.0004H2.90027C1.75743 20.0004 0.873202 18.9987 1.01495 17.8647L1.38593 14.8969C1.5642 13.4707 2.7766 12.4004 4.21392 12.4004H4.54799" stroke="#3A3A3A" stroke-width="1.5" stroke-linecap="round" stroke-linejoin="round"/>
</svg>
