<svg width="28" height="19" viewBox="0 0 28 19" fill="none" xmlns="http://www.w3.org/2000/svg">
<path d="M19.0181 0H15.26C14.91 0 14.5731 0.140625 14.315 0.39375L10.0144 4.6125C10.01 4.61719 10.0056 4.62656 10.0013 4.63125C9.275 5.3625 9.28813 6.52969 9.90938 7.25625C10.465 7.90781 11.6331 8.08125 12.3638 7.38281C12.3681 7.37813 12.3769 7.37813 12.3812 7.37344L15.8769 3.94219C16.1612 3.66563 16.6075 3.68438 16.8656 3.98906C17.1281 4.29375 17.1062 4.76719 16.8219 5.04844L15.68 6.16875L22.05 11.7094C22.1769 11.8219 22.2906 11.9438 22.3956 12.0703V3L20.0069 0.440625C19.7487 0.159375 19.39 0 19.0181 0ZM23.8 3.00937V13.5047C23.8 14.3344 24.4256 15.0047 25.2 15.0047H28V3.00937H23.8ZM25.9 13.5047C25.515 13.5047 25.2 13.1672 25.2 12.7547C25.2 12.3422 25.515 12.0047 25.9 12.0047C26.285 12.0047 26.6 12.3422 26.6 12.7547C26.6 13.1672 26.285 13.5047 25.9 13.5047ZM0 15H2.8C3.57437 15 4.2 14.3297 4.2 13.5V3.00937H0V15ZM2.1 12.0047C2.485 12.0047 2.8 12.3422 2.8 12.7547C2.8 13.1672 2.485 13.5047 2.1 13.5047C1.715 13.5047 1.4 13.1672 1.4 12.7547C1.4 12.3375 1.715 12.0047 2.1 12.0047ZM21.1706 12.8766L14.6388 7.19531L13.3263 8.48438C12.0269 9.75469 10.0362 9.63281 8.87687 8.27813C7.7 6.9 7.79187 4.76719 9.06938 3.51094L12.6481 0H8.98188C8.61 0 8.25562 0.159375 7.99312 0.440625L5.6 3V13.4953H6.40063L10.36 17.3344C11.5588 18.3797 13.3219 18.1828 14.2975 16.8984L14.3062 16.8891L15.0894 17.6156C15.785 18.225 16.8131 18.1078 17.3775 17.3625L18.7512 15.5531L18.9875 15.7594C19.5869 16.2797 20.4706 16.1859 20.9562 15.5391L21.3719 14.9906C21.8619 14.3437 21.77 13.4016 21.1706 12.8766Z" fill="#0096FF"/>
</svg>
