<svg width="22" height="22" viewBox="0 0 22 22" fill="none" xmlns="http://www.w3.org/2000/svg">
<path d="M11 21.66C10.5994 21.6581 10.2042 21.5675 9.84277 21.3946C9.48138 21.2217 9.16282 20.9708 8.91003 20.66L8.03003 19.66C7.9039 19.5128 7.74502 19.3972 7.56614 19.3225C7.38727 19.2479 7.19337 19.2162 7.00003 19.23L5.65003 19.35C5.25268 19.3835 4.85279 19.3302 4.47808 19.1938C4.10338 19.0574 3.76283 18.8411 3.48003 18.56C3.19874 18.2769 2.9817 17.9366 2.84366 17.5621C2.70561 17.1877 2.64981 16.7879 2.68003 16.39L2.79003 15C2.79572 14.8111 2.75917 14.6232 2.68305 14.4502C2.60693 14.2772 2.49316 14.1234 2.35003 14L1.35003 13.13C1.0449 12.8728 0.799641 12.552 0.631394 12.1902C0.463148 11.8283 0.375977 11.434 0.375977 11.035C0.375977 10.6359 0.463148 10.2417 0.631394 9.87979C0.799641 9.51792 1.0449 9.19718 1.35003 8.93997L2.35003 8.05998C2.49973 7.92978 2.616 7.76556 2.68909 7.58111C2.76217 7.39666 2.78993 7.19737 2.77003 6.99997L2.65003 5.64998C2.61917 5.25284 2.67371 4.8537 2.80997 4.4794C2.94624 4.1051 3.16107 3.76432 3.44003 3.47998C3.72154 3.19649 4.06163 2.97799 4.43648 2.8398C4.81134 2.70161 5.21187 2.64706 5.61003 2.67998L7.00003 2.78998C7.18934 2.79863 7.3781 2.76342 7.55156 2.6871C7.72502 2.61077 7.87851 2.4954 8.00003 2.34998L8.87003 1.34998C9.1242 1.04075 9.44305 0.790964 9.80413 0.618198C10.1652 0.445431 10.5598 0.353877 10.96 0.349976C11.3607 0.351809 11.7559 0.442446 12.1173 0.615361C12.4787 0.788277 12.7972 1.03917 13.05 1.34998L13.93 2.34998C14.0623 2.49983 14.2283 2.61607 14.4143 2.6891C14.6004 2.76213 14.8011 2.78985 15 2.76998L16.35 2.64998C16.7536 2.61126 17.1608 2.66227 17.5423 2.79935C17.9239 2.93643 18.2704 3.15618 18.5571 3.44287C18.8438 3.72956 19.0636 4.0761 19.2007 4.45766C19.3377 4.83923 19.3887 5.24639 19.35 5.64998L19.21 6.99997C19.2043 7.1889 19.2409 7.37671 19.317 7.54971C19.3931 7.72271 19.5069 7.87654 19.65 7.99997L20.65 8.86997C20.9552 9.12718 21.2004 9.44792 21.3687 9.80979C21.5369 10.1717 21.6241 10.5659 21.6241 10.965C21.6241 11.364 21.5369 11.7583 21.3687 12.1202C21.2004 12.482 20.9552 12.8028 20.65 13.06L19.65 13.94C19.5003 14.0702 19.3841 14.2344 19.311 14.4188C19.2379 14.6033 19.2101 14.8026 19.23 15L19.35 16.35C19.3809 16.7471 19.3263 17.1462 19.1901 17.5205C19.0538 17.8948 18.839 18.2356 18.56 18.52C18.2785 18.8035 17.9384 19.022 17.5636 19.1601C17.1887 19.2983 16.7882 19.3529 16.39 19.32L15 19.21C14.8111 19.2043 14.6233 19.2408 14.4503 19.3169C14.2773 19.3931 14.1235 19.5068 14 19.65L13.13 20.65C12.8759 20.9592 12.557 21.209 12.1959 21.3818C11.8348 21.5545 11.4403 21.6461 11.04 21.65L11 21.66ZM7.10003 17.73C7.50017 17.7346 7.8945 17.8264 8.25548 17.9991C8.61646 18.1718 8.9354 18.4213 9.19003 18.73L10.07 19.73C10.1867 19.8682 10.3322 19.9791 10.4963 20.0552C10.6604 20.1312 10.8392 20.1703 11.02 20.17C11.2105 20.1798 11.4005 20.1441 11.5744 20.0659C11.7483 19.9876 11.9011 19.869 12.02 19.72L12.89 18.72C13.1681 18.3794 13.5241 18.1107 13.9279 17.9366C14.3317 17.7626 14.7715 17.6883 15.21 17.72L16.56 17.82C16.7431 17.84 16.9284 17.818 17.1017 17.7556C17.275 17.6933 17.4317 17.5921 17.56 17.46C17.6898 17.33 17.7894 17.173 17.8516 17.0001C17.9138 16.8273 17.9372 16.6429 17.92 16.46L17.81 15.12C17.7775 14.6813 17.8514 14.2413 18.0255 13.8373C18.1996 13.4334 18.4688 13.0775 18.81 12.8L19.81 11.92C19.9482 11.8033 20.0592 11.6578 20.1352 11.4937C20.2112 11.3296 20.2504 11.1508 20.25 10.97C20.2599 10.7795 20.2242 10.5895 20.1459 10.4156C20.0677 10.2417 19.9491 10.0889 19.8 9.96997L18.8 9.09997C18.4601 8.82134 18.1918 8.46527 18.0178 8.0616C17.8439 7.65794 17.7692 7.21845 17.8 6.77997L17.9 5.42998C17.9154 5.24925 17.891 5.06735 17.8285 4.8971C17.7659 4.72685 17.6668 4.57239 17.5381 4.44461C17.4093 4.31684 17.2541 4.21886 17.0834 4.15758C16.9127 4.09631 16.7306 4.07323 16.55 4.08998L15.21 4.19998C14.7713 4.23338 14.331 4.15984 13.9269 3.98567C13.5228 3.81149 13.167 3.54188 12.89 3.19998L12.01 2.19998C11.8793 2.06822 11.7208 1.96747 11.546 1.90516C11.3711 1.84286 11.1846 1.82058 11 1.83998C10.8096 1.83013 10.6195 1.86581 10.4456 1.94407C10.2717 2.02233 10.119 2.1409 10 2.28998L9.13003 3.28998C8.84978 3.62804 8.49344 3.89492 8.09018 4.06873C7.68693 4.24255 7.24823 4.31837 6.81003 4.28998L5.46003 4.18998C5.27694 4.16991 5.09168 4.19192 4.91839 4.2543C4.74509 4.31669 4.58832 4.41782 4.46003 4.54998C4.33023 4.67997 4.23068 4.83697 4.16845 5.00981C4.10623 5.18265 4.08287 5.36708 4.10003 5.54998L4.21003 6.88997C4.24258 7.32864 4.16865 7.76867 3.99454 8.17261C3.82043 8.57655 3.55128 8.93244 3.21003 9.20997L2.21003 10.09C2.07184 10.2067 1.96086 10.3522 1.88485 10.5163C1.80884 10.6804 1.76965 10.8591 1.77003 11.04C1.76018 11.2304 1.79586 11.4205 1.87412 11.5944C1.95238 11.7683 2.07096 11.921 2.22003 12.04L3.22003 12.91C3.55999 13.1886 3.82821 13.5447 4.00221 13.9483C4.1762 14.352 4.25089 14.7915 4.22003 15.23L4.12003 16.58C4.10463 16.7607 4.12906 16.9426 4.1916 17.1128C4.25414 17.2831 4.35327 17.4376 4.482 17.5653C4.61073 17.6931 4.76592 17.7911 4.93664 17.8524C5.10735 17.9136 5.28943 17.9367 5.47003 17.92L6.81003 17.81L7.10003 17.73Z" fill="#27D863"/>
<path d="M11 14.75C10.0054 14.75 9.05161 14.3549 8.34835 13.6517C7.64509 12.9484 7.25 11.9946 7.25 11C7.25 10.0054 7.64509 9.05161 8.34835 8.34835C9.05161 7.64509 10.0054 7.25 11 7.25C11.9946 7.25 12.9484 7.64509 13.6517 8.34835C14.3549 9.05161 14.75 10.0054 14.75 11C14.75 11.9946 14.3549 12.9484 13.6517 13.6517C12.9484 14.3549 11.9946 14.75 11 14.75ZM11 8.75C10.4033 8.75 9.83097 8.98705 9.40901 9.40901C8.98705 9.83097 8.75 10.4033 8.75 11C8.75 11.5967 8.98705 12.169 9.40901 12.591C9.83097 13.0129 10.4033 13.25 11 13.25C11.5967 13.25 12.169 13.0129 12.591 12.591C13.0129 12.169 13.25 11.5967 13.25 11C13.25 10.4033 13.0129 9.83097 12.591 9.40901C12.169 8.98705 11.5967 8.75 11 8.75Z" fill="#27D863"/>
</svg>
