<svg width="21" height="18" viewBox="0 0 21 18" fill="none" xmlns="http://www.w3.org/2000/svg">
<path d="M19.9137 2H1.55926C1.21425 2 0.722656 1.55195 0.722656 1C0.722656 0.447964 1.15651 0 1.50147 0H19.9137C20.2587 0 20.7227 0.448047 20.7227 1C20.7227 1.55195 20.2587 2 19.9137 2Z" fill="#3A3A3A"/>
<path d="M9.42978 8H19.9697C20.2708 8 20.7227 8.44805 20.7227 9C20.7227 9.55204 20.2707 10 19.9697 10H9.42978C9.12868 10 8.72266 9.55195 8.72266 9C8.72261 8.44796 9.12868 8 9.42978 8Z" fill="#3A3A3A"/>
<path d="M1.54312 16H19.9575C20.3025 16 20.7227 16.448 20.7227 17C20.7227 17.552 20.3025 18 19.9575 18H1.54312C1.19811 18 0.722656 17.552 0.722656 17C0.722656 16.448 1.19811 16 1.54312 16Z" fill="#3A3A3A"/>
</svg>
