<svg width="20" height="16" viewBox="0 0 20 16" fill="none" xmlns="http://www.w3.org/2000/svg">
<path d="M19.6866 1.89444C18.9626 2.21524 18.1849 2.43199 17.3673 2.52997C18.2014 2.03056 18.8412 1.23811 19.143 0.294787C18.3626 0.757776 17.4982 1.09418 16.5783 1.27452C15.8413 0.490734 14.7922 0 13.6304 0C11.4005 0 9.59185 1.80861 9.59185 4.04032C9.59185 4.35591 9.62826 4.66284 9.69589 4.95936C6.33792 4.79029 3.36317 3.18197 1.37076 0.738702C1.02395 1.33695 0.824535 2.03056 0.824535 2.76927C0.824535 4.17037 1.53809 5.40761 2.621 6.13157C1.9586 6.1099 1.33608 5.92869 0.791589 5.6261V5.67812C0.791589 7.63498 2.18316 9.26758 4.03165 9.63867C3.69177 9.73057 3.33543 9.77912 2.96781 9.77912C2.70771 9.77912 2.45367 9.75485 2.20743 9.70803C2.72158 11.312 4.21285 12.4808 5.98071 12.512C4.59781 13.5958 2.85597 14.2417 0.964126 14.2417C0.638126 14.2417 0.316461 14.2226 0 14.1853C1.7878 15.3324 3.91026 16 6.19053 16C13.6209 16 17.6829 9.84588 17.6829 4.50851C17.6829 4.33511 17.6786 4.15997 17.6707 3.98656C18.4597 3.41606 19.1447 2.70597 19.6848 1.89704L19.6866 1.89444Z" fill="white"/>
</svg>
